<?xml version="1.0" standalone="no"?>
<!DOCTYPE svg PUBLIC "-//W3C//DTD SVG 1.1//EN" "http://www.w3.org/Graphics/SVG/1.1/DTD/svg11.dtd" >
<svg xmlns="http://www.w3.org/2000/svg" xmlns:xlink="http://www.w3.org/1999/xlink" version="1.1">
<metadata>
Created by FontForge 20170731 at Fri Mar  3 14:32:56 2017
 By Aleksey,,,
Copyright (c) 2016 by Jakob Runge and Lisa Fischbach, under exclusive license to TypeMates. All rights reserved.
</metadata>
<defs>
<font id="CeraRoundPro-Bold" horiz-adv-x="560" >
  <font-face 
    font-family="Cera Round Pro"
    font-weight="700"
    font-stretch="normal"
    units-per-em="1000"
    panose-1="0 0 8 0 0 0 0 0 0 0"
    ascent="808"
    descent="-192"
    x-height="495"
    cap-height="660"
    bbox="-174 -254 1371 1032.1"
    underline-thickness="87"
    underline-position="-272"
    unicode-range="U+0020-FB02"
  />
<missing-glyph horiz-adv-x="713" 
d="M572 660q28 0 46.5 -19t18.5 -47v-528q0 -28 -18.5 -47t-46.5 -19h-431q-28 0 -46.5 19t-18.5 47v528q0 28 18.5 47t46.5 19h431zM545 77v499h-379z" />
    <glyph glyph-name="fi" unicode="fi" horiz-adv-x="626" 
d="M338 749q34 -15 34 -54q0 -25 -16 -40t-43 -15q-2 0 -7 0.5t-9 0.5q-34 0 -53 -20t-19 -57v-69h62q25 0 41 -16t16 -41t-16 -41t-41 -16h-62v-324q0 -30 -19 -49.5t-48 -19.5t-48.5 20t-19.5 49v324h-22q-25 0 -41.5 16t-16.5 41t16.5 41t41.5 16h22v81q0 88 49 137
t135 49q38 0 64 -13zM492 594q-35 0 -60 23.5t-25 57.5t25 58t60 24q34 0 59 -24t25 -58q0 -33 -25 -57t-59 -24zM492 506q29 0 48 -19.5t19 -48.5v-381q0 -29 -19.5 -49t-48.5 -20q-28 0 -47.5 20t-19.5 49v381q0 29 19.5 48.5t48.5 19.5z" />
    <glyph glyph-name="fl" unicode="fl" horiz-adv-x="626" 
d="M338 749q34 -15 34 -54q0 -25 -16 -40t-43 -15q-2 0 -7 0.5t-9 0.5q-34 0 -53 -20t-19 -57v-69h62q25 0 41 -16t16 -41t-16 -41t-41 -16h-62v-324q0 -30 -19 -49.5t-48 -19.5t-48.5 20t-19.5 49v324h-22q-25 0 -41.5 16t-16.5 41t16.5 41t41.5 16h22v81q0 88 49 137
t135 49q38 0 64 -13zM492 762q28 0 47.5 -20t19.5 -49v-636q0 -29 -19.5 -49t-47.5 -20q-29 0 -48.5 20t-19.5 49v636q0 29 19.5 49t48.5 20z" />
    <glyph glyph-name=".notdef" horiz-adv-x="713" 
d="M572 660q28 0 46.5 -19t18.5 -47v-528q0 -28 -18.5 -47t-46.5 -19h-431q-28 0 -46.5 19t-18.5 47v528q0 28 18.5 47t46.5 19h431zM545 77v499h-379z" />
    <glyph glyph-name=".null" horiz-adv-x="0" 
 />
    <glyph glyph-name="nonmarkingreturn" horiz-adv-x="333" 
 />
    <glyph glyph-name="space" unicode=" " horiz-adv-x="280" 
 />
    <glyph glyph-name="exclam" unicode="!" horiz-adv-x="345" 
d="M173 209q-29 0 -47.5 20t-19.5 49l-11 311q-2 37 19.5 60t58.5 23q36 0 57.5 -23.5t19.5 -59.5l-11 -311q-2 -29 -20 -49t-46 -20zM174 -12q-38 0 -63.5 25t-25.5 62q0 36 25.5 62t63.5 26q37 0 61.5 -25.5t24.5 -62.5t-24.5 -62t-61.5 -25z" />
    <glyph glyph-name="quotedbl" unicode="&#x22;" horiz-adv-x="538" 
d="M125 342q-26 0 -43.5 17.5t-17.5 42.5q0 7 10 63.5t10 105.5q0 38 20 60.5t54 22.5q35 0 55 -22t20 -59q0 -30 -12 -85t-26 -89q-14 -32 -29 -44.5t-41 -12.5zM362 342q-26 0 -43.5 17.5t-17.5 42.5q0 7 10 63.5t10 105.5q0 38 20 60.5t54 22.5q35 0 55 -22t20 -59
q0 -30 -12 -85t-26 -89q-14 -32 -29 -44.5t-41 -12.5z" />
    <glyph glyph-name="numbersign" unicode="#" horiz-adv-x="631" 
d="M555 399h-46l-18 -138h47q21 0 35.5 -16t14.5 -41q0 -24 -16 -40t-41 -16h-56l-15 -115q-3 -19 -19 -32t-36 -13q-23 0 -39 16t-16 39q0 7 1 18l12 87h-144l-16 -115q-2 -19 -18 -32t-36 -13q-23 0 -39.5 16t-16.5 39q0 7 3 22l11 83h-30q-25 0 -41.5 16t-16.5 40
q0 25 16.5 41t41.5 16h46l18 138h-40q-25 0 -41 16t-16 41q0 24 16 40t41 16h55l16 115q2 19 18 31.5t36 12.5q23 0 39 -16t16 -39q0 -6 -1 -16l-12 -88h144l16 115q2 19 18 31.5t37 12.5q23 0 39 -16.5t16 -38.5q0 -6 -2 -16l-12 -88h31q25 0 41 -16t16 -40q0 -25 -16 -41
t-41 -16zM233 255h144l21 150h-144z" />
    <glyph glyph-name="dollar" unicode="$" horiz-adv-x="538" 
d="M493 200q0 -70 -45.5 -116.5t-120.5 -58.5v-71q0 -27 -17 -45t-42 -18t-42 18t-17 44v74q-97 20 -147 92q-13 19 -13 37q0 27 17.5 43t41.5 16t42 -18q52 -58 124 -58q39 0 63 15t24 44q0 24 -18.5 38.5t-58.5 30.5l-68 25q-149 55 -149 174q0 61 39 104.5t103 58.5v69
q0 27 16.5 44.5t42.5 17.5t42.5 -17.5t16.5 -44.5v-67q82 -18 129 -84q13 -19 13 -36q0 -27 -17 -43.5t-41 -16.5t-42 18q-44 47 -98 47q-31 0 -51.5 -12.5t-20.5 -38.5q0 -22 16.5 -35.5t50.5 -27.5l75 -26q152 -56 152 -176z" />
    <glyph glyph-name="percent" unicode="%" horiz-adv-x="831" 
d="M212 343q-72 0 -121 47.5t-49 117.5q0 69 49 116.5t121 47.5q71 0 120.5 -48t49.5 -116q0 -70 -49.5 -117.5t-120.5 -47.5zM246 -12q-20 0 -34 14t-14 34q0 16 7 27l338 584q15 25 42 25q20 0 34 -14t14 -34q0 -16 -7 -27l-338 -584q-13 -25 -42 -25zM213 436
q29 0 47.5 20.5t18.5 51.5q0 30 -19 50.5t-47 20.5q-29 0 -48 -20t-19 -51q0 -32 18.5 -52t48.5 -20zM619 -11q-72 0 -121 48t-49 117t49 116.5t121 47.5q71 0 121 -47.5t50 -116.5t-50 -117t-121 -48zM620 83q28 0 46.5 20t18.5 51t-18.5 51t-46.5 20q-30 0 -48.5 -19.5
t-18.5 -51.5t18.5 -51.5t48.5 -19.5z" />
    <glyph glyph-name="ampersand" unicode="&#x26;" horiz-adv-x="674" 
d="M609 97q19 -17 19 -45q0 -26 -19 -45t-45 -19t-45 19l-57 60q-90 -79 -199 -79q-97 0 -157 51t-60 133q0 53 29 96.5t103 101.5q-57 71 -57 144q0 71 46 114.5t121 43.5q72 0 117.5 -40.5t45.5 -104.5q0 -83 -98 -165l106 -110q30 43 49 71q24 34 58 34q25 0 43 -18.5
t18 -43.5q0 -21 -24 -56q-31 -47 -55 -78zM287 557q-45 0 -45 -44q0 -36 37 -74q29 23 40 39.5t11 35.5q0 43 -43 43zM271 107q53 0 107 50l-122 129q-46 -37 -60.5 -56.5t-14.5 -44.5q0 -35 25 -56.5t65 -21.5z" />
    <glyph glyph-name="quotesingle" unicode="'" horiz-adv-x="301" 
d="M125 342q-26 0 -43.5 17.5t-17.5 42.5q0 7 10 63.5t10 105.5q0 38 20 60.5t54 22.5q35 0 55 -22t20 -59q0 -30 -12 -85t-26 -89q-14 -32 -29 -44.5t-41 -12.5z" />
    <glyph glyph-name="parenleft" unicode="(" horiz-adv-x="365" 
d="M282 -124q-18 0 -35 12q-83 55 -130.5 160t-47.5 255q0 151 47.5 256t130.5 160q19 12 35 12q21 0 36 -15.5t15 -35.5q0 -24 -23 -44q-123 -107 -123 -333q0 -227 123 -332q23 -20 23 -44q0 -21 -15 -36t-36 -15z" />
    <glyph glyph-name="parenright" unicode=")" horiz-adv-x="365" 
d="M83 -127q-21 0 -36 15t-15 36q0 24 23 44q123 105 123 332q0 226 -123 333q-23 20 -23 44q0 20 15 35.5t36 15.5q15 0 35 -12q83 -55 130.5 -160t47.5 -256q0 -150 -47.5 -255t-130.5 -160q-17 -12 -35 -12z" />
    <glyph glyph-name="asterisk" unicode="*" horiz-adv-x="467" 
d="M395 509q26 -14 26 -41q0 -22 -14 -35.5t-32 -13.5q-14 0 -28 8l-66 38v-76q0 -24 -14 -37.5t-33 -13.5q-20 0 -34 13.5t-14 37.5v76l-66 -38q-14 -8 -28 -8q-25 0 -40 24q-6 12 -6 25q0 27 26 41l67 39l-67 38q-26 14 -26 41q0 20 14 34.5t32 14.5q14 0 28 -8l66 -38v76
q0 24 14 37.5t34 13.5q19 0 33 -13.5t14 -37.5v-76l66 38q14 8 28 8q25 0 40 -24q6 -12 6 -25q0 -27 -26 -41l-67 -38z" />
    <glyph glyph-name="plus" unicode="+" 
d="M281 77q-28 0 -46 18.5t-18 47.5v115h-122q-29 0 -45.5 18t-16.5 43q0 26 16.5 43.5t45.5 17.5h122v116q0 28 18 46.5t46 18.5t46.5 -18.5t18.5 -46.5v-116h120q28 0 44.5 -17.5t16.5 -43.5q0 -25 -16.5 -43t-44.5 -18h-120v-115q0 -28 -18.5 -47t-46.5 -19z" />
    <glyph glyph-name="comma" unicode="," horiz-adv-x="270" 
d="M107 -192q-28 0 -46 17.5t-18 43.5q0 8 10 68.5t10 112.5q0 38 20.5 60.5t54.5 22.5q35 0 55 -22t20 -59q0 -31 -12.5 -90t-26.5 -96q-23 -58 -67 -58z" />
    <glyph glyph-name="hyphen" unicode="-" horiz-adv-x="342" 
d="M248 377q25 0 41 -16t16 -40t-16 -40.5t-41 -16.5h-153q-25 0 -41 16.5t-16 40.5t16 40t41 16h153z" />
    <glyph glyph-name="period" unicode="." horiz-adv-x="270" 
d="M136 -12q-40 0 -67 27t-27 66t27 66t67 27q39 0 65.5 -27t26.5 -66t-26.5 -66t-65.5 -27z" />
    <glyph glyph-name="slash" unicode="/" horiz-adv-x="675" 
d="M98 -133q-25 0 -44 18.5t-19 43.5q0 21 13 40l464 781q18 30 53 30q25 0 43.5 -18.5t18.5 -44.5q0 -21 -12 -39l-464 -781q-18 -30 -53 -30z" />
    <glyph glyph-name="zero" unicode="0" horiz-adv-x="635" 
d="M318 672q122 0 191.5 -89.5t69.5 -247.5q0 -161 -70 -254t-191 -93t-191.5 93t-70.5 254q0 158 69.5 247.5t192.5 89.5zM318 547q-123 0 -123 -213q0 -221 123 -221q122 0 122 221q0 213 -122 213z" />
    <glyph glyph-name="one" unicode="1" horiz-adv-x="401" 
d="M245 672q27 0 46 -20t19 -48v-547q0 -32 -18 -50.5t-50 -18.5t-49.5 18.5t-17.5 50.5v451l-64 -28q-16 -7 -31 -7q-26 0 -44 18.5t-18 45.5q0 42 42 59l150 68q24 8 35 8z" />
    <glyph glyph-name="two" unicode="2" horiz-adv-x="584" 
d="M471 127q28 0 47 -18t19 -45q0 -28 -18.5 -46t-47.5 -18l-359 -1q-28 0 -47.5 19.5t-19.5 47.5q0 32 28 56l202 171q55 47 77 81.5t22 75.5q0 44 -25 70.5t-66 26.5q-37 0 -61.5 -22.5t-29.5 -60.5q-1 -5 -2.5 -15t-1.5 -14q-4 -27 -22.5 -43t-44.5 -16q-27 0 -46 18.5
t-21 47.5q-3 19 2 50q14 79 78 129.5t153 50.5q98 0 162 -61t64 -154q0 -65 -36 -122.5t-121 -128.5l-94 -79h209z" />
    <glyph glyph-name="three" unicode="3" horiz-adv-x="549" 
d="M332 417q76 -13 124 -68.5t48 -132.5q0 -98 -71 -163t-178 -65q-137 0 -216 108q-11 17 -11 36q0 25 18 43t44 18q27 0 44 -20q51 -60 117 -60q51 0 83 28t32 74q0 95 -135 95h-20q-27 0 -45 17.5t-18 44.5q0 28 32 55l123 111h-191q-26 0 -44 17.5t-18 43.5t18 43.5
t44 17.5h312q28 0 47.5 -20t19.5 -47q0 -31 -29 -56z" />
    <glyph glyph-name="four" unicode="4" horiz-adv-x="577" 
d="M506 233q29 0 46.5 -19t17.5 -44t-17.5 -43.5t-46.5 -18.5h-27v-51q0 -29 -19.5 -49t-48.5 -20q-28 0 -47.5 20t-19.5 49v51h-261q-28 0 -47.5 19.5t-19.5 47.5q0 14 6 29l185 424q9 19 26 31.5t37 12.5q28 0 48 -20t20 -48q0 -11 -5 -24l-150 -347h161v110q0 29 19 48.5
t48 19.5t48.5 -19.5t19.5 -48.5v-110h27z" />
    <glyph glyph-name="five" unicode="5" horiz-adv-x="564" 
d="M290 426q97 0 163 -57.5t66 -151.5q0 -100 -73 -164.5t-180 -64.5q-142 0 -221 107q-12 17 -12 37q0 26 18.5 44t44.5 18q28 0 45 -20q51 -61 121 -61q52 0 85 28t33 74q0 95 -135 95h-86q-29 0 -48.5 19.5t-19.5 48.5v214q0 29 19.5 48.5t48.5 19.5h264q27 0 44.5 -17.5
t17.5 -43.5t-17.5 -43.5t-44.5 -17.5h-202v-112h69z" />
    <glyph glyph-name="six" unicode="6" horiz-adv-x="562" 
d="M316 448q86 -5 146.5 -70t60.5 -154q0 -98 -70.5 -167t-171.5 -69q-102 0 -172.5 69t-70.5 168q0 55 26.5 108t88.5 124l153 181q31 34 61 34q28 0 47.5 -18.5t19.5 -44.5q0 -24 -20 -46zM281 112q46 0 77.5 32.5t31.5 79.5t-31.5 79t-77.5 32t-77.5 -32t-31.5 -79
t31.5 -79.5t77.5 -32.5z" />
    <glyph glyph-name="seven" unicode="7" horiz-adv-x="525" 
d="M434 660q28 0 48 -20t20 -47q0 -19 -8 -32l-300 -539q-20 -34 -58 -34q-28 0 -48 20t-20 48q0 15 9 33l251 449h-227q-27 0 -45 17.5t-18 43.5t18 43.5t45 17.5h333z" />
    <glyph glyph-name="eight" unicode="8" horiz-adv-x="588" 
d="M413 342q128 -53 128 -166q0 -86 -68.5 -137t-178.5 -51t-179 51t-69 137q0 114 130 166q-100 58 -100 155q0 82 61.5 128.5t156.5 46.5t156.5 -46.5t61.5 -128.5q0 -98 -99 -155zM294 563q-40 0 -66 -19t-26 -53q0 -30 22.5 -50t69.5 -42q47 22 69.5 42t22.5 51
q0 33 -26 52t-66 19zM294 98q55 0 84 23t29 60q0 38 -28 61t-85 43q-57 -21 -85 -44t-28 -60t29 -60t84 -23z" />
    <glyph glyph-name="nine" unicode="9" horiz-adv-x="562" 
d="M281 672q102 0 172.5 -69t70.5 -168q0 -55 -26.5 -108t-88.5 -124l-153 -181q-31 -34 -61 -34q-28 0 -47.5 18.5t-19.5 44.5q0 24 20 46l98 115q-86 5 -146.5 70t-60.5 154q0 98 70.5 167t171.5 69zM281 325q46 0 77.5 32t31.5 79t-31.5 79.5t-77.5 32.5t-77.5 -32.5
t-31.5 -79.5t31.5 -79t77.5 -32z" />
    <glyph glyph-name="colon" unicode=":" horiz-adv-x="270" 
d="M136 318q-40 0 -67 27t-27 66t27 66t67 27q39 0 65.5 -27t26.5 -66t-26.5 -66t-65.5 -27zM136 -12q-40 0 -67 27t-27 66t27 66t67 27q39 0 65.5 -27t26.5 -66t-26.5 -66t-65.5 -27z" />
    <glyph glyph-name="semicolon" unicode=";" horiz-adv-x="270" 
d="M136 318q-40 0 -67 27t-27 66t27 66t67 27q39 0 65.5 -27t26.5 -66t-26.5 -66t-65.5 -27zM107 -192q-28 0 -46 17.5t-18 43.5q0 8 10 68.5t10 112.5q0 38 20.5 60.5t54.5 22.5q35 0 55 -22t20 -59q0 -31 -12.5 -90t-26.5 -96q-23 -58 -67 -58z" />
    <glyph glyph-name="less" unicode="&#x3c;" 
d="M471 219q39 -19 39 -53q0 -23 -16.5 -39.5t-40.5 -16.5q-12 0 -30 7l-341 148q-45 20 -45 57q0 36 45 56l336 146q22 10 35 10q24 0 40.5 -16.5t16.5 -39.5q0 -35 -39 -54l-231 -102z" />
    <glyph glyph-name="equal" unicode="=" 
d="M456 485q25 0 41.5 -16t16.5 -41t-16.5 -41t-41.5 -16h-351q-25 0 -41.5 16t-16.5 41t16.5 41t41.5 16h351zM456 270q25 0 41.5 -16.5t16.5 -40.5q0 -25 -16.5 -41t-41.5 -16h-351q-25 0 -41.5 16t-16.5 41q0 24 16.5 40.5t41.5 16.5h351z" />
    <glyph glyph-name="greater" unicode="&#x3e;" 
d="M478 378q45 -20 45 -56q0 -37 -45 -57l-341 -148q-18 -7 -30 -7q-24 0 -40.5 16.5t-16.5 39.5q0 34 39 53l231 103l-231 102q-39 19 -39 54q0 23 16.5 39.5t40.5 16.5q13 0 35 -10z" />
    <glyph glyph-name="question" unicode="?" horiz-adv-x="452" 
d="M202 210q-26 0 -45 17t-19 42v10q0 29 15 52.5t59 64.5q39 35 51.5 53t12.5 39q0 25 -17 42.5t-42 17.5q-43 0 -69 -47q-25 -35 -56 -35q-25 0 -42.5 17.5t-17.5 43.5q0 19 14 44q53 101 175 101q83 0 139 -48t56 -119q0 -70 -81 -138q-39 -34 -54 -55t-16 -42l-1 -9
q-2 -22 -19.5 -36.5t-42.5 -14.5zM205 -12q-38 0 -63.5 25t-25.5 62q0 36 25.5 62t63.5 26q37 0 61.5 -25.5t24.5 -62.5t-24.5 -62t-61.5 -25z" />
    <glyph glyph-name="at" unicode="@" horiz-adv-x="953" 
d="M490 666q183 0 303.5 -114t120.5 -288q0 -99 -54 -161.5t-139 -62.5q-96 0 -127 67q-38 -88 -147 -88q-88 0 -144.5 61.5t-56.5 156.5t56.5 156t144.5 61q85 0 129 -57q2 23 18 39t39 16q24 0 40 -17t16 -42v-203q0 -46 46 -46q31 0 52 34.5t21 85.5q0 137 -85.5 218
t-229.5 81q-152 0 -249 -90.5t-97 -232.5q0 -140 94 -230.5t239 -90.5q18 0 47 4t40 5q22 2 38 -11.5t17 -34.5q1 -18 -8.5 -32t-25.5 -19q-59 -15 -122 -15q-182 0 -305 121t-123 301q0 182 129.5 305t322.5 123zM471 131q44 0 71 29.5t27 76.5t-27 76.5t-70 29.5
q-44 0 -72.5 -30t-28.5 -76t28.5 -76t71.5 -30z" />
    <glyph glyph-name="A" unicode="A" horiz-adv-x="662" 
d="M620 89q8 -19 8 -36q0 -27 -19 -46t-47 -19q-44 0 -64 48l-28 68h-279l-28 -68q-19 -48 -63 -48q-28 0 -47.5 19t-19.5 46q0 14 8 36l226 537q18 46 64 46t64 -46zM331 473l-96 -258h190z" />
    <glyph glyph-name="B" unicode="B" horiz-adv-x="620" 
d="M469 357q56 -20 87 -62t31 -101q0 -85 -61 -139.5t-157 -54.5h-225q-30 0 -49.5 19.5t-19.5 49.5v522q0 30 19.5 49.5t49.5 19.5h165q92 0 150.5 -51t58.5 -133q0 -73 -49 -119zM299 544h-93v-151h93q40 0 63 20.5t23 55.5t-23 55t-63 20zM359 116q44 0 69 21.5t25 61.5
q0 39 -25 61t-69 22h-153v-166h153z" />
    <glyph glyph-name="C" unicode="C" horiz-adv-x="720" 
d="M389 -12q-148 0 -249.5 99t-101.5 243t102 243t250 99q76 0 143.5 -30.5t111.5 -83.5q21 -24 21 -50q0 -25 -18.5 -43t-44.5 -18q-29 0 -52 26q-64 74 -161 74q-93 0 -153 -61.5t-60 -156.5q0 -94 60 -155t153 -61q95 0 160 74q24 26 53 26q26 0 44 -18t18 -43t-21 -50
q-44 -53 -111.5 -83.5t-143.5 -30.5z" />
    <glyph glyph-name="D" unicode="D" horiz-adv-x="690" 
d="M292 660q161 0 260 -90.5t99 -237.5t-100.5 -239.5t-258.5 -92.5h-148q-30 0 -49.5 19.5t-19.5 49.5v522q0 30 19.5 49.5t49.5 19.5h148zM291 538h-81v-416h81q100 0 161 57.5t61 152.5t-59.5 150.5t-162.5 55.5z" />
    <glyph glyph-name="E" unicode="E" horiz-adv-x="572" 
d="M142 0q-28 0 -47.5 19t-19.5 48v526q0 29 19.5 48t47.5 19h323q27 0 44.5 -17.5t17.5 -43.5t-18 -43.5t-44 -17.5h-255v-134h175q25 0 42 -16.5t17 -41.5q0 -24 -17 -40.5t-42 -16.5h-175v-167h267q27 0 44.5 -17.5t17.5 -43.5t-18 -43.5t-44 -17.5h-335z" />
    <glyph glyph-name="F" unicode="F" horiz-adv-x="534" 
d="M143 -12q-30 0 -49 19.5t-19 49.5v534q0 30 19.5 49.5t49.5 19.5h311q27 0 44.5 -17.5t17.5 -43.5t-18 -43.5t-44 -17.5h-245v-165h191q27 0 44.5 -17.5t17.5 -43.5t-18 -43.5t-44 -17.5h-191v-194q0 -29 -19 -49t-48 -20z" />
    <glyph glyph-name="G" unicode="G" horiz-adv-x="747" 
d="M391 -12q-149 0 -251 98.5t-102 243.5t102 243.5t251 98.5q67 0 130 -25t104 -68q41 -38 41 -71q0 -25 -18.5 -43t-43.5 -18q-30 0 -57 30q-66 70 -158 70q-94 0 -153 -60t-59 -157q0 -98 61 -159.5t159 -61.5q114 0 174 79v57h-126q-27 0 -45 16.5t-18 41.5t18 42t45 17
h192q30 0 49.5 -19.5t19.5 -49.5v-85q0 -43 -21 -75q-45 -66 -125.5 -105.5t-168.5 -39.5z" />
    <glyph glyph-name="H" unicode="H" horiz-adv-x="712" 
d="M143 -12q-29 0 -48.5 20t-19.5 50v544q0 30 19 50t49 20q29 0 48 -20t19 -50v-195h292v196q0 30 19 49.5t49 19.5q29 0 48 -19.5t19 -49.5v-545q0 -30 -19 -50t-48 -20t-48.5 20t-19.5 50v227h-292v-227q0 -30 -19 -50t-48 -20z" />
    <glyph glyph-name="I" unicode="I" horiz-adv-x="285" 
d="M143 -12q-30 0 -49 19.5t-19 49.5v546q0 30 19 49.5t49 19.5q29 0 48 -20t19 -49v-546q0 -29 -19 -49t-48 -20z" />
    <glyph glyph-name="J" unicode="J" horiz-adv-x="388" 
d="M106 -12q-38 0 -62 9q-39 17 -39 57q0 26 18 43t45 17q8 0 23.5 -1.5t24.5 -1.5q29 0 45.5 17.5t16.5 48.5v426q0 30 19 49.5t49 19.5q29 0 48 -20t19 -49v-427q0 -188 -207 -188z" />
    <glyph glyph-name="K" unicode="K" horiz-adv-x="670" 
d="M143 672q28 0 47.5 -20t19.5 -49v-546q0 -29 -19.5 -49t-47.5 -20q-29 0 -48.5 20t-19.5 49v546q0 30 19 49.5t49 19.5zM606 93q17 -20 17 -41q0 -26 -19 -45t-44 -19q-31 0 -54 28l-251 289q-18 21 -18 45q0 22 19 43l238 257q22 22 49 22q25 0 43 -18.5t18 -44.5
q0 -24 -20 -45l-199 -215z" />
    <glyph glyph-name="L" unicode="L" horiz-adv-x="523" 
d="M144 0q-30 0 -49.5 19.5t-19.5 49.5v534q0 28 19.5 48.5t48.5 20.5t48 -20t19 -49v-481h235q27 0 44.5 -17.5t17.5 -43.5t-17.5 -43.5t-44.5 -17.5h-301z" />
    <glyph glyph-name="M" unicode="M" horiz-adv-x="796" 
d="M655 672q28 0 47 -20t19 -50v-545q0 -29 -19.5 -49t-47.5 -20q-29 0 -48.5 20t-19.5 49v326l-124 -195q-27 -43 -64 -43t-64 43l-124 197v-328q0 -29 -19.5 -49t-47.5 -20q-29 0 -48.5 20t-19.5 49v545q0 30 19 50t47 20q40 0 71 -52l186 -295l186 295q18 29 33.5 40.5
t37.5 11.5z" />
    <glyph glyph-name="N" unicode="N" horiz-adv-x="712" 
d="M570 672q28 0 47.5 -20t19.5 -49v-547q0 -29 -19 -48.5t-47 -19.5q-16 0 -29 6.5t-19.5 13.5t-18.5 21l-294 378v-350q0 -29 -19.5 -49t-47.5 -20q-29 0 -48.5 20t-19.5 49v547q0 29 19 48.5t47 19.5q16 0 29 -6.5t20 -14t20 -23.5l293 -375l-1 350q0 29 19.5 49t48.5 20
z" />
    <glyph glyph-name="O" unicode="O" horiz-adv-x="778" 
d="M388 672q148 0 250 -99.5t102 -242.5t-102 -242.5t-250 -99.5t-249 99t-101 243t101.5 243t248.5 99zM389 547q-93 0 -152.5 -61t-59.5 -156t59.5 -156t152.5 -61q92 0 152 61.5t60 155.5t-60 155.5t-152 61.5z" />
    <glyph glyph-name="P" unicode="P" horiz-adv-x="593" 
d="M143 -12q-29 0 -48.5 20t-19.5 49v534q0 30 19.5 49.5t49.5 19.5h180q106 0 171.5 -59t65.5 -154q0 -94 -66.5 -154t-170.5 -60h-114v-176q0 -29 -19.5 -49t-47.5 -20zM210 351h113q46 0 73 26t27 70q0 43 -27 68.5t-73 25.5h-113v-190z" />
    <glyph glyph-name="Q" unicode="Q" horiz-adv-x="778" 
d="M1010 -104q26 0 41.5 -14t15.5 -39q0 -37 -36 -50q-34 -14 -93 -14q-136 0 -249 58t-190 168q-54 -17 -111 -17q-148 0 -249 99t-101 243t101.5 243t248.5 99q148 0 250 -99.5t102 -242.5q0 -80 -34.5 -149.5t-94.5 -116.5q67 -88 152 -129t198 -41q13 0 29 1t20 1z
M177 330q0 -95 59.5 -156t152.5 -61q92 0 152 61.5t60 155.5q0 95 -60 156t-153 61q-92 0 -151.5 -61t-59.5 -156z" />
    <glyph glyph-name="R" unicode="R" horiz-adv-x="640" 
d="M577 101q19 -28 19 -51q0 -25 -18.5 -43.5t-44.5 -18.5q-36 0 -60 35l-148 210h-1h-114v-176q0 -29 -19.5 -49t-47.5 -20q-29 0 -48.5 20t-19.5 49v535q0 29 19.5 48.5t49.5 19.5h180q106 0 171.5 -58.5t65.5 -153.5q0 -122 -103 -182zM210 541v-189h113q46 0 73 25.5
t27 69.5q0 43 -27 68.5t-73 25.5h-113z" />
    <glyph glyph-name="S" unicode="S" horiz-adv-x="559" 
d="M285 -12q-59 0 -117.5 24.5t-95.5 64.5q-25 25 -25 52q1 26 19 43t43 17q21 0 35 -13q66 -68 141 -68q44 0 69 19.5t25 53.5q0 27 -17.5 43.5t-66.5 38.5l-71 32q-81 37 -120.5 82.5t-39.5 107.5q0 83 62 135t157 52q117 0 185 -78q18 -19 18 -43q0 -25 -19 -42.5
t-43 -17.5q-20 0 -37 14q-53 47 -104 47q-37 0 -59.5 -17t-22.5 -47q0 -24 16 -39.5t61 -36.5l75 -33q85 -38 124 -82.5t39 -110.5q0 -90 -65 -144t-166 -54z" />
    <glyph glyph-name="T" unicode="T" horiz-adv-x="585" 
d="M292 -12q-28 0 -47.5 20t-19.5 49v481h-157q-26 0 -44 17.5t-18 43.5t18 43.5t44 17.5h449q27 0 44.5 -17.5t17.5 -43.5t-18 -43.5t-44 -17.5h-157v-481q0 -29 -19.5 -49t-48.5 -20z" />
    <glyph glyph-name="U" unicode="U" horiz-adv-x="700" 
d="M350 -12q-125 0 -202.5 79t-77.5 206v330q0 29 19.5 49t48.5 20q28 0 47.5 -20t19.5 -49v-340q0 -69 39 -109.5t106 -40.5t106 40.5t39 109.5v340q0 29 19.5 49t48.5 20q28 0 47.5 -20t19.5 -49v-330q0 -127 -77.5 -206t-202.5 -79z" />
    <glyph glyph-name="V" unicode="V" horiz-adv-x="662" 
d="M562 672q28 0 47 -19t19 -46q0 -21 -8 -36l-225 -537q-19 -46 -64 -46q-46 0 -64 46l-226 537q-8 18 -8 36q0 27 19.5 46t47.5 19q44 0 63 -48l168 -413l167 413q20 48 64 48z" />
    <glyph glyph-name="W" unicode="W" horiz-adv-x="1036" 
d="M930 672q28 0 47.5 -19.5t19.5 -47.5q0 -15 -7 -33l-202 -538q-17 -46 -63 -46t-63 46l-144 399l-144 -399q-17 -46 -62 -46q-47 0 -64 46l-202 538q-8 19 -8 33q0 28 20 47.5t48 19.5q47 0 62 -44l145 -402l139 395q18 51 66 51t66 -51l140 -395l143 401q16 45 63 45z
" />
    <glyph glyph-name="X" unicode="X" horiz-adv-x="613" 
d="M556 100q18 -26 18 -47q0 -26 -19.5 -45.5t-47.5 -19.5q-33 0 -54 29l-146 207l-147 -207q-21 -29 -55 -29q-27 0 -46.5 19.5t-19.5 46.5q0 21 19 49l167 233l-153 221q-19 28 -19 52q0 26 19.5 44.5t46.5 18.5q35 0 56 -30l132 -194l135 193q22 31 56 31q28 0 47 -19
t19 -45q0 -25 -20 -54l-155 -218z" />
    <glyph glyph-name="Y" unicode="Y" horiz-adv-x="625" 
d="M584 607q0 -23 -14 -44l-190 -312v-194q0 -29 -19.5 -49t-48.5 -20q-28 0 -47.5 20t-19.5 49v194l-189 312q-15 22 -15 45q0 27 19 45.5t47 18.5q41 0 64 -40l142 -246l142 246q22 40 63 40q28 0 47 -18.5t19 -46.5z" />
    <glyph glyph-name="Z" unicode="Z" horiz-adv-x="588" 
d="M506 122q27 0 44.5 -17.5t17.5 -43.5t-18 -43.5t-44 -17.5h-423q-27 0 -45 17.5t-18 43.5q0 18 18 42l334 435h-254q-27 0 -45 17.5t-18 43.5t18 43.5t45 17.5h379q26 0 44 -17.5t18 -43.5q0 -19 -17 -43l-334 -434h298z" />
    <glyph glyph-name="bracketleft" unicode="[" horiz-adv-x="363" 
d="M272 730q24 0 39.5 -16t15.5 -39t-15.5 -38.5t-39.5 -15.5h-67v-642h67q24 0 39.5 -16t15.5 -39t-15.5 -38.5t-39.5 -15.5h-124q-25 0 -41.5 16.5t-16.5 41.5v743q0 25 16.5 42t41.5 17h124z" />
    <glyph glyph-name="backslash" unicode="\" horiz-adv-x="675" 
d="M571 -133q-35 0 -53 30l-464 781q-12 18 -12 39q0 26 18.5 44.5t43.5 18.5q35 0 53 -30l464 -781q13 -19 13 -40q0 -25 -19 -43.5t-44 -18.5z" />
    <glyph glyph-name="bracketright" unicode="]" horiz-adv-x="357" 
d="M209 730q26 0 42.5 -17t16.5 -43v-741q0 -25 -17 -42t-42 -17h-116q-24 0 -39.5 15.5t-15.5 38.5t15.5 39t39.5 16h59v642h-59q-24 0 -39.5 15.5t-15.5 38.5t15.5 39t39.5 16h116z" />
    <glyph glyph-name="asciicircum" unicode="^" horiz-adv-x="535" 
d="M131 270q-26 0 -45 18.5t-19 45.5q0 13 11 34l132 266q18 37 57 37t58 -37l132 -266q10 -19 10 -34q0 -27 -18.5 -45.5t-45.5 -18.5q-39 0 -55 33l-81 163l-81 -163q-16 -33 -55 -33z" />
    <glyph glyph-name="underscore" unicode="_" horiz-adv-x="502" 
d="M419 -65q24 0 40 -15t16 -38t-16 -38t-40 -15h-335q-24 0 -40 15t-16 38t16 38t40 15h335z" />
    <glyph glyph-name="grave" unicode="`" horiz-adv-x="295" 
d="M182 562q-32 -2 -53 31l-62 103q-11 18 -11 37q0 28 19 48t48 20q19 0 36.5 -10.5t25.5 -28.5l47 -107q8 -18 8 -30q2 -24 -14 -43t-44 -20z" />
    <glyph glyph-name="a" unicode="a" horiz-adv-x="545" 
d="M268 506q102 0 158 -55.5t56 -156.5v-238q0 -29 -18.5 -48t-46.5 -19q-24 0 -42 14.5t-23 37.5q-56 -53 -145 -53q-76 0 -123.5 41t-47.5 107q0 67 50 105.5t137 38.5h124v22q0 41 -24 64t-69 23q-52 0 -95 -37q-21 -16 -40 -16q-25 0 -41.5 16t-16.5 39q0 28 28 54
q66 61 179 61zM243 87q44 0 74 28t30 70v6h-106q-69 0 -69 -50q0 -25 19 -39.5t52 -14.5z" />
    <glyph glyph-name="b" unicode="b" horiz-adv-x="629" 
d="M350 506q104 0 172 -73t68 -186t-68 -186t-172 -73q-97 0 -151 63q-2 -28 -20.5 -45.5t-44.5 -17.5q-28 0 -47.5 20t-19.5 49v636q0 29 19.5 49t48.5 20t48 -19.5t19 -49.5v-246q54 59 148 59zM325 111q56 0 92 38.5t36 98.5q0 59 -36.5 97.5t-91.5 38.5t-90 -38t-35 -99
t34.5 -98.5t90.5 -37.5z" />
    <glyph glyph-name="c" unicode="c" horiz-adv-x="552" 
d="M304 -12q-112 0 -188.5 75.5t-76.5 184.5t76.5 183.5t188.5 74.5q62 0 116.5 -27t83.5 -71q12 -19 12 -36q0 -25 -17.5 -42.5t-42.5 -17.5q-29 0 -46 21q-42 50 -104 50q-57 0 -93.5 -38t-36.5 -97q0 -60 36.5 -98t93.5 -38q59 0 104 50q18 21 46 21q25 0 42.5 -17.5
t17.5 -42.5q0 -17 -11 -34q-66 -101 -201 -101z" />
    <glyph glyph-name="d" unicode="d" horiz-adv-x="629" 
d="M495 762q29 0 48 -19.5t19 -49.5v-637q0 -29 -19 -48.5t-47 -19.5q-26 0 -45 18.5t-21 44.5q-54 -63 -151 -63q-104 0 -172 73t-68 186t68 186t172 73q94 0 148 -59v246q0 29 19.5 49t48.5 20zM304 111q56 0 90.5 37.5t34.5 98.5t-35 99t-90 38t-91.5 -38.5t-36.5 -97.5
q0 -60 36 -98.5t92 -38.5z" />
    <glyph glyph-name="e" unicode="e" horiz-adv-x="569" 
d="M296 506q101 0 168 -66t67 -166v-3q0 -31 -20.5 -50t-53.5 -19h-282q12 -47 48 -72.5t91 -25.5q57 0 103 29q15 9 29 9q23 0 39 -15.5t16 -38.5q0 -31 -34 -54q-69 -46 -157 -46q-117 0 -194 74t-77 185q0 110 74 184.5t183 74.5zM293 397q-44 0 -75.5 -27t-42.5 -73h225
q-2 45 -31 72.5t-76 27.5z" />
    <glyph glyph-name="f" unicode="f" horiz-adv-x="342" 
d="M297 641q-34 0 -53 -20t-19 -57v-69h62q25 0 41 -16t16 -41t-16 -41t-41 -16h-62v-324q0 -30 -19 -49.5t-48 -19.5t-48.5 20t-19.5 49v324h-22q-25 0 -41.5 16t-16.5 41t16.5 41t41.5 16h22v81q0 88 49 137t135 49q38 0 64 -13q34 -15 34 -54q0 -25 -16 -40t-43 -15
q-2 0 -7 0.5t-9 0.5z" />
    <glyph glyph-name="g" unicode="g" horiz-adv-x="631" 
d="M498 506q28 0 47 -19.5t19 -48.5v-383q0 -117 -67.5 -182t-188.5 -65q-126 0 -213 69q-28 20 -28 49q0 26 17.5 43.5t43.5 17.5q16 0 36 -13q63 -44 133 -44q62 0 97 31t35 86v27q-54 -59 -151 -59q-104 0 -170.5 69t-66.5 177t66.5 176.5t170.5 68.5q100 0 154 -63
q1 27 20.5 45t45.5 18zM306 129q56 0 90.5 37t34.5 97q0 58 -34 93t-91 35q-56 0 -92 -36t-36 -93q0 -58 36 -95.5t92 -37.5z" />
    <glyph glyph-name="h" unicode="h" horiz-adv-x="585" 
d="M338 506q83 0 133.5 -54.5t50.5 -144.5v-250q0 -30 -19 -49.5t-48 -19.5q-28 0 -47.5 20t-19.5 49v231q0 43 -25.5 69.5t-66.5 26.5t-67.5 -26.5t-26.5 -69.5v-231q0 -30 -19 -49.5t-48 -19.5t-48.5 20t-19.5 49v636q0 29 19.5 49t48.5 20t48 -19.5t19 -49.5v-241
q54 54 136 54z" />
    <glyph glyph-name="i" unicode="i" horiz-adv-x="269" 
d="M135 757q34 0 59 -24t25 -58q0 -33 -25 -57t-59 -24q-35 0 -60 23.5t-25 57.5t25 58t60 24zM134 -12q-28 0 -47.5 20t-19.5 49v381q0 29 19.5 48.5t48.5 19.5t48 -19.5t19 -48.5v-381q0 -29 -19.5 -49t-48.5 -20z" />
    <glyph glyph-name="j" unicode="j" horiz-adv-x="269" 
d="M135 757q34 0 59 -24t25 -58q0 -33 -25 -57t-59 -24q-35 0 -60 23.5t-25 57.5t25 58t60 24zM17 -192q-28 0 -55 9q-41 16 -41 55q0 25 16 41.5t41 16.5q2 0 6 -0.5t7 -0.5q40 0 58 19.5t18 69.5v420q0 29 19.5 48.5t48.5 19.5t48 -19.5t19 -48.5v-444q0 -90 -49.5 -138
t-135.5 -48z" />
    <glyph glyph-name="k" unicode="k" 
d="M135 762q29 0 48 -19.5t19 -49.5v-636q0 -30 -19 -49.5t-48 -19.5t-48.5 20t-19.5 49v636q0 29 19.5 49t48.5 20zM509 92q16 -20 16 -42q0 -26 -17.5 -44t-43.5 -18q-31 0 -50 25l-169 208q-21 28 -21 49q0 23 24 50l158 165q20 21 47 21q26 0 44 -17.5t18 -42.5
q0 -26 -22 -48l-126 -128z" />
    <glyph glyph-name="l" unicode="l" horiz-adv-x="269" 
d="M135 -12q-29 0 -48.5 20t-19.5 49v636q0 29 19.5 49t48.5 20q28 0 47.5 -20t19.5 -49v-636q0 -29 -19.5 -49t-47.5 -20z" />
    <glyph glyph-name="m" unicode="m" horiz-adv-x="892" 
d="M643 506q86 0 136.5 -53.5t50.5 -145.5v-250q0 -30 -19 -49.5t-48 -19.5t-48.5 20t-19.5 49v231q0 44 -23.5 70t-64.5 26q-40 0 -65.5 -26t-25.5 -67v-234q0 -30 -19 -49.5t-48 -19.5t-48.5 20t-19.5 49v231q0 44 -24 70t-64 26q-41 0 -66 -26t-25 -70v-231
q0 -30 -19 -49.5t-48 -19.5t-48.5 20t-19.5 49v381q0 29 19 48.5t48 19.5q23 0 40 -13.5t23 -36.5q53 50 134 50q98 0 147 -71q63 71 165 71z" />
    <glyph glyph-name="n" unicode="n" horiz-adv-x="585" 
d="M336 506q85 0 135.5 -54t50.5 -145v-250q0 -30 -19 -49.5t-48 -19.5q-28 0 -47.5 20t-19.5 49v232q0 43 -25.5 69.5t-66.5 26.5t-67.5 -27t-26.5 -69v-232q0 -30 -19 -49.5t-48 -19.5t-48.5 20t-19.5 49v381q0 29 19 48.5t48 19.5q23 0 40.5 -14t22.5 -37q56 51 139 51z
" />
    <glyph glyph-name="o" unicode="o" horiz-adv-x="608" 
d="M304 506q111 0 188.5 -75t77.5 -183t-77.5 -183.5t-189.5 -75.5q-111 0 -187.5 75t-76.5 184t76.5 183.5t188.5 74.5zM304 383q-56 0 -92 -38.5t-36 -97.5q0 -58 36 -96t92 -38q55 0 91.5 38t36.5 96t-36.5 97t-91.5 39z" />
    <glyph glyph-name="p" unicode="p" horiz-adv-x="629" 
d="M350 506q104 0 172 -73t68 -185q0 -113 -68 -186.5t-172 -73.5q-94 0 -148 60v-172q0 -29 -19 -48.5t-48 -19.5t-48.5 19.5t-19.5 48.5v564q0 28 19.5 47.5t47.5 19.5q27 0 45 -18t20 -46q54 63 151 63zM325 111q56 0 92 38.5t36 97.5q0 60 -36 98.5t-92 38.5
t-90.5 -37.5t-34.5 -98.5t35 -99t90 -38z" />
    <glyph glyph-name="q" unicode="q" horiz-adv-x="629" 
d="M496 506q28 0 47 -19.5t19 -48.5v-562q0 -29 -19 -48.5t-48 -19.5t-48.5 19.5t-19.5 48.5v172q-54 -60 -148 -60q-104 0 -172 73.5t-68 186.5q0 112 68 185t172 73q97 0 151 -63q2 27 21 45t45 18zM304 111q55 0 90 38t35 99t-34.5 98.5t-90.5 37.5t-92 -38.5t-36 -98.5
q0 -59 36 -97.5t92 -38.5z" />
    <glyph glyph-name="r" unicode="r" horiz-adv-x="388" 
d="M320 501q27 0 44 -16.5t17 -44.5q0 -27 -17 -44.5t-46 -20.5q-54 -4 -85 -37.5t-31 -90.5v-190q0 -30 -19 -49.5t-48 -19.5t-48.5 20t-19.5 49v381q0 29 19 48.5t48 19.5q26 0 44.5 -17.5t20.5 -43.5q50 56 121 56z" />
    <glyph glyph-name="s" unicode="s" horiz-adv-x="455" 
d="M227 -12q-109 0 -182 71q-19 16 -19 42q0 23 16.5 40t39.5 17q20 0 39 -15q51 -44 108 -44q27 0 45 10.5t18 30.5q0 16 -11.5 24.5t-39.5 20.5l-53 22q-68 28 -101.5 62t-33.5 89q0 70 50.5 109.5t131.5 39.5q94 0 156 -53q24 -18 24 -46q0 -23 -16 -39.5t-39 -16.5
q-15 0 -36 14q-43 30 -90 30q-53 0 -53 -35q0 -14 11.5 -23.5t40.5 -20.5l48 -20q72 -29 105.5 -62.5t33.5 -88.5q0 -74 -54.5 -116t-138.5 -42z" />
    <glyph glyph-name="t" unicode="t" horiz-adv-x="416" 
d="M337 110q27 0 43 -15t16 -40q0 -38 -34 -54q-31 -13 -70 -13q-97 0 -147.5 47.5t-50.5 138.5v207h-28q-25 0 -41.5 16t-16.5 41t16.5 41t41.5 16h28v68q0 29 19 48.5t49 19.5q29 0 48 -19.5t19 -48.5v-68h91q25 0 41 -16t16 -41t-16 -41t-41 -16h-91v-195q0 -41 21 -59
t68 -18q4 0 10.5 0.5t8.5 0.5z" />
    <glyph glyph-name="u" unicode="u" horiz-adv-x="580" 
d="M291 -12q-101 0 -165 64t-64 166v220q0 29 19.5 48.5t48.5 19.5t48 -19.5t19 -48.5v-231q0 -41 26.5 -68t67.5 -27q40 0 66 27t26 68v231q0 29 19 48.5t49 19.5q29 0 48 -19.5t19 -48.5v-220q0 -102 -63.5 -166t-163.5 -64z" />
    <glyph glyph-name="v" unicode="v" horiz-adv-x="559" 
d="M473 506q26 0 45.5 -19.5t19.5 -45.5q0 -15 -10 -36l-186 -375q-20 -42 -62 -42t-62 42l-186 375q-11 21 -11 36q0 26 19.5 45.5t46.5 19.5q40 0 59 -38l134 -276l133 276q19 38 60 38z" />
    <glyph glyph-name="w" unicode="w" horiz-adv-x="856" 
d="M773 506q27 0 46 -19t19 -46q0 -18 -7 -33l-172 -378q-20 -42 -61 -42q-42 0 -61 42l-109 251l-109 -251q-20 -42 -61 -42t-61 42l-172 378q-7 15 -7 33q0 27 19 46t46 19q41 0 59 -37l120 -263l101 250q21 50 65 50t64 -50l102 -251l120 264q18 37 59 37z" />
    <glyph glyph-name="x" unicode="x" horiz-adv-x="531" 
d="M471 103q20 -26 20 -50q0 -27 -18.5 -46t-46.5 -19q-31 0 -56 30l-105 134l-105 -134q-24 -30 -55 -30q-28 0 -47 19t-19 46q0 23 21 50l120 149l-108 139q-22 30 -22 50q0 27 19 46t47 19q33 0 54 -29l96 -124l98 124q23 29 55 29q27 0 46 -19t19 -46q0 -24 -22 -50
l-110 -138z" />
    <glyph glyph-name="y" unicode="y" horiz-adv-x="559" 
d="M473 506q26 0 45.5 -19.5t19.5 -45.5q0 -16 -8 -31l-218 -447q-40 -82 -88 -118.5t-115 -36.5q-33 0 -57 11q-34 15 -34 53q0 25 17.5 41.5t43.5 16.5q3 0 7 -0.5t5 -0.5q63 0 94 63l18 40l-171 377q-9 18 -9 32q0 26 19.5 45.5t46.5 19.5q43 0 59 -38l131 -293l134 293
q17 38 60 38z" />
    <glyph glyph-name="z" unicode="z" horiz-adv-x="468" 
d="M402 114q25 0 41.5 -16t16.5 -41q0 -24 -16.5 -40.5t-41.5 -16.5h-326q-24 0 -40.5 16.5t-16.5 40.5q0 23 23 49l228 275h-180q-25 0 -41.5 16t-16.5 41t16.5 41t41.5 16h303q25 0 41.5 -16t16.5 -40t-19 -46l-230 -279h200z" />
    <glyph glyph-name="braceleft" unicode="{" horiz-adv-x="413" 
d="M330 -22q23 0 38.5 -15.5t15.5 -38.5q0 -24 -15.5 -39t-38.5 -15h-24q-79 0 -122.5 35.5t-43.5 104.5q0 34 11 98t11 82q0 52 -55 52h-11q-25 0 -41.5 16.5t-16.5 41.5q0 24 16.5 40.5t41.5 16.5h11q55 0 55 52q0 18 -11 82.5t-11 97.5q0 69 43.5 105t122.5 36h24
q23 0 38.5 -15.5t15.5 -39.5q0 -23 -15.5 -38.5t-38.5 -15.5h-13q-62 0 -62 -65q0 -20 11 -82.5t11 -87.5q0 -67 -74 -87q74 -20 74 -86q0 -25 -11 -87t-11 -83q0 -65 62 -65h13z" />
    <glyph glyph-name="bar" unicode="|" horiz-adv-x="332" 
d="M166 791q24 0 40 -16t16 -40v-811q0 -24 -16 -40t-40 -16t-40 16t-16 40v811q0 24 15.5 40t40.5 16z" />
    <glyph glyph-name="braceright" unicode="}" horiz-adv-x="413" 
d="M317 357q25 0 41.5 -16.5t16.5 -40.5q0 -25 -16.5 -41.5t-41.5 -16.5h-11q-55 0 -55 -52q0 -18 11 -82t11 -98q0 -69 -43.5 -104.5t-122.5 -35.5h-24q-23 0 -38.5 15t-15.5 39q0 23 15.5 38.5t38.5 15.5h13q62 0 62 65q0 21 -11 83t-11 87q0 66 74 86q-74 20 -74 87
q0 25 11 87.5t11 82.5q0 65 -62 65h-13q-23 0 -38.5 15.5t-15.5 38.5q0 24 15.5 39.5t38.5 15.5h24q79 0 122.5 -36t43.5 -105q0 -33 -11 -97.5t-11 -82.5q0 -52 55 -52h11z" />
    <glyph glyph-name="asciitilde" unicode="~" 
d="M396 228q-50 0 -121 31.5t-87 31.5q-20 0 -30.5 -6.5t-19.5 -23.5q-15 -28 -46 -28q-25 0 -41.5 17t-16.5 42q0 53 37.5 89t92.5 36q49 0 120 -32t88 -32q20 0 30.5 6.5t19.5 23.5q14 29 46 29q25 0 41.5 -17t16.5 -43q0 -52 -37.5 -88t-92.5 -36z" />
    <glyph glyph-name="exclamdown" unicode="&#xa1;" horiz-adv-x="348" 
d="M174 334q-38 0 -63.5 25t-25.5 62q0 36 25.5 62t63.5 26q37 0 61.5 -25.5t24.5 -62.5t-24.5 -62t-61.5 -25zM174 -192q-37 0 -58.5 23t-19.5 59l11 312q1 29 19.5 49t47.5 20q28 0 46.5 -20.5t19.5 -48.5l11 -312q2 -36 -19.5 -59t-57.5 -23z" />
    <glyph glyph-name="cent" unicode="&#xa2;" horiz-adv-x="557" 
d="M443 256q26 0 43.5 -18t17.5 -44q0 -23 -17 -43q-61 -69 -149 -81v-117q0 -27 -16.5 -44.5t-41.5 -17.5t-42.5 18t-17.5 44v125q-83 24 -135 92t-52 156t52 156t135 92v124q0 27 17 44.5t43 17.5q25 0 41.5 -17.5t16.5 -44.5v-116q93 -12 149 -81q17 -20 17 -43
q0 -26 -18 -44t-43 -18q-6 0 -11.5 1t-9 2.5t-8.5 5t-6.5 5t-7.5 6.5t-7 6q-38 39 -93 39q-56 0 -92.5 -38t-36.5 -97t36 -97t93 -38q54 0 93 39q1 1 7 6t7.5 6.5t6.5 5t8.5 5t9 2.5t11.5 1z" />
    <glyph glyph-name="sterling" unicode="&#xa3;" horiz-adv-x="569" 
d="M478 114q23 0 38.5 -16t15.5 -41t-15.5 -41t-38.5 -16h-381q-23 0 -39 16.5t-16 39.5q0 32 30 50q62 36 82 55.5t20 55.5v10h-71q-26 0 -42.5 16t-16.5 41t16.5 41t42.5 16h28q-43 82 -43 138q0 86 61 139.5t157 53.5q142 0 204 -116q13 -25 13 -43q0 -26 -18 -44
t-44 -18q-15 0 -27.5 7t-17.5 13t-16 21q-32 55 -85 55q-42 0 -66 -25t-24 -65q0 -20 8 -43t13.5 -33.5t22.5 -39.5h110q25 0 41.5 -16t16.5 -41t-16.5 -41t-41.5 -16h-71v-8q0 -65 -51 -105h221z" />
    <glyph glyph-name="currency" unicode="&#xa4;" horiz-adv-x="657" 
d="M606 127q19 -18 19 -42q0 -23 -16.5 -40t-39.5 -17q-24 0 -44 20l-77 79q-56 -31 -123 -31q-66 0 -121 30l-71 -75q-19 -22 -46 -22q-22 0 -38.5 17t-16.5 40q0 22 17 41l70 75q-38 57 -38 128q0 68 39 126l-70 71q-18 18 -18 42q0 23 17 40t38 17q25 0 45 -20l71 -73
q56 31 122 31q67 0 125 -32l75 75q19 19 43 19q23 0 39.5 -16.5t16.5 -38.5q0 -25 -19 -44l-71 -71q37 -58 37 -126q0 -71 -39 -127zM326 220q47 0 77 31t30 79t-30.5 79t-76.5 31q-48 0 -77.5 -31t-29.5 -79t29.5 -79t77.5 -31z" />
    <glyph glyph-name="yen" unicode="&#xa5;" horiz-adv-x="599" 
d="M501 266h-133v-62h133q23 0 38.5 -16t15.5 -39t-15.5 -38.5t-38.5 -15.5h-133v-38q0 -29 -19.5 -49t-48.5 -20q-28 0 -47.5 20t-19.5 49v38h-134q-23 0 -38.5 15.5t-15.5 38.5t15.5 39t38.5 16h134v62h-134q-23 0 -38.5 16t-15.5 39t15.5 38.5t38.5 15.5h96l-141 189
q-18 25 -18 46q0 25 18.5 43t43.5 18q34 0 57 -36l145 -210l145 210q23 36 57 36q25 0 43.5 -18t18.5 -43q0 -20 -19 -46l-141 -189h97q23 0 38.5 -15.5t15.5 -38.5t-15.5 -39t-38.5 -16z" />
    <glyph glyph-name="brokenbar" unicode="&#xa6;" horiz-adv-x="332" 
d="M166 791q24 0 40 -16t16 -40v-210q0 -24 -16 -40t-40 -16t-40 16t-16 40v210q0 24 15.5 40t40.5 16zM166 190q24 0 40 -16t16 -40v-208q0 -24 -16 -40t-40 -16t-40 16t-16 40v208q0 24 15.5 40t40.5 16z" />
    <glyph glyph-name="section" unicode="&#xa7;" horiz-adv-x="602" 
d="M573 196q0 -51 -31 -88.5t-85 -54.5q2 -16 2 -25q0 -72 -52 -116.5t-135 -44.5q-112 0 -181 80q-17 19 -19 44q0 20 12.5 34.5t31.5 16.5q29 9 59 -19q43 -43 94 -43q30 0 46.5 12.5t16.5 35.5q0 19 -14 35t-61 50l-91 62q-76 48 -106.5 87.5t-30.5 87.5q0 51 30.5 89
t85.5 55q-2 14 -2 24q0 72 51.5 116.5t135.5 44.5q110 0 181 -80q18 -21 18 -45q0 -20 -12.5 -34t-30.5 -16q-30 -9 -60 19q-43 43 -94 43q-29 0 -46 -13t-17 -35q0 -20 15 -36.5t61 -48.5l90 -62q76 -46 107 -85.5t31 -89.5zM331 203q50 -33 81 -64q34 20 34 53
q0 20 -15 36.5t-62 49.5l-98 65q-55 36 -81 65q-35 -21 -35 -54q0 -20 16 -38t62 -48z" />
    <glyph glyph-name="dieresis" unicode="&#xa8;" horiz-adv-x="459" 
d="M111 754q34 0 57.5 -22.5t23.5 -56.5q0 -31 -24 -54t-57 -23q-32 0 -56.5 23.5t-24.5 53.5q0 33 24 56t57 23zM348 754q35 0 58 -22.5t23 -56.5q0 -32 -23.5 -54.5t-57.5 -22.5q-31 0 -55.5 23.5t-24.5 53.5q0 33 23.5 56t56.5 23z" />
    <glyph glyph-name="copyright" unicode="&#xa9;" horiz-adv-x="778" 
d="M388 -12q-145 0 -247.5 99.5t-102.5 241.5t102.5 242.5t248.5 100.5q145 0 248 -100.5t103 -241.5q0 -142 -103 -242t-249 -100zM388 68q112 0 188 75t76 186q0 112 -76 187.5t-188 75.5t-187 -75t-75 -188q0 -112 75 -186.5t187 -74.5zM395 145q-80 0 -134 53t-54 132
t54 132t134 53q37 0 72 -14.5t56 -38.5q20 -23 20 -43q0 -19 -12 -31.5t-29 -12.5q-5 0 -10 1t-8 2t-7.5 4l-6 4t-7 6t-6.5 6q-24 23 -61 23t-61 -25.5t-24 -65.5t24 -65.5t61 -25.5q35 0 61 23q3 2 7 5.5t6.5 5.5t6.5 4.5t7 4t8 2.5t10 1q17 0 29 -12.5t12 -31.5
q0 -20 -20 -43q-21 -24 -56 -38.5t-72 -14.5z" />
    <glyph glyph-name="ordfeminine" unicode="&#xaa;" horiz-adv-x="371" 
d="M183 565q68 0 105 -36t37 -101v-139q0 -22 -15 -37.5t-37 -15.5q-33 0 -47 29q-35 -29 -86 -29q-49 0 -78.5 27t-29.5 71t32 68t90 24h67v11q0 42 -50 42q-26 0 -54 -17q-16 -8 -26 -8q-18 0 -30.5 12.5t-12.5 30.5q0 25 26 39q46 29 109 29zM172 310q22 0 35.5 13
t13.5 35v9h-49q-35 0 -35 -29q0 -28 35 -28z" />
    <glyph glyph-name="guillemotleft" unicode="&#xab;" horiz-adv-x="595" 
d="M237 64q-25 0 -46 21l-140 145q-18 20 -18 43q0 22 18 42l140 146q21 21 46 21q23 0 40 -17t17 -40q0 -21 -17 -41l-99 -111l99 -111q17 -17 17 -41t-17.5 -40.5t-39.5 -16.5zM493 64q-25 0 -46 21l-140 145q-18 20 -18 43q0 22 18 42l140 146q21 21 46 21q23 0 40 -17
t17 -40q0 -21 -17 -41l-99 -111l99 -111q17 -17 17 -41t-17.5 -40.5t-39.5 -16.5z" />
    <glyph glyph-name="logicalnot" unicode="&#xac;" 
d="M421 96q-27 0 -45 18t-18 46v103h-264q-25 0 -42 16.5t-17 40.5q0 25 17 41.5t42 16.5h328q27 0 44.5 -18t17.5 -45v-155q0 -28 -17.5 -46t-45.5 -18z" />
    <glyph glyph-name="uni00AD" unicode="&#xad;" horiz-adv-x="342" 
d="M248 377q25 0 41 -16t16 -40t-16 -40.5t-41 -16.5h-153q-25 0 -41 16.5t-16 40.5t16 40t41 16h153z" />
    <glyph glyph-name="registered" unicode="&#xae;" horiz-adv-x="574" 
d="M288 692q104 0 178.5 -75t74.5 -181t-74.5 -181.5t-178.5 -75.5q-105 0 -180 75.5t-75 181.5t75 181t180 75zM288 242q80 0 133.5 56t53.5 138t-54 137.5t-133 55.5q-80 0 -134 -55.5t-54 -137.5q0 -83 54 -138.5t134 -55.5zM355 403l34 -37q11 -11 11 -25q0 -15 -10 -25
t-24 -10q-17 0 -28 13l-60 66h-21v-43q0 -16 -10 -26t-24 -10q-15 0 -25.5 10.5t-10.5 25.5v183q0 15 10.5 25.5t26.5 10.5h67q44 0 72.5 -24.5t28.5 -63.5q0 -44 -37 -70zM257 500v-55h34q13 0 21 7.5t8 19.5q0 13 -8 20.5t-21 7.5h-34z" />
    <glyph glyph-name="macron" unicode="&#xaf;" horiz-adv-x="362" 
d="M284 728q24 0 40 -15t16 -38t-16 -38t-40 -15h-206q-24 0 -40 15t-16 38t16 38t40 15h206z" />
    <glyph glyph-name="degree" unicode="&#xb0;" horiz-adv-x="361" 
d="M181 672q65 0 110.5 -45t45.5 -109t-45.5 -109t-110.5 -45t-111 45t-46 109t46 109t111 45zM181 585q-29 0 -48 -19.5t-19 -48.5t19 -48t48 -19t48 19t19 48q0 30 -19 49t-48 19z" />
    <glyph glyph-name="plusminus" unicode="&#xb1;" 
d="M281 154q-27 0 -43 18t-16 47v96h-120q-23 0 -38.5 16t-15.5 39t15.5 38.5t38.5 15.5h120v89q0 28 16 46.5t43 18.5t42.5 -18t15.5 -47v-89h120q23 0 39 -15.5t16 -38.5t-16 -39t-39 -16h-120v-96q0 -29 -15.5 -47t-42.5 -18zM102 0q-24 0 -39.5 15.5t-15.5 38.5
t15.5 38.5t39.5 15.5h357q23 0 39 -15.5t16 -38.5t-16 -38.5t-39 -15.5h-357z" />
    <glyph glyph-name="uni00B2" unicode="&#xb2;" horiz-adv-x="385" 
d="M307 454q20 0 33 -13t13 -32t-13 -32t-33 -13h-229q-19 0 -32 13t-13 32q0 20 20 37l127 103q55 47 55 94q0 23 -13.5 38t-35.5 15q-20 0 -33.5 -13.5t-14.5 -36.5q-2 -13 -6 -21q-7 -30 -45 -30q-23 0 -37 15t-14 41q0 56 44.5 96.5t106.5 40.5q65 0 107.5 -39.5
t42.5 -98.5q0 -45 -22 -82t-74 -80l-41 -34h107z" />
    <glyph glyph-name="uni00B3" unicode="&#xb3;" horiz-adv-x="360" 
d="M228 630q42 -11 70 -47t28 -81q0 -62 -46 -104t-114 -42q-86 0 -134 62q-11 14 -11 30q0 19 13.5 32.5t32.5 13.5q21 0 34 -15q30 -31 62 -31q28 0 44 14.5t16 39.5q0 48 -74 48h-5q-20 0 -33 13t-13 33q0 19 17 34l65 60h-97q-20 0 -33.5 13t-13.5 32t13.5 32t33.5 13
h192q19 0 31.5 -13t12.5 -31q0 -20 -14 -34z" />
    <glyph glyph-name="acute" unicode="&#xb4;" horiz-adv-x="295" 
d="M113 562q-28 1 -44 20t-14 43q0 12 8 30l47 107q8 18 25.5 28.5t36.5 10.5q29 0 48 -20t19 -48q0 -19 -11 -37l-62 -103q-21 -33 -53 -31z" />
    <glyph glyph-name="uni00B5" unicode="&#xb5;" horiz-adv-x="610" 
d="M563 112q22 0 35 -14.5t13 -37.5q0 -40 -31 -56q-26 -14 -57 -14q-75 0 -106 52q-43 -54 -112 -54q-63 0 -103 45v-156q0 -29 -19.5 -49t-47.5 -20t-48 20t-20 49v561q0 28 19.5 48t48.5 20q28 0 47.5 -20t19.5 -48v-228q0 -44 25.5 -72t66.5 -28q42 0 68 28t26 72v228
q0 28 19.5 48t47.5 20t47.5 -20t19.5 -48v-277q0 -49 40 -49h1z" />
    <glyph glyph-name="paragraph" unicode="&#xb6;" horiz-adv-x="613" 
d="M470 660q29 0 48.5 -19.5t19.5 -48.5v-595q0 -94 -51.5 -141.5t-147.5 -47.5q-46 0 -70 12q-38 17 -38 53q0 26 18.5 43.5t46.5 17.5q2 0 8.5 -1t13.5 -1q42 1 63.5 19t21.5 60v206h-146q-92 0 -158.5 65.5t-66.5 157.5t66 156t159 64h213z" />
    <glyph glyph-name="periodcentered" unicode="&#xb7;" horiz-adv-x="270" 
d="M136 227q-40 0 -67 27t-27 66t27 66t67 27q39 0 65.5 -27t26.5 -66t-26.5 -66t-65.5 -27z" />
    <glyph glyph-name="cedilla" unicode="&#xb8;" horiz-adv-x="290" 
d="M104 -192q-41 0 -65 9q-32 14 -32 43q0 20 14 34t34 14q5 0 15.5 -0.5t16.5 -0.5q58 0 58 40q0 27 -21 54q-23 31 -23 44q0 16 12 25.5t30 9.5q38 0 76.5 -48t38.5 -95q0 -59 -42 -94t-112 -35z" />
    <glyph glyph-name="uni00B9" unicode="&#xb9;" horiz-adv-x="370" 
d="M81 364q-20 0 -33 13t-13 32t13 32t33 13h64v236h-55q-20 0 -33.5 13t-13.5 32t13.5 32t33.5 13h105q22 0 36.5 -14.5t14.5 -36.5v-275h47q20 0 33 -13t13 -32t-13 -32t-33 -13h-212z" />
    <glyph glyph-name="ordmasculine" unicode="&#xba;" horiz-adv-x="400" 
d="M200 565q71 0 121 -47.5t50 -116.5t-50 -117t-121 -48q-72 0 -121 48t-49 117t49 116.5t121 47.5zM200 472q-30 0 -48.5 -19.5t-18.5 -51.5t18.5 -51.5t48.5 -19.5t48.5 19.5t18.5 51.5t-18.5 51.5t-48.5 19.5z" />
    <glyph glyph-name="guillemotright" unicode="&#xbb;" horiz-adv-x="597" 
d="M106 64q-22 0 -39.5 16.5t-17.5 40.5t17 41l99 111l-99 111q-17 20 -17 41q0 23 17 40t40 17q25 0 46 -21l140 -146q18 -20 18 -42q0 -23 -18 -43l-140 -145q-21 -21 -46 -21zM363 64q-22 0 -39.5 16.5t-17.5 40.5t17 41l99 111l-99 111q-17 20 -17 41q0 23 17 40t40 17
q25 0 46 -21l140 -146q18 -20 18 -42q0 -23 -18 -43l-140 -145q-21 -21 -46 -21z" />
    <glyph glyph-name="onequarter" unicode="&#xbc;" horiz-adv-x="936" 
d="M714 624q0 -13 -7 -26l-339 -583q-15 -27 -45 -27q-19 0 -32 13t-13 32q0 15 7 27l338 582q15 27 45 27q19 0 32.5 -13t13.5 -32zM339 289q0 -19 -13 -32t-33 -13h-212q-20 0 -33 13t-13 32t13 32t33 13h64v236h-55q-20 0 -33.5 13t-13.5 32t13.5 32t33.5 13h105
q22 0 36.5 -14.5t14.5 -36.5v-275h47q20 0 33 -13t13 -32zM888 158q21 0 33.5 -14.5t12.5 -32.5t-12.5 -32.5t-33.5 -14.5h-12v-25q0 -20 -13 -33.5t-32 -13.5q-20 0 -33 13.5t-13 33.5v25h-170q-17 0 -29.5 12.5t-12.5 29.5q0 11 4 20l122 266q14 32 44 32q19 0 32 -13.5
t13 -32.5q0 -11 -4 -22l-82 -198h83v56q0 20 13 33.5t33 13.5q19 0 32 -13.5t13 -33.5v-56h12z" />
    <glyph glyph-name="onehalf" unicode="&#xbd;" horiz-adv-x="971" 
d="M714 624q0 -13 -7 -26l-339 -583q-15 -27 -45 -27q-19 0 -32 13t-13 32q0 15 7 27l338 582q15 27 45 27q19 0 32.5 -13t13.5 -32zM339 289q0 -19 -13 -32t-33 -13h-212q-20 0 -33 13t-13 32t13 32t33 13h64v236h-55q-20 0 -33.5 13t-13.5 32t13.5 32t33.5 13h105
q22 0 36.5 -14.5t14.5 -36.5v-275h47q20 0 33 -13t13 -32zM893 90q20 0 33 -13t13 -32t-13 -32t-33 -13h-229q-19 0 -32 13t-13 32q0 20 20 37l127 103q55 47 55 94q0 23 -13.5 38t-35.5 15q-20 0 -33.5 -13.5t-14.5 -36.5q-2 -13 -6 -21q-7 -30 -45 -30q-23 0 -37 15
t-14 41q0 56 44.5 96.5t106.5 40.5q65 0 107.5 -39.5t42.5 -98.5q0 -45 -22 -82t-74 -80l-41 -34h107z" />
    <glyph glyph-name="threequarters" unicode="&#xbe;" horiz-adv-x="891" 
d="M669 624q0 -13 -7 -26l-339 -583q-15 -27 -45 -27q-19 0 -32 13t-13 32q0 15 7 27l338 582q15 27 45 27q19 0 32.5 -13t13.5 -32zM326 382q0 -62 -46 -104t-114 -42q-86 0 -134 62q-11 14 -11 30q0 19 13.5 32.5t32.5 13.5q21 0 34 -15q30 -31 62 -31q28 0 44 14.5
t16 39.5q0 48 -74 48h-5q-20 0 -33 13t-13 33q0 19 17 34l65 60h-97q-20 0 -33.5 13t-13.5 32t13.5 32t33.5 13h192q19 0 31.5 -13t12.5 -31q0 -20 -14 -34l-77 -72q42 -11 70 -47t28 -81zM843 158q21 0 33.5 -14.5t12.5 -32.5t-12.5 -32.5t-33.5 -14.5h-12v-25
q0 -20 -13 -33.5t-32 -13.5q-20 0 -33 13.5t-13 33.5v25h-170q-17 0 -29.5 12.5t-12.5 29.5q0 11 4 20l122 266q14 32 44 32q19 0 32 -13.5t13 -32.5q0 -11 -4 -22l-82 -198h83v56q0 20 13 33.5t33 13.5q19 0 32 -13.5t13 -33.5v-56h12z" />
    <glyph glyph-name="questiondown" unicode="&#xbf;" horiz-adv-x="452" 
d="M247 508q38 0 63.5 -25t25.5 -62q0 -36 -25.5 -62t-63.5 -26q-37 0 -61.5 25.5t-24.5 62.5t24.5 62t61.5 25zM250 286q26 0 45 -17t19 -42v-10q0 -29 -15 -52.5t-59 -64.5q-39 -35 -51.5 -53t-12.5 -39q0 -25 17 -42.5t42 -17.5q43 0 69 47q25 35 56 35q25 0 42.5 -17.5
t17.5 -43.5q0 -19 -14 -44q-53 -101 -175 -101q-83 0 -139 48t-56 119q0 70 81 138q39 34 54 55t16 42l1 9q2 22 19.5 36.5t42.5 14.5z" />
    <glyph glyph-name="Agrave" unicode="&#xc0;" horiz-adv-x="662" 
d="M266 745l-64 90q-25 32 -7 69t58 38q43 2 62 -35l52 -100q14 -27 -1 -57t-50 -31q-30 0 -50 26zM620 89q8 -19 8 -36q0 -27 -19 -46t-47 -19q-44 0 -64 48l-28 68h-279l-28 -68q-19 -48 -63 -48q-28 0 -47.5 19t-19.5 46q0 14 8 36l226 537q18 46 64 46t64 -46zM331 473
l-96 -258h190z" />
    <glyph glyph-name="Aacute" unicode="&#xc1;" horiz-adv-x="662" 
d="M347 719q-35 1 -50 31t-1 57l52 100q19 37 62 35q40 -1 58 -38t-7 -69l-64 -90q-20 -26 -50 -26zM620 89q8 -19 8 -36q0 -27 -19 -46t-47 -19q-44 0 -64 48l-28 68h-279l-28 -68q-19 -48 -63 -48q-28 0 -47.5 19t-19.5 46q0 14 8 36l226 537q18 46 64 46t64 -46zM331 473
l-96 -258h190z" />
    <glyph glyph-name="Acircumflex" unicode="&#xc2;" horiz-adv-x="662" 
d="M208 722q-20 0 -34.5 14.5t-14.5 35.5q0 19 30 47l94 92q22 20 47 20q26 0 47 -20l94 -92q30 -28 30 -47q0 -21 -14.5 -35.5t-34.5 -14.5q-21 0 -39 16l-83 76l-83 -76q-18 -16 -39 -16zM620 89q8 -19 8 -36q0 -27 -19 -46t-47 -19q-44 0 -64 48l-28 68h-279l-28 -68
q-19 -48 -63 -48q-28 0 -47.5 19t-19.5 46q0 14 8 36l226 537q18 46 64 46t64 -46zM331 473l-96 -258h190z" />
    <glyph glyph-name="Atilde" unicode="&#xc3;" horiz-adv-x="662" 
d="M186 717q-25 0 -40 15.5t-15 41.5q0 57 33 93t84 36q36 0 74 -21l31 -18q32 -17 44 -17q24 0 30 27q10 37 50 37q25 0 39.5 -15.5t14.5 -41.5q0 -57 -32.5 -93t-84.5 -36q-36 0 -74 21l-30 17q-31 17 -45 17q-23 0 -30 -27q-10 -36 -49 -36zM620 89q8 -19 8 -36
q0 -27 -19 -46t-47 -19q-44 0 -64 48l-28 68h-279l-28 -68q-19 -48 -63 -48q-28 0 -47.5 19t-19.5 46q0 14 8 36l226 537q18 46 64 46t64 -46zM331 473l-96 -258h190z" />
    <glyph glyph-name="Adieresis" unicode="&#xc4;" horiz-adv-x="662" 
d="M202 737q-31 0 -56 23.5t-25 53.5q0 33 24.5 55.5t56.5 22.5q33 0 57 -22.5t24 -55.5q0 -31 -24 -54t-57 -23zM460 736q-31 0 -56 23.5t-25 53.5q0 33 24.5 56t56.5 23q33 0 57 -23t24 -56q0 -31 -24 -54t-57 -23zM620 89q8 -19 8 -36q0 -27 -19 -46t-47 -19
q-44 0 -64 48l-28 68h-279l-28 -68q-19 -48 -63 -48q-28 0 -47.5 19t-19.5 46q0 14 8 36l226 537q18 46 64 46t64 -46zM331 473l-96 -258h190z" />
    <glyph glyph-name="Aring" unicode="&#xc5;" horiz-adv-x="662" 
d="M330 675q-54 0 -90 35t-36 88q0 52 36 86.5t90 34.5q55 0 91 -34.5t36 -86.5q0 -53 -36 -88t-91 -35zM331 839q-17 0 -29 -11.5t-12 -29.5t12 -30t29 -12t29 12t12 30q0 17 -12 29t-29 12zM620 89q8 -19 8 -36q0 -27 -19 -46t-47 -19q-44 0 -64 48l-28 68h-279l-28 -68
q-19 -48 -63 -48q-28 0 -47.5 19t-19.5 46q0 14 8 36l226 537q18 46 64 46t64 -46zM331 473l-96 -258h190z" />
    <glyph glyph-name="AE" unicode="&#xc6;" horiz-adv-x="853" 
d="M758 122q27 0 44.5 -17.5t17.5 -43.5t-18 -43.5t-44 -17.5h-246q-25 0 -42.5 15t-22.5 38l-5 33h-248l-31 -60q-17 -38 -56 -38q-29 0 -48 18t-19 46q0 18 8 32l272 530q23 46 71 46h355q27 0 44.5 -17.5t17.5 -43.5t-18 -43.5t-44 -17.5h-247l22 -134h148
q25 0 41.5 -16.5t16.5 -41.5q0 -24 -16.5 -40.5t-41.5 -16.5h-129l28 -167h190zM380 466l-129 -269h172z" />
    <glyph glyph-name="Ccedilla" unicode="&#xc7;" horiz-adv-x="720" 
d="M603 213q26 0 44 -18t18 -43t-21 -50q-61 -75 -165 -103q17 -34 17 -62q0 -59 -42 -94t-112 -35q-41 0 -65 9q-32 14 -32 43q0 20 14 34t34 14q5 0 15.5 -0.5t16.5 -0.5q58 0 58 40q0 22 -12 41q-142 7 -237.5 105t-95.5 237q0 144 102 243t250 99q76 0 143.5 -30.5
t111.5 -83.5q21 -24 21 -50q0 -25 -18.5 -43t-44.5 -18q-29 0 -52 26q-64 74 -161 74q-93 0 -153 -61.5t-60 -156.5q0 -94 60 -155t153 -61q95 0 160 74q24 26 53 26z" />
    <glyph glyph-name="Egrave" unicode="&#xc8;" horiz-adv-x="572" 
d="M279 719q-30 0 -50 26l-64 90q-25 32 -7 69t58 38q43 2 62 -35l52 -100q14 -27 -1 -57t-50 -31zM142 0q-28 0 -47.5 19t-19.5 48v526q0 29 19.5 48t47.5 19h323q27 0 44.5 -17.5t17.5 -43.5t-18 -43.5t-44 -17.5h-255v-134h175q25 0 42 -16.5t17 -41.5q0 -24 -17 -40.5
t-42 -16.5h-175v-167h267q27 0 44.5 -17.5t17.5 -43.5t-18 -43.5t-44 -17.5h-335z" />
    <glyph glyph-name="Eacute" unicode="&#xc9;" horiz-adv-x="572" 
d="M310 719q-35 1 -50 31t-1 57l52 100q19 37 62 35q40 -1 58 -38t-7 -69l-64 -90q-20 -26 -50 -26zM142 0q-28 0 -47.5 19t-19.5 48v526q0 29 19.5 48t47.5 19h323q27 0 44.5 -17.5t17.5 -43.5t-18 -43.5t-44 -17.5h-255v-134h175q25 0 42 -16.5t17 -41.5q0 -24 -17 -40.5
t-42 -16.5h-175v-167h267q27 0 44.5 -17.5t17.5 -43.5t-18 -43.5t-44 -17.5h-335z" />
    <glyph glyph-name="Ecircumflex" unicode="&#xca;" horiz-adv-x="572" 
d="M171 722q-20 0 -34.5 14.5t-14.5 35.5q0 19 30 47l94 92q22 20 47 20q26 0 47 -20l94 -92q30 -28 30 -47q0 -21 -14.5 -35.5t-34.5 -14.5q-21 0 -39 16l-83 76l-83 -76q-18 -16 -39 -16zM477 122q27 0 44.5 -17.5t17.5 -43.5t-18 -43.5t-44 -17.5h-335q-28 0 -47.5 19
t-19.5 48v526q0 29 19.5 48t47.5 19h323q27 0 44.5 -17.5t17.5 -43.5t-18 -43.5t-44 -17.5h-255v-134h175q25 0 42 -16.5t17 -41.5q0 -24 -17 -40.5t-42 -16.5h-175v-167h267z" />
    <glyph glyph-name="Edieresis" unicode="&#xcb;" horiz-adv-x="572" 
d="M165 737q-31 0 -56 23.5t-25 53.5q0 33 24.5 55.5t56.5 22.5q33 0 57 -22.5t24 -55.5q0 -31 -24 -54t-57 -23zM423 736q-31 0 -56 23.5t-25 53.5q0 33 24.5 56t56.5 23q33 0 57 -23t24 -56q0 -31 -24 -54t-57 -23zM142 0q-28 0 -47.5 19t-19.5 48v526q0 29 19.5 48
t47.5 19h323q27 0 44.5 -17.5t17.5 -43.5t-18 -43.5t-44 -17.5h-255v-134h175q25 0 42 -16.5t17 -41.5q0 -24 -17 -40.5t-42 -16.5h-175v-167h267q27 0 44.5 -17.5t17.5 -43.5t-18 -43.5t-44 -17.5h-335z" />
    <glyph glyph-name="Igrave" unicode="&#xcc;" horiz-adv-x="285" 
d="M128 719q-30 0 -50 26l-64 90q-25 32 -7 69t58 38q43 2 62 -35l52 -100q14 -27 -1 -57t-50 -31zM143 -12q-30 0 -49 19.5t-19 49.5v546q0 30 19 49.5t49 19.5q29 0 48 -20t19 -49v-546q0 -29 -19 -49t-48 -20z" />
    <glyph glyph-name="Iacute" unicode="&#xcd;" horiz-adv-x="285" 
d="M159 719q-35 1 -50 31t-1 57l52 100q19 37 62 35q40 -1 58 -38t-7 -69l-64 -90q-20 -26 -50 -26zM143 -12q-30 0 -49 19.5t-19 49.5v546q0 30 19 49.5t49 19.5q29 0 48 -20t19 -49v-546q0 -29 -19 -49t-48 -20z" />
    <glyph glyph-name="Icircumflex" unicode="&#xce;" horiz-adv-x="285" 
d="M283 819q30 -28 30 -47q0 -21 -14.5 -35.5t-34.5 -14.5q-21 0 -39 16l-83 76l-83 -76q-18 -16 -39 -16q-20 0 -34.5 14.5t-14.5 35.5q0 19 30 47l94 92q22 20 47 20q26 0 47 -20zM143 672q29 0 48 -20t19 -49v-546q0 -29 -19 -49t-48 -20q-30 0 -49 19.5t-19 49.5v546
q0 30 19 49.5t49 19.5z" />
    <glyph glyph-name="Idieresis" unicode="&#xcf;" horiz-adv-x="285" 
d="M14 737q-31 0 -56 23.5t-25 53.5q0 33 24.5 55.5t56.5 22.5q33 0 57 -22.5t24 -55.5q0 -31 -24 -54t-57 -23zM272 736q-31 0 -56 23.5t-25 53.5q0 33 24.5 56t56.5 23q33 0 57 -23t24 -56q0 -31 -24 -54t-57 -23zM143 -12q-30 0 -49 19.5t-19 49.5v546q0 30 19 49.5
t49 19.5q29 0 48 -20t19 -49v-546q0 -29 -19 -49t-48 -20z" />
    <glyph glyph-name="Eth" unicode="&#xd0;" horiz-adv-x="690" 
d="M292 660q161 0 260 -90.5t99 -237.5t-100.5 -239.5t-258.5 -92.5h-148q-30 0 -49.5 19.5t-19.5 49.5v188h-28q-26 0 -44 16t-18 41q0 24 18 40t44 16h28v221q0 30 19.5 49.5t49.5 19.5h148zM291 122q100 0 161 57.5t61 152.5t-59.5 150.5t-162.5 55.5h-81v-168h54
q26 0 44 -16t18 -40q0 -25 -18 -41t-44 -16h-54v-135h81z" />
    <glyph glyph-name="Ntilde" unicode="&#xd1;" horiz-adv-x="712" 
d="M211 717q-25 0 -40 15.5t-15 41.5q0 57 33 93t84 36q37 0 74 -21l31 -18q32 -17 44 -17q24 0 30 27q10 37 50 37q25 0 39.5 -15.5t14.5 -41.5q0 -57 -32.5 -93t-84.5 -36q-37 0 -74 21l-30 17q-31 17 -45 17q-23 0 -30 -27q-10 -36 -49 -36zM570 672q28 0 47.5 -20
t19.5 -49v-547q0 -29 -19 -48.5t-47 -19.5q-16 0 -29 6.5t-19.5 13.5t-18.5 21l-294 378v-350q0 -29 -19.5 -49t-47.5 -20q-29 0 -48.5 20t-19.5 49v547q0 29 19 48.5t47 19.5q16 0 29 -6.5t20 -14t20 -23.5l293 -375l-1 350q0 29 19.5 49t48.5 20z" />
    <glyph glyph-name="Ograve" unicode="&#xd2;" horiz-adv-x="778" 
d="M374 719q-30 0 -50 26l-64 90q-25 32 -7 69t58 38q43 2 62 -35l52 -100q14 -27 -1 -57t-50 -31zM388 672q148 0 250 -99.5t102 -242.5t-102 -242.5t-250 -99.5t-249 99t-101 243t101.5 243t248.5 99zM389 547q-93 0 -152.5 -61t-59.5 -156t59.5 -156t152.5 -61
q92 0 152 61.5t60 155.5t-60 155.5t-152 61.5z" />
    <glyph glyph-name="Oacute" unicode="&#xd3;" horiz-adv-x="778" 
d="M405 719q-35 1 -50 31t-1 57l52 100q19 37 62 35q40 -1 58 -38t-7 -69l-64 -90q-20 -26 -50 -26zM388 672q148 0 250 -99.5t102 -242.5t-102 -242.5t-250 -99.5t-249 99t-101 243t101.5 243t248.5 99zM389 547q-93 0 -152.5 -61t-59.5 -156t59.5 -156t152.5 -61
q92 0 152 61.5t60 155.5t-60 155.5t-152 61.5z" />
    <glyph glyph-name="Ocircumflex" unicode="&#xd4;" horiz-adv-x="778" 
d="M266 722q-20 0 -34.5 14.5t-14.5 35.5q0 19 30 47l94 92q22 20 47 20q26 0 47 -20l94 -92q30 -28 30 -47q0 -21 -14.5 -35.5t-34.5 -14.5q-21 0 -39 16l-83 76l-83 -76q-18 -16 -39 -16zM388 672q148 0 250 -99.5t102 -242.5t-102 -242.5t-250 -99.5t-249 99t-101 243
t101.5 243t248.5 99zM389 113q92 0 152 61.5t60 155.5t-60 155.5t-152 61.5q-93 0 -152.5 -61t-59.5 -156t59.5 -156t152.5 -61z" />
    <glyph glyph-name="Otilde" unicode="&#xd5;" horiz-adv-x="778" 
d="M244 717q-25 0 -40 15.5t-15 41.5q0 57 33 93t84 36q36 0 74 -21l31 -18q32 -17 44 -17q24 0 30 27q10 37 50 37q25 0 39.5 -15.5t14.5 -41.5q0 -57 -32.5 -93t-84.5 -36q-36 0 -74 21l-30 17q-31 17 -45 17q-23 0 -30 -27q-10 -36 -49 -36zM388 672q148 0 250 -99.5
t102 -242.5t-102 -242.5t-250 -99.5t-249 99t-101 243t101.5 243t248.5 99zM389 547q-93 0 -152.5 -61t-59.5 -156t59.5 -156t152.5 -61q92 0 152 61.5t60 155.5t-60 155.5t-152 61.5z" />
    <glyph glyph-name="Odieresis" unicode="&#xd6;" horiz-adv-x="778" 
d="M260 737q-31 0 -56 23.5t-25 53.5q0 33 24.5 55.5t56.5 22.5q33 0 57 -22.5t24 -55.5q0 -31 -24 -54t-57 -23zM518 736q-31 0 -56 23.5t-25 53.5q0 33 24.5 56t56.5 23q33 0 57 -23t24 -56q0 -31 -24 -54t-57 -23zM388 672q148 0 250 -99.5t102 -242.5t-102 -242.5
t-250 -99.5t-249 99t-101 243t101.5 243t248.5 99zM389 547q-93 0 -152.5 -61t-59.5 -156t59.5 -156t152.5 -61q92 0 152 61.5t60 155.5t-60 155.5t-152 61.5z" />
    <glyph glyph-name="multiply" unicode="&#xd7;" 
d="M125 111q-23 0 -40.5 17.5t-17.5 40.5q0 22 19 41l113 113l-113 114q-19 17 -19 41q0 23 17.5 40t40.5 17t41 -18l114 -114l114 114q18 18 41 18t40.5 -17t17.5 -40q0 -24 -19 -41l-113 -114l113 -113q19 -19 19 -41q0 -23 -17.5 -40.5t-40.5 -17.5q-21 0 -41 18
l-114 114l-114 -114q-20 -18 -41 -18z" />
    <glyph glyph-name="Oslash" unicode="&#xd8;" horiz-adv-x="779" 
d="M673 533q67 -91 67 -203q0 -143 -102 -242.5t-249 -99.5q-112 0 -200 60l-39 -39q-21 -21 -46 -21q-22 0 -38.5 17t-16.5 40q0 25 19 44l38 38q-67 89 -67 203q0 144 101 243t249 99q111 0 201 -60l39 39q21 21 46 21q22 0 38.5 -17t16.5 -40q0 -25 -19 -44zM171 330
q0 -62 26 -112l305 306q-52 29 -112 29q-95 0 -157 -63t-62 -160zM390 107q95 0 156 63t61 160q0 61 -26 111l-304 -305q49 -29 113 -29z" />
    <glyph glyph-name="Ugrave" unicode="&#xd9;" horiz-adv-x="700" 
d="M335 719q-30 0 -50 26l-64 90q-25 32 -7 69t58 38q43 2 62 -35l52 -100q14 -27 -1 -57t-50 -31zM350 -12q-125 0 -202.5 79t-77.5 206v330q0 29 19.5 49t48.5 20q28 0 47.5 -20t19.5 -49v-340q0 -69 39 -109.5t106 -40.5t106 40.5t39 109.5v340q0 29 19.5 49t48.5 20
q28 0 47.5 -20t19.5 -49v-330q0 -127 -77.5 -206t-202.5 -79z" />
    <glyph glyph-name="Uacute" unicode="&#xda;" horiz-adv-x="700" 
d="M366 719q-35 1 -50 31t-1 57l52 100q19 37 62 35q40 -1 58 -38t-7 -69l-64 -90q-20 -26 -50 -26zM350 -12q-125 0 -202.5 79t-77.5 206v330q0 29 19.5 49t48.5 20q28 0 47.5 -20t19.5 -49v-340q0 -69 39 -109.5t106 -40.5t106 40.5t39 109.5v340q0 29 19.5 49t48.5 20
q28 0 47.5 -20t19.5 -49v-330q0 -127 -77.5 -206t-202.5 -79z" />
    <glyph glyph-name="Ucircumflex" unicode="&#xdb;" horiz-adv-x="700" 
d="M227 722q-20 0 -34.5 14.5t-14.5 35.5q0 19 30 47l94 92q22 20 47 20q26 0 47 -20l94 -92q30 -28 30 -47q0 -21 -14.5 -35.5t-34.5 -14.5q-21 0 -39 16l-83 76l-83 -76q-18 -16 -39 -16zM563 672q28 0 47.5 -20t19.5 -49v-330q0 -127 -77.5 -206t-202.5 -79t-202.5 79
t-77.5 206v330q0 29 19.5 49t48.5 20q28 0 47.5 -20t19.5 -49v-340q0 -69 39 -109.5t106 -40.5t106 40.5t39 109.5v340q0 29 19.5 49t48.5 20z" />
    <glyph glyph-name="Udieresis" unicode="&#xdc;" horiz-adv-x="700" 
d="M221 737q-31 0 -56 23.5t-25 53.5q0 33 24.5 55.5t56.5 22.5q33 0 57 -22.5t24 -55.5q0 -31 -24 -54t-57 -23zM479 736q-31 0 -56 23.5t-25 53.5q0 33 24.5 56t56.5 23q33 0 57 -23t24 -56q0 -31 -24 -54t-57 -23zM350 -12q-125 0 -202.5 79t-77.5 206v330q0 29 19.5 49
t48.5 20q28 0 47.5 -20t19.5 -49v-340q0 -69 39 -109.5t106 -40.5t106 40.5t39 109.5v340q0 29 19.5 49t48.5 20q28 0 47.5 -20t19.5 -49v-330q0 -127 -77.5 -206t-202.5 -79z" />
    <glyph glyph-name="Yacute" unicode="&#xdd;" horiz-adv-x="625" 
d="M327 719q-35 1 -50 31t-1 57l52 100q19 37 62 35q40 -1 58 -38t-7 -69l-64 -90q-20 -26 -50 -26zM584 607q0 -23 -14 -44l-190 -312v-194q0 -29 -19.5 -49t-48.5 -20q-28 0 -47.5 20t-19.5 49v194l-189 312q-15 22 -15 45q0 27 19 45.5t47 18.5q41 0 64 -40l142 -246
l142 246q22 40 63 40q28 0 47 -18.5t19 -46.5z" />
    <glyph glyph-name="Thorn" unicode="&#xde;" horiz-adv-x="593" 
d="M143 672q28 0 47.5 -20t19.5 -49v-44h114q106 0 171.5 -59.5t65.5 -155.5q0 -95 -66 -155.5t-171 -60.5h-114v-71q0 -29 -19.5 -49t-47.5 -20q-29 0 -48.5 20t-19.5 49v546q0 30 19 49.5t49 19.5zM323 440h-113v-194h113q46 0 73 26.5t27 70.5t-27 70.5t-73 26.5z" />
    <glyph glyph-name="germandbls" unicode="&#xdf;" horiz-adv-x="650" 
d="M437 -12q-90 0 -151 44q-28 18 -28 48q0 23 17 39.5t40 16.5q11 0 32 -10q48 -24 90 -24q57 0 57 42q0 17 -13.5 29.5t-64.5 42.5q-56 34 -79 61.5t-23 60.5q0 29 18 73l34 87q14 34 14 66q0 36 -20.5 56t-57.5 20q-48 0 -75 -33t-27 -91v-459q0 -29 -19 -49t-47 -20
t-47.5 20t-19.5 49v465q0 113 63.5 176.5t176.5 63.5q95 0 152 -44t57 -118q0 -41 -17 -83l-39 -100q-13 -31 -13 -48q0 -20 14 -34t66 -46q54 -33 76 -65.5t22 -77.5q0 -72 -51 -115t-137 -43z" />
    <glyph glyph-name="agrave" unicode="&#xe0;" horiz-adv-x="545" 
d="M199 593l-62 103q-11 18 -11 37q0 28 19 48t48 20q19 0 36.5 -10.5t25.5 -28.5l47 -107q8 -18 8 -30q2 -24 -14 -43t-44 -20q-32 -2 -53 31zM268 506q102 0 158 -55.5t56 -156.5v-238q0 -29 -18.5 -48t-46.5 -19q-24 0 -42 14.5t-23 37.5q-56 -53 -145 -53
q-76 0 -123.5 41t-47.5 107q0 67 50 105.5t137 38.5h124v22q0 41 -24 64t-69 23q-52 0 -95 -37q-21 -16 -40 -16q-25 0 -41.5 16t-16.5 39q0 28 28 54q66 61 179 61zM243 87q44 0 74 28t30 70v6h-106q-69 0 -69 -50q0 -25 19 -39.5t52 -14.5z" />
    <glyph glyph-name="aacute" unicode="&#xe1;" horiz-adv-x="545" 
d="M289 562q-28 1 -44 20t-14 43q0 12 8 30l47 107q8 18 25.5 28.5t36.5 10.5q29 0 48 -20t19 -48q0 -19 -11 -37l-62 -103q-21 -33 -53 -31zM268 506q102 0 158 -55.5t56 -156.5v-238q0 -29 -18.5 -48t-46.5 -19q-24 0 -42 14.5t-23 37.5q-56 -53 -145 -53q-76 0 -123.5 41
t-47.5 107q0 67 50 105.5t137 38.5h124v22q0 41 -24 64t-69 23q-52 0 -95 -37q-21 -16 -40 -16q-25 0 -41.5 16t-16.5 39q0 28 28 54q66 61 179 61zM243 87q44 0 74 28t30 70v6h-106q-69 0 -69 -50q0 -25 19 -39.5t52 -14.5z" />
    <glyph glyph-name="acircumflex" unicode="&#xe2;" horiz-adv-x="545" 
d="M158 566q-20 0 -35.5 14t-15.5 36q0 19 17 39l96 115q20 23 51 23q30 0 50 -23l96 -115q17 -20 17 -39q0 -22 -15.5 -36t-35.5 -14q-19 0 -34 15l-78 82l-79 -82q-15 -15 -34 -15zM268 506q102 0 158 -55.5t56 -156.5v-238q0 -29 -18.5 -48t-46.5 -19q-24 0 -42 14.5
t-23 37.5q-56 -53 -145 -53q-76 0 -123.5 41t-47.5 107q0 67 50 105.5t137 38.5h124v22q0 41 -24 64t-69 23q-52 0 -95 -37q-21 -16 -40 -16q-25 0 -41.5 16t-16.5 39q0 28 28 54q66 61 179 61zM243 87q44 0 74 28t30 70v6h-106q-69 0 -69 -50q0 -25 19 -39.5t52 -14.5z" />
    <glyph glyph-name="atilde" unicode="&#xe3;" horiz-adv-x="545" 
d="M131 574q-24 0 -38.5 16t-14.5 42q0 58 32.5 93.5t83.5 35.5q36 0 71 -23l28 -18q28 -19 42 -19q20 0 27 28q10 37 50 37q25 0 39 -16t14 -42q0 -57 -31.5 -93t-80.5 -36q-40 0 -75 23l-28 18q-28 20 -39 20q-22 0 -30 -28q-9 -38 -50 -38zM268 506q102 0 158 -55.5
t56 -156.5v-238q0 -29 -18.5 -48t-46.5 -19q-24 0 -42 14.5t-23 37.5q-56 -53 -145 -53q-76 0 -123.5 41t-47.5 107q0 67 50 105.5t137 38.5h124v22q0 41 -24 64t-69 23q-52 0 -95 -37q-21 -16 -40 -16q-25 0 -41.5 16t-16.5 39q0 28 28 54q66 61 179 61zM243 87q44 0 74 28
t30 70v6h-106q-69 0 -69 -50q0 -25 19 -39.5t52 -14.5z" />
    <glyph glyph-name="adieresis" unicode="&#xe4;" horiz-adv-x="545" 
d="M152 598q-32 0 -56.5 23.5t-24.5 53.5q0 33 24 56t57 23q34 0 57.5 -22.5t23.5 -56.5q0 -31 -24 -54t-57 -23zM389 598q-31 0 -55.5 23.5t-24.5 53.5q0 33 23.5 56t56.5 23q35 0 58 -22.5t23 -56.5q0 -32 -23.5 -54.5t-57.5 -22.5zM268 506q102 0 158 -55.5t56 -156.5
v-238q0 -29 -18.5 -48t-46.5 -19q-24 0 -42 14.5t-23 37.5q-56 -53 -145 -53q-76 0 -123.5 41t-47.5 107q0 67 50 105.5t137 38.5h124v22q0 41 -24 64t-69 23q-52 0 -95 -37q-21 -16 -40 -16q-25 0 -41.5 16t-16.5 39q0 28 28 54q66 61 179 61zM243 87q44 0 74 28t30 70v6
h-106q-69 0 -69 -50q0 -25 19 -39.5t52 -14.5z" />
    <glyph glyph-name="aring" unicode="&#xe5;" horiz-adv-x="545" 
d="M270 550q-54 0 -90 35t-36 88q0 52 36 87t90 35q55 0 91 -34.5t36 -87.5t-36 -88t-91 -35zM271 714q-17 0 -29 -11.5t-12 -29.5t11.5 -29.5t29.5 -11.5q17 0 29 12t12 29q0 18 -12 29.5t-29 11.5zM268 506q102 0 158 -55.5t56 -156.5v-238q0 -29 -18.5 -48t-46.5 -19
q-24 0 -42 14.5t-23 37.5q-56 -53 -145 -53q-76 0 -123.5 41t-47.5 107q0 67 50 105.5t137 38.5h124v22q0 41 -24 64t-69 23q-52 0 -95 -37q-21 -16 -40 -16q-25 0 -41.5 16t-16.5 39q0 28 28 54q66 61 179 61zM243 87q44 0 74 28t30 70v6h-106q-69 0 -69 -50
q0 -25 19 -39.5t52 -14.5z" />
    <glyph glyph-name="ae" unicode="&#xe6;" horiz-adv-x="878" 
d="M608 506q101 0 166.5 -65.5t65.5 -165.5v-7q0 -32 -20 -51.5t-53 -19.5h-282q14 -45 49.5 -69t89.5 -24q61 0 102 29q15 9 29 9q23 0 39 -15.5t16 -38.5q0 -31 -34 -54q-67 -46 -156 -46q-135 0 -208 100q-59 -100 -195 -100q-83 0 -132 40.5t-49 108.5q0 69 50.5 109
t136.5 40h124v16q0 41 -24 64t-68 23q-52 0 -96 -37q-21 -16 -40 -16q-24 0 -41 16.5t-17 39.5q0 27 29 53q64 61 178 61q111 0 164 -73q70 73 176 73zM603 397q-47 0 -79.5 -30t-42.5 -81h228q1 49 -28.5 80t-77.5 31zM242 88q45 0 75 27.5t30 68.5v13h-106q-69 0 -69 -52
q0 -26 19 -41.5t51 -15.5z" />
    <glyph glyph-name="ccedilla" unicode="&#xe7;" horiz-adv-x="552" 
d="M456 183q25 0 42.5 -17.5t17.5 -42.5q0 -17 -11 -34q-40 -61 -113 -87q19 -33 19 -65q0 -59 -42 -94t-112 -35q-41 0 -65 9q-32 14 -32 43q0 20 14 34t34 14q5 0 15.5 -0.5t16.5 -0.5q58 0 58 40q0 21 -12 42q-105 7 -176 81t-71 178q0 109 76.5 183.5t188.5 74.5
q62 0 116.5 -27t83.5 -71q12 -19 12 -36q0 -25 -17.5 -42.5t-42.5 -17.5q-29 0 -46 21q-42 50 -104 50q-57 0 -93.5 -38t-36.5 -97q0 -60 36.5 -98t93.5 -38q59 0 104 50q18 21 46 21z" />
    <glyph glyph-name="egrave" unicode="&#xe8;" horiz-adv-x="569" 
d="M226 593l-62 103q-11 18 -11 37q0 28 19 48t48 20q19 0 36.5 -10.5t25.5 -28.5l47 -107q8 -18 8 -30q2 -24 -14 -43t-44 -20q-32 -2 -53 31zM296 506q101 0 168 -66t67 -166v-3q0 -31 -20.5 -50t-53.5 -19h-282q12 -47 48 -72.5t91 -25.5q57 0 103 29q15 9 29 9
q23 0 39 -15.5t16 -38.5q0 -31 -34 -54q-69 -46 -157 -46q-117 0 -194 74t-77 185q0 110 74 184.5t183 74.5zM293 397q-44 0 -75.5 -27t-42.5 -73h225q-2 45 -31 72.5t-76 27.5z" />
    <glyph glyph-name="eacute" unicode="&#xe9;" horiz-adv-x="569" 
d="M316 562q-28 1 -44 20t-14 43q0 12 8 30l47 107q8 18 25.5 28.5t36.5 10.5q29 0 48 -20t19 -48q0 -19 -11 -37l-62 -103q-21 -33 -53 -31zM296 506q101 0 168 -66t67 -166v-3q0 -31 -20.5 -50t-53.5 -19h-282q12 -47 48 -72.5t91 -25.5q57 0 103 29q15 9 29 9
q23 0 39 -15.5t16 -38.5q0 -31 -34 -54q-69 -46 -157 -46q-117 0 -194 74t-77 185q0 110 74 184.5t183 74.5zM293 397q-44 0 -75.5 -27t-42.5 -73h225q-2 45 -31 72.5t-76 27.5z" />
    <glyph glyph-name="ecircumflex" unicode="&#xea;" horiz-adv-x="569" 
d="M185 566q-20 0 -35.5 14t-15.5 36q0 19 17 39l96 115q20 23 51 23q30 0 50 -23l96 -115q17 -20 17 -39q0 -22 -15.5 -36t-35.5 -14q-19 0 -34 15l-78 82l-79 -82q-15 -15 -34 -15zM296 506q101 0 168 -66t67 -166v-3q0 -31 -20.5 -50t-53.5 -19h-282q12 -47 48 -72.5
t91 -25.5q57 0 103 29q15 9 29 9q23 0 39 -15.5t16 -38.5q0 -31 -34 -54q-69 -46 -157 -46q-117 0 -194 74t-77 185q0 110 74 184.5t183 74.5zM293 397q-44 0 -75.5 -27t-42.5 -73h225q-2 45 -31 72.5t-76 27.5z" />
    <glyph glyph-name="edieresis" unicode="&#xeb;" horiz-adv-x="569" 
d="M179 598q-32 0 -56.5 23.5t-24.5 53.5q0 33 24 56t57 23q34 0 57.5 -22.5t23.5 -56.5q0 -31 -24 -54t-57 -23zM416 598q-31 0 -55.5 23.5t-24.5 53.5q0 33 23.5 56t56.5 23q35 0 58 -22.5t23 -56.5q0 -32 -23.5 -54.5t-57.5 -22.5zM296 506q101 0 168 -66t67 -166v-3
q0 -31 -20.5 -50t-53.5 -19h-282q12 -47 48 -72.5t91 -25.5q57 0 103 29q15 9 29 9q23 0 39 -15.5t16 -38.5q0 -31 -34 -54q-69 -46 -157 -46q-117 0 -194 74t-77 185q0 110 74 184.5t183 74.5zM293 397q-44 0 -75.5 -27t-42.5 -73h225q-2 45 -31 72.5t-76 27.5z" />
    <glyph glyph-name="igrave" unicode="&#xec;" horiz-adv-x="269" 
d="M112 567q-32 8 -43 44l-33 115q-6 21 -1 39q7 27 30.5 41t51.5 7q18 -5 32.5 -20t17.5 -34l18 -115q2 -21 0 -31q-5 -24 -25 -38t-48 -8zM134 -12q-28 0 -47.5 20t-19.5 49v381q0 29 19.5 48.5t48.5 19.5t48 -19.5t19 -48.5v-381q0 -29 -19.5 -49t-48.5 -20z" />
    <glyph glyph-name="iacute" unicode="&#xed;" horiz-adv-x="269" 
d="M158 568q-27 -4 -46.5 12t-21.5 40q-2 10 2 31l28 114q5 19 20.5 32.5t33.5 16.5q29 4 51 -12.5t27 -43.5q3 -18 -4 -38l-43 -112q-15 -35 -47 -40zM134 -12q-28 0 -47.5 20t-19.5 49v381q0 29 19.5 48.5t48.5 19.5t48 -19.5t19 -48.5v-381q0 -29 -19.5 -49t-48.5 -20z
" />
    <glyph glyph-name="icircumflex" unicode="&#xee;" horiz-adv-x="269" 
d="M281 655q17 -20 17 -39q0 -22 -15.5 -36t-35.5 -14q-19 0 -34 15l-78 82l-79 -82q-15 -15 -34 -15q-20 0 -35.5 14t-15.5 36q0 19 17 39l96 115q20 23 51 23q30 0 50 -23zM135 506q29 0 48 -19.5t19 -48.5v-381q0 -29 -19.5 -49t-48.5 -20q-28 0 -47.5 20t-19.5 49v381
q0 29 19.5 48.5t48.5 19.5z" />
    <glyph glyph-name="idieresis" unicode="&#xef;" horiz-adv-x="269" 
d="M25 598q-33 0 -57 23t-24 55t23.5 55t57.5 23t57.5 -22.5t23.5 -55.5q0 -32 -24 -55t-57 -23zM245 598q-33 0 -57 23t-24 55t23.5 55t57.5 23t57 -22.5t23 -55.5q0 -32 -23.5 -55t-56.5 -23zM134 -12q-28 0 -47.5 20t-19.5 49v381q0 29 19.5 48.5t48.5 19.5t48 -19.5
t19 -48.5v-381q0 -29 -19.5 -49t-48.5 -20z" />
    <glyph glyph-name="eth" unicode="&#xf0;" horiz-adv-x="573" 
d="M416 482q66 -88 92 -144t26 -111q0 -103 -70 -171t-176 -68q-108 0 -178.5 66t-70.5 166q0 96 66.5 160.5t165.5 64.5h10l-62 84l-99 -49q-18 -8 -30 -8q-21 0 -36.5 15.5t-15.5 37.5q0 33 29 47l88 44l-32 44q-13 21 -13 39q0 25 19 44t44 19q32 0 53 -30l45 -59l118 58
q15 8 30 8q21 0 36.5 -15.5t15.5 -37.5q0 -32 -29 -47l-106 -52zM286 108q49 0 80.5 32t31.5 81t-31.5 80.5t-80.5 31.5t-80 -31.5t-31 -81.5q0 -49 31 -80.5t80 -31.5z" />
    <glyph glyph-name="ntilde" unicode="&#xf1;" horiz-adv-x="585" 
d="M141 574q-24 0 -38.5 16t-14.5 42q0 58 32.5 93.5t83.5 35.5q36 0 71 -23l28 -18q29 -19 42 -19q20 0 27 28q10 37 50 37q25 0 39 -16t14 -42q0 -57 -31.5 -93t-80.5 -36q-40 0 -75 23l-28 18q-28 20 -39 20q-22 0 -30 -28q-9 -38 -50 -38zM336 506q85 0 135.5 -54
t50.5 -145v-250q0 -30 -19 -49.5t-48 -19.5q-28 0 -47.5 20t-19.5 49v232q0 43 -25.5 69.5t-66.5 26.5t-67.5 -27t-26.5 -69v-232q0 -30 -19 -49.5t-48 -19.5t-48.5 20t-19.5 49v381q0 29 19 48.5t48 19.5q23 0 40.5 -14t22.5 -37q56 51 139 51z" />
    <glyph glyph-name="ograve" unicode="&#xf2;" horiz-adv-x="608" 
d="M285 562q-32 -2 -53 31l-62 103q-11 18 -11 37q0 28 19 48t48 20q19 0 36.5 -10.5t25.5 -28.5l47 -107q8 -18 8 -30q2 -24 -14 -43t-44 -20zM304 506q111 0 188.5 -75t77.5 -183t-77.5 -183.5t-189.5 -75.5q-111 0 -187.5 75t-76.5 184t76.5 183.5t188.5 74.5zM304 383
q-56 0 -92 -38.5t-36 -97.5q0 -58 36 -96t92 -38q55 0 91.5 38t36.5 96t-36.5 97t-91.5 39z" />
    <glyph glyph-name="oacute" unicode="&#xf3;" horiz-adv-x="608" 
d="M322 562q-28 1 -44 20t-14 43q0 12 8 30l47 107q8 18 25.5 28.5t36.5 10.5q29 0 48 -20t19 -48q0 -19 -11 -37l-62 -103q-21 -33 -53 -31zM304 506q111 0 188.5 -75t77.5 -183t-77.5 -183.5t-189.5 -75.5q-111 0 -187.5 75t-76.5 184t76.5 183.5t188.5 74.5zM304 383
q-56 0 -92 -38.5t-36 -97.5q0 -58 36 -96t92 -38q55 0 91.5 38t36.5 96t-36.5 97t-91.5 39z" />
    <glyph glyph-name="ocircumflex" unicode="&#xf4;" horiz-adv-x="608" 
d="M191 566q-20 0 -35.5 14t-15.5 36q0 19 17 39l96 115q20 23 51 23q30 0 50 -23l96 -115q17 -20 17 -39q0 -22 -15.5 -36t-35.5 -14q-19 0 -34 15l-78 82l-79 -82q-15 -15 -34 -15zM304 506q111 0 188.5 -75t77.5 -183t-77.5 -183.5t-189.5 -75.5q-111 0 -187.5 75
t-76.5 184t76.5 183.5t188.5 74.5zM304 113q55 0 91.5 38t36.5 96t-36.5 97t-91.5 39q-56 0 -92 -38.5t-36 -97.5q0 -58 36 -96t92 -38z" />
    <glyph glyph-name="otilde" unicode="&#xf5;" horiz-adv-x="608" 
d="M386 579q-40 0 -75 23l-28 18q-28 20 -39 20q-22 0 -30 -28q-10 -38 -50 -38q-24 0 -38.5 16t-14.5 42q0 58 32.5 93.5t83.5 35.5q37 0 71 -23l28 -18q28 -19 42 -19q20 0 27 28q10 37 50 37q25 0 39 -16t14 -42q0 -57 -31.5 -93t-80.5 -36zM304 506q111 0 188.5 -75
t77.5 -183t-77.5 -183.5t-189.5 -75.5q-111 0 -187.5 75t-76.5 184t76.5 183.5t188.5 74.5zM304 383q-56 0 -92 -38.5t-36 -97.5q0 -58 36 -96t92 -38q55 0 91.5 38t36.5 96t-36.5 97t-91.5 39z" />
    <glyph glyph-name="odieresis" unicode="&#xf6;" horiz-adv-x="608" 
d="M185 754q34 0 57.5 -22.5t23.5 -56.5q0 -31 -24 -54t-57 -23q-32 0 -56.5 23.5t-24.5 53.5q0 33 24 56t57 23zM422 754q35 0 58 -22.5t23 -56.5q0 -32 -23.5 -54.5t-57.5 -22.5q-31 0 -55.5 23.5t-24.5 53.5q0 33 23.5 56t56.5 23zM304 506q111 0 188.5 -75t77.5 -183
t-77.5 -183.5t-189.5 -75.5q-111 0 -187.5 75t-76.5 184t76.5 183.5t188.5 74.5zM304 383q-56 0 -92 -38.5t-36 -97.5q0 -58 36 -96t92 -38q55 0 91.5 38t36.5 96t-36.5 97t-91.5 39z" />
    <glyph glyph-name="divide" unicode="&#xf7;" 
d="M279 584q33 0 57 -22t24 -54q0 -33 -24 -55.5t-57 -22.5q-34 0 -58 22.5t-24 55.5q0 32 24 54t58 22zM465 378q25 0 41.5 -16.5t16.5 -41.5q0 -24 -16.5 -40.5t-41.5 -16.5h-371q-25 0 -41.5 16.5t-16.5 40.5q0 25 16.5 41.5t41.5 16.5h371zM279 209q33 0 57 -22t24 -55
q0 -32 -24 -54.5t-57 -22.5q-34 0 -58 22.5t-24 54.5q0 33 24 55t58 22z" />
    <glyph glyph-name="oslash" unicode="&#xf8;" horiz-adv-x="612" 
d="M555 416l-26 -26q43 -65 43 -143q0 -108 -78 -183.5t-189 -75.5q-78 0 -140 39l-28 -28q-20 -21 -45 -21q-23 0 -40 16.5t-17 40.5q0 23 22 44l26 26q-42 64 -42 142q0 109 76.5 184t188.5 75q75 0 140 -38l28 28q20 20 43 20q24 0 41 -16.5t17 -40.5q0 -23 -20 -43z
M306 392q-62 0 -100.5 -40.5t-38.5 -104.5q0 -35 12 -62l192 192q-28 15 -65 15zM305 102q61 0 100.5 41t39.5 104q0 35 -12 62l-193 -192q29 -15 65 -15z" />
    <glyph glyph-name="ugrave" unicode="&#xf9;" horiz-adv-x="580" 
d="M271 562q-32 -2 -53 31l-62 103q-11 18 -11 37q0 28 19 48t48 20q19 0 36.5 -10.5t25.5 -28.5l47 -107q8 -18 8 -30q2 -24 -14 -43t-44 -20zM291 -12q-101 0 -165 64t-64 166v220q0 29 19.5 48.5t48.5 19.5t48 -19.5t19 -48.5v-231q0 -41 26.5 -68t67.5 -27q40 0 66 27
t26 68v231q0 29 19 48.5t49 19.5q29 0 48 -19.5t19 -48.5v-220q0 -102 -63.5 -166t-163.5 -64z" />
    <glyph glyph-name="uacute" unicode="&#xfa;" horiz-adv-x="580" 
d="M308 562q-28 1 -44 20t-14 43q0 12 8 30l47 107q8 18 25.5 28.5t36.5 10.5q29 0 48 -20t19 -48q0 -19 -11 -37l-62 -103q-21 -33 -53 -31zM291 -12q-101 0 -165 64t-64 166v220q0 29 19.5 48.5t48.5 19.5t48 -19.5t19 -48.5v-231q0 -41 26.5 -68t67.5 -27q40 0 66 27
t26 68v231q0 29 19 48.5t49 19.5q29 0 48 -19.5t19 -48.5v-220q0 -102 -63.5 -166t-163.5 -64z" />
    <glyph glyph-name="ucircumflex" unicode="&#xfb;" horiz-adv-x="580" 
d="M177 566q-20 0 -35.5 14t-15.5 36q0 19 17 39l96 115q20 23 51 23q30 0 50 -23l96 -115q17 -20 17 -39q0 -22 -15.5 -36t-35.5 -14q-19 0 -34 15l-78 82l-79 -82q-15 -15 -34 -15zM451 506q29 0 48 -19.5t19 -48.5v-220q0 -102 -63.5 -166t-163.5 -64q-101 0 -165 64
t-64 166v220q0 29 19.5 48.5t48.5 19.5t48 -19.5t19 -48.5v-231q0 -41 26.5 -68t67.5 -27q40 0 66 27t26 68v231q0 29 19 48.5t49 19.5z" />
    <glyph glyph-name="udieresis" unicode="&#xfc;" horiz-adv-x="580" 
d="M171 754q34 0 57.5 -22.5t23.5 -56.5q0 -31 -24 -54t-57 -23q-32 0 -56.5 23.5t-24.5 53.5q0 33 24 56t57 23zM408 754q35 0 58 -22.5t23 -56.5q0 -32 -23.5 -54.5t-57.5 -22.5q-31 0 -55.5 23.5t-24.5 53.5q0 33 23.5 56t56.5 23zM291 -12q-101 0 -165 64t-64 166v220
q0 29 19.5 48.5t48.5 19.5t48 -19.5t19 -48.5v-231q0 -41 26.5 -68t67.5 -27q40 0 66 27t26 68v231q0 29 19 48.5t49 19.5q29 0 48 -19.5t19 -48.5v-220q0 -102 -63.5 -166t-163.5 -64z" />
    <glyph glyph-name="yacute" unicode="&#xfd;" horiz-adv-x="559" 
d="M296 562q-28 1 -44 20t-14 43q0 12 8 30l47 107q8 18 25.5 28.5t36.5 10.5q29 0 48 -20t19 -48q0 -19 -11 -37l-62 -103q-21 -33 -53 -31zM473 506q26 0 45.5 -19.5t19.5 -45.5q0 -16 -8 -31l-218 -447q-40 -82 -88 -118.5t-115 -36.5q-33 0 -57 11q-34 15 -34 53
q0 25 17.5 41.5t43.5 16.5q3 0 7 -0.5t5 -0.5q63 0 94 63l18 40l-171 377q-9 18 -9 32q0 26 19.5 45.5t46.5 19.5q43 0 59 -38l131 -293l134 293q17 38 60 38z" />
    <glyph glyph-name="thorn" unicode="&#xfe;" horiz-adv-x="629" 
d="M350 506q104 0 172 -73t68 -185q0 -113 -68 -186.5t-172 -73.5q-94 0 -148 60v-172q0 -29 -19 -48.5t-48 -19.5t-48.5 19.5t-19.5 48.5v817q0 29 19.5 49t48.5 20t48 -19.5t19 -49.5v-246q53 59 148 59zM325 111q56 0 92 38.5t36 97.5q0 60 -36 98.5t-92 38.5
t-90.5 -37.5t-34.5 -98.5t35 -99t90 -38z" />
    <glyph glyph-name="ydieresis" unicode="&#xff;" horiz-adv-x="559" 
d="M159 598q-32 0 -56.5 23.5t-24.5 53.5q0 33 24 56t57 23q34 0 57.5 -22.5t23.5 -56.5q0 -31 -24 -54t-57 -23zM396 598q-31 0 -55.5 23.5t-24.5 53.5q0 33 23.5 56t56.5 23q35 0 58 -22.5t23 -56.5q0 -32 -23.5 -54.5t-57.5 -22.5zM473 506q26 0 45.5 -19.5t19.5 -45.5
q0 -16 -8 -31l-218 -447q-40 -82 -88 -118.5t-115 -36.5q-33 0 -57 11q-34 15 -34 53q0 25 17.5 41.5t43.5 16.5q3 0 7 -0.5t5 -0.5q63 0 94 63l18 40l-171 377q-9 18 -9 32q0 26 19.5 45.5t46.5 19.5q43 0 59 -38l131 -293l134 293q17 38 60 38z" />
    <glyph glyph-name="Amacron" unicode="&#x100;" horiz-adv-x="662" 
d="M217 757q-23 0 -39 15.5t-16 37.5t16 37.5t39 15.5h229q23 0 38.5 -15t15.5 -38t-15.5 -38t-38.5 -15h-229zM620 89q8 -19 8 -36q0 -27 -19 -46t-47 -19q-44 0 -64 48l-28 68h-279l-28 -68q-19 -48 -63 -48q-28 0 -47.5 19t-19.5 46q0 14 8 36l226 537q18 46 64 46
t64 -46zM331 473l-96 -258h190z" />
    <glyph glyph-name="amacron" unicode="&#x101;" horiz-adv-x="545" 
d="M168 622q-24 0 -40 15t-16 38t16 38t40 15h206q24 0 40 -15t16 -38t-16 -38t-40 -15h-206zM268 506q102 0 158 -55.5t56 -156.5v-238q0 -29 -18.5 -48t-46.5 -19q-24 0 -42 14.5t-23 37.5q-56 -53 -145 -53q-76 0 -123.5 41t-47.5 107q0 67 50 105.5t137 38.5h124v22
q0 41 -24 64t-69 23q-52 0 -95 -37q-21 -16 -40 -16q-25 0 -41.5 16t-16.5 39q0 28 28 54q66 61 179 61zM243 87q44 0 74 28t30 70v6h-106q-69 0 -69 -50q0 -25 19 -39.5t52 -14.5z" />
    <glyph glyph-name="Abreve" unicode="&#x102;" horiz-adv-x="662" 
d="M331 726q-65 0 -116.5 41.5t-51.5 95.5q0 23 14.5 37.5t37.5 14.5q30 0 50 -38q21 -49 66 -49q47 0 65 49q19 38 51 38q22 0 36.5 -14.5t14.5 -37.5q0 -54 -51 -95.5t-116 -41.5zM620 89q8 -19 8 -36q0 -27 -19 -46t-47 -19q-44 0 -64 48l-28 68h-279l-28 -68
q-19 -48 -63 -48q-28 0 -47.5 19t-19.5 46q0 14 8 36l226 537q18 46 64 46t64 -46zM331 473l-96 -258h190z" />
    <glyph glyph-name="abreve" unicode="&#x103;" horiz-adv-x="545" 
d="M271 573q-69 0 -120 43.5t-51 101.5q0 23 15 39t37 16q40 0 52 -41q6 -26 24 -41.5t43 -15.5t42.5 15.5t23.5 41.5q12 41 51 41q22 0 37.5 -16t15.5 -39q0 -59 -50.5 -102t-119.5 -43zM268 506q102 0 158 -55.5t56 -156.5v-238q0 -29 -18.5 -48t-46.5 -19q-24 0 -42 14.5
t-23 37.5q-56 -53 -145 -53q-76 0 -123.5 41t-47.5 107q0 67 50 105.5t137 38.5h124v22q0 41 -24 64t-69 23q-52 0 -95 -37q-21 -16 -40 -16q-25 0 -41.5 16t-16.5 39q0 28 28 54q66 61 179 61zM243 87q44 0 74 28t30 70v6h-106q-69 0 -69 -50q0 -25 19 -39.5t52 -14.5z" />
    <glyph glyph-name="Aogonek" unicode="&#x104;" horiz-adv-x="662" 
d="M600 -93q19 0 30 -12t11 -32q0 -37 -38 -48q-28 -7 -60 -7q-55 0 -87.5 28t-32.5 75q0 34 18 61.5t58 61.5l-1 1v1l-28 68h-279l-28 -68q-19 -48 -63 -48q-28 0 -47.5 19t-19.5 46q0 14 8 36l226 537q18 46 64 46t64 -46l225 -537q8 -19 8 -36q0 -36 -30 -55
q-49 -43 -49 -66q0 -26 35 -26q4 0 9 0.5t7 0.5zM331 473l-96 -258h190z" />
    <glyph glyph-name="aogonek" unicode="&#x105;" horiz-adv-x="545" 
d="M456 -93q19 0 30 -12t11 -32q0 -37 -38 -48q-28 -7 -60 -7q-55 0 -87.5 28t-32.5 75q0 33 18 61t57 61q-2 6 -2 8q-56 -53 -145 -53q-76 0 -123.5 41t-47.5 107q0 67 50 105.5t137 38.5h124v22q0 41 -24 64t-69 23q-52 0 -95 -37q-21 -16 -40 -16q-25 0 -41.5 16
t-16.5 39q0 28 28 54q66 61 179 61q102 0 158 -55.5t56 -156.5v-238v-7v-4q0 -23 -21 -41q-56 -48 -56 -72q0 -26 35 -26q4 0 9 0.5t7 0.5zM243 87q44 0 74 28t30 70v6h-106q-69 0 -69 -50q0 -25 19 -39.5t52 -14.5z" />
    <glyph glyph-name="Cacute" unicode="&#x106;" horiz-adv-x="720" 
d="M405 726q-35 1 -50 31t-1 57l52 100q19 37 62 35q40 -1 58 -38t-7 -69l-64 -90q-20 -26 -50 -26zM389 -12q-148 0 -249.5 99t-101.5 243t102 243t250 99q76 0 143.5 -30.5t111.5 -83.5q21 -24 21 -50q0 -25 -18.5 -43t-44.5 -18q-29 0 -52 26q-64 74 -161 74
q-93 0 -153 -61.5t-60 -156.5q0 -94 60 -155t153 -61q95 0 160 74q24 26 53 26q26 0 44 -18t18 -43t-21 -50q-44 -53 -111.5 -83.5t-143.5 -30.5z" />
    <glyph glyph-name="cacute" unicode="&#x107;" horiz-adv-x="552" 
d="M322 562q-28 1 -44 20t-14 43q0 12 8 30l47 107q8 18 25.5 28.5t36.5 10.5q29 0 48 -20t19 -48q0 -19 -11 -37l-62 -103q-21 -33 -53 -31zM304 -12q-112 0 -188.5 75.5t-76.5 184.5t76.5 183.5t188.5 74.5q62 0 116.5 -27t83.5 -71q12 -19 12 -36q0 -25 -17.5 -42.5
t-42.5 -17.5q-29 0 -46 21q-42 50 -104 50q-57 0 -93.5 -38t-36.5 -97q0 -60 36.5 -98t93.5 -38q59 0 104 50q18 21 46 21q25 0 42.5 -17.5t17.5 -42.5q0 -17 -11 -34q-66 -101 -201 -101z" />
    <glyph glyph-name="Ccircumflex" unicode="&#x108;" horiz-adv-x="720" 
d="M266 729q-20 0 -34.5 14.5t-14.5 35.5q0 19 30 47l94 92q22 20 47 20q26 0 47 -20l94 -92q30 -28 30 -47q0 -21 -14.5 -35.5t-34.5 -14.5q-21 0 -39 16l-83 76l-83 -76q-18 -16 -39 -16zM603 213q26 0 44 -18t18 -43t-21 -50q-44 -53 -111.5 -83.5t-143.5 -30.5
q-148 0 -249.5 99t-101.5 243t102 243t250 99q76 0 143.5 -30.5t111.5 -83.5q21 -24 21 -50q0 -25 -18.5 -43t-44.5 -18q-29 0 -52 26q-64 74 -161 74q-93 0 -153 -61.5t-60 -156.5q0 -94 60 -155t153 -61q95 0 160 74q24 26 53 26z" />
    <glyph glyph-name="ccircumflex" unicode="&#x109;" horiz-adv-x="552" 
d="M191 566q-20 0 -35.5 14t-15.5 36q0 19 17 39l96 115q20 23 51 23q30 0 50 -23l96 -115q17 -20 17 -39q0 -22 -15.5 -36t-35.5 -14q-19 0 -34 15l-78 82l-79 -82q-15 -15 -34 -15zM456 183q25 0 42.5 -17.5t17.5 -42.5q0 -17 -11 -34q-66 -101 -201 -101
q-112 0 -188.5 75.5t-76.5 184.5t76.5 183.5t188.5 74.5q62 0 116.5 -27t83.5 -71q12 -19 12 -36q0 -25 -17.5 -42.5t-42.5 -17.5q-29 0 -46 21q-42 50 -104 50q-57 0 -93.5 -38t-36.5 -97q0 -60 36.5 -98t93.5 -38q59 0 104 50q18 21 46 21z" />
    <glyph glyph-name="Cdotaccent" unicode="&#x10a;" horiz-adv-x="720" 
d="M389 903q34 0 59 -23.5t25 -57.5t-25 -57.5t-59 -23.5q-35 0 -60 23.5t-25 57.5t25 57.5t60 23.5zM389 -12q-148 0 -249.5 99t-101.5 243t102 243t250 99q76 0 143.5 -30.5t111.5 -83.5q21 -24 21 -50q0 -25 -18.5 -43t-44.5 -18q-29 0 -52 26q-64 74 -161 74
q-93 0 -153 -61.5t-60 -156.5q0 -94 60 -155t153 -61q95 0 160 74q24 26 53 26q26 0 44 -18t18 -43t-21 -50q-44 -53 -111.5 -83.5t-143.5 -30.5z" />
    <glyph glyph-name="cdotaccent" unicode="&#x10b;" horiz-adv-x="552" 
d="M304 757q34 0 59 -24t25 -58q0 -33 -25 -57t-59 -24q-35 0 -60 23.5t-25 57.5t25 58t60 24zM304 -12q-112 0 -188.5 75.5t-76.5 184.5t76.5 183.5t188.5 74.5q62 0 116.5 -27t83.5 -71q12 -19 12 -36q0 -25 -17.5 -42.5t-42.5 -17.5q-29 0 -46 21q-42 50 -104 50
q-57 0 -93.5 -38t-36.5 -97q0 -60 36.5 -98t93.5 -38q59 0 104 50q18 21 46 21q25 0 42.5 -17.5t17.5 -42.5q0 -17 -11 -34q-66 -101 -201 -101z" />
    <glyph glyph-name="Ccaron" unicode="&#x10c;" horiz-adv-x="720" 
d="M247 841q-30 28 -30 47q0 21 14.5 35.5t34.5 14.5q21 0 39 -16l83 -76l83 76q18 16 39 16q20 0 34.5 -14.5t14.5 -35.5q0 -19 -30 -47l-94 -92q-21 -20 -47 -20q-25 0 -47 20zM603 213q26 0 44 -18t18 -43t-21 -50q-44 -53 -111.5 -83.5t-143.5 -30.5q-148 0 -249.5 99
t-101.5 243t102 243t250 99q76 0 143.5 -30.5t111.5 -83.5q21 -24 21 -50q0 -25 -18.5 -43t-44.5 -18q-29 0 -52 26q-64 74 -161 74q-93 0 -153 -61.5t-60 -156.5q0 -94 60 -155t153 -61q95 0 160 74q24 26 53 26z" />
    <glyph glyph-name="ccaron" unicode="&#x10d;" horiz-adv-x="552" 
d="M253 590l-96 115q-17 20 -17 39q0 22 15.5 36t35.5 14q19 0 34 -15l79 -82l78 82q15 15 34 15q20 0 35.5 -14t15.5 -36q0 -19 -17 -39l-96 -115q-20 -23 -50 -23q-31 0 -51 23zM456 183q25 0 42.5 -17.5t17.5 -42.5q0 -17 -11 -34q-66 -101 -201 -101q-112 0 -188.5 75.5
t-76.5 184.5t76.5 183.5t188.5 74.5q62 0 116.5 -27t83.5 -71q12 -19 12 -36q0 -25 -17.5 -42.5t-42.5 -17.5q-29 0 -46 21q-42 50 -104 50q-57 0 -93.5 -38t-36.5 -97q0 -60 36.5 -98t93.5 -38q59 0 104 50q18 21 46 21z" />
    <glyph glyph-name="Dcaron" unicode="&#x10e;" horiz-adv-x="690" 
d="M155 834q-30 28 -30 47q0 21 14.5 35.5t34.5 14.5q21 0 39 -16l83 -76l83 76q18 16 39 16q20 0 34.5 -14.5t14.5 -35.5q0 -19 -30 -47l-94 -92q-21 -20 -47 -20q-25 0 -47 20zM292 660q161 0 260 -90.5t99 -237.5t-100.5 -239.5t-258.5 -92.5h-148q-30 0 -49.5 19.5
t-19.5 49.5v522q0 30 19.5 49.5t49.5 19.5h148zM291 122q100 0 161 57.5t61 152.5t-59.5 150.5t-162.5 55.5h-81v-416h81z" />
    <glyph glyph-name="dcaron" unicode="&#x10f;" horiz-adv-x="792" 
d="M724 780q34 0 55 -27.5t8 -65.5l-32 -111q-15 -41 -56 -41q-27 0 -45.5 21t-13.5 52l17 112q3 24 22 42t45 18zM495 762q29 0 48 -19.5t19 -49.5v-637q0 -29 -19 -48.5t-47 -19.5q-26 0 -45 18.5t-21 44.5q-54 -63 -151 -63q-104 0 -172 73t-68 186t68 186t172 73
q94 0 148 -59v246q0 29 19.5 49t48.5 20zM304 111q56 0 90.5 37.5t34.5 98.5t-35 99t-90 38t-91.5 -38.5t-36.5 -97.5q0 -60 36 -98.5t92 -38.5z" />
    <glyph glyph-name="Dcroat" unicode="&#x110;" horiz-adv-x="690" 
d="M292 660q161 0 260 -90.5t99 -237.5t-100.5 -239.5t-258.5 -92.5h-148q-30 0 -49.5 19.5t-19.5 49.5v188h-28q-26 0 -44 16t-18 41q0 24 18 40t44 16h28v221q0 30 19.5 49.5t49.5 19.5h148zM291 122q100 0 161 57.5t61 152.5t-59.5 150.5t-162.5 55.5h-81v-168h54
q26 0 44 -16t18 -40q0 -25 -18 -41t-44 -16h-54v-135h81z" />
    <glyph glyph-name="dcroat" unicode="&#x111;" horiz-adv-x="636" 
d="M592 662q23 0 39 -15.5t16 -39.5t-15.5 -39t-39.5 -15h-31v-496q0 -30 -18.5 -49.5t-46.5 -19.5t-46 18.5t-20 46.5q-55 -65 -155 -65q-103 0 -170 69t-67 175t67 175.5t169 69.5q95 0 153 -64v140h-156q-24 0 -39.5 15t-15.5 39t15.5 39.5t39.5 15.5h156v31q0 29 19 49
t48 20t48 -19.5t19 -49.5v-31h31zM303 102q57 0 91.5 35.5t34.5 93.5q0 59 -35 95.5t-91 36.5q-55 0 -91 -37t-36 -94t35.5 -93.5t91.5 -36.5z" />
    <glyph glyph-name="Emacron" unicode="&#x112;" horiz-adv-x="572" 
d="M409 863q23 0 38.5 -15t15.5 -38t-15.5 -38t-38.5 -15h-229q-23 0 -39 15.5t-16 37.5t16 37.5t39 15.5h229zM142 0q-28 0 -47.5 19t-19.5 48v526q0 29 19.5 48t47.5 19h323q27 0 44.5 -17.5t17.5 -43.5t-18 -43.5t-44 -17.5h-255v-134h175q25 0 42 -16.5t17 -41.5
q0 -24 -17 -40.5t-42 -16.5h-175v-167h267q27 0 44.5 -17.5t17.5 -43.5t-18 -43.5t-44 -17.5h-335z" />
    <glyph glyph-name="emacron" unicode="&#x113;" horiz-adv-x="569" 
d="M195 622q-24 0 -40 15t-16 38t16 38t40 15h206q24 0 40 -15t16 -38t-16 -38t-40 -15h-206zM296 506q101 0 168 -66t67 -166v-3q0 -31 -20.5 -50t-53.5 -19h-282q12 -47 48 -72.5t91 -25.5q57 0 103 29q15 9 29 9q23 0 39 -15.5t16 -38.5q0 -31 -34 -54q-69 -46 -157 -46
q-117 0 -194 74t-77 185q0 110 74 184.5t183 74.5zM293 397q-44 0 -75.5 -27t-42.5 -73h225q-2 45 -31 72.5t-76 27.5z" />
    <glyph glyph-name="Ebreve" unicode="&#x114;" horiz-adv-x="572" 
d="M294 726q-65 0 -116.5 41.5t-51.5 95.5q0 23 15 37.5t37 14.5q30 0 50 -38q21 -49 66 -49q47 0 65 49q19 38 51 38q22 0 36.5 -14.5t14.5 -37.5q0 -54 -51 -95.5t-116 -41.5zM142 0q-28 0 -47.5 19t-19.5 48v526q0 29 19.5 48t47.5 19h323q27 0 44.5 -17.5t17.5 -43.5
t-18 -43.5t-44 -17.5h-255v-134h175q25 0 42 -16.5t17 -41.5q0 -24 -17 -40.5t-42 -16.5h-175v-167h267q27 0 44.5 -17.5t17.5 -43.5t-18 -43.5t-44 -17.5h-335z" />
    <glyph glyph-name="ebreve" unicode="&#x115;" horiz-adv-x="569" 
d="M298 573q-69 0 -120 43.5t-51 101.5q0 23 15 39t37 16q40 0 52 -41q6 -26 24 -41.5t43 -15.5t42.5 15.5t23.5 41.5q12 41 51 41q22 0 37.5 -16t15.5 -39q0 -59 -50.5 -102t-119.5 -43zM296 506q101 0 168 -66t67 -166v-3q0 -31 -20.5 -50t-53.5 -19h-282q12 -47 48 -72.5
t91 -25.5q57 0 103 29q15 9 29 9q23 0 39 -15.5t16 -38.5q0 -31 -34 -54q-69 -46 -157 -46q-117 0 -194 74t-77 185q0 110 74 184.5t183 74.5zM293 397q-44 0 -75.5 -27t-42.5 -73h225q-2 45 -31 72.5t-76 27.5z" />
    <glyph glyph-name="Edotaccent" unicode="&#x116;" horiz-adv-x="572" 
d="M294 896q34 0 59 -23.5t25 -57.5t-25 -57.5t-59 -23.5q-35 0 -60 23.5t-25 57.5t25 57.5t60 23.5zM142 0q-28 0 -47.5 19t-19.5 48v526q0 29 19.5 48t47.5 19h323q27 0 44.5 -17.5t17.5 -43.5t-18 -43.5t-44 -17.5h-255v-134h175q25 0 42 -16.5t17 -41.5q0 -24 -17 -40.5
t-42 -16.5h-175v-167h267q27 0 44.5 -17.5t17.5 -43.5t-18 -43.5t-44 -17.5h-335z" />
    <glyph glyph-name="edotaccent" unicode="&#x117;" horiz-adv-x="569" 
d="M298 594q-35 0 -60 23.5t-25 57.5t25 58t60 24q34 0 59 -24t25 -58q0 -33 -25 -57t-59 -24zM296 506q101 0 168 -66t67 -166v-3q0 -31 -20.5 -50t-53.5 -19h-282q12 -47 48 -72.5t91 -25.5q57 0 103 29q15 9 29 9q23 0 39 -15.5t16 -38.5q0 -31 -34 -54q-69 -46 -157 -46
q-117 0 -194 74t-77 185q0 110 74 184.5t183 74.5zM293 397q-44 0 -75.5 -27t-42.5 -73h225q-2 45 -31 72.5t-76 27.5z" />
    <glyph glyph-name="Eogonek" unicode="&#x118;" horiz-adv-x="573" 
d="M497 -93q19 0 30.5 -12t11.5 -32q0 -37 -39 -48q-28 -7 -60 -7q-54 0 -87 27.5t-33 72.5q0 41 46 92h-224q-28 0 -47.5 19t-19.5 48v526q0 29 19.5 48t47.5 19h323q27 0 44.5 -17.5t17.5 -43.5t-18 -43.5t-44 -17.5h-255v-134h175q25 0 42 -16.5t17 -41.5
q0 -24 -17 -40.5t-42 -16.5h-175v-167h267q27 0 44.5 -17.5t17.5 -43.5q0 -13 -4 -21q-2 -11 -15 -24l-38 -33q-36 -31 -36 -51q0 -26 36 -26q3 0 8.5 0.5t6.5 0.5z" />
    <glyph glyph-name="eogonek" unicode="&#x119;" horiz-adv-x="569" 
d="M296 506q101 0 168 -66t67 -166v-3q0 -31 -20.5 -50t-53.5 -19h-282q12 -47 48 -72.5t91 -25.5q57 0 103 29q15 9 29 9q23 0 39 -15.5t16 -38.5q0 -31 -34 -54l-36 -27q-31 -22 -46.5 -38t-15.5 -34q0 -13 10 -21.5t26 -8.5q3 0 8.5 1t6.5 1q19 0 30.5 -12t11.5 -32
q0 -37 -39 -48q-28 -7 -60 -7q-54 0 -87 28t-33 74q0 39 35 80q-105 11 -172 82.5t-67 174.5q0 110 74 184.5t183 74.5zM293 397q-44 0 -75.5 -27t-42.5 -73h225q-2 45 -31 72.5t-76 27.5z" />
    <glyph glyph-name="Ecaron" unicode="&#x11a;" horiz-adv-x="572" 
d="M152 834q-30 28 -30 47q0 21 14.5 35.5t34.5 14.5q21 0 39 -16l83 -76l83 76q18 16 39 16q20 0 34.5 -14.5t14.5 -35.5q0 -19 -30 -47l-94 -92q-21 -20 -47 -20q-25 0 -47 20zM477 122q27 0 44.5 -17.5t17.5 -43.5t-18 -43.5t-44 -17.5h-335q-28 0 -47.5 19t-19.5 48v526
q0 29 19.5 48t47.5 19h323q27 0 44.5 -17.5t17.5 -43.5t-18 -43.5t-44 -17.5h-255v-134h175q25 0 42 -16.5t17 -41.5q0 -24 -17 -40.5t-42 -16.5h-175v-167h267z" />
    <glyph glyph-name="ecaron" unicode="&#x11b;" horiz-adv-x="569" 
d="M247 590l-96 115q-17 20 -17 39q0 22 15.5 36t35.5 14q19 0 34 -15l79 -82l78 82q15 15 34 15q20 0 35.5 -14t15.5 -36q0 -19 -17 -39l-96 -115q-20 -23 -50 -23q-31 0 -51 23zM296 506q101 0 168 -66t67 -166v-3q0 -31 -20.5 -50t-53.5 -19h-282q12 -47 48 -72.5
t91 -25.5q57 0 103 29q15 9 29 9q23 0 39 -15.5t16 -38.5q0 -31 -34 -54q-69 -46 -157 -46q-117 0 -194 74t-77 185q0 110 74 184.5t183 74.5zM293 397q-44 0 -75.5 -27t-42.5 -73h225q-2 45 -31 72.5t-76 27.5z" />
    <glyph glyph-name="Gcircumflex" unicode="&#x11c;" horiz-adv-x="747" 
d="M265 722q-20 0 -34.5 14.5t-14.5 35.5q0 19 30 47l94 92q22 20 47 20q26 0 47 -20l94 -92q30 -28 30 -47q0 -21 -14.5 -35.5t-34.5 -14.5q-21 0 -39 16l-83 76l-83 -76q-18 -16 -39 -16zM637 362q30 0 49.5 -19.5t19.5 -49.5v-85q0 -43 -21 -75q-45 -66 -125.5 -105.5
t-168.5 -39.5q-149 0 -251 98.5t-102 243.5t102 243.5t251 98.5q67 0 130 -25t104 -68q41 -38 41 -71q0 -25 -18.5 -43t-43.5 -18q-30 0 -57 30q-66 70 -158 70q-94 0 -153 -60t-59 -157q0 -98 61 -159.5t159 -61.5q114 0 174 79v57h-126q-27 0 -45 16.5t-18 41.5t18 42
t45 17h192z" />
    <glyph glyph-name="gcircumflex" unicode="&#x11d;" horiz-adv-x="631" 
d="M196 566q-20 0 -35.5 14t-15.5 36q0 19 17 39l96 115q20 23 51 23q30 0 50 -23l96 -115q17 -20 17 -39q0 -22 -15.5 -36t-35.5 -14q-19 0 -34 15l-78 82l-79 -82q-15 -15 -34 -15zM498 506q28 0 47 -19.5t19 -48.5v-383q0 -117 -67.5 -182t-188.5 -65q-126 0 -213 69
q-28 20 -28 49q0 26 17.5 43.5t43.5 17.5q16 0 36 -13q63 -44 133 -44q62 0 97 31t35 86v27q-54 -59 -151 -59q-104 0 -170.5 69t-66.5 177t66.5 176.5t170.5 68.5q100 0 154 -63q1 27 20.5 45t45.5 18zM306 129q56 0 90.5 37t34.5 97q0 58 -34 93t-91 35q-56 0 -92 -36
t-36 -93q0 -58 36 -95.5t92 -37.5z" />
    <glyph glyph-name="Gbreve" unicode="&#x11e;" horiz-adv-x="747" 
d="M388 726q-65 0 -116.5 41.5t-51.5 95.5q0 23 15 37.5t37 14.5q30 0 50 -38q21 -49 66 -49q47 0 65 49q19 38 51 38q22 0 36.5 -14.5t14.5 -37.5q0 -54 -51 -95.5t-116 -41.5zM391 -12q-149 0 -251 98.5t-102 243.5t102 243.5t251 98.5q67 0 130 -25t104 -68
q41 -38 41 -71q0 -25 -18.5 -43t-43.5 -18q-30 0 -57 30q-66 70 -158 70q-94 0 -153 -60t-59 -157q0 -98 61 -159.5t159 -61.5q114 0 174 79v57h-126q-27 0 -45 16.5t-18 41.5t18 42t45 17h192q30 0 49.5 -19.5t19.5 -49.5v-85q0 -43 -21 -75q-45 -66 -125.5 -105.5
t-168.5 -39.5z" />
    <glyph glyph-name="gbreve" unicode="&#x11f;" horiz-adv-x="631" 
d="M309 573q-69 0 -120 43.5t-51 101.5q0 23 15 39t37 16q40 0 52 -41q6 -26 24 -41.5t43 -15.5t42.5 15.5t23.5 41.5q12 41 51 41q22 0 37.5 -16t15.5 -39q0 -59 -50.5 -102t-119.5 -43zM498 506q28 0 47 -19.5t19 -48.5v-383q0 -117 -67.5 -182t-188.5 -65q-126 0 -213 69
q-28 20 -28 49q0 26 17.5 43.5t43.5 17.5q16 0 36 -13q63 -44 133 -44q62 0 97 31t35 86v27q-54 -59 -151 -59q-104 0 -170.5 69t-66.5 177t66.5 176.5t170.5 68.5q100 0 154 -63q1 27 20.5 45t45.5 18zM306 129q56 0 90.5 37t34.5 97q0 58 -34 93t-91 35q-56 0 -92 -36
t-36 -93q0 -58 36 -95.5t92 -37.5z" />
    <glyph glyph-name="Gdotaccent" unicode="&#x120;" horiz-adv-x="747" 
d="M388 896q34 0 59 -23.5t25 -57.5t-25 -57.5t-59 -23.5q-35 0 -60 23.5t-25 57.5t25 57.5t60 23.5zM391 -12q-149 0 -251 98.5t-102 243.5t102 243.5t251 98.5q67 0 130 -25t104 -68q41 -38 41 -71q0 -25 -18.5 -43t-43.5 -18q-30 0 -57 30q-66 70 -158 70q-94 0 -153 -60
t-59 -157q0 -98 61 -159.5t159 -61.5q114 0 174 79v57h-126q-27 0 -45 16.5t-18 41.5t18 42t45 17h192q30 0 49.5 -19.5t19.5 -49.5v-85q0 -43 -21 -75q-45 -66 -125.5 -105.5t-168.5 -39.5z" />
    <glyph glyph-name="gdotaccent" unicode="&#x121;" horiz-adv-x="631" 
d="M309 594q-35 0 -60 23.5t-25 57.5t25 58t60 24q34 0 59 -24t25 -58q0 -33 -25 -57t-59 -24zM498 506q28 0 47 -19.5t19 -48.5v-383q0 -117 -67.5 -182t-188.5 -65q-126 0 -213 69q-28 20 -28 49q0 26 17.5 43.5t43.5 17.5q16 0 36 -13q63 -44 133 -44q62 0 97 31t35 86
v27q-54 -59 -151 -59q-104 0 -170.5 69t-66.5 177t66.5 176.5t170.5 68.5q100 0 154 -63q1 27 20.5 45t45.5 18zM306 129q56 0 90.5 37t34.5 97q0 58 -34 93t-91 35q-56 0 -92 -36t-36 -93q0 -58 36 -95.5t92 -37.5z" />
    <glyph glyph-name="Gcommaaccent" unicode="&#x122;" horiz-adv-x="747" 
d="M391 -12q-149 0 -251 98.5t-102 243.5t102 243.5t251 98.5q67 0 130 -25t104 -68q41 -38 41 -71q0 -25 -18.5 -43t-43.5 -18q-30 0 -57 30q-66 70 -158 70q-94 0 -153 -60t-59 -157q0 -98 61 -159.5t159 -61.5q114 0 174 79v57h-126q-27 0 -45 16.5t-18 41.5t18 42t45 17
h192q30 0 49.5 -19.5t19.5 -49.5v-85q0 -43 -21 -75q-45 -66 -125.5 -105.5t-168.5 -39.5zM357 -254q-23 0 -40.5 17t-17.5 39q0 11 6 38.5t6 52.5q0 28 20 47.5t48 19.5t47.5 -19.5t19.5 -47.5q0 -72 -37 -116q-22 -31 -52 -31z" />
    <glyph glyph-name="gcommaaccent" unicode="&#x123;" horiz-adv-x="631" 
d="M309 560q-27 0 -46 18.5t-19 46.5q0 76 30 145q21 48 62 48q23 0 40 -16.5t17 -40.5q0 -7 -7 -40q-11 -61 -11 -96q0 -27 -19.5 -46t-46.5 -19zM498 506q28 0 47 -19.5t19 -48.5v-383q0 -117 -67.5 -182t-188.5 -65q-126 0 -213 69q-28 20 -28 49q0 26 17.5 43.5
t43.5 17.5q16 0 36 -13q63 -44 133 -44q62 0 97 31t35 86v27q-54 -59 -151 -59q-104 0 -170.5 69t-66.5 177t66.5 176.5t170.5 68.5q100 0 154 -63q1 27 20.5 45t45.5 18zM306 129q56 0 90.5 37t34.5 97q0 58 -34 93t-91 35q-56 0 -92 -36t-36 -93q0 -58 36 -95.5t92 -37.5z
" />
    <glyph glyph-name="Hcircumflex" unicode="&#x124;" horiz-adv-x="712" 
d="M233 722q-20 0 -34.5 14.5t-14.5 35.5q0 19 30 47l94 92q22 20 47 20q26 0 47 -20l94 -92q30 -28 30 -47q0 -21 -14.5 -35.5t-34.5 -14.5q-21 0 -39 16l-83 76l-83 -76q-18 -16 -39 -16zM570 672q29 0 48 -19.5t19 -49.5v-545q0 -30 -19 -50t-48 -20t-48.5 20t-19.5 50
v227h-292v-227q0 -30 -19 -50t-48 -20t-48.5 20t-19.5 50v544q0 30 19 50t49 20q29 0 48 -20t19 -50v-195h292v196q0 30 19 49.5t49 19.5z" />
    <glyph glyph-name="hcircumflex" unicode="&#x125;" horiz-adv-x="585" 
d="M118 828q-18 -16 -39 -16q-20 0 -34.5 14.5t-14.5 35.5q0 19 30 47l94 92q22 20 47 20q26 0 47 -20l94 -92q30 -28 30 -47q0 -21 -14.5 -35.5t-34.5 -14.5q-21 0 -39 16l-83 76zM338 506q83 0 133.5 -54.5t50.5 -144.5v-250q0 -30 -19 -49.5t-48 -19.5q-28 0 -47.5 20
t-19.5 49v231q0 43 -25.5 69.5t-66.5 26.5t-67.5 -26.5t-26.5 -69.5v-231q0 -30 -19 -49.5t-48 -19.5t-48.5 20t-19.5 49v636q0 29 19.5 49t48.5 20t48 -19.5t19 -49.5v-241q54 54 136 54z" />
    <glyph glyph-name="Hbar" unicode="&#x126;" horiz-adv-x="732" 
d="M152 -12q-28 0 -47.5 20t-19.5 49v379h-43q-25 0 -41 16t-16 40q0 25 16 41t41 16h43v54q0 29 19.5 49t47.5 20q29 0 48.5 -20t19.5 -49v-54h292v54q0 29 19 49t48 20t48.5 -20t19.5 -49v-54h43q25 0 41 -16t16 -41q0 -24 -16 -40t-41 -16h-43v-379q0 -29 -19.5 -49
t-48.5 -20q-28 0 -47.5 20t-19.5 49v157h-292v-157q0 -29 -19.5 -49t-48.5 -20zM220 330h292v106h-292v-106z" />
    <glyph glyph-name="hbar" unicode="&#x127;" horiz-adv-x="593" 
d="M345 477q84 0 134.5 -54.5t50.5 -144.5v-221q0 -30 -19 -49.5t-48 -19.5t-48.5 20t-19.5 49v202q0 43 -25 69.5t-66 26.5q-42 0 -68.5 -26.5t-26.5 -69.5v-202q0 -29 -19.5 -49t-47.5 -20t-47.5 20t-19.5 49v494h-30q-24 0 -40.5 16t-16.5 40t16.5 39.5t40.5 15.5h30v31
q0 30 19 49.5t48 19.5q28 0 47.5 -20t19.5 -49v-31h142q24 0 40 -15.5t16 -39.5t-16 -40t-40 -16h-142v-128q54 54 136 54z" />
    <glyph glyph-name="Itilde" unicode="&#x128;" horiz-adv-x="285" 
d="M-2 717q-25 0 -40 15.5t-15 41.5q0 57 33 93t84 36q36 0 74 -21l31 -18q32 -17 44 -17q24 0 30 27q10 37 50 37q25 0 39.5 -15.5t14.5 -41.5q0 -57 -32.5 -93t-84.5 -36q-36 0 -74 21l-30 17q-31 17 -45 17q-23 0 -30 -27q-10 -36 -49 -36zM143 -12q-30 0 -49 19.5
t-19 49.5v546q0 30 19 49.5t49 19.5q29 0 48 -20t19 -49v-546q0 -29 -19 -49t-48 -20z" />
    <glyph glyph-name="itilde" unicode="&#x129;" horiz-adv-x="269" 
d="M205 579q-33 0 -68 26l-20 15q-20 17 -32 17q-21 0 -28 -28q-10 -37 -50 -37q-24 0 -38.5 16t-14.5 42q0 57 31.5 93t80.5 36q32 0 67 -26l20 -15q21 -17 33 -17q21 0 27 27q10 38 50 38q25 0 39 -16t14 -42q0 -58 -30.5 -93.5t-80.5 -35.5zM134 -12q-28 0 -47.5 20
t-19.5 49v381q0 29 19.5 48.5t48.5 19.5t48 -19.5t19 -48.5v-381q0 -29 -19.5 -49t-48.5 -20z" />
    <glyph glyph-name="Imacron" unicode="&#x12a;" horiz-adv-x="285" 
d="M258 863q23 0 38.5 -15t15.5 -38t-15.5 -38t-38.5 -15h-229q-23 0 -39 15.5t-16 37.5t16 37.5t39 15.5h229zM143 -12q-30 0 -49 19.5t-19 49.5v546q0 30 19 49.5t49 19.5q29 0 48 -20t19 -49v-546q0 -29 -19 -49t-48 -20z" />
    <glyph glyph-name="imacron" unicode="&#x12b;" horiz-adv-x="269" 
d="M218 728q23 0 38 -15t15 -38t-15 -38t-38 -15h-165q-23 0 -38.5 15t-15.5 38t15.5 38t38.5 15h165zM134 -12q-28 0 -47.5 20t-19.5 49v381q0 29 19.5 48.5t48.5 19.5t48 -19.5t19 -48.5v-381q0 -29 -19.5 -49t-48.5 -20z" />
    <glyph glyph-name="Ibreve" unicode="&#x12c;" horiz-adv-x="285" 
d="M143 726q-65 0 -116.5 41.5t-51.5 95.5q0 23 14.5 37.5t37.5 14.5q30 0 50 -38q21 -49 66 -49q47 0 65 49q19 38 51 38q22 0 36.5 -14.5t14.5 -37.5q0 -54 -51 -95.5t-116 -41.5zM143 -12q-30 0 -49 19.5t-19 49.5v546q0 30 19 49.5t49 19.5q29 0 48 -20t19 -49v-546
q0 -29 -19 -49t-48 -20z" />
    <glyph glyph-name="ibreve" unicode="&#x12d;" horiz-adv-x="269" 
d="M135 573q-69 0 -120 43.5t-51 101.5q0 23 15 39t37 16q40 0 52 -41q6 -26 24 -41.5t43 -15.5t42.5 15.5t23.5 41.5q12 41 51 41q22 0 37.5 -16t15.5 -39q0 -59 -50.5 -102t-119.5 -43zM134 -12q-28 0 -47.5 20t-19.5 49v381q0 29 19.5 48.5t48.5 19.5t48 -19.5t19 -48.5
v-381q0 -29 -19.5 -49t-48.5 -20z" />
    <glyph glyph-name="Iogonek" unicode="&#x12e;" horiz-adv-x="285" 
d="M184 -93q19 0 30 -12t11 -32q0 -37 -38 -48q-28 -7 -60 -7q-55 0 -87.5 28t-32.5 75q0 33 17 60.5t55 59.5q-4 16 -4 26v546q0 30 19 49.5t49 19.5q29 0 48 -20t19 -49v-546v-7v-5q0 -23 -21 -41q-56 -48 -56 -72q0 -26 35 -26q4 0 9 0.5t7 0.5z" />
    <glyph glyph-name="iogonek" unicode="&#x12f;" horiz-adv-x="269" 
d="M135 594q-35 0 -60 23.5t-25 57.5t25 58t60 24q34 0 59 -24t25 -58q0 -33 -25 -57t-59 -24zM176 -93q19 0 30 -12t11 -32q0 -37 -38 -48q-28 -7 -60 -7q-55 0 -87.5 28t-32.5 75q0 33 17.5 60.5t55.5 59.5q-5 13 -5 26v381q0 29 19.5 48.5t48.5 19.5t48 -19.5t19 -48.5
v-381v-7v-5q0 -23 -21 -41q-56 -48 -56 -72q0 -26 35 -26q4 0 9 0.5t7 0.5z" />
    <glyph glyph-name="Idotaccent" unicode="&#x130;" horiz-adv-x="285" 
d="M143 896q34 0 59 -23.5t25 -57.5t-25 -57.5t-59 -23.5q-35 0 -60 23.5t-25 57.5t25 57.5t60 23.5zM143 -12q-30 0 -49 19.5t-19 49.5v546q0 30 19 49.5t49 19.5q29 0 48 -20t19 -49v-546q0 -29 -19 -49t-48 -20z" />
    <glyph glyph-name="dotlessi" unicode="&#x131;" horiz-adv-x="269" 
d="M134 -12q-28 0 -47.5 20t-19.5 49v381q0 29 19.5 48.5t48.5 19.5t48 -19.5t19 -48.5v-381q0 -29 -19.5 -49t-48.5 -20z" />
    <glyph glyph-name="IJ" unicode="&#x132;" horiz-adv-x="673" 
d="M143 -12q-30 0 -49 19.5t-19 49.5v546q0 30 19 49.5t49 19.5q29 0 48 -20t19 -49v-546q0 -29 -19 -49t-48 -20zM391 -12q-38 0 -62 9q-39 17 -39 57q0 26 18 43t45 17q8 0 23.5 -1.5t24.5 -1.5q29 0 45.5 17.5t16.5 48.5v426q0 30 19 49.5t49 19.5q29 0 48 -20t19 -49
v-427q0 -188 -207 -188z" />
    <glyph glyph-name="ij" unicode="&#x133;" horiz-adv-x="538" 
d="M135 757q34 0 59 -24t25 -58q0 -33 -25 -57t-59 -24q-35 0 -60 23.5t-25 57.5t25 58t60 24zM404 757q34 0 59 -24t25 -58q0 -33 -25 -57t-59 -24q-35 0 -60 23.5t-25 57.5t25 58t60 24zM134 -12q-28 0 -47.5 20t-19.5 49v381q0 29 19.5 48.5t48.5 19.5t48 -19.5t19 -48.5
v-381q0 -29 -19.5 -49t-48.5 -20zM286 -192q-28 0 -55 9q-41 16 -41 55q0 25 16 41.5t41 16.5q3 0 7 -0.5t6 -0.5q40 0 58 19.5t18 69.5v420q0 29 19.5 48.5t48.5 19.5t48 -19.5t19 -48.5v-444q0 -90 -49.5 -138t-135.5 -48z" />
    <glyph glyph-name="Jcircumflex" unicode="&#x134;" horiz-adv-x="388" 
d="M368 819q30 -28 30 -47q0 -21 -14.5 -35.5t-34.5 -14.5q-21 0 -39 16l-83 76l-83 -76q-18 -16 -39 -16q-20 0 -34.5 14.5t-14.5 35.5q0 19 30 47l94 92q22 20 47 20q26 0 47 -20zM246 672q29 0 48 -20t19 -49v-427q0 -188 -207 -188q-38 0 -62 9q-39 17 -39 57
q0 26 18 43t45 17q8 0 23.5 -1.5t24.5 -1.5q29 0 45.5 17.5t16.5 48.5v426q0 30 19 49.5t49 19.5z" />
    <glyph glyph-name="jcircumflex" unicode="&#x135;" horiz-adv-x="269" 
d="M281 655q17 -20 17 -39q0 -22 -15.5 -36t-35.5 -14q-19 0 -34 15l-78 82l-79 -82q-15 -15 -34 -15q-20 0 -35.5 14t-15.5 36q0 19 17 39l96 115q20 23 51 23q30 0 50 -23zM135 506q29 0 48 -19.5t19 -48.5v-444q0 -90 -49.5 -138t-135.5 -48q-28 0 -55 9q-41 16 -41 55
q0 25 16 41.5t41 16.5q2 0 6 -0.5t7 -0.5q40 0 58 19.5t18 69.5v420q0 29 19.5 48.5t48.5 19.5z" />
    <glyph glyph-name="Kcommaaccent" unicode="&#x136;" horiz-adv-x="670" 
d="M143 672q28 0 47.5 -20t19.5 -49v-546q0 -29 -19.5 -49t-47.5 -20q-29 0 -48.5 20t-19.5 49v546q0 30 19 49.5t49 19.5zM606 93q17 -20 17 -41q0 -26 -19 -45t-44 -19q-31 0 -54 28l-251 289q-18 21 -18 45q0 22 19 43l238 257q22 22 49 22q25 0 43 -18.5t18 -44.5
q0 -24 -20 -45l-199 -215zM330 -40q28 0 47.5 -19.5t19.5 -47.5q0 -72 -37 -116q-22 -31 -52 -31q-23 0 -40.5 17t-17.5 39q0 11 6 38.5t6 52.5q0 28 20 47.5t48 19.5z" />
    <glyph glyph-name="kcommaaccent" unicode="&#x137;" 
d="M202 693v-636q0 -30 -19 -49.5t-48 -19.5t-48.5 20t-19.5 49v636q0 29 19.5 49t48.5 20t48 -19.5t19 -49.5zM509 92q16 -20 16 -42q0 -26 -17.5 -44t-43.5 -18q-31 0 -50 25l-169 208q-21 28 -21 49q0 23 24 50l158 165q20 21 47 21q26 0 44 -17.5t18 -42.5
q0 -26 -22 -48l-126 -128zM282 -40q28 0 47.5 -19.5t19.5 -47.5q0 -72 -37 -116q-22 -31 -52 -31q-23 0 -40.5 17t-17.5 39q0 11 6 38.5t6 52.5q0 28 20 47.5t48 19.5z" />
    <glyph glyph-name="Lacute" unicode="&#x139;" horiz-adv-x="523" 
d="M159 719q-35 1 -50 31t-1 57l52 100q19 37 62 35q40 -1 58 -38t-7 -69l-64 -90q-20 -26 -50 -26zM144 0q-30 0 -49.5 19.5t-19.5 49.5v534q0 28 19.5 48.5t48.5 20.5t48 -20t19 -49v-481h235q27 0 44.5 -17.5t17.5 -43.5t-17.5 -43.5t-44.5 -17.5h-301z" />
    <glyph glyph-name="lacute" unicode="&#x13a;" horiz-adv-x="269" 
d="M151 809q-35 1 -50 31t-1 57l52 100q19 37 62 35q40 -1 58 -38t-7 -69l-64 -90q-20 -26 -50 -26zM135 -12q-29 0 -48.5 20t-19.5 49v636q0 29 19.5 49t48.5 20q28 0 47.5 -20t19.5 -49v-636q0 -29 -19.5 -49t-47.5 -20z" />
    <glyph glyph-name="Lcommaaccent" unicode="&#x13b;" horiz-adv-x="523" 
d="M144 0q-30 0 -49.5 19.5t-19.5 49.5v534q0 28 19.5 48.5t48.5 20.5t48 -20t19 -49v-481h235q27 0 44.5 -17.5t17.5 -43.5t-17.5 -43.5t-44.5 -17.5h-301zM258 -254q-23 0 -40.5 17t-17.5 39q0 11 6 38.5t6 52.5q0 28 20 47.5t48 19.5t47.5 -19.5t19.5 -47.5
q0 -72 -37 -116q-22 -31 -52 -31z" />
    <glyph glyph-name="lcommaaccent" unicode="&#x13c;" horiz-adv-x="269" 
d="M135 -12q-29 0 -48.5 20t-19.5 49v636q0 29 19.5 49t48.5 20q28 0 47.5 -20t19.5 -49v-636q0 -29 -19.5 -49t-47.5 -20zM111 -254q-23 0 -40.5 17t-17.5 39q0 11 6 38.5t6 52.5q0 28 20 47.5t48 19.5t47.5 -19.5t19.5 -47.5q0 -72 -37 -116q-22 -31 -52 -31z" />
    <glyph glyph-name="Lcaron" unicode="&#x13d;" horiz-adv-x="523" 
d="M426 505q-27 0 -45.5 21t-13.5 52l17 112q3 24 21.5 42t45.5 18q34 0 55 -27.5t8 -65.5l-32 -111q-15 -41 -56 -41zM144 0q-30 0 -49.5 19.5t-19.5 49.5v534q0 28 19.5 48.5t48.5 20.5t48 -20t19 -49v-481h235q27 0 44.5 -17.5t17.5 -43.5t-17.5 -43.5t-44.5 -17.5h-301z
" />
    <glyph glyph-name="lcaron" unicode="&#x13e;" horiz-adv-x="433" 
d="M339 535q-27 0 -45.5 21t-13.5 52l17 112q3 24 22 42t45 18q34 0 55 -27.5t8 -65.5l-32 -111q-15 -41 -56 -41zM135 -12q-29 0 -48.5 20t-19.5 49v636q0 29 19.5 49t48.5 20q28 0 47.5 -20t19.5 -49v-636q0 -29 -19.5 -49t-47.5 -20z" />
    <glyph glyph-name="Ldot" unicode="&#x13f;" horiz-adv-x="524" 
d="M144 0q-30 0 -49.5 19.5t-19.5 49.5v534q0 28 19.5 48.5t48.5 20.5t48 -20t19 -49v-481h235q27 0 44.5 -17.5t17.5 -43.5t-17.5 -43.5t-44.5 -17.5h-301zM405 285q-40 0 -67 27t-27 66t27 66t67 27q39 0 65.5 -27t26.5 -66t-26.5 -66t-65.5 -27z" />
    <glyph glyph-name="ldot" unicode="&#x140;" horiz-adv-x="411" 
d="M135 -12q-29 0 -48.5 20t-19.5 49v636q0 29 19.5 49t48.5 20q28 0 47.5 -20t19.5 -49v-636q0 -29 -19.5 -49t-47.5 -20zM338 227q-40 0 -67 27t-27 66t27 66t67 27q39 0 65.5 -27t26.5 -66t-26.5 -66t-65.5 -27z" />
    <glyph glyph-name="Lslash" unicode="&#x141;" horiz-adv-x="524" 
d="M445 122q27 0 44.5 -17.5t17.5 -43.5t-17.5 -43.5t-44.5 -17.5h-301q-30 0 -49.5 19.5t-19.5 49.5v134q-29 -11 -54 5.5t-25 45.5q0 40 44 58l35 16v275q0 28 19.5 48.5t48.5 20.5t48 -20t19 -49v-220l125 56q29 13 55.5 -2.5t26.5 -46.5q0 -38 -43 -58l-164 -74v-136
h235z" />
    <glyph glyph-name="lslash" unicode="&#x142;" horiz-adv-x="331" 
d="M261 439q23 0 40.5 -17.5t16.5 -40.5q0 -37 -35 -51l-57 -26v-247q0 -29 -19 -49t-48 -20q-28 0 -47.5 20t-19.5 49v197h-1q-11 -6 -26 -6q-23 0 -40.5 17t-16.5 40q0 35 35 52l49 22v314q0 29 19 49t48 20t48 -20t19 -49v-264l9 4q11 6 26 6z" />
    <glyph glyph-name="Nacute" unicode="&#x143;" horiz-adv-x="712" 
d="M372 719q-35 1 -50 31t-1 57l52 100q19 37 62 35q40 -1 58 -38t-7 -69l-64 -90q-20 -26 -50 -26zM570 672q28 0 47.5 -20t19.5 -49v-547q0 -29 -19 -48.5t-47 -19.5q-16 0 -29 6.5t-19.5 13.5t-18.5 21l-294 378v-350q0 -29 -19.5 -49t-47.5 -20q-29 0 -48.5 20t-19.5 49
v547q0 29 19 48.5t47 19.5q16 0 29 -6.5t20 -14t20 -23.5l293 -375l-1 350q0 29 19.5 49t48.5 20z" />
    <glyph glyph-name="nacute" unicode="&#x144;" horiz-adv-x="585" 
d="M299 562q-28 1 -44 20t-14 43q0 12 8 30l47 107q8 18 25.5 28.5t36.5 10.5q29 0 48 -20t19 -48q0 -19 -11 -37l-62 -103q-21 -33 -53 -31zM336 506q85 0 135.5 -54t50.5 -145v-250q0 -30 -19 -49.5t-48 -19.5q-28 0 -47.5 20t-19.5 49v232q0 43 -25.5 69.5t-66.5 26.5
t-67.5 -27t-26.5 -69v-232q0 -30 -19 -49.5t-48 -19.5t-48.5 20t-19.5 49v381q0 29 19 48.5t48 19.5q23 0 40.5 -14t22.5 -37q56 51 139 51z" />
    <glyph glyph-name="Ncommaaccent" unicode="&#x145;" horiz-adv-x="712" 
d="M570 672q28 0 47.5 -20t19.5 -49v-547q0 -29 -19 -48.5t-47 -19.5q-16 0 -29 6.5t-19.5 13.5t-18.5 21l-294 378v-350q0 -29 -19.5 -49t-47.5 -20q-29 0 -48.5 20t-19.5 49v547q0 29 19 48.5t47 19.5q16 0 29 -6.5t20 -14t20 -23.5l293 -375l-1 350q0 29 19.5 49t48.5 20
zM354 -40q28 0 47.5 -19.5t19.5 -47.5q0 -72 -37 -116q-22 -31 -52 -31q-23 0 -40.5 17t-17.5 39q0 11 6 38.5t6 52.5q0 28 20 47.5t48 19.5z" />
    <glyph glyph-name="ncommaaccent" unicode="&#x146;" horiz-adv-x="585" 
d="M336 506q85 0 135.5 -54t50.5 -145v-250q0 -30 -19 -49.5t-48 -19.5q-28 0 -47.5 20t-19.5 49v232q0 43 -25.5 69.5t-66.5 26.5t-67.5 -27t-26.5 -69v-232q0 -30 -19 -49.5t-48 -19.5t-48.5 20t-19.5 49v381q0 29 19 48.5t48 19.5q23 0 40.5 -14t22.5 -37q56 51 139 51z
M295 -40q28 0 47.5 -19.5t19.5 -47.5q0 -72 -37 -116q-22 -31 -52 -31q-23 0 -40.5 17t-17.5 39q0 11 6 38.5t6 52.5q0 28 20 47.5t48 19.5z" />
    <glyph glyph-name="Ncaron" unicode="&#x147;" horiz-adv-x="712" 
d="M214 834q-30 28 -30 47q0 21 14.5 35.5t34.5 14.5q21 0 39 -16l83 -76l83 76q18 16 39 16q20 0 34.5 -14.5t14.5 -35.5q0 -19 -30 -47l-94 -92q-21 -20 -47 -20q-25 0 -47 20zM570 672q28 0 47.5 -20t19.5 -49v-547q0 -29 -19 -48.5t-47 -19.5q-16 0 -29 6.5t-19.5 13.5
t-18.5 21l-294 378v-350q0 -29 -19.5 -49t-47.5 -20q-29 0 -48.5 20t-19.5 49v547q0 29 19 48.5t47 19.5q16 0 29 -6.5t20 -14t20 -23.5l293 -375l-1 350q0 29 19.5 49t48.5 20z" />
    <glyph glyph-name="ncaron" unicode="&#x148;" horiz-adv-x="585" 
d="M230 590l-96 115q-17 20 -17 39q0 22 15.5 36t35.5 14q19 0 34 -15l79 -82l78 82q15 15 34 15q20 0 35.5 -14t15.5 -36q0 -19 -17 -39l-96 -115q-20 -23 -50 -23q-31 0 -51 23zM336 506q85 0 135.5 -54t50.5 -145v-250q0 -30 -19 -49.5t-48 -19.5q-28 0 -47.5 20
t-19.5 49v232q0 43 -25.5 69.5t-66.5 26.5t-67.5 -27t-26.5 -69v-232q0 -30 -19 -49.5t-48 -19.5t-48.5 20t-19.5 49v381q0 29 19 48.5t48 19.5q23 0 40.5 -14t22.5 -37q56 51 139 51z" />
    <glyph glyph-name="Eng" unicode="&#x14a;" horiz-adv-x="713" 
d="M637 103h1v-109q0 -91 -48.5 -138.5t-141.5 -47.5q-38 0 -59 12q-32 18 -32 53q0 27 18.5 45t47.5 18h9q71 0 71 66v28l-293 377v-350q0 -29 -19.5 -49t-47.5 -20q-29 0 -48.5 20t-19.5 49v547q0 29 19 48.5t47 19.5q16 0 29 -6.5t20 -14t20 -23.5l293 -375l-1 350
q0 29 19.5 49t48.5 20q28 0 47.5 -20t19.5 -49v-500z" />
    <glyph glyph-name="eng" unicode="&#x14b;" horiz-adv-x="585" 
d="M336 506q85 0 135.5 -54t50.5 -145v-313q0 -86 -51 -136t-133 -50q-32 0 -57 9q-40 14 -40 55q0 25 16.5 41.5t41.5 16.5q2 0 5.5 -0.5t6.5 -0.5q77 0 77 77v283q0 43 -25.5 69.5t-66.5 26.5t-67.5 -27t-26.5 -69v-232q0 -30 -19 -49.5t-48 -19.5t-48.5 20t-19.5 49v381
q0 29 19 48.5t48 19.5q23 0 40.5 -14t22.5 -37q56 51 139 51z" />
    <glyph glyph-name="Omacron" unicode="&#x14c;" horiz-adv-x="778" 
d="M504 863q23 0 38.5 -15t15.5 -38t-15.5 -38t-38.5 -15h-229q-23 0 -39 15.5t-16 37.5t16 37.5t39 15.5h229zM388 672q148 0 250 -99.5t102 -242.5t-102 -242.5t-250 -99.5t-249 99t-101 243t101.5 243t248.5 99zM389 547q-93 0 -152.5 -61t-59.5 -156t59.5 -156
t152.5 -61q92 0 152 61.5t60 155.5t-60 155.5t-152 61.5z" />
    <glyph glyph-name="omacron" unicode="&#x14d;" horiz-adv-x="608" 
d="M407 728q24 0 40 -15t16 -38t-16 -38t-40 -15h-206q-24 0 -40 15t-16 38t16 38t40 15h206zM304 506q111 0 188.5 -75t77.5 -183t-77.5 -183.5t-189.5 -75.5q-111 0 -187.5 75t-76.5 184t76.5 183.5t188.5 74.5zM304 383q-56 0 -92 -38.5t-36 -97.5q0 -58 36 -96t92 -38
q55 0 91.5 38t36.5 96t-36.5 97t-91.5 39z" />
    <glyph glyph-name="Obreve" unicode="&#x14e;" horiz-adv-x="778" 
d="M389 726q-65 0 -116.5 41.5t-51.5 95.5q0 23 14.5 37.5t37.5 14.5q30 0 50 -38q21 -49 66 -49q47 0 65 49q19 38 51 38q22 0 36.5 -14.5t14.5 -37.5q0 -54 -51 -95.5t-116 -41.5zM388 672q148 0 250 -99.5t102 -242.5t-102 -242.5t-250 -99.5t-249 99t-101 243t101.5 243
t248.5 99zM389 547q-93 0 -152.5 -61t-59.5 -156t59.5 -156t152.5 -61q92 0 152 61.5t60 155.5t-60 155.5t-152 61.5z" />
    <glyph glyph-name="obreve" unicode="&#x14f;" horiz-adv-x="608" 
d="M304 573q-69 0 -120 43.5t-51 101.5q0 23 15 39t37 16q40 0 52 -41q6 -26 24 -41.5t43 -15.5t42.5 15.5t23.5 41.5q12 41 51 41q22 0 37.5 -16t15.5 -39q0 -59 -50.5 -102t-119.5 -43zM304 506q111 0 188.5 -75t77.5 -183t-77.5 -183.5t-189.5 -75.5q-111 0 -187.5 75
t-76.5 184t76.5 183.5t188.5 74.5zM304 383q-56 0 -92 -38.5t-36 -97.5q0 -58 36 -96t92 -38q55 0 91.5 38t36.5 96t-36.5 97t-91.5 39z" />
    <glyph glyph-name="Ohungarumlaut" unicode="&#x150;" horiz-adv-x="778" 
d="M291 719q-35 1 -50 31t-1 57l52 100q19 37 62 35q40 -1 58 -38t-7 -69l-64 -90q-20 -26 -50 -26zM506 719q-35 1 -50 31t-1 57l52 100q19 37 62 35q40 -1 58 -38t-7 -69l-64 -90q-20 -26 -50 -26zM388 672q148 0 250 -99.5t102 -242.5t-102 -242.5t-250 -99.5t-249 99
t-101 243t101.5 243t248.5 99zM389 547q-93 0 -152.5 -61t-59.5 -156t59.5 -156t152.5 -61q92 0 152 61.5t60 155.5t-60 155.5t-152 61.5z" />
    <glyph glyph-name="ohungarumlaut" unicode="&#x151;" horiz-adv-x="608" 
d="M231 562q-28 1 -44 20t-14 43q0 12 8 30l47 107q8 18 25.5 28.5t36.5 10.5q29 0 48 -20t19 -48q0 -19 -11 -37l-62 -103q-21 -33 -53 -31zM423 562q-28 1 -44 20t-14 43q0 12 8 30l47 107q8 18 25.5 28.5t36.5 10.5q29 0 48 -20t19 -48q0 -19 -11 -37l-62 -103
q-21 -33 -53 -31zM304 506q111 0 188.5 -75t77.5 -183t-77.5 -183.5t-189.5 -75.5q-111 0 -187.5 75t-76.5 184t76.5 183.5t188.5 74.5zM304 383q-56 0 -92 -38.5t-36 -97.5q0 -58 36 -96t92 -38q55 0 91.5 38t36.5 96t-36.5 97t-91.5 39z" />
    <glyph glyph-name="OE" unicode="&#x152;" horiz-adv-x="1098" 
d="M1002 122q27 0 44.5 -17.5t17.5 -43.5t-18 -43.5t-44 -17.5h-335q-29 0 -48 19t-19 48v2q-83 -81 -213 -81q-148 0 -248.5 98.5t-100.5 243.5t101 243.5t249 98.5q130 0 212 -80v1q0 29 19 48t48 19h323q27 0 44.5 -17.5t17.5 -43.5t-18 -43.5t-44 -17.5h-255v-134h175
q25 0 42 -16.5t17 -41.5q0 -24 -17 -40.5t-42 -16.5h-175v-167h267zM388 113q86 0 145.5 54t66.5 139v46q-7 86 -66.5 140.5t-145.5 54.5q-92 0 -151.5 -61t-59.5 -157q0 -94 59.5 -155t151.5 -61z" />
    <glyph glyph-name="oe" unicode="&#x153;" horiz-adv-x="942" 
d="M669 506q101 0 168 -66t67 -166v-3q0 -31 -20 -50t-53 -19h-279q11 -47 46 -72.5t90 -25.5q59 0 102 29q15 9 29 9q23 0 39 -15.5t16 -38.5q0 -31 -34 -54q-67 -46 -156 -46q-125 0 -197 91q-67 -91 -186 -91q-110 0 -186 75t-76 184t76 184t186 75q117 0 185 -90
q69 90 183 90zM667 397q-43 0 -73.5 -26.5t-41.5 -73.5h221q-2 45 -31 72.5t-75 27.5zM303 112q53 0 87.5 38t34.5 97q0 60 -34.5 98t-87.5 38q-55 0 -91 -38.5t-36 -97.5t36 -97t91 -38z" />
    <glyph glyph-name="Racute" unicode="&#x154;" horiz-adv-x="640" 
d="M290 719q-35 1 -50 31t-1 57l52 100q19 37 62 35q40 -1 58 -38t-7 -69l-64 -90q-20 -26 -50 -26zM577 101q19 -28 19 -51q0 -25 -18.5 -43.5t-44.5 -18.5q-36 0 -60 35l-148 210h-1h-114v-176q0 -29 -19.5 -49t-47.5 -20q-29 0 -48.5 20t-19.5 49v535q0 29 19.5 48.5
t49.5 19.5h180q106 0 171.5 -58.5t65.5 -153.5q0 -122 -103 -182zM210 541v-189h113q46 0 73 25.5t27 69.5q0 43 -27 68.5t-73 25.5h-113z" />
    <glyph glyph-name="racute" unicode="&#x155;" horiz-adv-x="388" 
d="M209 562q-28 1 -44 20t-14 43q0 12 8 30l47 107q8 18 25.5 28.5t36.5 10.5q29 0 48 -20t19 -48q0 -19 -11 -37l-62 -103q-21 -33 -53 -31zM320 501q27 0 44 -16.5t17 -44.5q0 -27 -17 -44.5t-46 -20.5q-54 -4 -85 -37.5t-31 -90.5v-190q0 -30 -19 -49.5t-48 -19.5
t-48.5 20t-19.5 49v381q0 29 19 48.5t48 19.5q26 0 44.5 -17.5t20.5 -43.5q50 56 121 56z" />
    <glyph glyph-name="Rcommaaccent" unicode="&#x156;" horiz-adv-x="640" 
d="M577 101q19 -28 19 -51q0 -25 -18.5 -43.5t-44.5 -18.5q-36 0 -60 35l-148 210h-1h-114v-176q0 -29 -19.5 -49t-47.5 -20q-29 0 -48.5 20t-19.5 49v535q0 29 19.5 48.5t49.5 19.5h180q106 0 171.5 -58.5t65.5 -153.5q0 -122 -103 -182zM210 541v-189h113q46 0 73 25.5
t27 69.5q0 43 -27 68.5t-73 25.5h-113zM314 -40q28 0 47.5 -19.5t19.5 -47.5q0 -72 -37 -116q-22 -31 -52 -31q-23 0 -40.5 17t-17.5 39q0 11 6 38.5t6 52.5q0 28 20 47.5t48 19.5z" />
    <glyph glyph-name="rcommaaccent" unicode="&#x157;" horiz-adv-x="388" 
d="M320 501q27 0 44 -16.5t17 -44.5q0 -27 -17 -44.5t-46 -20.5q-54 -4 -85 -37.5t-31 -90.5v-190q0 -30 -19 -49.5t-48 -19.5t-48.5 20t-19.5 49v381q0 29 19 48.5t48 19.5q26 0 44.5 -17.5t20.5 -43.5q50 56 121 56zM132 -40q28 0 47.5 -19.5t19.5 -47.5q0 -72 -37 -116
q-22 -31 -52 -31q-23 0 -40.5 17t-17.5 39q0 11 6 38.5t6 52.5q0 28 20 47.5t48 19.5z" />
    <glyph glyph-name="Rcaron" unicode="&#x158;" horiz-adv-x="640" 
d="M132 834q-30 28 -30 47q0 21 14.5 35.5t34.5 14.5q21 0 39 -16l83 -76l83 76q18 16 39 16q20 0 34.5 -14.5t14.5 -35.5q0 -19 -30 -47l-94 -92q-21 -20 -47 -20q-25 0 -47 20zM577 101q19 -28 19 -51q0 -25 -18.5 -43.5t-44.5 -18.5q-36 0 -60 35l-148 210h-1h-114v-176
q0 -29 -19.5 -49t-47.5 -20q-29 0 -48.5 20t-19.5 49v535q0 29 19.5 48.5t49.5 19.5h180q106 0 171.5 -58.5t65.5 -153.5q0 -122 -103 -182zM210 541v-189h113q46 0 73 25.5t27 69.5q0 43 -27 68.5t-73 25.5h-113z" />
    <glyph glyph-name="rcaron" unicode="&#x159;" horiz-adv-x="388" 
d="M191 567q-31 0 -51 23l-96 115q-17 20 -17 39q0 22 15.5 36t35.5 14q19 0 34 -15l79 -82l78 82q15 15 34 15q20 0 35.5 -14t15.5 -36q0 -19 -17 -39l-96 -115q-20 -23 -50 -23zM320 501q27 0 44 -16.5t17 -44.5q0 -27 -17 -44.5t-46 -20.5q-54 -4 -85 -37.5t-31 -90.5
v-190q0 -30 -19 -49.5t-48 -19.5t-48.5 20t-19.5 49v381q0 29 19 48.5t48 19.5q26 0 44.5 -17.5t20.5 -43.5q50 56 121 56z" />
    <glyph glyph-name="Sacute" unicode="&#x15a;" horiz-adv-x="559" 
d="M296 719q-35 1 -50 31t-1 57l52 100q19 37 62 35q40 -1 58 -38t-7 -69l-64 -90q-20 -26 -50 -26zM285 -12q-59 0 -117.5 24.5t-95.5 64.5q-25 25 -25 52q1 26 19 43t43 17q21 0 35 -13q66 -68 141 -68q44 0 69 19.5t25 53.5q0 27 -17.5 43.5t-66.5 38.5l-71 32
q-81 37 -120.5 82.5t-39.5 107.5q0 83 62 135t157 52q117 0 185 -78q18 -19 18 -43q0 -25 -19 -42.5t-43 -17.5q-20 0 -37 14q-53 47 -104 47q-37 0 -59.5 -17t-22.5 -47q0 -24 16 -39.5t61 -36.5l75 -33q85 -38 124 -82.5t39 -110.5q0 -90 -65 -144t-166 -54z" />
    <glyph glyph-name="sacute" unicode="&#x15b;" horiz-adv-x="455" 
d="M250 562q-28 1 -44 20t-14 43q0 12 8 30l47 107q8 18 25.5 28.5t36.5 10.5q29 0 48 -20t19 -48q0 -19 -11 -37l-62 -103q-21 -33 -53 -31zM227 -12q-109 0 -182 71q-19 16 -19 42q0 23 16.5 40t39.5 17q20 0 39 -15q51 -44 108 -44q27 0 45 10.5t18 30.5q0 16 -11.5 24.5
t-39.5 20.5l-53 22q-68 28 -101.5 62t-33.5 89q0 70 50.5 109.5t131.5 39.5q94 0 156 -53q24 -18 24 -46q0 -23 -16 -39.5t-39 -16.5q-15 0 -36 14q-43 30 -90 30q-53 0 -53 -35q0 -14 11.5 -23.5t40.5 -20.5l48 -20q72 -29 105.5 -62.5t33.5 -88.5q0 -74 -54.5 -116
t-138.5 -42z" />
    <glyph glyph-name="Scircumflex" unicode="&#x15c;" horiz-adv-x="559" 
d="M157 722q-20 0 -34.5 14.5t-14.5 35.5q0 19 30 47l94 92q22 20 47 20q26 0 47 -20l94 -92q30 -28 30 -47q0 -21 -14.5 -35.5t-34.5 -14.5q-21 0 -39 16l-83 76l-83 -76q-18 -16 -39 -16zM353 379q85 -38 124 -82.5t39 -110.5q0 -90 -65 -144t-166 -54q-59 0 -117.5 24.5
t-95.5 64.5q-25 25 -25 52q1 26 19 43t43 17q21 0 35 -13q66 -68 141 -68q44 0 69 19.5t25 53.5q0 27 -17.5 43.5t-66.5 38.5l-71 32q-81 37 -120.5 82.5t-39.5 107.5q0 83 62 135t157 52q117 0 185 -78q18 -19 18 -43q0 -25 -19 -42.5t-43 -17.5q-20 0 -37 14
q-53 47 -104 47q-37 0 -59.5 -17t-22.5 -47q0 -24 16 -39.5t61 -36.5z" />
    <glyph glyph-name="scircumflex" unicode="&#x15d;" horiz-adv-x="455" 
d="M119 566q-20 0 -35.5 14t-15.5 36q0 19 17 39l96 115q20 23 51 23q30 0 50 -23l96 -115q17 -20 17 -39q0 -22 -15.5 -36t-35.5 -14q-19 0 -34 15l-78 82l-79 -82q-15 -15 -34 -15zM281 297q72 -29 105.5 -62.5t33.5 -88.5q0 -74 -54.5 -116t-138.5 -42q-109 0 -182 71
q-19 16 -19 42q0 23 16.5 40t39.5 17q20 0 39 -15q51 -44 108 -44q27 0 45 10.5t18 30.5q0 16 -11.5 24.5t-39.5 20.5l-53 22q-68 28 -101.5 62t-33.5 89q0 70 50.5 109.5t131.5 39.5q94 0 156 -53q24 -18 24 -46q0 -23 -16 -39.5t-39 -16.5q-15 0 -36 14q-43 30 -90 30
q-53 0 -53 -35q0 -14 11.5 -23.5t40.5 -20.5z" />
    <glyph glyph-name="Scedilla" unicode="&#x15e;" horiz-adv-x="559" 
d="M516 186q0 -69 -39.5 -118t-106.5 -68q17 -36 17 -63q0 -59 -42 -94t-112 -35q-41 0 -65 9q-32 14 -32 43q0 20 14 34t34 14q5 0 15.5 -0.5t16.5 -0.5q58 0 58 40q0 23 -13 42q-54 5 -105 28.5t-84 59.5q-25 25 -25 52q1 26 19 43t43 17q21 0 35 -13q66 -68 141 -68
q44 0 69 19.5t25 53.5q0 27 -17.5 43.5t-66.5 38.5l-71 32q-81 37 -120.5 82.5t-39.5 107.5q0 83 62 135t157 52q117 0 185 -78q18 -19 18 -43q0 -25 -19 -42.5t-43 -17.5q-20 0 -37 14q-53 47 -104 47q-37 0 -59.5 -17t-22.5 -47q0 -24 16 -39.5t61 -36.5l75 -33
q85 -38 124 -82.5t39 -110.5z" />
    <glyph glyph-name="scedilla" unicode="&#x15f;" horiz-adv-x="455" 
d="M420 146q0 -103 -102 -143q19 -33 19 -66q0 -59 -42 -94t-112 -35q-41 0 -65 9q-32 14 -32 43q0 20 14 34t34 14q5 0 15.5 -0.5t16.5 -0.5q58 0 58 40q0 22 -12 41q-100 6 -167 71q-19 16 -19 42q0 23 16.5 40t39.5 17q20 0 39 -15q51 -44 108 -44q27 0 45 10.5t18 30.5
q0 16 -11.5 24.5t-39.5 20.5l-53 22q-68 28 -101.5 62t-33.5 89q0 70 50.5 109.5t131.5 39.5q94 0 156 -53q24 -18 24 -46q0 -23 -16 -39.5t-39 -16.5q-15 0 -36 14q-43 30 -90 30q-53 0 -53 -35q0 -14 11.5 -23.5t40.5 -20.5l48 -20q72 -29 105.5 -62.5t33.5 -88.5z" />
    <glyph glyph-name="Scaron" unicode="&#x160;" horiz-adv-x="559" 
d="M138 834q-30 28 -30 47q0 21 14.5 35.5t34.5 14.5q21 0 39 -16l83 -76l83 76q18 16 39 16q20 0 34.5 -14.5t14.5 -35.5q0 -19 -30 -47l-94 -92q-21 -20 -47 -20q-25 0 -47 20zM353 379q85 -38 124 -82.5t39 -110.5q0 -90 -65 -144t-166 -54q-59 0 -117.5 24.5t-95.5 64.5
q-25 25 -25 52q1 26 19 43t43 17q21 0 35 -13q66 -68 141 -68q44 0 69 19.5t25 53.5q0 27 -17.5 43.5t-66.5 38.5l-71 32q-81 37 -120.5 82.5t-39.5 107.5q0 83 62 135t157 52q117 0 185 -78q18 -19 18 -43q0 -25 -19 -42.5t-43 -17.5q-20 0 -37 14q-53 47 -104 47
q-37 0 -59.5 -17t-22.5 -47q0 -24 16 -39.5t61 -36.5z" />
    <glyph glyph-name="scaron" unicode="&#x161;" horiz-adv-x="455" 
d="M181 590l-96 115q-17 20 -17 39q0 22 15.5 36t35.5 14q19 0 34 -15l79 -82l78 82q15 15 34 15q20 0 35.5 -14t15.5 -36q0 -19 -17 -39l-96 -115q-20 -23 -50 -23q-31 0 -51 23zM281 297q72 -29 105.5 -62.5t33.5 -88.5q0 -74 -54.5 -116t-138.5 -42q-109 0 -182 71
q-19 16 -19 42q0 23 16.5 40t39.5 17q20 0 39 -15q51 -44 108 -44q27 0 45 10.5t18 30.5q0 16 -11.5 24.5t-39.5 20.5l-53 22q-68 28 -101.5 62t-33.5 89q0 70 50.5 109.5t131.5 39.5q94 0 156 -53q24 -18 24 -46q0 -23 -16 -39.5t-39 -16.5q-15 0 -36 14q-43 30 -90 30
q-53 0 -53 -35q0 -14 11.5 -23.5t40.5 -20.5z" />
    <glyph glyph-name="uni0162" unicode="&#x162;" horiz-adv-x="585" 
d="M517 660q27 0 44.5 -17.5t17.5 -43.5t-18 -43.5t-44 -17.5h-157v-481v-2q26 -23 43 -55.5t17 -62.5q0 -59 -42 -94t-112 -35q-41 0 -65 9q-32 14 -32 43q0 20 14 34t34 14q5 0 15.5 -0.5t16.5 -0.5q58 0 58 40q0 22 -12 41h-3q-28 0 -47.5 20t-19.5 49v481h-157
q-26 0 -44 17.5t-18 43.5t18 43.5t44 17.5h449z" />
    <glyph glyph-name="uni0163" unicode="&#x163;" horiz-adv-x="416" 
d="M337 110q27 0 43 -15t16 -40q0 -38 -34 -54q-20 -8 -42 -11q12 -31 12 -53q0 -59 -42 -94t-112 -35q-41 0 -65 9q-32 14 -32 43q0 20 14 34t34 14q5 0 15.5 -0.5t16.5 -0.5q58 0 58 40q0 27 -21 54l-2 3q-102 40 -102 170v207h-28q-25 0 -41.5 16t-16.5 41t16.5 41
t41.5 16h28v68q0 29 19 48.5t49 19.5q29 0 48 -19.5t19 -48.5v-68h91q25 0 41 -16t16 -41t-16 -41t-41 -16h-91v-195q0 -41 21 -59t68 -18q4 0 10.5 0.5t8.5 0.5z" />
    <glyph glyph-name="Tcaron" unicode="&#x164;" horiz-adv-x="585" 
d="M151 834q-30 28 -30 47q0 21 14.5 35.5t34.5 14.5q21 0 39 -16l83 -76l83 76q18 16 39 16q20 0 34.5 -14.5t14.5 -35.5q0 -19 -30 -47l-94 -92q-21 -20 -47 -20q-25 0 -47 20zM517 660q27 0 44.5 -17.5t17.5 -43.5t-18 -43.5t-44 -17.5h-157v-481q0 -29 -19.5 -49
t-48.5 -20q-28 0 -47.5 20t-19.5 49v481h-157q-26 0 -44 17.5t-18 43.5t18 43.5t44 17.5h449z" />
    <glyph glyph-name="tcaron" unicode="&#x165;" horiz-adv-x="416" 
d="M394 780q34 0 55 -27.5t8 -65.5l-32 -111q-15 -41 -56 -41q-27 0 -45.5 21t-13.5 52l17 112q3 24 21.5 42t45.5 18zM337 110q27 0 43 -15t16 -40q0 -38 -34 -54q-31 -13 -70 -13q-97 0 -147.5 47.5t-50.5 138.5v207h-28q-25 0 -41.5 16t-16.5 41t16.5 41t41.5 16h28v68
q0 29 19 48.5t49 19.5q29 0 48 -19.5t19 -48.5v-68h91q25 0 41 -16t16 -41t-16 -41t-41 -16h-91v-195q0 -41 21 -59t68 -18q4 0 10.5 0.5t8.5 0.5z" />
    <glyph glyph-name="Tbar" unicode="&#x166;" horiz-adv-x="585" 
d="M292 -12q-28 0 -47.5 20t-19.5 49v170h-127q-24 0 -40.5 16.5t-16.5 40.5t16.5 40t40.5 16h127v198h-157q-26 0 -44 17.5t-18 43.5t18 43.5t44 17.5h449q27 0 44.5 -17.5t17.5 -43.5t-18 -43.5t-44 -17.5h-157v-198h127q25 0 41 -15.5t16 -40.5q0 -24 -16 -40.5
t-41 -16.5h-127v-170q0 -29 -19.5 -49t-48.5 -20z" />
    <glyph glyph-name="tbar" unicode="&#x167;" horiz-adv-x="431" 
d="M347 110q27 0 43 -15t16 -40q0 -39 -34 -54q-27 -13 -76 -13q-97 0 -147.5 47.5t-50.5 138.5v23h-26q-23 0 -38.5 15.5t-15.5 38.5t15.5 38.5t38.5 15.5h26v81h-26q-23 0 -38.5 15.5t-15.5 38.5t15.5 38.5t38.5 15.5h26v69q0 29 19 48.5t49 19.5q29 0 48 -19.5t19 -48.5
v-69h100q23 0 38.5 -15.5t15.5 -38.5t-15.5 -38.5t-38.5 -15.5h-100v-81h100q23 0 38.5 -15.5t15.5 -38.5t-15.5 -38.5t-38.5 -15.5h-100v-11q0 -41 21 -59t68 -18q4 0 13.5 0.5t11.5 0.5z" />
    <glyph glyph-name="Utilde" unicode="&#x168;" horiz-adv-x="700" 
d="M205 717q-25 0 -40 15.5t-15 41.5q0 57 33 93t84 36q37 0 74 -21l31 -18q32 -17 44 -17q24 0 30 27q10 37 50 37q25 0 39.5 -15.5t14.5 -41.5q0 -57 -32.5 -93t-84.5 -36q-37 0 -74 21l-30 17q-31 17 -45 17q-23 0 -30 -27q-10 -36 -49 -36zM350 -12q-125 0 -202.5 79
t-77.5 206v330q0 29 19.5 49t48.5 20q28 0 47.5 -20t19.5 -49v-340q0 -69 39 -109.5t106 -40.5t106 40.5t39 109.5v340q0 29 19.5 49t48.5 20q28 0 47.5 -20t19.5 -49v-330q0 -127 -77.5 -206t-202.5 -79z" />
    <glyph glyph-name="utilde" unicode="&#x169;" horiz-adv-x="580" 
d="M372 579q-40 0 -75 23l-28 18q-28 20 -39 20q-22 0 -30 -28q-10 -38 -50 -38q-24 0 -38.5 16t-14.5 42q0 58 32.5 93.5t83.5 35.5q36 0 71 -23l28 -18q28 -19 42 -19q20 0 27 28q10 37 50 37q25 0 39 -16t14 -42q0 -57 -31.5 -93t-80.5 -36zM291 -12q-101 0 -165 64
t-64 166v220q0 29 19.5 48.5t48.5 19.5t48 -19.5t19 -48.5v-231q0 -41 26.5 -68t67.5 -27q40 0 66 27t26 68v231q0 29 19 48.5t49 19.5q29 0 48 -19.5t19 -48.5v-220q0 -102 -63.5 -166t-163.5 -64z" />
    <glyph glyph-name="Umacron" unicode="&#x16a;" horiz-adv-x="700" 
d="M465 863q23 0 38.5 -15t15.5 -38t-15.5 -38t-38.5 -15h-229q-23 0 -39 15.5t-16 37.5t16 37.5t39 15.5h229zM350 -12q-125 0 -202.5 79t-77.5 206v330q0 29 19.5 49t48.5 20q28 0 47.5 -20t19.5 -49v-340q0 -69 39 -109.5t106 -40.5t106 40.5t39 109.5v340q0 29 19.5 49
t48.5 20q28 0 47.5 -20t19.5 -49v-330q0 -127 -77.5 -206t-202.5 -79z" />
    <glyph glyph-name="umacron" unicode="&#x16b;" horiz-adv-x="580" 
d="M393 728q24 0 40 -15t16 -38t-16 -38t-40 -15h-206q-24 0 -40 15t-16 38t16 38t40 15h206zM291 -12q-101 0 -165 64t-64 166v220q0 29 19.5 48.5t48.5 19.5t48 -19.5t19 -48.5v-231q0 -41 26.5 -68t67.5 -27q40 0 66 27t26 68v231q0 29 19 48.5t49 19.5q29 0 48 -19.5
t19 -48.5v-220q0 -102 -63.5 -166t-163.5 -64z" />
    <glyph glyph-name="Ubreve" unicode="&#x16c;" horiz-adv-x="700" 
d="M350 726q-65 0 -116.5 41.5t-51.5 95.5q0 23 15 37.5t37 14.5q30 0 50 -38q21 -49 66 -49q47 0 65 49q19 38 51 38q22 0 36.5 -14.5t14.5 -37.5q0 -54 -51 -95.5t-116 -41.5zM350 -12q-125 0 -202.5 79t-77.5 206v330q0 29 19.5 49t48.5 20q28 0 47.5 -20t19.5 -49v-340
q0 -69 39 -109.5t106 -40.5t106 40.5t39 109.5v340q0 29 19.5 49t48.5 20q28 0 47.5 -20t19.5 -49v-330q0 -127 -77.5 -206t-202.5 -79z" />
    <glyph glyph-name="ubreve" unicode="&#x16d;" horiz-adv-x="580" 
d="M290 573q-69 0 -120 43.5t-51 101.5q0 23 15 39t37 16q40 0 52 -41q6 -26 24 -41.5t43 -15.5t42.5 15.5t23.5 41.5q12 41 51 41q22 0 37.5 -16t15.5 -39q0 -59 -50.5 -102t-119.5 -43zM291 -12q-101 0 -165 64t-64 166v220q0 29 19.5 48.5t48.5 19.5t48 -19.5t19 -48.5
v-231q0 -41 26.5 -68t67.5 -27q40 0 66 27t26 68v231q0 29 19 48.5t49 19.5q29 0 48 -19.5t19 -48.5v-220q0 -102 -63.5 -166t-163.5 -64z" />
    <glyph glyph-name="Uring" unicode="&#x16e;" horiz-adv-x="700" 
d="M349 919q55 0 91 -34.5t36 -86.5q0 -53 -36 -88t-91 -35q-54 0 -90 35t-36 88q0 52 36 86.5t90 34.5zM350 839q-17 0 -29 -11.5t-12 -29.5t12 -30t29 -12t29 12t12 30q0 17 -12 29t-29 12zM350 -12q-125 0 -202.5 79t-77.5 206v330q0 29 19.5 49t48.5 20q28 0 47.5 -20
t19.5 -49v-340q0 -69 39 -109.5t106 -40.5t106 40.5t39 109.5v340q0 29 19.5 49t48.5 20q28 0 47.5 -20t19.5 -49v-330q0 -127 -77.5 -206t-202.5 -79z" />
    <glyph glyph-name="uring" unicode="&#x16f;" horiz-adv-x="580" 
d="M289 795q55 0 91 -34.5t36 -87.5t-36 -88t-91 -35q-54 0 -90 35t-36 88q0 52 36 87t90 35zM290 714q-17 0 -29 -11.5t-12 -29.5t11.5 -29.5t29.5 -11.5q17 0 29 12t12 29q0 18 -12 29.5t-29 11.5zM291 -12q-101 0 -165 64t-64 166v220q0 29 19.5 48.5t48.5 19.5t48 -19.5
t19 -48.5v-231q0 -41 26.5 -68t67.5 -27q40 0 66 27t26 68v231q0 29 19 48.5t49 19.5q29 0 48 -19.5t19 -48.5v-220q0 -102 -63.5 -166t-163.5 -64z" />
    <glyph glyph-name="Uhungarumlaut" unicode="&#x170;" horiz-adv-x="700" 
d="M252 719q-35 1 -50 31t-1 57l52 100q19 37 62 35q40 -1 58 -38t-7 -69l-64 -90q-20 -26 -50 -26zM467 719q-35 1 -50 31t-1 57l52 100q19 37 62 35q40 -1 58 -38t-7 -69l-64 -90q-20 -26 -50 -26zM350 -12q-125 0 -202.5 79t-77.5 206v330q0 29 19.5 49t48.5 20
q28 0 47.5 -20t19.5 -49v-340q0 -69 39 -109.5t106 -40.5t106 40.5t39 109.5v340q0 29 19.5 49t48.5 20q28 0 47.5 -20t19.5 -49v-330q0 -127 -77.5 -206t-202.5 -79z" />
    <glyph glyph-name="uhungarumlaut" unicode="&#x171;" horiz-adv-x="580" 
d="M217 562q-28 1 -44 20t-14 43q0 12 8 30l47 107q8 18 25.5 28.5t36.5 10.5q29 0 48 -20t19 -48q0 -19 -11 -37l-62 -103q-21 -33 -53 -31zM409 562q-28 1 -44 20t-14 43q0 12 8 30l47 107q8 18 25.5 28.5t36.5 10.5q29 0 48 -20t19 -48q0 -19 -11 -37l-62 -103
q-21 -33 -53 -31zM291 -12q-101 0 -165 64t-64 166v220q0 29 19.5 48.5t48.5 19.5t48 -19.5t19 -48.5v-231q0 -41 26.5 -68t67.5 -27q40 0 66 27t26 68v231q0 29 19 48.5t49 19.5q29 0 48 -19.5t19 -48.5v-220q0 -102 -63.5 -166t-163.5 -64z" />
    <glyph glyph-name="Uogonek" unicode="&#x172;" horiz-adv-x="700" 
d="M433 -192q-55 0 -88 26.5t-33 69.5q0 48 53 87q-20 -2 -26 -2q-117 0 -193 80t-76 204v330q0 29 19.5 49t48.5 20q28 0 47.5 -20t19.5 -49v-340q0 -69 39 -109.5t106 -40.5t106 40.5t39 109.5v340q0 29 19.5 49t48.5 20q28 0 47.5 -20t19.5 -49v-330q0 -138 -95 -224
l-33 -29q-61 -55 -62 -85q-1 -15 8 -22.5t26 -7.5q3 0 8.5 1t6.5 1q19 0 30.5 -12t11.5 -32q0 -36 -37 -47q-26 -8 -61 -8z" />
    <glyph glyph-name="uogonek" unicode="&#x173;" horiz-adv-x="580" 
d="M451 506q29 0 48 -19.5t19 -48.5v-220q0 -116 -81 -182l-51 -49q-35 -32 -35 -55q0 -27 36 -27q3 0 8.5 1t6.5 1q19 0 30.5 -12t11.5 -32q0 -36 -39 -48q-28 -7 -59 -7q-55 0 -88 27.5t-33 72.5q0 41 37 82q-90 9 -145 71.5t-55 156.5v220q0 29 19.5 48.5t48.5 19.5
t48 -19.5t19 -48.5v-231q0 -41 26.5 -68t67.5 -27q40 0 66 27t26 68v231q0 29 19 48.5t49 19.5z" />
    <glyph glyph-name="Wcircumflex" unicode="&#x174;" horiz-adv-x="1036" 
d="M395 722q-20 0 -34.5 14.5t-14.5 35.5q0 19 30 47l94 92q22 20 47 20q26 0 47 -20l94 -92q30 -28 30 -47q0 -21 -14.5 -35.5t-34.5 -14.5q-21 0 -39 16l-83 76l-83 -76q-18 -16 -39 -16zM930 672q28 0 47.5 -19.5t19.5 -47.5q0 -15 -7 -33l-202 -538q-17 -46 -63 -46
t-63 46l-144 399l-144 -399q-17 -46 -62 -46q-47 0 -64 46l-202 538q-8 19 -8 33q0 28 20 47.5t48 19.5q47 0 62 -44l145 -402l139 395q18 51 66 51t66 -51l140 -395l143 401q16 45 63 45z" />
    <glyph glyph-name="wcircumflex" unicode="&#x175;" horiz-adv-x="856" 
d="M315 566q-20 0 -35.5 14t-15.5 36q0 19 17 39l96 115q20 23 51 23q30 0 50 -23l96 -115q17 -20 17 -39q0 -22 -15.5 -36t-35.5 -14q-19 0 -34 15l-78 82l-79 -82q-15 -15 -34 -15zM773 506q27 0 46 -19t19 -46q0 -18 -7 -33l-172 -378q-20 -42 -61 -42q-42 0 -61 42
l-109 251l-109 -251q-20 -42 -61 -42t-61 42l-172 378q-7 15 -7 33q0 27 19 46t46 19q41 0 59 -37l120 -263l101 250q21 50 65 50t64 -50l102 -251l120 264q18 37 59 37z" />
    <glyph glyph-name="Ycircumflex" unicode="&#x176;" horiz-adv-x="625" 
d="M188 722q-20 0 -34.5 14.5t-14.5 35.5q0 19 30 47l94 92q22 20 47 20q26 0 47 -20l94 -92q30 -28 30 -47q0 -21 -14.5 -35.5t-34.5 -14.5q-21 0 -39 16l-83 76l-83 -76q-18 -16 -39 -16zM584 607q0 -23 -14 -44l-190 -312v-194q0 -29 -19.5 -49t-48.5 -20q-28 0 -47.5 20
t-19.5 49v194l-189 312q-15 22 -15 45q0 27 19 45.5t47 18.5q41 0 64 -40l142 -246l142 246q22 40 63 40q28 0 47 -18.5t19 -46.5z" />
    <glyph glyph-name="ycircumflex" unicode="&#x177;" horiz-adv-x="559" 
d="M165 566q-20 0 -35.5 14t-15.5 36q0 19 17 39l96 115q20 23 51 23q30 0 50 -23l96 -115q17 -20 17 -39q0 -22 -15.5 -36t-35.5 -14q-19 0 -34 15l-78 82l-79 -82q-15 -15 -34 -15zM473 506q26 0 45.5 -19.5t19.5 -45.5q0 -16 -8 -31l-218 -447q-40 -82 -88 -118.5
t-115 -36.5q-33 0 -57 11q-34 15 -34 53q0 25 17.5 41.5t43.5 16.5q3 0 7 -0.5t5 -0.5q63 0 94 63l18 40l-171 377q-9 18 -9 32q0 26 19.5 45.5t46.5 19.5q43 0 59 -38l131 -293l134 293q17 38 60 38z" />
    <glyph glyph-name="Ydieresis" unicode="&#x178;" horiz-adv-x="625" 
d="M182 737q-31 0 -56 23.5t-25 53.5q0 33 24.5 55.5t56.5 22.5q33 0 57 -22.5t24 -55.5q0 -31 -24 -54t-57 -23zM440 736q-31 0 -56 23.5t-25 53.5q0 33 24.5 56t56.5 23q33 0 57 -23t24 -56q0 -31 -24 -54t-57 -23zM584 607q0 -23 -14 -44l-190 -312v-194q0 -29 -19.5 -49
t-48.5 -20q-28 0 -47.5 20t-19.5 49v194l-189 312q-15 22 -15 45q0 27 19 45.5t47 18.5q41 0 64 -40l142 -246l142 246q22 40 63 40q28 0 47 -18.5t19 -46.5z" />
    <glyph glyph-name="Zacute" unicode="&#x179;" horiz-adv-x="588" 
d="M315 719q-35 1 -50 31t-1 57l52 100q19 37 62 35q40 -1 58 -38t-7 -69l-64 -90q-20 -26 -50 -26zM506 122q27 0 44.5 -17.5t17.5 -43.5t-18 -43.5t-44 -17.5h-423q-27 0 -45 17.5t-18 43.5q0 18 18 42l334 435h-254q-27 0 -45 17.5t-18 43.5t18 43.5t45 17.5h379
q26 0 44 -17.5t18 -43.5q0 -19 -17 -43l-334 -434h298z" />
    <glyph glyph-name="zacute" unicode="&#x17a;" horiz-adv-x="468" 
d="M256 562q-28 1 -44 20t-14 43q0 12 8 30l47 107q8 18 25.5 28.5t36.5 10.5q29 0 48 -20t19 -48q0 -19 -11 -37l-62 -103q-21 -33 -53 -31zM402 114q25 0 41.5 -16t16.5 -41q0 -24 -16.5 -40.5t-41.5 -16.5h-326q-24 0 -40.5 16.5t-16.5 40.5q0 23 23 49l228 275h-180
q-25 0 -41.5 16t-16.5 41t16.5 41t41.5 16h303q25 0 41.5 -16t16.5 -40t-19 -46l-230 -279h200z" />
    <glyph glyph-name="Zdotaccent" unicode="&#x17b;" horiz-adv-x="588" 
d="M299 734q-35 0 -60 23.5t-25 57.5t25 57.5t60 23.5q34 0 59 -23.5t25 -57.5t-25 -57.5t-59 -23.5zM506 122q27 0 44.5 -17.5t17.5 -43.5t-18 -43.5t-44 -17.5h-423q-27 0 -45 17.5t-18 43.5q0 18 18 42l334 435h-254q-27 0 -45 17.5t-18 43.5t18 43.5t45 17.5h379
q26 0 44 -17.5t18 -43.5q0 -19 -17 -43l-334 -434h298z" />
    <glyph glyph-name="zdotaccent" unicode="&#x17c;" horiz-adv-x="468" 
d="M238 594q-35 0 -60 23.5t-25 57.5t25 58t60 24q34 0 59 -24t25 -58q0 -33 -25 -57t-59 -24zM402 114q25 0 41.5 -16t16.5 -41q0 -24 -16.5 -40.5t-41.5 -16.5h-326q-24 0 -40.5 16.5t-16.5 40.5q0 23 23 49l228 275h-180q-25 0 -41.5 16t-16.5 41t16.5 41t41.5 16h303
q25 0 41.5 -16t16.5 -40t-19 -46l-230 -279h200z" />
    <glyph glyph-name="Zcaron" unicode="&#x17d;" horiz-adv-x="588" 
d="M157 834q-30 28 -30 47q0 21 14.5 35.5t34.5 14.5q21 0 39 -16l83 -76l83 76q18 16 39 16q20 0 34.5 -14.5t14.5 -35.5q0 -19 -30 -47l-94 -92q-21 -20 -47 -20q-25 0 -47 20zM506 122q27 0 44.5 -17.5t17.5 -43.5t-18 -43.5t-44 -17.5h-423q-27 0 -45 17.5t-18 43.5
q0 18 18 42l334 435h-254q-27 0 -45 17.5t-18 43.5t18 43.5t45 17.5h379q26 0 44 -17.5t18 -43.5q0 -19 -17 -43l-334 -434h298z" />
    <glyph glyph-name="zcaron" unicode="&#x17e;" horiz-adv-x="468" 
d="M187 590l-96 115q-17 20 -17 39q0 22 15.5 36t35.5 14q19 0 34 -15l79 -82l78 82q15 15 34 15q20 0 35.5 -14t15.5 -36q0 -19 -17 -39l-96 -115q-20 -23 -50 -23q-31 0 -51 23zM402 114q25 0 41.5 -16t16.5 -41q0 -24 -16.5 -40.5t-41.5 -16.5h-326q-24 0 -40.5 16.5
t-16.5 40.5q0 23 23 49l228 275h-180q-25 0 -41.5 16t-16.5 41t16.5 41t41.5 16h303q25 0 41.5 -16t16.5 -40t-19 -46l-230 -279h200z" />
    <glyph glyph-name="uni018F" unicode="&#x18f;" horiz-adv-x="733" 
d="M352 672q144 0 243 -99t99 -242t-101 -243t-246 -100q-134 0 -221.5 85.5t-87.5 216.5q0 14 1 24q1 26 19 44.5t44 18.5h451q-14 77 -68.5 124t-132.5 47q-99 0 -165 -75q-24 -28 -53 -28q-26 0 -43 17.5t-17 43.5q0 23 21 47q104 119 257 119zM349 113q73 0 126 40.5
t72 107.5h-377q4 -66 53.5 -107t125.5 -41z" />
    <glyph glyph-name="florin" unicode="&#x192;" horiz-adv-x="451" 
d="M381 672q89 0 89 -63q0 -25 -16 -41.5t-40 -16.5h-10q-39 0 -60 -18t-26 -59l-8 -68h38q26 0 43.5 -16.5t17.5 -41.5q0 -24 -17.5 -40.5t-42.5 -16.5h-54l-29 -239q-22 -185 -196 -185q-87 0 -87 62q0 25 16 42t40 17q3 0 7 -0.5t7 -0.5q70 0 80 77l28 227h-21
q-25 0 -42 16.5t-17 40.5q0 25 17 41.5t42 16.5h35l10 80q21 186 196 186z" />
    <glyph glyph-name="uni01D4" unicode="&#x1d4;" horiz-adv-x="580" 
d="M239 590l-96 115q-17 20 -17 39q0 22 15.5 36t35.5 14q19 0 34 -15l79 -82l78 82q15 15 34 15q20 0 35.5 -14t15.5 -36q0 -19 -17 -39l-96 -115q-20 -23 -50 -23q-31 0 -51 23zM451 506q29 0 48 -19.5t19 -48.5v-220q0 -102 -63.5 -166t-163.5 -64q-101 0 -165 64
t-64 166v220q0 29 19.5 48.5t48.5 19.5t48 -19.5t19 -48.5v-231q0 -41 26.5 -68t67.5 -27q40 0 66 27t26 68v231q0 29 19 48.5t49 19.5z" />
    <glyph glyph-name="AEacute" unicode="&#x1fc;" horiz-adv-x="853" 
d="M437 719q-35 1 -50 31t-1 57l52 100q19 37 62 35q40 -1 58 -38t-7 -69l-64 -90q-20 -26 -50 -26zM758 122q27 0 44.5 -17.5t17.5 -43.5t-18 -43.5t-44 -17.5h-246q-25 0 -42.5 15t-22.5 38l-5 33h-248l-31 -60q-17 -38 -56 -38q-29 0 -48 18t-19 46q0 18 8 32l272 530
q23 46 71 46h355q27 0 44.5 -17.5t17.5 -43.5t-18 -43.5t-44 -17.5h-247l22 -134h148q25 0 41.5 -16.5t16.5 -41.5q0 -24 -16.5 -40.5t-41.5 -16.5h-129l28 -167h190zM380 466l-129 -269h172z" />
    <glyph glyph-name="aeacute" unicode="&#x1fd;" horiz-adv-x="878" 
d="M450 562q-28 1 -44 20t-14 43q0 12 8 30l47 107q8 18 25.5 28.5t36.5 10.5q29 0 48 -20t19 -48q0 -19 -11 -37l-62 -103q-21 -33 -53 -31zM608 506q101 0 166.5 -65.5t65.5 -165.5v-7q0 -32 -20 -51.5t-53 -19.5h-282q14 -45 49.5 -69t89.5 -24q61 0 102 29q15 9 29 9
q23 0 39 -15.5t16 -38.5q0 -31 -34 -54q-67 -46 -156 -46q-135 0 -208 100q-59 -100 -195 -100q-83 0 -132 40.5t-49 108.5q0 69 50.5 109t136.5 40h124v16q0 41 -24 64t-68 23q-52 0 -96 -37q-21 -16 -40 -16q-24 0 -41 16.5t-17 39.5q0 27 29 53q64 61 178 61
q111 0 164 -73q70 73 176 73zM603 397q-47 0 -79.5 -30t-42.5 -81h228q1 49 -28.5 80t-77.5 31zM242 88q45 0 75 27.5t30 68.5v13h-106q-69 0 -69 -52q0 -26 19 -41.5t51 -15.5z" />
    <glyph glyph-name="Oslashacute" unicode="&#x1fe;" horiz-adv-x="779" 
d="M406 719q-35 1 -50 31t-1 57l52 100q19 37 62 35q40 -1 58 -38t-7 -69l-64 -90q-20 -26 -50 -26zM673 533q67 -91 67 -203q0 -143 -102 -242.5t-249 -99.5q-112 0 -200 60l-39 -39q-21 -21 -46 -21q-22 0 -38.5 17t-16.5 40q0 25 19 44l38 38q-67 89 -67 203
q0 144 101 243t249 99q111 0 201 -60l39 39q21 21 46 21q22 0 38.5 -17t16.5 -40q0 -25 -19 -44zM171 330q0 -62 26 -112l305 306q-52 29 -112 29q-95 0 -157 -63t-62 -160zM390 107q95 0 156 63t61 160q0 61 -26 111l-304 -305q49 -29 113 -29z" />
    <glyph glyph-name="oslashacute" unicode="&#x1ff;" horiz-adv-x="612" 
d="M325 562q-28 1 -44 20t-14 43q0 12 8 30l47 107q8 18 25.5 28.5t36.5 10.5q29 0 48 -20t19 -48q0 -19 -11 -37l-62 -103q-21 -33 -53 -31zM555 416l-26 -26q43 -65 43 -143q0 -108 -78 -183.5t-189 -75.5q-78 0 -140 39l-28 -28q-20 -21 -45 -21q-23 0 -40 16.5t-17 40.5
q0 23 22 44l26 26q-42 64 -42 142q0 109 76.5 184t188.5 75q75 0 140 -38l28 28q20 20 43 20q24 0 41 -16.5t17 -40.5q0 -23 -20 -43zM306 392q-62 0 -100.5 -40.5t-38.5 -104.5q0 -35 12 -62l192 192q-28 15 -65 15zM305 102q61 0 100.5 41t39.5 104q0 35 -12 62l-193 -192
q29 -15 65 -15z" />
    <glyph glyph-name="Scommaaccent" unicode="&#x218;" horiz-adv-x="559" 
d="M285 -12q-59 0 -117.5 24.5t-95.5 64.5q-25 25 -25 52q1 26 19 43t43 17q21 0 35 -13q66 -68 141 -68q44 0 69 19.5t25 53.5q0 27 -17.5 43.5t-66.5 38.5l-71 32q-81 37 -120.5 82.5t-39.5 107.5q0 83 62 135t157 52q117 0 185 -78q18 -19 18 -43q0 -25 -19 -42.5
t-43 -17.5q-20 0 -37 14q-53 47 -104 47q-37 0 -59.5 -17t-22.5 -47q0 -24 16 -39.5t61 -36.5l75 -33q85 -38 124 -82.5t39 -110.5q0 -90 -65 -144t-166 -54zM261 -254q-23 0 -40.5 17t-17.5 39q0 11 6 38.5t6 52.5q0 28 20 47.5t48 19.5t47.5 -19.5t19.5 -47.5
q0 -72 -37 -116q-22 -31 -52 -31z" />
    <glyph glyph-name="scommaaccent" unicode="&#x219;" horiz-adv-x="455" 
d="M227 -12q-109 0 -182 71q-19 16 -19 42q0 23 16.5 40t39.5 17q20 0 39 -15q51 -44 108 -44q27 0 45 10.5t18 30.5q0 16 -11.5 24.5t-39.5 20.5l-53 22q-68 28 -101.5 62t-33.5 89q0 70 50.5 109.5t131.5 39.5q94 0 156 -53q24 -18 24 -46q0 -23 -16 -39.5t-39 -16.5
q-15 0 -36 14q-43 30 -90 30q-53 0 -53 -35q0 -14 11.5 -23.5t40.5 -20.5l48 -20q72 -29 105.5 -62.5t33.5 -88.5q0 -74 -54.5 -116t-138.5 -42zM211 -254q-23 0 -40.5 17t-17.5 39q0 11 6 38.5t6 52.5q0 28 20 47.5t48 19.5t47.5 -19.5t19.5 -47.5q0 -72 -37 -116
q-22 -31 -52 -31z" />
    <glyph glyph-name="uni021A" unicode="&#x21a;" horiz-adv-x="585" 
d="M292 -12q-28 0 -47.5 20t-19.5 49v481h-157q-26 0 -44 17.5t-18 43.5t18 43.5t44 17.5h449q27 0 44.5 -17.5t17.5 -43.5t-18 -43.5t-44 -17.5h-157v-481q0 -29 -19.5 -49t-48.5 -20zM268 -254q-23 0 -40.5 17t-17.5 39q0 11 6 38.5t6 52.5q0 28 20 47.5t48 19.5
t47.5 -19.5t19.5 -47.5q0 -72 -37 -116q-22 -31 -52 -31z" />
    <glyph glyph-name="uni021B" unicode="&#x21b;" horiz-adv-x="416" 
d="M337 110q27 0 43 -15t16 -40q0 -38 -34 -54q-31 -13 -70 -13q-97 0 -147.5 47.5t-50.5 138.5v207h-28q-25 0 -41.5 16t-16.5 41t16.5 41t41.5 16h28v68q0 29 19 48.5t49 19.5q29 0 48 -19.5t19 -48.5v-68h91q25 0 41 -16t16 -41t-16 -41t-41 -16h-91v-195q0 -41 21 -59
t68 -18q4 0 10.5 0.5t8.5 0.5zM228 -40q28 0 47.5 -19.5t19.5 -47.5q0 -72 -37 -116q-22 -31 -52 -31q-23 0 -40.5 17t-17.5 39q0 11 6 38.5t6 52.5q0 28 20 47.5t48 19.5z" />
    <glyph glyph-name="uni0237" unicode="&#x237;" horiz-adv-x="269" 
d="M17 -192q-28 0 -55 9q-41 16 -41 55q0 25 16 41.5t41 16.5q2 0 6 -0.5t7 -0.5q40 0 58 19.5t18 69.5v420q0 29 19.5 48.5t48.5 19.5t48 -19.5t19 -48.5v-444q0 -90 -49.5 -138t-135.5 -48z" />
    <glyph glyph-name="uni0259" unicode="&#x259;" horiz-adv-x="569" 
d="M259 507q117 0 194 -74t77 -185q0 -110 -74 -184.5t-183 -74.5q-101 0 -168 66t-67 166v3q0 31 20.5 50t53.5 19h282q-12 47 -48 72.5t-91 25.5q-57 0 -103 -29q-15 -9 -29 -9q-23 0 -39 15.5t-16 38.5q0 31 34 54q69 46 157 46zM276 98q44 0 75.5 27t42.5 73h-225
q2 -45 31 -72.5t76 -27.5z" />
    <glyph glyph-name="circumflex" unicode="&#x2c6;" horiz-adv-x="417" 
d="M355 655q17 -20 17 -39q0 -22 -15.5 -36t-35.5 -14q-19 0 -34 15l-78 82l-79 -82q-15 -15 -34 -15q-20 0 -35.5 14t-15.5 36q0 19 17 39l96 115q20 23 51 23q30 0 50 -23z" />
    <glyph glyph-name="caron" unicode="&#x2c7;" horiz-adv-x="417" 
d="M321 794q20 0 35.5 -14t15.5 -36q0 -19 -17 -39l-96 -115q-20 -23 -50 -23q-31 0 -51 23l-96 115q-17 20 -17 39q0 22 15.5 36t35.5 14q19 0 34 -15l79 -82l78 82q15 15 34 15z" />
    <glyph glyph-name="breve" unicode="&#x2d8;" horiz-adv-x="405" 
d="M203 573q-69 0 -120 43.5t-51 101.5q0 23 15 39t37 16q40 0 52 -41q6 -26 24 -41.5t43 -15.5t42.5 15.5t23.5 41.5q12 41 51 41q22 0 37.5 -16t15.5 -39q0 -59 -50.5 -102t-119.5 -43z" />
    <glyph glyph-name="dotaccent" unicode="&#x2d9;" horiz-adv-x="233" 
d="M117 757q34 0 59 -24t25 -58q0 -33 -25 -57t-59 -24q-35 0 -60 23.5t-25 57.5t25 58t60 24z" />
    <glyph glyph-name="ring" unicode="&#x2da;" horiz-adv-x="313" 
d="M156 795q55 0 91 -34.5t36 -87.5t-36 -88t-91 -35q-54 0 -90 35t-36 88q0 52 36 87t90 35zM157 714q-17 0 -29 -11.5t-12 -29.5t11.5 -29.5t29.5 -11.5q17 0 29 12t12 29q0 18 -12 29.5t-29 11.5z" />
    <glyph glyph-name="ogonek" unicode="&#x2db;" horiz-adv-x="267" 
d="M142 -192q-55 0 -87.5 28t-32.5 75q0 36 21 66t69 69q46 37 72 37q16 0 28.5 -11.5t12.5 -26.5q0 -23 -21 -41q-56 -48 -56 -72q0 -26 35 -26q4 0 9 0.5t7 0.5q19 0 30 -12t11 -32q0 -37 -38 -48q-28 -7 -60 -7z" />
    <glyph glyph-name="tilde" unicode="&#x2dc;" horiz-adv-x="446" 
d="M305 579q-40 0 -75 23l-28 18q-28 20 -39 20q-22 0 -30 -28q-9 -38 -50 -38q-24 0 -38.5 16t-14.5 42q0 58 32.5 93.5t83.5 35.5q36 0 71 -23l28 -18q28 -19 42 -19q20 0 27 28q10 37 50 37q25 0 39 -16t14 -42q0 -57 -31.5 -93t-80.5 -36z" />
    <glyph glyph-name="hungarumlaut" unicode="&#x2dd;" horiz-adv-x="469" 
d="M114 562q-28 1 -44 20t-14 43q0 12 8 30l47 107q8 18 25.5 28.5t36.5 10.5q29 0 48 -20t19 -48q0 -19 -11 -37l-62 -103q-21 -33 -53 -31zM306 562q-28 1 -44 20t-14 43q0 12 8 30l47 107q8 18 25.5 28.5t36.5 10.5q29 0 48 -20t19 -48q0 -19 -11 -37l-62 -103
q-21 -33 -53 -31z" />
    <glyph glyph-name="uni030C" unicode="&#x30c;" horiz-adv-x="0" 
d="M-107 535q-27 0 -45.5 21t-13.5 52l17 112q3 24 22 42t45 18q34 0 55 -27.5t8 -65.5l-32 -111q-15 -41 -56 -41z" />
    <glyph glyph-name="uni0326" unicode="&#x326;" horiz-adv-x="0" 
d="M-116 -254q-23 0 -40.5 17t-17.5 39q0 11 6 38.5t6 52.5q0 28 20 47.5t48 19.5t47.5 -19.5t19.5 -47.5q0 -72 -37 -116q-22 -31 -52 -31z" />
    <glyph glyph-name="dieresistonos" unicode="&#x385;" horiz-adv-x="619" 
d="M303 549q-26 0 -45 19t-15 47l18 139q3 25 20.5 42t43.5 17q30 0 49 -23t14 -53l-27 -133q-5 -25 -20 -40t-38 -15zM119 598q-30 0 -55 23.5t-25 53.5q0 33 24.5 56t55.5 23q33 0 56 -23t23 -56q0 -31 -23.5 -54t-55.5 -23zM500 598q-30 0 -54.5 23.5t-24.5 53.5
q0 33 24 56t55 23q33 0 56.5 -23t23.5 -56q0 -31 -23.5 -54t-56.5 -23z" />
    <glyph glyph-name="Alphatonos" unicode="&#x386;" horiz-adv-x="662" 
d="M83 505q-27 0 -45.5 21t-13.5 52l17 112q3 24 22 42t45 18q34 0 55 -27.5t8 -65.5l-32 -111q-15 -41 -56 -41zM620 89q8 -19 8 -36q0 -27 -19 -46t-47 -19q-44 0 -64 48l-28 68h-279l-28 -68q-19 -48 -63 -48q-28 0 -47.5 19t-19.5 46q0 14 8 36l226 537q18 46 64 46
t64 -46zM331 473l-96 -258h190z" />
    <glyph glyph-name="Epsilontonos" unicode="&#x388;" horiz-adv-x="572" 
d="M-47 505q-27 0 -45.5 21t-13.5 52l17 112q3 24 22 42t45 18q34 0 55 -27.5t8 -65.5l-32 -111q-15 -41 -56 -41zM142 0q-28 0 -47.5 19t-19.5 48v526q0 29 19.5 48t47.5 19h323q27 0 44.5 -17.5t17.5 -43.5t-18 -43.5t-44 -17.5h-255v-134h175q25 0 42 -16.5t17 -41.5
q0 -24 -17 -40.5t-42 -16.5h-175v-167h267q27 0 44.5 -17.5t17.5 -43.5t-18 -43.5t-44 -17.5h-335z" />
    <glyph glyph-name="Etatonos" unicode="&#x389;" horiz-adv-x="712" 
d="M-47 505q-27 0 -45.5 21t-13.5 52l17 112q3 24 22 42t45 18q34 0 55 -27.5t8 -65.5l-32 -111q-15 -41 -56 -41zM143 -12q-29 0 -48.5 20t-19.5 50v544q0 30 19 50t49 20q29 0 48 -20t19 -50v-195h292v196q0 30 19 49.5t49 19.5q29 0 48 -19.5t19 -49.5v-545
q0 -30 -19 -50t-48 -20t-48.5 20t-19.5 50v227h-292v-227q0 -30 -19 -50t-48 -20z" />
    <glyph glyph-name="Iotatonos" unicode="&#x38a;" horiz-adv-x="285" 
d="M-47 505q-27 0 -45.5 21t-13.5 52l17 112q3 24 22 42t45 18q34 0 55 -27.5t8 -65.5l-32 -111q-15 -41 -56 -41zM143 -12q-28 0 -47.5 20t-19.5 49v546q0 29 19 49t48 20t48.5 -20t19.5 -49v-546q0 -29 -19.5 -49t-48.5 -20z" />
    <glyph glyph-name="Omicrontonos" unicode="&#x38c;" horiz-adv-x="778" 
d="M-14 505q-27 0 -45.5 21t-13.5 52l17 112q3 24 21.5 42t45.5 18q34 0 55 -27.5t8 -65.5l-32 -111q-15 -41 -56 -41zM388 672q148 0 250 -99.5t102 -242.5t-102 -242.5t-250 -99.5t-249 99t-101 243t101.5 243t248.5 99zM389 547q-93 0 -152.5 -61t-59.5 -156t59.5 -156
t152.5 -61q92 0 152 61.5t60 155.5t-60 155.5t-152 61.5z" />
    <glyph glyph-name="Upsilontonos" unicode="&#x38e;" horiz-adv-x="625" 
d="M-84 750q34 0 55 -27.5t8 -65.5l-32 -111q-15 -41 -56 -41q-27 0 -45.5 21t-13.5 52l17 112q3 24 22 42t45 18zM584 607q0 -23 -14 -44l-190 -312v-194q0 -29 -19.5 -49t-48.5 -20q-28 0 -47.5 20t-19.5 49v194l-189 312q-15 22 -15 45q0 27 19 45.5t47 18.5q41 0 64 -40
l142 -246l142 246q22 40 63 40q28 0 47 -18.5t19 -46.5z" />
    <glyph glyph-name="Omegatonos" unicode="&#x38f;" horiz-adv-x="788" 
d="M9 750q34 0 55 -27.5t8 -65.5l-32 -111q-15 -41 -56 -41q-27 0 -45.5 21t-13.5 52l17 112q3 24 21.5 42t45.5 18zM680 122q27 0 44.5 -17.5t17.5 -43.5t-18 -43.5t-44 -17.5h-175q-30 0 -50.5 20.5t-20.5 49.5q0 38 40 64q132 73 132 206q0 91 -60 149t-153 58
q-94 0 -152.5 -57.5t-58.5 -149.5q0 -133 132 -207q40 -25 40 -63q0 -29 -20.5 -49.5t-50.5 -20.5h-175q-26 0 -44 17.5t-18 43.5t18 43.5t44 17.5h54q-119 81 -119 225q0 136 101.5 230.5t248.5 94.5t249.5 -94.5t102.5 -230.5q0 -141 -126 -225h61z" />
    <glyph glyph-name="iotadieresistonos" unicode="&#x390;" horiz-adv-x="314" 
d="M127 549q-26 0 -45 19t-15 47l18 139q3 25 20.5 42t43.5 17q30 0 49 -23t14 -53l-27 -133q-5 -25 -20 -40t-38 -15zM-57 598q-30 0 -55 23.5t-25 53.5q0 33 24.5 56t55.5 23q33 0 56 -23t23 -56q0 -31 -23.5 -54t-55.5 -23zM324 598q-30 0 -54.5 23.5t-24.5 53.5
q0 33 24 56t55 23q33 0 56.5 -23t23.5 -56q0 -31 -23.5 -54t-56.5 -23zM223 -12q-75 0 -116.5 45.5t-41.5 127.5v277q0 29 19.5 48.5t47.5 19.5q29 0 48 -19.5t19 -48.5v-265q0 -62 55 -62h5q23 0 37.5 -15t14.5 -38q0 -38 -27 -54q-22 -16 -61 -16z" />
    <glyph glyph-name="Alpha" unicode="&#x391;" horiz-adv-x="662" 
d="M620 89q8 -19 8 -36q0 -27 -19 -46t-47 -19q-44 0 -64 48l-28 68h-279l-28 -68q-19 -48 -63 -48q-28 0 -47.5 19t-19.5 46q0 14 8 36l226 537q18 46 64 46t64 -46zM331 473l-96 -258h190z" />
    <glyph glyph-name="Beta" unicode="&#x392;" horiz-adv-x="620" 
d="M469 357q56 -20 87 -62t31 -101q0 -85 -61 -139.5t-157 -54.5h-225q-30 0 -49.5 19.5t-19.5 49.5v522q0 30 19.5 49.5t49.5 19.5h165q92 0 150.5 -51t58.5 -133q0 -73 -49 -119zM299 544h-93v-151h93q40 0 63 20.5t23 55.5t-23 55t-63 20zM359 116q44 0 69 21.5t25 61.5
q0 39 -25 61t-69 22h-153v-166h153z" />
    <glyph glyph-name="Gamma" unicode="&#x393;" horiz-adv-x="523" 
d="M143 -12q-29 0 -48.5 20t-19.5 49v534q0 30 19.5 49.5t49.5 19.5h301q26 0 44 -17.5t18 -43.5t-18 -43.5t-44 -17.5h-235v-481q0 -29 -19.5 -49t-47.5 -20z" />
    <glyph glyph-name="uni0394" unicode="&#x394;" horiz-adv-x="674" 
d="M632 100q8 -17 8 -35q0 -28 -19 -46.5t-47 -18.5h-474q-29 0 -48 18.5t-19 46.5q0 18 8 35l231 526q20 46 65 46q44 0 64 -46zM337 478l-144 -356h287z" />
    <glyph glyph-name="Epsilon" unicode="&#x395;" horiz-adv-x="572" 
d="M142 0q-28 0 -47.5 19t-19.5 48v526q0 29 19.5 48t47.5 19h323q27 0 44.5 -17.5t17.5 -43.5t-18 -43.5t-44 -17.5h-255v-134h175q25 0 42 -16.5t17 -41.5q0 -24 -17 -40.5t-42 -16.5h-175v-167h267q27 0 44.5 -17.5t17.5 -43.5t-18 -43.5t-44 -17.5h-335z" />
    <glyph glyph-name="Zeta" unicode="&#x396;" horiz-adv-x="588" 
d="M506 122q27 0 44.5 -17.5t17.5 -43.5t-18 -43.5t-44 -17.5h-423q-27 0 -45 17.5t-18 43.5q0 18 18 42l334 435h-254q-27 0 -45 17.5t-18 43.5t18 43.5t45 17.5h379q26 0 44 -17.5t18 -43.5q0 -19 -17 -43l-334 -434h298z" />
    <glyph glyph-name="Eta" unicode="&#x397;" horiz-adv-x="712" 
d="M143 -12q-29 0 -48.5 20t-19.5 50v544q0 30 19 50t49 20q29 0 48 -20t19 -50v-195h292v196q0 30 19 49.5t49 19.5q29 0 48 -19.5t19 -49.5v-545q0 -30 -19 -50t-48 -20t-48.5 20t-19.5 50v227h-292v-227q0 -30 -19 -50t-48 -20z" />
    <glyph glyph-name="Theta" unicode="&#x398;" horiz-adv-x="778" 
d="M388 672q148 0 250 -99.5t102 -242.5t-102 -242.5t-250 -99.5t-249 99t-101 243t101.5 243t248.5 99zM388 555q-95 0 -157 -64t-62 -162t61.5 -161t157.5 -63t158.5 63.5t62.5 160.5q0 98 -62.5 162t-158.5 64zM467 392q23 0 39 -16t16 -40t-16 -39.5t-39 -15.5h-156
q-23 0 -39 15.5t-16 39.5t16 40t39 16h156z" />
    <glyph glyph-name="Iota" unicode="&#x399;" horiz-adv-x="285" 
d="M143 -12q-28 0 -47.5 20t-19.5 49v546q0 29 19 49t48 20t48.5 -20t19.5 -49v-546q0 -29 -19.5 -49t-48.5 -20z" />
    <glyph glyph-name="Kappa" unicode="&#x39a;" horiz-adv-x="670" 
d="M143 672q28 0 47.5 -20t19.5 -49v-546q0 -29 -19.5 -49t-47.5 -20q-29 0 -48.5 20t-19.5 49v546q0 30 19 49.5t49 19.5zM606 93q17 -20 17 -41q0 -26 -19 -45t-44 -19q-31 0 -54 28l-251 289q-18 21 -18 45q0 22 19 43l238 257q22 22 49 22q25 0 43 -18.5t18 -44.5
q0 -24 -20 -45l-199 -215z" />
    <glyph glyph-name="Lambda" unicode="&#x39b;" horiz-adv-x="674" 
d="M632 89q8 -17 8 -36q0 -27 -19 -46t-47 -19q-44 0 -64 48l-173 410l-174 -410q-20 -48 -63 -48q-28 0 -47.5 19t-19.5 46q0 15 8 36l231 537q19 46 65 46q45 0 64 -46z" />
    <glyph glyph-name="Mu" unicode="&#x39c;" horiz-adv-x="796" 
d="M655 672q28 0 47 -20t19 -50v-545q0 -29 -19.5 -49t-47.5 -20q-29 0 -48.5 20t-19.5 49v326l-124 -195q-27 -43 -64 -43t-64 43l-124 197v-328q0 -29 -19.5 -49t-47.5 -20q-29 0 -48.5 20t-19.5 49v545q0 30 19 50t47 20q40 0 71 -52l186 -295l186 295q18 29 33.5 40.5
t37.5 11.5z" />
    <glyph glyph-name="Nu" unicode="&#x39d;" horiz-adv-x="712" 
d="M570 672q28 0 47.5 -20t19.5 -49v-547q0 -29 -19 -48.5t-47 -19.5q-16 0 -29 6.5t-19.5 13.5t-18.5 21l-294 378v-350q0 -29 -19.5 -49t-47.5 -20q-29 0 -48.5 20t-19.5 49v547q0 29 19 48.5t47 19.5q16 0 29 -6.5t20 -14t20 -23.5l293 -375l-1 350q0 29 19.5 49t48.5 20
z" />
    <glyph glyph-name="Xi" unicode="&#x39e;" horiz-adv-x="568" 
d="M95 538q-26 0 -44 17.5t-18 43.5t18 43.5t44 17.5h378q27 0 44.5 -17.5t17.5 -43.5t-17.5 -43.5t-44.5 -17.5h-378zM105 277q-25 0 -42.5 17t-17.5 42q0 26 17.5 43t42.5 17h359q26 0 43 -17t17 -43q0 -25 -17.5 -42t-42.5 -17h-359zM95 0q-26 0 -44 17.5t-18 43.5
t18 43.5t44 17.5h378q27 0 44.5 -17.5t17.5 -43.5t-17.5 -43.5t-44.5 -17.5h-378z" />
    <glyph glyph-name="Omicron" unicode="&#x39f;" horiz-adv-x="778" 
d="M388 672q148 0 250 -99.5t102 -242.5t-102 -242.5t-250 -99.5t-249 99t-101 243t101.5 243t248.5 99zM389 547q-93 0 -152.5 -61t-59.5 -156t59.5 -156t152.5 -61q92 0 152 61.5t60 155.5t-60 155.5t-152 61.5z" />
    <glyph glyph-name="Pi" unicode="&#x3a0;" horiz-adv-x="690" 
d="M143 -12q-29 0 -48.5 20t-19.5 49v534q0 30 19.5 49.5t49.5 19.5h402q29 0 49 -19.5t20 -49.5v-534q0 -29 -19.5 -49t-48.5 -20q-28 0 -47.5 20t-19.5 49v481h-270v-481q0 -29 -19.5 -49t-47.5 -20z" />
    <glyph glyph-name="Rho" unicode="&#x3a1;" horiz-adv-x="593" 
d="M143 -12q-29 0 -48.5 20t-19.5 49v534q0 30 19.5 49.5t49.5 19.5h180q106 0 171.5 -59t65.5 -154q0 -94 -66.5 -154t-170.5 -60h-114v-176q0 -29 -19.5 -49t-47.5 -20zM210 351h113q46 0 73 26t27 70q0 43 -27 68.5t-73 25.5h-113v-190z" />
    <glyph glyph-name="Sigma" unicode="&#x3a3;" horiz-adv-x="570" 
d="M475 121q26 0 44 -17.5t18 -43.5t-18 -43.5t-44 -17.5h-372q-29 0 -48.5 20t-19.5 49q0 30 22 55l194 210l-192 204q-23 24 -23 55q0 29 19.5 48.5t48.5 19.5h359q26 0 44 -17.5t18 -43.5t-18 -43.5t-44 -17.5h-231l143 -152q25 -25 25 -50t-25 -50l-150 -165h250z" />
    <glyph glyph-name="Tau" unicode="&#x3a4;" horiz-adv-x="585" 
d="M292 -12q-28 0 -47.5 20t-19.5 49v481h-157q-26 0 -44 17.5t-18 43.5t18 43.5t44 17.5h449q27 0 44.5 -17.5t17.5 -43.5t-18 -43.5t-44 -17.5h-157v-481q0 -29 -19.5 -49t-48.5 -20z" />
    <glyph glyph-name="Upsilon" unicode="&#x3a5;" horiz-adv-x="625" 
d="M584 607q0 -23 -14 -44l-190 -312v-194q0 -29 -19.5 -49t-48.5 -20q-28 0 -47.5 20t-19.5 49v194l-189 312q-15 22 -15 45q0 27 19 45.5t47 18.5q41 0 64 -40l142 -246l142 246q22 40 63 40q28 0 47 -18.5t19 -46.5z" />
    <glyph glyph-name="Phi" unicode="&#x3a6;" horiz-adv-x="838" 
d="M799 336q0 -127 -85.5 -204t-227.5 -78v-34q0 -30 -19 -49.5t-48 -19.5t-48.5 19.5t-19.5 49.5v34q-142 1 -227.5 78.5t-85.5 203.5q0 125 85.5 200.5t227.5 76.5v28q0 30 19.5 49.5t48.5 19.5t48 -19.5t19 -49.5v-28q143 -1 228 -76t85 -201zM171 332q0 -76 47.5 -118.5
t132.5 -43.5v328q-84 -1 -132 -45t-48 -121zM486 170q85 0 133 43t48 119q0 77 -48.5 121.5t-132.5 44.5v-328z" />
    <glyph glyph-name="Chi" unicode="&#x3a7;" horiz-adv-x="613" 
d="M556 100q18 -26 18 -47q0 -26 -19.5 -45.5t-47.5 -19.5q-33 0 -54 29l-146 207l-147 -207q-21 -29 -55 -29q-27 0 -46.5 19.5t-19.5 46.5q0 21 19 49l167 233l-153 221q-19 28 -19 52q0 26 19.5 44.5t46.5 18.5q35 0 56 -30l132 -194l135 193q22 31 56 31q28 0 47 -19
t19 -45q0 -25 -20 -54l-155 -218z" />
    <glyph glyph-name="Psi" unicode="&#x3a8;" horiz-adv-x="843" 
d="M422 -12q-29 0 -48.5 20t-19.5 49v88q-142 0 -221.5 68.5t-79.5 189.5v200q0 29 19.5 49t48.5 20q28 0 47.5 -20t19.5 -49v-188q0 -70 44 -109.5t122 -39.5v359q0 30 19.5 49.5t48.5 19.5t48 -19.5t19 -49.5v-359q79 0 122.5 39t43.5 110v188q0 29 19.5 49t47.5 20
q29 0 48.5 -20t19.5 -49v-200q0 -121 -79.5 -189.5t-221.5 -68.5v-88q0 -29 -19.5 -49t-47.5 -20z" />
    <glyph glyph-name="uni03A9" unicode="&#x3a9;" horiz-adv-x="788" 
d="M680 122q27 0 44.5 -17.5t17.5 -43.5t-18 -43.5t-44 -17.5h-175q-30 0 -50.5 20.5t-20.5 49.5q0 38 40 64q132 73 132 206q0 91 -60 149t-153 58q-94 0 -152.5 -57.5t-58.5 -149.5q0 -133 132 -207q40 -25 40 -63q0 -29 -20.5 -49.5t-50.5 -20.5h-175q-26 0 -44 17.5
t-18 43.5t18 43.5t44 17.5h54q-119 81 -119 225q0 136 101.5 230.5t248.5 94.5t249.5 -94.5t102.5 -230.5q0 -141 -126 -225h61z" />
    <glyph glyph-name="Iotadieresis" unicode="&#x3aa;" horiz-adv-x="285" 
d="M14 737q-31 0 -56 23.5t-25 53.5q0 33 24.5 55.5t56.5 22.5q33 0 57 -22.5t24 -55.5q0 -31 -24 -54t-57 -23zM272 736q-31 0 -56 23.5t-25 53.5q0 33 24.5 56t56.5 23q33 0 57 -23t24 -56q0 -31 -24 -54t-57 -23zM143 -12q-28 0 -47.5 20t-19.5 49v546q0 29 19 49t48 20
t48.5 -20t19.5 -49v-546q0 -29 -19.5 -49t-48.5 -20z" />
    <glyph glyph-name="Upsilondieresis" unicode="&#x3ab;" horiz-adv-x="625" 
d="M183 737q-31 0 -56 23.5t-25 53.5q0 33 24.5 55.5t56.5 22.5q33 0 57 -22.5t24 -55.5q0 -31 -24 -54t-57 -23zM441 736q-31 0 -56 23.5t-25 53.5q0 33 24.5 56t56.5 23q33 0 57 -23t24 -56q0 -31 -24 -54t-57 -23zM584 607q0 -23 -14 -44l-190 -312v-194q0 -29 -19.5 -49
t-48.5 -20q-28 0 -47.5 20t-19.5 49v194l-189 312q-15 22 -15 45q0 27 19 45.5t47 18.5q41 0 64 -40l142 -246l142 246q22 40 63 40q28 0 47 -18.5t19 -46.5z" />
    <glyph glyph-name="alphatonos" unicode="&#x3ac;" horiz-adv-x="641" 
d="M314 549q-26 0 -45 19t-15 47l18 139q3 25 20.5 42t43.5 17q30 0 49 -23t14 -53l-27 -133q-5 -25 -20 -40t-38 -15zM594 112q22 0 35 -14.5t13 -37.5q0 -36 -24 -54q-22 -16 -65 -16q-91 0 -118 78q-52 -80 -161 -80q-102 0 -168.5 73.5t-66.5 185.5t66.5 185.5
t168.5 73.5q103 0 157 -73v3q2 30 20 47.5t46 17.5q29 0 48.5 -19.5t17.5 -48.5q-7 -137 -7 -170l-2 -91q-1 -32 8 -46t31 -14h1zM298 111q55 0 89 37.5t34 98.5t-34 99t-89 38q-53 0 -87.5 -38.5t-34.5 -97.5q0 -61 34.5 -99t87.5 -38z" />
    <glyph glyph-name="epsilontonos" unicode="&#x3ad;" horiz-adv-x="509" 
d="M265 549q-26 0 -45 19t-15 47l18 139q3 25 20.5 42t43.5 17q30 0 49 -23t14 -53l-27 -133q-5 -25 -20 -40t-38 -15zM411 152q23 0 39.5 -17t17.5 -41q0 -27 -22 -43q-70 -63 -185 -63q-95 0 -155.5 40.5t-60.5 108.5q0 76 71 118q-51 40 -51 106q0 68 55.5 106.5
t146.5 38.5q106 0 176 -56q23 -18 21 -44q1 -24 -16 -41t-40 -17q-17 0 -34 11q-45 31 -106 31q-71 0 -71 -43q0 -20 15 -31.5t41 -11.5h43q22 0 36.5 -14t14.5 -36q0 -21 -14.5 -35.5t-36.5 -14.5h-48q-71 0 -71 -48q0 -52 85 -52q70 0 111 36q20 12 38 12z" />
    <glyph glyph-name="etatonos" unicode="&#x3ae;" horiz-adv-x="605" 
d="M305 549q-26 0 -45 19t-15 47l18 139q3 25 20.5 42t43.5 17q30 0 49 -23t14 -53l-27 -133q-5 -25 -20 -40t-38 -15zM352 506q86 0 138 -54t52 -145v-430q0 -29 -19.5 -49t-47.5 -20t-47.5 20t-19.5 49v411q0 43 -25.5 69.5t-66.5 26.5q-42 0 -68.5 -26.5t-26.5 -69.5
v-231q0 -29 -19.5 -49t-47.5 -20t-47.5 20t-19.5 49v267q0 31 -14 47q-8 11 -32 17q-19 5 -31 20.5t-12 35.5q0 34 28 50q20 12 59 12q81 0 111 -60q62 60 156 60z" />
    <glyph glyph-name="iotatonos" unicode="&#x3af;" horiz-adv-x="314" 
d="M134 549q-26 0 -45 19t-15 47l18 139q3 25 20.5 42t43.5 17q30 0 49 -23t14 -53l-27 -133q-5 -25 -20 -40t-38 -15zM223 -12q-75 0 -116.5 45.5t-41.5 127.5v277q0 29 19.5 48.5t47.5 19.5q29 0 48 -19.5t19 -48.5v-265q0 -62 55 -62h5q23 0 37.5 -15t14.5 -38
q0 -38 -27 -54q-22 -16 -61 -16z" />
    <glyph glyph-name="upsilondieresistonos" unicode="&#x3b0;" horiz-adv-x="576" 
d="M274 549q-26 0 -45 19t-15 47l18 139q3 25 20.5 42t43.5 17q30 0 49 -23t14 -53l-27 -133q-5 -25 -20 -40t-38 -15zM90 598q-30 0 -55 23.5t-25 53.5q0 33 24.5 56t55.5 23q33 0 56 -23t23 -56q0 -31 -23.5 -54t-55.5 -23zM471 598q-30 0 -54.5 23.5t-24.5 53.5
q0 33 24 56t55 23q33 0 56.5 -23t23.5 -56q0 -31 -23.5 -54t-56.5 -23zM294 -12q-105 0 -168.5 63.5t-63.5 168.5v218q0 28 20 48t48 20t47.5 -20t19.5 -48v-228q0 -45 27 -72.5t71 -27.5q94 0 94 135q0 67 -15 134q-10 46 -10 62q0 29 18 47t47 18q54 0 68 -57
q30 -105 30 -202q0 -120 -62.5 -189.5t-170.5 -69.5z" />
    <glyph glyph-name="alpha" unicode="&#x3b1;" horiz-adv-x="641" 
d="M594 112q22 0 35 -14.5t13 -37.5q0 -36 -24 -54q-22 -16 -65 -16q-91 0 -118 78q-52 -80 -161 -80q-102 0 -168.5 73.5t-66.5 185.5t66.5 185.5t168.5 73.5q103 0 157 -73v3q2 30 20 47.5t46 17.5q29 0 48.5 -19.5t17.5 -48.5q-7 -137 -7 -170l-2 -91q-1 -32 8 -46
t31 -14h1zM298 111q55 0 89 37.5t34 98.5t-34 99t-89 38q-53 0 -87.5 -38.5t-34.5 -97.5q0 -61 34.5 -99t87.5 -38z" />
    <glyph glyph-name="beta" unicode="&#x3b2;" horiz-adv-x="633" 
d="M453 428q66 -23 103.5 -76t37.5 -127q0 -104 -69 -170.5t-177 -66.5q-83 0 -146 46v-157q0 -30 -19 -49.5t-48 -19.5t-48.5 20t-19.5 49v654q0 106 65.5 168.5t175.5 62.5q94 0 153 -53.5t59 -138.5q0 -92 -67 -142zM330 112q59 0 93.5 32t34.5 86q0 52 -33.5 85
t-86.5 33h-16q-25 0 -42 15t-17 38t11 37t38 26q72 18 72 93q0 39 -23 62.5t-62 23.5q-44 0 -70.5 -31t-26.5 -82v-370q57 -48 128 -48z" />
    <glyph glyph-name="gamma" unicode="&#x3b3;" horiz-adv-x="556" 
d="M537 441q0 -15 -10 -36l-182 -367v-161q0 -29 -19 -49t-48 -20q-28 0 -47.5 20t-19.5 49v165l-180 363q-11 21 -11 36q0 26 19.5 45.5t45.5 19.5q41 0 60 -38l134 -276l133 276q19 38 59 38q27 0 46.5 -19.5t19.5 -45.5z" />
    <glyph glyph-name="delta" unicode="&#x3b4;" horiz-adv-x="608" 
d="M463 461q107 -101 107 -213q0 -109 -77.5 -184.5t-189.5 -75.5t-188 75.5t-76 185.5q0 95 59 163t153 83l-165 155q-19 17 -19 43q0 23 17 40t40 17h361q25 0 41 -16.5t16 -40.5q0 -25 -16 -41t-41 -16h-204zM304 112q55 0 91.5 38.5t36.5 96.5t-36.5 96t-91.5 38
q-56 0 -92 -38t-36 -96q0 -59 36.5 -97t91.5 -38z" />
    <glyph glyph-name="epsilon" unicode="&#x3b5;" horiz-adv-x="509" 
d="M411 152q23 0 39.5 -17t17.5 -41q0 -27 -22 -43q-70 -63 -185 -63q-95 0 -155.5 40.5t-60.5 108.5q0 76 71 118q-51 40 -51 106q0 68 55.5 106.5t146.5 38.5q106 0 176 -56q23 -18 21 -44q1 -24 -16 -41t-40 -17q-17 0 -34 11q-45 31 -106 31q-71 0 -71 -43
q0 -20 15 -31.5t41 -11.5h43q22 0 36.5 -14t14.5 -36q0 -21 -14.5 -35.5t-36.5 -14.5h-48q-71 0 -71 -48q0 -52 85 -52q70 0 111 36q20 12 38 12z" />
    <glyph glyph-name="zeta" unicode="&#x3b6;" horiz-adv-x="525" 
d="M354 108q164 -47 164 -166q0 -54 -22 -95q-20 -39 -64 -39q-27 0 -44.5 16t-17.5 40q0 11 4.5 29.5t4.5 28.5q0 51 -73 68l-55 14q-101 25 -156.5 82.5t-55.5 137.5q0 111 91 206l194 206h-209q-25 0 -41.5 16t-16.5 41q0 24 16.5 40.5t41.5 16.5h338q23 0 40 -17t17 -40
q0 -22 -15 -38l-263 -291q-56 -63 -56 -122q0 -84 116 -117z" />
    <glyph glyph-name="eta" unicode="&#x3b7;" horiz-adv-x="605" 
d="M352 506q86 0 138 -54t52 -145v-430q0 -29 -19.5 -49t-47.5 -20t-47.5 20t-19.5 49v411q0 43 -25.5 69.5t-66.5 26.5q-42 0 -68.5 -26.5t-26.5 -69.5v-231q0 -29 -19.5 -49t-47.5 -20t-47.5 20t-19.5 49v267q0 31 -14 47q-8 11 -32 17q-19 5 -31 20.5t-12 35.5
q0 34 28 50q20 12 59 12q81 0 111 -60q62 60 156 60z" />
    <glyph glyph-name="theta" unicode="&#x3b8;" horiz-adv-x="641" 
d="M320 762q129 0 197.5 -99t68.5 -285q0 -188 -69 -289.5t-197 -101.5t-196.5 101.5t-68.5 289.5q0 186 68.5 285t196.5 99zM320 638q-59 0 -89 -47.5t-36 -150.5h251q-6 103 -36.5 150.5t-89.5 47.5zM320 111q60 0 91 52t36 163h-253q5 -111 35.5 -163t90.5 -52z" />
    <glyph glyph-name="iota" unicode="&#x3b9;" horiz-adv-x="314" 
d="M223 -12q-75 0 -116.5 45.5t-41.5 127.5v277q0 29 19.5 48.5t47.5 19.5q29 0 48 -19.5t19 -48.5v-265q0 -62 55 -62h5q23 0 37.5 -15t14.5 -38q0 -38 -27 -54q-22 -16 -61 -16z" />
    <glyph glyph-name="kappa" unicode="&#x3ba;" horiz-adv-x="561" 
d="M135 506q29 0 48 -19.5t19 -48.5v-381q0 -29 -19.5 -49t-47.5 -20q-29 0 -48.5 20t-19.5 49v381q0 29 19.5 48.5t48.5 19.5zM510 92q16 -20 16 -42q0 -26 -17.5 -44t-43.5 -18q-31 0 -50 25l-169 207q-21 26 -21 49q0 25 24 50l158 166q19 21 47 21q26 0 44 -17.5
t18 -42.5q0 -26 -22 -48l-126 -129z" />
    <glyph glyph-name="lambda" unicode="&#x3bb;" horiz-adv-x="572" 
d="M563 88q15 -15 15 -40t-19.5 -41.5t-48.5 -16.5q-53 0 -83 27t-53 90l-86 234l-118 -307q-15 -46 -62 -46q-28 0 -47.5 19.5t-19.5 47.5q0 11 6 28l175 432l-17 47q-17 45 -38.5 61.5t-60.5 16.5h-11q-25 -1 -42.5 17t-17.5 42q0 35 33 52q25 11 58 11q73 0 119 -34.5
t77 -116.5l164 -440q20 -52 52 -67q17 -7 25 -16z" />
    <glyph glyph-name="uni03BC" unicode="&#x3bc;" horiz-adv-x="610" 
d="M563 112q22 0 35 -14.5t13 -37.5q0 -40 -31 -56q-26 -14 -57 -14q-75 0 -106 52q-43 -54 -112 -54q-63 0 -103 45v-156q0 -29 -19.5 -49t-47.5 -20t-48 20t-20 49v561q0 28 19.5 48t48.5 20q28 0 47.5 -20t19.5 -48v-228q0 -44 25.5 -72t66.5 -28q42 0 68 28t26 72v228
q0 28 19.5 48t47.5 20t47.5 -20t19.5 -48v-277q0 -49 40 -49h1z" />
    <glyph glyph-name="nu" unicode="&#x3bd;" horiz-adv-x="559" 
d="M473 506q26 0 45.5 -19.5t19.5 -45.5q0 -15 -10 -36l-186 -375q-20 -42 -62 -42t-62 42l-186 375q-11 21 -11 36q0 26 19.5 45.5t46.5 19.5q40 0 59 -38l134 -276l133 276q19 38 60 38z" />
    <glyph glyph-name="xi" unicode="&#x3be;" horiz-adv-x="533" 
d="M357 112q80 -17 124.5 -59.5t44.5 -104.5q0 -63 -22 -100q-22 -40 -65 -40q-27 0 -45 17t-18 43q0 9 5.5 28.5t5.5 30.5q0 54 -73 66l-47 8q-105 17 -163.5 75t-58.5 144q0 60 28.5 108t79.5 75q-82 57 -82 157q0 88 64 145t163 57q120 0 191 -84q15 -20 15 -41
q0 -25 -18 -43t-44 -18t-46 21q-36 41 -87 41q-43 0 -71.5 -25.5t-28.5 -65.5t28 -66.5t71 -26.5h62q23 0 40.5 -16t17.5 -42q0 -25 -17.5 -41t-40.5 -16h-71q-51 0 -83.5 -29t-32.5 -77q0 -86 114 -108z" />
    <glyph glyph-name="omicron" unicode="&#x3bf;" horiz-adv-x="608" 
d="M304 506q111 0 188.5 -75t77.5 -183t-77.5 -183.5t-189.5 -75.5q-111 0 -187.5 75t-76.5 184t76.5 183.5t188.5 74.5zM304 383q-56 0 -92 -38.5t-36 -97.5q0 -58 36 -96t92 -38q55 0 91.5 38t36.5 96t-36.5 97t-91.5 39z" />
    <glyph glyph-name="pi" unicode="&#x3c0;" horiz-adv-x="598" 
d="M135 -12q-28 0 -48 20t-20 49v369q0 29 20 49t49 20h306q32 0 50.5 -18.5t18.5 -50.5v-268q0 -40 32 -44l6 -3q51 -12 51 -58q0 -28 -19 -44q-22 -19 -69 -19q-67 0 -101.5 41t-34.5 120v230h-174v-325q0 -28 -19.5 -48t-47.5 -20z" />
    <glyph glyph-name="rho" unicode="&#x3c1;" horiz-adv-x="617" 
d="M319 506q116 0 188 -71.5t72 -187.5q0 -112 -67 -185.5t-170 -73.5q-92 0 -145 58v-169q0 -29 -19 -48.5t-48 -19.5t-48.5 19.5t-19.5 48.5v366q0 119 70.5 191t186.5 72zM317 111q55 0 89.5 38.5t34.5 97.5q0 61 -35 99t-90 38t-88.5 -37t-33.5 -98q0 -62 34 -100
t89 -38z" />
    <glyph glyph-name="uni03C2" unicode="&#x3c2;" horiz-adv-x="532" 
d="M403 -192q-27 0 -44.5 16t-17.5 40q0 11 4.5 29.5t4.5 28.5q0 27 -19 42t-72 32q-47 14 -82.5 32t-68.5 47t-51 73t-18 101q0 118 72 187.5t184 69.5q123 0 194 -87q13 -16 13 -39q0 -26 -18 -43.5t-43 -17.5q-28 0 -44 19q-43 45 -101 45q-54 0 -86.5 -35t-32.5 -93
q0 -61 38 -92.5t113 -54.5q85 -28 123 -67t38 -99q0 -55 -22 -95q-21 -39 -64 -39z" />
    <glyph glyph-name="sigma" unicode="&#x3c3;" horiz-adv-x="646" 
d="M569 495q25 0 41.5 -16.5t16.5 -40.5q0 -25 -16.5 -41t-41.5 -16h-70q63 -60 63 -146q0 -106 -75 -176.5t-188 -70.5q-112 0 -186 73.5t-74 183.5q0 112 74 181t194 69h262zM300 112q54 0 89 38t35 97q0 58 -34.5 95t-89.5 37t-89.5 -37t-34.5 -95q0 -59 35 -97t89 -38z
" />
    <glyph glyph-name="tau" unicode="&#x3c4;" horiz-adv-x="479" 
d="M402 112q25 0 41 -17t16 -42q0 -33 -31 -49q-35 -16 -90 -16q-206 0 -206 186v207h-74q-24 0 -41 16.5t-17 40.5t17 40.5t41 16.5h330q24 0 41 -16.5t17 -40.5t-17 -40.5t-41 -16.5h-121v-195q0 -41 22.5 -59t73.5 -18q7 0 20 1.5t19 1.5z" />
    <glyph glyph-name="upsilon" unicode="&#x3c5;" horiz-adv-x="576" 
d="M294 -12q-105 0 -168.5 63.5t-63.5 168.5v218q0 28 20 48t48 20t47.5 -20t19.5 -48v-228q0 -45 27 -72.5t71 -27.5q94 0 94 135q0 67 -15 134q-10 46 -10 62q0 29 18 47t47 18q54 0 68 -57q30 -105 30 -202q0 -120 -62.5 -189.5t-170.5 -69.5z" />
    <glyph glyph-name="phi" unicode="&#x3c6;" horiz-adv-x="803" 
d="M765 248q0 -117 -81.5 -188.5t-214.5 -71.5v-111q0 -30 -19 -49.5t-48 -19.5q-28 0 -47.5 20t-19.5 49v111q-133 0 -214.5 72t-81.5 188t81 187t215 71v121q0 29 19 48.5t48 19.5t48 -19.5t19 -48.5v-121q134 0 215 -70.5t81 -187.5zM332 103h6v288h-6q-76 0 -119 -38.5
t-43 -105.5q0 -68 42.5 -106t119.5 -38zM471 103q77 0 120 38t43 106t-43.5 106t-119.5 38h-6v-288h6z" />
    <glyph glyph-name="chi" unicode="&#x3c7;" horiz-adv-x="549" 
d="M503 -70q26 -2 40.5 -19t14.5 -41q0 -28 -21 -45t-54 -17q-46 0 -76 20.5t-59 74.5l-76 143l-126 -206q-20 -32 -55 -32q-26 0 -45 19t-19 45q0 20 12 38l164 261l-97 178q-17 32 -48 33q-26 2 -40.5 19.5t-14.5 41.5q0 28 21 44.5t54 16.5q46 0 75.5 -20t58.5 -74
l64 -124l115 189q19 31 55 31q26 0 45 -18.5t19 -45.5q0 -20 -12 -38l-151 -240l108 -200q16 -31 48 -34z" />
    <glyph glyph-name="psi" unicode="&#x3c8;" horiz-adv-x="831" 
d="M417 -192q-28 0 -47.5 20t-19.5 48v112q-133 0 -210.5 70.5t-77.5 189.5v190q0 28 20 48t48 20t47.5 -20t19.5 -48v-179q0 -68 41.5 -108.5t111.5 -40.5v493q0 28 19.5 48t47.5 20t47.5 -20t19.5 -48v-493q160 0 160 153q0 57 -14 115q-11 57 -11 63q0 29 18 47t47 18
q53 0 68 -57q30 -98 30 -188q0 -127 -79.5 -200t-218.5 -73v-112q0 -28 -19.5 -48t-47.5 -20z" />
    <glyph glyph-name="omega" unicode="&#x3c9;" horiz-adv-x="844" 
d="M662 481q143 -68 143 -239q0 -115 -63 -184.5t-167 -69.5q-100 0 -153 68q-54 -68 -153 -68q-104 0 -167 69.5t-63 184.5q0 170 143 239q40 19 61 19q27 0 46 -19t19 -45q0 -40 -42 -60q-92 -37 -92 -136q0 -58 27.5 -94t72.5 -36q38 0 61 27.5t23 73.5v103
q0 27 18.5 45.5t45.5 18.5t45.5 -18.5t18.5 -45.5v-103q0 -46 23 -73.5t61 -27.5q45 0 72.5 36t27.5 94q0 98 -92 137q-42 18 -42 60q0 26 19 44.5t46 18.5q23 0 61 -19z" />
    <glyph glyph-name="iotadieresis" unicode="&#x3ca;" horiz-adv-x="314" 
d="M24 598q-33 0 -57 23t-24 55t23.5 55t57.5 23t57.5 -22.5t23.5 -55.5q0 -32 -24 -55t-57 -23zM244 598q-33 0 -57 23t-24 55t23.5 55t57.5 23t57 -22.5t23 -55.5q0 -32 -23.5 -55t-56.5 -23zM223 -12q-75 0 -116.5 45.5t-41.5 127.5v277q0 29 19.5 48.5t47.5 19.5
q29 0 48 -19.5t19 -48.5v-265q0 -62 55 -62h5q23 0 37.5 -15t14.5 -38q0 -38 -27 -54q-22 -16 -61 -16z" />
    <glyph glyph-name="upsilondieresis" unicode="&#x3cb;" horiz-adv-x="576" 
d="M162 754q34 0 57.5 -22.5t23.5 -56.5q0 -31 -24 -54t-57 -23q-32 0 -56.5 23.5t-24.5 53.5q0 33 24 56t57 23zM399 754q35 0 58 -22.5t23 -56.5q0 -32 -23.5 -54.5t-57.5 -22.5q-31 0 -55.5 23.5t-24.5 53.5q0 33 23.5 56t56.5 23zM294 -12q-105 0 -168.5 63.5
t-63.5 168.5v218q0 28 20 48t48 20t47.5 -20t19.5 -48v-228q0 -45 27 -72.5t71 -27.5q94 0 94 135q0 67 -15 134q-10 46 -10 62q0 29 18 47t47 18q54 0 68 -57q30 -105 30 -202q0 -120 -62.5 -189.5t-170.5 -69.5z" />
    <glyph glyph-name="omicrontonos" unicode="&#x3cc;" horiz-adv-x="608" 
d="M304 549q-26 0 -45 19t-15 47l18 139q3 25 20.5 42t43.5 17q30 0 49 -23t14 -53l-27 -133q-5 -25 -20 -40t-38 -15zM304 506q111 0 188.5 -75t77.5 -183t-77.5 -183.5t-189.5 -75.5q-111 0 -187.5 75t-76.5 184t76.5 183.5t188.5 74.5zM304 383q-56 0 -92 -38.5
t-36 -97.5q0 -58 36 -96t92 -38q55 0 91.5 38t36.5 96t-36.5 97t-91.5 39z" />
    <glyph glyph-name="upsilontonos" unicode="&#x3cd;" horiz-adv-x="576" 
d="M281 549q-26 0 -45 19t-15 47l18 139q3 25 20.5 42t43.5 17q30 0 49 -23t14 -53l-27 -133q-5 -25 -20 -40t-38 -15zM294 -12q-105 0 -168.5 63.5t-63.5 168.5v218q0 28 20 48t48 20t47.5 -20t19.5 -48v-228q0 -45 27 -72.5t71 -27.5q94 0 94 135q0 67 -15 134
q-10 46 -10 62q0 29 18 47t47 18q54 0 68 -57q30 -105 30 -202q0 -120 -62.5 -189.5t-170.5 -69.5z" />
    <glyph glyph-name="omegatonos" unicode="&#x3ce;" horiz-adv-x="844" 
d="M416 549q-26 0 -45 19t-15 47l18 139q3 25 20.5 42t43.5 17q30 0 49 -23t14 -53l-27 -133q-5 -25 -20 -40t-38 -15zM662 481q143 -68 143 -239q0 -115 -63 -184.5t-167 -69.5q-100 0 -153 68q-54 -68 -153 -68q-104 0 -167 69.5t-63 184.5q0 170 143 239q40 19 61 19
q27 0 46 -19t19 -45q0 -40 -42 -60q-92 -37 -92 -136q0 -58 27.5 -94t72.5 -36q38 0 61 27.5t23 73.5v103q0 27 18.5 45.5t45.5 18.5t45.5 -18.5t18.5 -45.5v-103q0 -46 23 -73.5t61 -27.5q45 0 72.5 36t27.5 94q0 98 -92 137q-42 18 -42 60q0 26 19 44.5t46 18.5
q23 0 61 -19z" />
    <glyph glyph-name="uni0400" unicode="&#x400;" horiz-adv-x="572" 
d="M279 719q-30 0 -50 26l-64 90q-25 32 -7 69t58 38q43 2 62 -35l52 -100q14 -27 -1 -57t-50 -31zM142 0q-28 0 -47.5 19t-19.5 48v526q0 29 19.5 48t47.5 19h323q27 0 44.5 -17.5t17.5 -43.5t-18 -43.5t-44 -17.5h-255v-134h175q25 0 42 -16.5t17 -41.5q0 -24 -17 -40.5
t-42 -16.5h-175v-167h267q27 0 44.5 -17.5t17.5 -43.5t-18 -43.5t-44 -17.5h-335z" />
    <glyph glyph-name="uni0401" unicode="&#x401;" horiz-adv-x="572" 
d="M165 737q-31 0 -56 23.5t-25 53.5q0 33 24.5 55.5t56.5 22.5q33 0 57 -22.5t24 -55.5q0 -31 -24 -54t-57 -23zM423 736q-31 0 -56 23.5t-25 53.5q0 33 24.5 56t56.5 23q33 0 57 -23t24 -56q0 -31 -24 -54t-57 -23zM142 0q-28 0 -47.5 19t-19.5 48v526q0 29 19.5 48
t47.5 19h323q27 0 44.5 -17.5t17.5 -43.5t-18 -43.5t-44 -17.5h-255v-134h175q25 0 42 -16.5t17 -41.5q0 -24 -17 -40.5t-42 -16.5h-175v-167h267q27 0 44.5 -17.5t17.5 -43.5t-18 -43.5t-44 -17.5h-335z" />
    <glyph glyph-name="uni0402" unicode="&#x402;" horiz-adv-x="768" 
d="M292 -12q-29 0 -48 20t-19 50v480h-157q-26 0 -44 17.5t-18 43.5t18 43.5t44 17.5h449q27 0 44.5 -17.5t17.5 -43.5t-18 -43.5t-44 -17.5h-157v-123h125q109 0 176.5 -59t67.5 -155q0 -67 -39.5 -120t-109.5 -80q-34 -12 -55 -12q-27 0 -46.5 18t-19.5 42q0 41 49 65
q83 30 83 95q0 39 -28.5 63t-76.5 24h-126v-238q0 -30 -19.5 -50t-48.5 -20z" />
    <glyph glyph-name="uni0403" unicode="&#x403;" horiz-adv-x="525" 
d="M296 719q-35 1 -50 31t-1 57l52 100q19 37 62 35q40 -1 58 -38t-7 -69l-64 -90q-20 -26 -50 -26zM446 660q27 0 44.5 -17.5t17.5 -43.5t-18 -43.5t-44 -17.5h-235v-481q0 -29 -19.5 -49t-48.5 -20q-28 0 -47.5 20t-19.5 49v534q0 30 19.5 49.5t49.5 19.5h301z" />
    <glyph glyph-name="uni0404" unicode="&#x404;" horiz-adv-x="720" 
d="M603 213q26 0 44 -18t18 -43t-21 -50q-44 -53 -111.5 -83.5t-143.5 -30.5q-148 0 -249.5 99t-101.5 243t102 243t250 99q76 0 143.5 -30.5t111.5 -83.5q21 -24 21 -50q0 -25 -18.5 -43t-44.5 -18q-29 0 -52 26q-64 74 -161 74q-73 0 -127 -39t-75 -104h235
q26 0 42.5 -16.5t16.5 -41.5q0 -24 -16.5 -40.5t-42.5 -16.5h-243q13 -79 70.5 -127.5t139.5 -48.5q95 0 160 74q24 26 53 26z" />
    <glyph glyph-name="uni0405" unicode="&#x405;" horiz-adv-x="559" 
d="M285 -12q-59 0 -117.5 24.5t-95.5 64.5q-25 25 -25 52q1 26 19 43t43 17q21 0 35 -13q66 -68 141 -68q44 0 69 19.5t25 53.5q0 27 -17.5 43.5t-66.5 38.5l-71 32q-81 37 -120.5 82.5t-39.5 107.5q0 83 62 135t157 52q117 0 185 -78q18 -19 18 -43q0 -25 -19 -42.5
t-43 -17.5q-20 0 -37 14q-53 47 -104 47q-37 0 -59.5 -17t-22.5 -47q0 -24 16 -39.5t61 -36.5l75 -33q85 -38 124 -82.5t39 -110.5q0 -90 -65 -144t-166 -54z" />
    <glyph glyph-name="uni0406" unicode="&#x406;" horiz-adv-x="285" 
d="M143 672q29 0 48.5 -20t19.5 -49v-546q0 -29 -19.5 -49t-48.5 -20q-28 0 -47.5 20t-19.5 49v546q0 29 19 49t48 20z" />
    <glyph glyph-name="uni0407" unicode="&#x407;" horiz-adv-x="285" 
d="M14 737q-31 0 -56 23.5t-25 53.5q0 33 24.5 55.5t56.5 22.5q33 0 57 -22.5t24 -55.5q0 -31 -24 -54t-57 -23zM272 736q-31 0 -56 23.5t-25 53.5q0 33 24.5 56t56.5 23q33 0 57 -23t24 -56q0 -31 -24 -54t-57 -23zM143 672q29 0 48.5 -20t19.5 -49v-546q0 -29 -19.5 -49
t-48.5 -20q-28 0 -47.5 20t-19.5 49v546q0 29 19 49t48 20z" />
    <glyph glyph-name="uni0408" unicode="&#x408;" horiz-adv-x="388" 
d="M106 -12q-38 0 -62 9q-39 17 -39 57q0 26 18 43t45 17q8 0 23.5 -1.5t24.5 -1.5q29 0 45.5 17.5t16.5 48.5v426q0 30 19 49.5t49 19.5q29 0 48 -20t19 -49v-427q0 -188 -207 -188z" />
    <glyph glyph-name="uni0409" unicode="&#x409;" horiz-adv-x="1001" 
d="M721 433q107 0 174 -60.5t67 -155.5q0 -97 -66.5 -157t-174.5 -60h-201q-30 0 -49.5 19.5t-19.5 49.5v469h-165q-2 -222 -44.5 -349.5t-128.5 -174.5q-36 -24 -71 -24q-27 0 -44 16.5t-17 42.5q0 45 44 61q70 24 101 125t31 303v53q0 30 19.5 49.5t49.5 19.5h291
q30 0 49.5 -19.5t19.5 -49.5v-158h135zM721 119q47 0 75 26.5t28 70.5q0 45 -28 72t-75 27h-135v-196h135z" />
    <glyph glyph-name="uni040A" unicode="&#x40a;" horiz-adv-x="1040" 
d="M143 -12q-28 0 -47.5 20t-19.5 49v546q0 29 19.5 49t47.5 20q29 0 48.5 -20t19.5 -49v-195h279v195q0 29 19.5 49t48.5 20q28 0 47.5 -20t19.5 -49v-173h135q107 0 174.5 -60t67.5 -155q0 -97 -67 -156t-175 -59h-201q-29 0 -49 19.5t-20 49.5v218h-279v-230
q0 -29 -19.5 -49t-48.5 -20zM625 119h135q48 0 76 25.5t28 69.5t-28.5 70.5t-75.5 26.5h-135v-192z" />
    <glyph glyph-name="uni040B" unicode="&#x40b;" horiz-adv-x="798" 
d="M472 414q119 0 188 -73t69 -198v-86q0 -29 -19.5 -49t-47.5 -20q-29 0 -48.5 20t-19.5 49v81q0 77 -33 114.5t-103 37.5q-47 0 -98 -14v-219q0 -29 -19.5 -49t-48.5 -20q-28 0 -47.5 20t-19.5 49v481h-157q-26 0 -44 17.5t-18 43.5t18 43.5t44 17.5h449q27 0 44.5 -17.5
t17.5 -43.5t-18 -43.5t-44 -17.5h-157v-140q59 16 112 16z" />
    <glyph glyph-name="uni040C" unicode="&#x40c;" horiz-adv-x="662" 
d="M352 719q-35 1 -50 31t-1 57l52 100q19 37 62 35q40 -1 58 -38t-7 -69l-64 -90q-20 -26 -50 -26zM144 672q28 0 47.5 -20t19.5 -49v-546q0 -29 -19.5 -49t-47.5 -20q-29 0 -48.5 20t-19.5 49v546q0 30 19 49.5t49 19.5zM607 93q17 -20 17 -41q0 -26 -19 -45t-44 -19
q-31 0 -54 28l-251 289q-18 21 -18 45q0 22 19 43l238 257q22 22 49 22q25 0 43 -18.5t18 -44.5q0 -24 -20 -45l-199 -215z" />
    <glyph glyph-name="uni040D" unicode="&#x40d;" horiz-adv-x="722" 
d="M289 745l-64 90q-25 32 -7 69t58 38q43 2 62 -35l52 -100q14 -27 -1 -57t-50 -31q-30 0 -50 26zM581 672q28 0 47.5 -19.5t19.5 -48.5v-547q0 -29 -19.5 -49t-48.5 -20q-28 0 -47.5 20t-19.5 49v366l-314 -406q-23 -29 -56 -29q-28 0 -47.5 20t-19.5 48v547q0 29 19.5 49
t47.5 20q29 0 48.5 -20t19.5 -49v-368l305 397q11 14 17.5 21t19 13t28.5 6z" />
    <glyph glyph-name="uni040E" unicode="&#x40e;" horiz-adv-x="631" 
d="M310 726q-65 0 -116.5 41.5t-51.5 95.5q0 23 15 37.5t37 14.5q30 0 50 -38q21 -49 66 -49q47 0 65 49q19 38 51 38q22 0 36.5 -14.5t14.5 -37.5q0 -54 -51 -95.5t-116 -41.5zM529 667q29 0 49.5 -21t20.5 -50q0 -16 -10 -37l-199 -425q-68 -146 -225 -146q-42 0 -69 12
q-35 18 -35 54q0 26 18 43t46 17q2 0 8 -0.5t10 -0.5q82 0 114 61l-203 385q-10 20 -10 38q0 29 20.5 49.5t49.5 20.5q42 0 65 -43l152 -304l133 304q18 43 65 43z" />
    <glyph glyph-name="uni040F" unicode="&#x40f;" horiz-adv-x="690" 
d="M548 672q28 0 47.5 -20t19.5 -49v-534q0 -30 -19.5 -49.5t-49.5 -19.5h-133v-84q0 -29 -19.5 -49t-47.5 -20q-29 0 -48.5 20t-19.5 49v84h-133q-30 0 -49.5 19.5t-19.5 49.5v534q0 29 19.5 49t47.5 20q29 0 48.5 -20t19.5 -49v-481h269v481q0 29 19.5 49t48.5 20z" />
    <glyph glyph-name="uni0410" unicode="&#x410;" horiz-adv-x="662" 
d="M620 89q8 -19 8 -36q0 -27 -19 -46t-47 -19q-44 0 -64 48l-28 68h-279l-28 -68q-19 -48 -63 -48q-28 0 -47.5 19t-19.5 46q0 14 8 36l226 537q18 46 64 46t64 -46zM331 473l-96 -258h190z" />
    <glyph glyph-name="uni0411" unicode="&#x411;" horiz-adv-x="621" 
d="M455 660q27 0 45 -17.5t18 -43.5t-18 -43.5t-45 -17.5h-244v-145h159q97 0 157 -53.5t60 -140.5q0 -89 -60 -144t-157 -55h-225q-30 0 -49.5 19.5t-19.5 49.5v522q0 30 19.5 49.5t49.5 19.5h310zM360 282h-149v-166h149q44 0 69 21.5t25 61.5q0 39 -25 61t-69 22z" />
    <glyph glyph-name="uni0412" unicode="&#x412;" horiz-adv-x="620" 
d="M469 357q56 -20 87 -62t31 -101q0 -85 -61 -139.5t-157 -54.5h-225q-30 0 -49.5 19.5t-19.5 49.5v522q0 30 19.5 49.5t49.5 19.5h165q92 0 150.5 -51t58.5 -133q0 -73 -49 -119zM299 544h-93v-151h93q40 0 63 20.5t23 55.5t-23 55t-63 20zM359 116q44 0 69 21.5t25 61.5
q0 39 -25 61t-69 22h-153v-166h153z" />
    <glyph glyph-name="uni0413" unicode="&#x413;" horiz-adv-x="525" 
d="M446 660q27 0 44.5 -17.5t17.5 -43.5t-18 -43.5t-44 -17.5h-235v-481q0 -29 -19.5 -49t-48.5 -20q-28 0 -47.5 20t-19.5 49v534q0 30 19.5 49.5t49.5 19.5h301z" />
    <glyph glyph-name="uni0414" unicode="&#x414;" horiz-adv-x="727" 
d="M633 122q30 0 49.5 -20t19.5 -49v-137q0 -29 -19.5 -49t-47.5 -20q-29 0 -48.5 20t-19.5 49v84h-411v-84q0 -29 -19.5 -49t-47.5 -20q-29 0 -48.5 20t-19.5 49v137q0 28 18 47.5t45 21.5q120 130 120 429v40q0 30 20 49.5t49 19.5h272q30 0 49.5 -19.5t19.5 -49.5v-469
h19zM333 538q-3 -281 -110 -416h256v416h-146z" />
    <glyph glyph-name="uni0415" unicode="&#x415;" horiz-adv-x="572" 
d="M142 0q-28 0 -47.5 19t-19.5 48v526q0 29 19.5 48t47.5 19h323q27 0 44.5 -17.5t17.5 -43.5t-18 -43.5t-44 -17.5h-255v-134h175q25 0 42 -16.5t17 -41.5q0 -24 -17 -40.5t-42 -16.5h-175v-167h267q27 0 44.5 -17.5t17.5 -43.5t-18 -43.5t-44 -17.5h-335z" />
    <glyph glyph-name="uni0416" unicode="&#x416;" horiz-adv-x="1014" 
d="M166 647l227 -252q19 -22 19 -45q0 -27 -19 -47l-239 -284q-26 -31 -57 -31q-25 0 -44 19.5t-19 45.5q0 21 15 39l218 257l-196 216q-18 21 -18 44q0 26 18 44.5t43 18.5q28 0 52 -25zM507 672q29 0 48.5 -20t19.5 -49v-546q0 -29 -19.5 -49t-48.5 -20q-28 0 -47.5 20
t-19.5 49v546q0 29 19.5 49t47.5 20zM966 92q15 -20 15 -39q0 -26 -19 -45.5t-45 -19.5q-31 0 -56 31l-240 284q-19 24 -19 47t19 45l228 252q24 25 52 25q25 0 43 -18.5t18 -44.5q0 -23 -18 -44l-198 -215z" />
    <glyph glyph-name="uni0417" unicode="&#x417;" horiz-adv-x="588" 
d="M453 349q97 -48 97 -154q0 -90 -71 -148.5t-180 -58.5q-147 0 -230 106q-15 20 -15 39q0 26 18 44t44 18t44 -21q58 -61 138 -61q53 0 85.5 24.5t32.5 64.5q0 36 -26 58t-67 22h-81q-24 0 -40.5 16t-16.5 40t16.5 39.5t40.5 15.5h53q38 0 61.5 21t23.5 55q0 35 -26 56.5
t-67 21.5q-66 0 -115 -52q-19 -20 -45 -20q-25 0 -43 17.5t-18 42.5q0 22 15 41q35 45 90 70.5t117 25.5q96 0 161 -56t65 -139q0 -80 -61 -128z" />
    <glyph glyph-name="uni0418" unicode="&#x418;" horiz-adv-x="722" 
d="M581 672q28 0 47.5 -19.5t19.5 -48.5v-547q0 -29 -19.5 -49t-48.5 -20q-28 0 -47.5 20t-19.5 49v366l-314 -406q-23 -29 -56 -29q-28 0 -47.5 20t-19.5 48v547q0 29 19.5 49t47.5 20q29 0 48.5 -20t19.5 -49v-368l305 397q11 14 17.5 21t19 13t28.5 6z" />
    <glyph glyph-name="uni0419" unicode="&#x419;" horiz-adv-x="722" 
d="M354 726q-65 0 -116.5 41.5t-51.5 95.5q0 23 15 37.5t37 14.5q30 0 50 -38q21 -49 66 -49q47 0 65 49q19 38 51 38q22 0 36.5 -14.5t14.5 -37.5q0 -54 -51 -95.5t-116 -41.5zM581 672q28 0 47.5 -19.5t19.5 -48.5v-547q0 -29 -19.5 -49t-48.5 -20q-28 0 -47.5 20
t-19.5 49v366l-314 -406q-23 -29 -56 -29q-28 0 -47.5 20t-19.5 48v547q0 29 19.5 49t47.5 20q29 0 48.5 -20t19.5 -49v-368l305 397q11 14 17.5 21t19 13t28.5 6z" />
    <glyph glyph-name="uni041A" unicode="&#x41a;" horiz-adv-x="662" 
d="M144 672q28 0 47.5 -20t19.5 -49v-546q0 -29 -19.5 -49t-47.5 -20q-29 0 -48.5 20t-19.5 49v546q0 30 19 49.5t49 19.5zM607 93q17 -20 17 -41q0 -26 -19 -45t-44 -19q-31 0 -54 28l-251 289q-18 21 -18 45q0 22 19 43l238 257q22 22 49 22q25 0 43 -18.5t18 -44.5
q0 -24 -20 -45l-199 -215z" />
    <glyph glyph-name="uni041B" unicode="&#x41b;" horiz-adv-x="661" 
d="M517 660q30 0 49.5 -19.5t19.5 -49.5v-534q0 -29 -19.5 -49t-47.5 -20q-29 0 -48.5 20t-19.5 49v481h-165q-2 -223 -44.5 -350t-128.5 -174q-36 -24 -71 -24q-27 0 -44 16.5t-17 42.5q0 45 44 61q70 24 101 124.5t31 303.5v53q0 30 19.5 49.5t49.5 19.5h291z" />
    <glyph glyph-name="uni041C" unicode="&#x41c;" horiz-adv-x="796" 
d="M655 672q28 0 47 -20t19 -50v-545q0 -29 -19.5 -49t-47.5 -20q-29 0 -48.5 20t-19.5 49v326l-124 -195q-27 -43 -64 -43t-64 43l-124 197v-328q0 -29 -19.5 -49t-47.5 -20q-29 0 -48.5 20t-19.5 49v545q0 30 19 50t47 20q40 0 71 -52l186 -295l186 295q18 29 33.5 40.5
t37.5 11.5z" />
    <glyph glyph-name="uni041D" unicode="&#x41d;" horiz-adv-x="712" 
d="M143 -12q-29 0 -48.5 20t-19.5 50v544q0 30 19 50t49 20q29 0 48 -20t19 -50v-195h292v196q0 30 19 49.5t49 19.5q29 0 48 -19.5t19 -49.5v-545q0 -30 -19 -50t-48 -20t-48.5 20t-19.5 50v227h-292v-227q0 -30 -19 -50t-48 -20z" />
    <glyph glyph-name="uni041E" unicode="&#x41e;" horiz-adv-x="778" 
d="M388 672q148 0 250 -99.5t102 -242.5t-102 -242.5t-250 -99.5t-249 99t-101 243t101.5 243t248.5 99zM389 547q-93 0 -152.5 -61t-59.5 -156t59.5 -156t152.5 -61q92 0 152 61.5t60 155.5t-60 155.5t-152 61.5z" />
    <glyph glyph-name="uni041F" unicode="&#x41f;" horiz-adv-x="690" 
d="M143 -12q-29 0 -48.5 20t-19.5 49v534q0 30 19.5 49.5t49.5 19.5h402q29 0 49 -19.5t20 -49.5v-534q0 -29 -19.5 -49t-48.5 -20q-28 0 -47.5 20t-19.5 49v481h-270v-481q0 -29 -19.5 -49t-47.5 -20z" />
    <glyph glyph-name="uni0420" unicode="&#x420;" horiz-adv-x="593" 
d="M143 -12q-29 0 -48.5 20t-19.5 49v534q0 30 19.5 49.5t49.5 19.5h180q106 0 171.5 -59t65.5 -154q0 -94 -66.5 -154t-170.5 -60h-114v-176q0 -29 -19.5 -49t-47.5 -20zM210 351h113q46 0 73 26t27 70q0 43 -27 68.5t-73 25.5h-113v-190z" />
    <glyph glyph-name="uni0421" unicode="&#x421;" horiz-adv-x="720" 
d="M389 -12q-148 0 -249.5 99t-101.5 243t102 243t250 99q76 0 143.5 -30.5t111.5 -83.5q21 -24 21 -50q0 -25 -18.5 -43t-44.5 -18q-29 0 -52 26q-64 74 -161 74q-93 0 -153 -61.5t-60 -156.5q0 -94 60 -155t153 -61q95 0 160 74q24 26 53 26q26 0 44 -18t18 -43t-21 -50
q-44 -53 -111.5 -83.5t-143.5 -30.5z" />
    <glyph glyph-name="uni0422" unicode="&#x422;" horiz-adv-x="585" 
d="M292 -12q-28 0 -47.5 20t-19.5 49v481h-157q-26 0 -44 17.5t-18 43.5t18 43.5t44 17.5h449q27 0 44.5 -17.5t17.5 -43.5t-18 -43.5t-44 -17.5h-157v-481q0 -29 -19.5 -49t-48.5 -20z" />
    <glyph glyph-name="uni0423" unicode="&#x423;" horiz-adv-x="631" 
d="M529 667q29 0 49.5 -21t20.5 -50q0 -16 -10 -37l-199 -425q-68 -146 -225 -146q-42 0 -69 12q-35 18 -35 54q0 26 18 43t46 17q2 0 8 -0.5t10 -0.5q82 0 114 61l-203 385q-10 20 -10 38q0 29 20.5 49.5t49.5 20.5q42 0 65 -43l152 -304l133 304q18 43 65 43z" />
    <glyph glyph-name="uni0424" unicode="&#x424;" horiz-adv-x="838" 
d="M799 336q0 -127 -85.5 -204t-227.5 -78v-40q0 -30 -19 -49.5t-48 -19.5t-48.5 19.5t-19.5 49.5v40q-142 1 -227.5 78.5t-85.5 203.5q0 125 85 200.5t228 76.5v34q0 30 19.5 49.5t48.5 19.5t48 -19.5t19 -49.5v-34q144 -1 228.5 -76t84.5 -201zM171 332q0 -76 47.5 -118.5
t132.5 -43.5v328q-84 -1 -132 -45t-48 -121zM486 170q85 0 133 43t48 119q0 77 -48.5 121.5t-132.5 44.5v-328z" />
    <glyph glyph-name="uni0425" unicode="&#x425;" horiz-adv-x="613" 
d="M556 100q18 -26 18 -47q0 -26 -19.5 -45.5t-47.5 -19.5q-33 0 -54 29l-146 207l-147 -207q-21 -29 -55 -29q-27 0 -46.5 19.5t-19.5 46.5q0 21 19 49l167 233l-153 221q-19 28 -19 52q0 26 19.5 44.5t46.5 18.5q35 0 56 -30l132 -194l135 193q22 31 56 31q28 0 47 -19
t19 -45q0 -25 -20 -54l-155 -218z" />
    <glyph glyph-name="uni0426" unicode="&#x426;" horiz-adv-x="726" 
d="M545 672q29 0 48.5 -20t19.5 -49v-481h18q30 0 49.5 -20t19.5 -49v-137q0 -29 -19.5 -49t-47.5 -20q-29 0 -48.5 20t-19.5 49v84h-420q-30 0 -49.5 19.5t-19.5 49.5v534q0 29 19.5 49t47.5 20q29 0 48.5 -20t19.5 -49v-481h267v481q0 29 19 49t48 20z" />
    <glyph glyph-name="uni0427" unicode="&#x427;" horiz-adv-x="643" 
d="M501 672q29 0 48.5 -20t19.5 -49v-546q0 -29 -19.5 -49t-48.5 -20q-28 0 -47.5 20t-19.5 49v166q-59 -16 -116 -16q-128 0 -204 72t-76 194v130q0 29 19.5 49t48.5 20q28 0 47.5 -20t19.5 -49v-117q0 -73 40 -114t110 -41q53 0 111 21v251q0 29 19 49t48 20z" />
    <glyph glyph-name="uni0428" unicode="&#x428;" horiz-adv-x="1037" 
d="M895 672q28 0 47.5 -20t19.5 -49v-534q0 -30 -19.5 -49.5t-49.5 -19.5h-748q-30 0 -49.5 19.5t-19.5 49.5v534q0 29 19.5 49t47.5 20q29 0 48.5 -20t19.5 -49v-481h241v481q0 29 19.5 49t47.5 20q29 0 48.5 -20t19.5 -49v-481h240v481q0 29 19.5 49t48.5 20z" />
    <glyph glyph-name="uni0429" unicode="&#x429;" horiz-adv-x="1075" 
d="M895 672q28 0 47.5 -20t19.5 -49v-481h19q30 0 49.5 -20t19.5 -49v-137q0 -29 -19.5 -49t-47.5 -20q-29 0 -48.5 20t-19.5 49v84h-770q-30 0 -49.5 19.5t-19.5 49.5v534q0 29 19.5 49t47.5 20q29 0 48.5 -20t19.5 -49v-481h241v481q0 29 19.5 49t47.5 20q29 0 48.5 -20
t19.5 -49v-481h240v481q0 29 19.5 49t48.5 20z" />
    <glyph glyph-name="uni042A" unicode="&#x42a;" horiz-adv-x="647" 
d="M166 0q-30 0 -49.5 19.5t-19.5 49.5v469h-52q-27 0 -45 17.5t-18 43.5t18 43.5t45 17.5h118q29 0 49 -19.5t20 -49.5v-158h135q106 0 173.5 -60.5t67.5 -155.5q0 -97 -66.5 -157t-174.5 -60h-201zM232 119h135q47 0 75 26.5t28 70.5q0 45 -28 72t-75 27h-135v-196z" />
    <glyph glyph-name="uni042B" unicode="&#x42b;" horiz-adv-x="911" 
d="M143 672q29 0 48.5 -20t19.5 -49v-170h135q107 0 174 -60.5t67 -155.5q0 -96 -66.5 -156.5t-174.5 -60.5h-201q-30 0 -49.5 19.5t-19.5 49.5v534q0 29 19 49t48 20zM769 -12q-30 0 -49 19.5t-19 49.5v546q0 30 19 49.5t49 19.5q29 0 48 -20t19 -49v-546q0 -29 -19 -49
t-48 -20zM346 315h-135v-196h135q49 0 76 26.5t27 70.5t-27.5 71.5t-75.5 27.5z" />
    <glyph glyph-name="uni042C" unicode="&#x42c;" horiz-adv-x="626" 
d="M143 672q29 0 48.5 -20t19.5 -49v-170h135q107 0 174 -60.5t67 -155.5q0 -96 -66.5 -156.5t-174.5 -60.5h-201q-30 0 -49.5 19.5t-19.5 49.5v534q0 29 19 49t48 20zM346 315h-135v-196h135q49 0 76 26.5t27 70.5t-27.5 71.5t-75.5 27.5z" />
    <glyph glyph-name="uni042D" unicode="&#x42d;" horiz-adv-x="720" 
d="M330 672q148 0 250 -99t102 -243t-101.5 -243t-249.5 -99q-76 0 -143.5 30.5t-111.5 83.5q-21 25 -21 50t18 43t44 18q29 0 53 -26q65 -74 160 -74q82 0 139.5 48.5t70.5 127.5h-243q-26 0 -42.5 16.5t-16.5 40.5q0 25 16.5 41.5t42.5 16.5h235q-21 65 -75 104t-127 39
q-97 0 -161 -74q-23 -26 -52 -26q-26 0 -44.5 18t-18.5 43q0 26 21 50q44 53 111.5 83.5t143.5 30.5z" />
    <glyph glyph-name="uni042E" unicode="&#x42e;" horiz-adv-x="1058" 
d="M670 672q146 0 248 -99.5t102 -242.5t-102 -242.5t-248 -99.5q-134 0 -229.5 84t-111.5 213h-118v-228q0 -29 -19.5 -49t-48.5 -20q-28 0 -47.5 20t-19.5 49v546q0 29 19 49t48 20t48.5 -20t19.5 -49v-196h123q26 116 119 190.5t217 74.5zM670 113q91 0 151 61.5
t60 155.5t-59.5 155.5t-151.5 61.5q-91 0 -151 -61.5t-60 -155.5t60 -155.5t151 -61.5z" />
    <glyph glyph-name="uni042F" unicode="&#x42f;" horiz-adv-x="636" 
d="M493 660q30 0 49.5 -19.5t19.5 -49.5v-534q0 -29 -19.5 -49t-48.5 -20q-28 0 -47.5 20t-19.5 49v146h-98q-13 0 -37 2l-122 -189q-18 -28 -53 -28q-27 0 -46.5 20t-19.5 48q0 20 15 43l101 151q-93 64 -93 182q0 102 71 165t184 63h164zM427 322v219h-100q-51 0 -83 -30
t-32 -79t32 -79.5t83 -30.5h100z" />
    <glyph glyph-name="uni0430" unicode="&#x430;" horiz-adv-x="545" 
d="M268 506q102 0 158 -55.5t56 -156.5v-238q0 -29 -18.5 -48t-46.5 -19q-24 0 -42 14.5t-23 37.5q-56 -53 -145 -53q-76 0 -123.5 41t-47.5 107q0 67 50 105.5t137 38.5h124v22q0 41 -24 64t-69 23q-52 0 -95 -37q-21 -16 -40 -16q-25 0 -41.5 16t-16.5 39q0 28 28 54
q66 61 179 61zM243 87q44 0 74 28t30 70v6h-106q-69 0 -69 -50q0 -25 19 -39.5t52 -14.5z" />
    <glyph glyph-name="uni0431" unicode="&#x431;" horiz-adv-x="615" 
d="M343 482q97 0 165.5 -72t68.5 -174q0 -106 -74 -176.5t-186 -70.5q-119 0 -191 79.5t-72 212.5v46q0 170 70 263.5t230 134.5l85 22q31 8 39 8q24 0 41 -17.5t17 -42.5q0 -47 -55 -61l-91 -24q-96 -25 -142.5 -70.5t-52.5 -121.5q59 64 148 64zM315 112q52 0 88 36t36 88
t-36 87.5t-88 35.5t-87.5 -35.5t-35.5 -87.5t36 -88t87 -36z" />
    <glyph glyph-name="uni0432" unicode="&#x432;" horiz-adv-x="555" 
d="M442 264q74 -35 74 -114q0 -66 -49.5 -108t-126.5 -42h-199q-30 0 -49.5 19.5t-19.5 49.5v357q0 29 19.5 49t49.5 20h165q79 0 127.5 -38t48.5 -100q0 -56 -40 -93zM201 387v-84h102q54 0 54 43q0 41 -54 41h-102zM329 109q29 0 46 14t17 37q0 22 -17 35t-46 13h-128v-99
h128z" />
    <glyph glyph-name="uni0433" unicode="&#x433;" horiz-adv-x="455" 
d="M140 -12q-29 0 -48.5 20t-19.5 49v369q0 29 19.5 49t49.5 20h249q25 0 41.5 -16t16.5 -41t-16.5 -41t-41.5 -16h-183v-324q0 -29 -19.5 -49t-47.5 -20z" />
    <glyph glyph-name="uni0434" unicode="&#x434;" horiz-adv-x="665" 
d="M569 114q29 0 48.5 -19.5t19.5 -48.5v-130q0 -30 -19 -49.5t-48 -19.5q-28 0 -47.5 20t-19.5 49v84h-340v-84q0 -30 -19 -49.5t-48 -19.5t-48.5 20t-19.5 49v130q0 29 19.5 48.5t49.5 19.5h5q44 51 63 124t19 191v1q0 28 19.5 46.5t48.5 18.5h229q29 0 48.5 -20t19.5 -49
v-312h20zM318 381q-1 -186 -74 -267h171v267h-97z" />
    <glyph glyph-name="uni0435" unicode="&#x435;" horiz-adv-x="569" 
d="M296 506q101 0 168 -66t67 -166v-3q0 -31 -20.5 -50t-53.5 -19h-282q12 -47 48 -72.5t91 -25.5q57 0 103 29q15 9 29 9q23 0 39 -15.5t16 -38.5q0 -31 -34 -54q-69 -46 -157 -46q-117 0 -194 74t-77 185q0 110 74 184.5t183 74.5zM293 397q-44 0 -75.5 -27t-42.5 -73h225
q-2 45 -31 72.5t-76 27.5z" />
    <glyph glyph-name="uni0436" unicode="&#x436;" horiz-adv-x="845" 
d="M163 483l147 -167q23 -27 23 -49q0 -20 -20 -48l-160 -207q-16 -24 -48 -24q-26 0 -44 18t-18 44q0 21 15 41l135 177l-120 131q-20 21 -20 47q0 25 17.5 42t43.5 18q29 2 49 -23zM786 91q15 -24 15 -41q0 -26 -18 -44t-44 -18q-30 0 -48 24l-160 207q-20 28 -20 48
q0 22 23 49l147 167q20 25 49 23q26 -1 43.5 -18t17.5 -42q0 -24 -20 -47l-121 -131zM423 506q29 0 48 -19.5t19 -48.5v-381q0 -30 -19 -49.5t-48 -19.5t-48.5 20t-19.5 49v381q0 29 19.5 48.5t48.5 19.5z" />
    <glyph glyph-name="uni0437" unicode="&#x437;" horiz-adv-x="508" 
d="M393 255q70 -41 70 -118q0 -67 -60 -108t-158 -41q-108 0 -171 53q-29 22 -29 50q0 24 16.5 40.5t41.5 16.5q18 0 35 -12q40 -32 107 -32q86 0 86 52q0 48 -72 48h-48q-22 0 -36.5 14.5t-14.5 35.5q0 22 14.5 36t36.5 14h43q57 0 57 43t-73 43q-58 0 -98 -27
q-19 -13 -36 -13q-24 0 -41 17t-17 41q0 28 31 51q60 47 163 47q93 0 148 -39t55 -106q0 -64 -50 -106z" />
    <glyph glyph-name="uni0438" unicode="&#x438;" horiz-adv-x="609" 
d="M470 506q29 0 48 -19.5t19 -48.5v-381q0 -29 -19.5 -49t-47.5 -20t-47.5 20t-19.5 49v217l-204 -253q-27 -33 -60 -33q-28 0 -47.5 20t-19.5 49v381q0 29 19.5 48.5t48.5 19.5t48 -19.5t19 -48.5v-220l203 255q27 33 60 33z" />
    <glyph glyph-name="uni0439" unicode="&#x439;" horiz-adv-x="609" 
d="M309 573q-69 0 -120 43.5t-51 101.5q0 23 15 39t37 16q40 0 52 -41q6 -26 24 -41.5t43 -15.5t42.5 15.5t23.5 41.5q12 41 51 41q22 0 37.5 -16t15.5 -39q0 -59 -50.5 -102t-119.5 -43zM470 506q29 0 48 -19.5t19 -48.5v-381q0 -29 -19.5 -49t-47.5 -20t-47.5 20t-19.5 49
v217l-204 -253q-27 -33 -60 -33q-28 0 -47.5 20t-19.5 49v381q0 29 19.5 48.5t48.5 19.5t48 -19.5t19 -48.5v-220l203 255q27 33 60 33z" />
    <glyph glyph-name="uni043A" unicode="&#x43a;" horiz-adv-x="564" 
d="M511 92q16 -20 16 -42q0 -26 -18 -44t-44 -18q-31 0 -47 22l-169 209q-20 26 -20 48q0 23 24 50l157 169q20 21 46 20t44 -18.5t18 -42.5q0 -26 -20 -46l-126 -133zM140 506q29 0 48 -19.5t19 -48.5v-381q0 -29 -19.5 -49t-47.5 -20q-29 0 -48.5 20t-19.5 49v381
q0 29 19.5 48.5t48.5 19.5z" />
    <glyph glyph-name="uni043B" unicode="&#x43b;" horiz-adv-x="591" 
d="M450 495q29 0 49 -20t20 -49v-369q0 -29 -19.5 -49t-47.5 -20t-47.5 20t-19.5 49v324h-124v-45q0 -265 -166 -335q-20 -8 -38 -8q-25 0 -43 17.5t-18 42.5q0 22 9.5 33t31.5 24q44 23 67 83t23 184v49q0 29 20 49t49 20h254z" />
    <glyph glyph-name="uni043C" unicode="&#x43c;" horiz-adv-x="698" 
d="M140 -12q-29 0 -48.5 20t-19.5 49v381q0 29 19.5 48.5t48.5 19.5q32 0 55 -28l154 -202l154 202q23 28 55 28q29 0 48.5 -19.5t19.5 -48.5v-381q0 -29 -19.5 -49t-48.5 -20q-28 0 -47.5 20t-19.5 49v195l-101 -128q-15 -17 -41 -17t-41 17l-101 128v-195q0 -29 -19.5 -49
t-47.5 -20z" />
    <glyph glyph-name="uni043D" unicode="&#x43d;" horiz-adv-x="600" 
d="M461 506q29 0 48 -19.5t19 -48.5v-381q0 -29 -19 -48.5t-48 -19.5t-48 19.5t-19 48.5v142h-187v-142q0 -29 -19 -48.5t-48 -19.5t-48.5 19.5t-19.5 48.5v381q0 29 19.5 48.5t48.5 19.5t48 -19.5t19 -48.5v-124h187v124q0 29 19 48.5t48 19.5z" />
    <glyph glyph-name="uni043E" unicode="&#x43e;" horiz-adv-x="608" 
d="M304 506q111 0 188.5 -75t77.5 -183t-77.5 -183.5t-189.5 -75.5q-111 0 -187.5 75t-76.5 184t76.5 183.5t188.5 74.5zM304 383q-56 0 -92 -38.5t-36 -97.5q0 -58 36 -96t92 -38q55 0 91.5 38t36.5 96t-36.5 97t-91.5 39z" />
    <glyph glyph-name="uni043F" unicode="&#x43f;" horiz-adv-x="593" 
d="M139 -12q-29 0 -48 19.5t-19 48.5v371q0 29 19.5 48.5t48.5 19.5h313q29 0 48.5 -19.5t19.5 -48.5v-371q0 -29 -19.5 -48.5t-48.5 -19.5t-48 19.5t-19 48.5v325h-179v-325q0 -29 -19.5 -48.5t-48.5 -19.5z" />
    <glyph glyph-name="uni0440" unicode="&#x440;" horiz-adv-x="634" 
d="M355 506q104 0 172 -73t68 -185q0 -113 -68 -186.5t-172 -73.5q-94 0 -148 60v-172q0 -29 -19 -48.5t-48 -19.5t-48.5 19.5t-19.5 48.5v564q0 28 19 47.5t48 19.5q27 0 45 -18t20 -46q54 63 151 63zM330 111q56 0 92 38.5t36 97.5q0 60 -36 98.5t-92 38.5t-90.5 -37.5
t-34.5 -98.5t35 -99t90 -38z" />
    <glyph glyph-name="uni0441" unicode="&#x441;" horiz-adv-x="552" 
d="M304 -12q-112 0 -188.5 75.5t-76.5 184.5t76.5 183.5t188.5 74.5q62 0 116.5 -27t83.5 -71q12 -19 12 -36q0 -25 -17.5 -42.5t-42.5 -17.5q-29 0 -46 21q-42 50 -104 50q-57 0 -93.5 -38t-36.5 -97q0 -60 36.5 -98t93.5 -38q59 0 104 50q18 21 46 21q25 0 42.5 -17.5
t17.5 -42.5q0 -17 -11 -34q-66 -101 -201 -101z" />
    <glyph glyph-name="uni0442" unicode="&#x442;" horiz-adv-x="469" 
d="M234 -12q-28 0 -47.5 20t-19.5 49v325h-106q-25 0 -41.5 16t-16.5 41q0 24 16.5 40.5t41.5 16.5h347q25 0 41.5 -16.5t16.5 -40.5q0 -25 -16.5 -41t-41.5 -16h-107v-325q0 -29 -19 -49t-48 -20z" />
    <glyph glyph-name="uni0443" unicode="&#x443;" horiz-adv-x="559" 
d="M473 506q26 0 45.5 -19.5t19.5 -45.5q0 -16 -8 -31l-218 -447q-40 -82 -88 -118.5t-115 -36.5q-33 0 -57 11q-34 15 -34 53q0 25 17.5 41.5t43.5 16.5q3 0 7 -0.5t5 -0.5q63 0 94 63l18 40l-171 377q-9 18 -9 32q0 26 19.5 45.5t46.5 19.5q43 0 59 -38l131 -293l134 293
q17 38 60 38z" />
    <glyph glyph-name="uni0444" unicode="&#x444;" horiz-adv-x="786" 
d="M747 248q0 -115 -79 -186.5t-208 -73.5v-111q0 -30 -19 -49.5t-48 -19.5t-48.5 20t-19.5 49v111q-128 2 -207 73.5t-79 186.5t78.5 185.5t207.5 72.5v187q0 29 19.5 49t48.5 20t48 -19.5t19 -49.5v-187q130 -2 208.5 -72.5t78.5 -185.5zM171 247q0 -67 41.5 -105.5
t114.5 -38.5h2v288h-2q-73 0 -114.5 -38.5t-41.5 -105.5zM458 103q74 0 115.5 38.5t41.5 105.5t-42 105.5t-115 38.5h-2v-288h2z" />
    <glyph glyph-name="uni0445" unicode="&#x445;" horiz-adv-x="531" 
d="M471 103q20 -26 20 -50q0 -27 -18.5 -46t-46.5 -19q-31 0 -56 30l-105 134l-105 -134q-24 -30 -55 -30q-28 0 -47 19t-19 46q0 23 21 50l120 149l-108 139q-22 30 -22 50q0 27 19 46t47 19q33 0 54 -29l96 -124l98 124q23 29 55 29q27 0 46 -19t19 -46q0 -24 -22 -50
l-110 -138z" />
    <glyph glyph-name="uni0446" unicode="&#x446;" horiz-adv-x="624" 
d="M442 506q29 0 48 -19.5t19 -48.5v-324h19q29 0 48.5 -19.5t19.5 -48.5v-130q0 -29 -19 -49t-48 -20q-28 0 -47.5 20t-19.5 49v84h-321q-30 0 -49.5 19.5t-19.5 49.5v369q0 29 19.5 48.5t48.5 19.5q28 0 47 -19.5t19 -48.5v-324h169v324q0 29 19 48.5t48 19.5z" />
    <glyph glyph-name="uni0447" unicode="&#x447;" horiz-adv-x="566" 
d="M427 506q29 0 48 -19.5t19 -48.5v-381q0 -30 -19 -49.5t-48 -19.5t-48.5 20t-19.5 49v112q-41 -13 -87 -13q-105 0 -169 64t-64 169v49q0 29 19 48.5t48 19.5t48 -19.5t19 -48.5v-40q0 -57 28.5 -87.5t81.5 -30.5q39 0 76 12v146q0 29 19.5 48.5t48.5 19.5z" />
    <glyph glyph-name="uni0448" unicode="&#x448;" horiz-adv-x="881" 
d="M141 0q-30 0 -49.5 19.5t-19.5 49.5v369q0 29 19.5 48.5t48.5 19.5q28 0 47 -19.5t19 -48.5v-324h167v324q0 29 19.5 48.5t48.5 19.5q28 0 47 -19.5t19 -48.5v-324h167v324q0 29 19.5 48.5t48.5 19.5t47.5 -19.5t18.5 -48.5v-369q0 -30 -19.5 -49.5t-48.5 -19.5h-599z
" />
    <glyph glyph-name="uni0449" unicode="&#x449;" horiz-adv-x="924" 
d="M829 -153q-29 0 -48.5 20t-19.5 49v84h-620q-30 0 -49.5 19.5t-19.5 49.5v369q0 29 19.5 48.5t48.5 19.5q28 0 47 -19.5t19 -48.5v-324h167v324q0 29 19.5 48.5t48.5 19.5q28 0 47 -19.5t19 -48.5v-324h167v324q0 29 19.5 48.5t48.5 19.5t47.5 -19.5t18.5 -48.5v-324h19
q29 0 49 -19.5t20 -48.5v-130q0 -29 -19 -49t-48 -20z" />
    <glyph glyph-name="uni044A" unicode="&#x44a;" horiz-adv-x="582" 
d="M170 0q-29 0 -49 19.5t-20 49.5v312h-51q-25 0 -41.5 16t-16.5 41t16.5 41t41.5 16h117q29 0 49 -20t20 -49v-57h98q94 0 150.5 -50.5t56.5 -133.5q0 -84 -56.5 -134.5t-150.5 -50.5h-164zM236 114h87q37 0 59 18.5t22 50.5t-22 51.5t-59 19.5h-87v-140z" />
    <glyph glyph-name="uni044B" unicode="&#x44b;" horiz-adv-x="816" 
d="M140 506q29 0 48 -19.5t19 -48.5v-69h97q91 0 149.5 -49.5t58.5 -134.5q0 -86 -58 -135.5t-150 -49.5h-163q-30 0 -49.5 19.5t-19.5 49.5v369q0 29 19 48.5t49 19.5zM667 -12q-28 0 -47.5 20t-19.5 49v381q0 29 19.5 48.5t48.5 19.5t48 -19.5t19 -48.5v-381
q0 -29 -19.5 -49t-48.5 -20zM294 254h-87v-140h88q36 0 58 18t22 51t-22.5 52t-58.5 19z" />
    <glyph glyph-name="uni044C" unicode="&#x44c;" horiz-adv-x="553" 
d="M140 506q29 0 48 -19.5t19 -48.5v-69h97q91 0 149.5 -49.5t58.5 -134.5q0 -86 -58 -135.5t-150 -49.5h-163q-30 0 -49.5 19.5t-19.5 49.5v369q0 29 19 48.5t49 19.5zM294 254h-87v-140h88q36 0 58 18t22 51t-22.5 52t-58.5 19z" />
    <glyph glyph-name="uni044D" unicode="&#x44d;" horiz-adv-x="558" 
d="M252 506q111 0 188.5 -74.5t77.5 -183.5q0 -110 -77.5 -185t-188.5 -75q-136 0 -201 101q-11 16 -11 34q0 25 16.5 41t40.5 16q21 0 37 -16q21 -20 31.5 -28.5t34.5 -18.5t50 -10q45 0 79.5 26.5t48.5 68.5l-144 1q-21 0 -35 13.5t-14 34.5q0 20 14 33.5t35 13.5h142
q-14 40 -48 65t-78 25q-27 0 -50 -10t-34.5 -19.5t-31.5 -28.5q-15 -15 -37 -15q-24 0 -40.5 16t-16.5 41q0 17 11 34q66 100 201 100z" />
    <glyph glyph-name="uni044E" unicode="&#x44e;" horiz-adv-x="864" 
d="M559 506q111 0 189 -75t78 -183q0 -109 -78 -184.5t-189 -75.5q-96 0 -167 59.5t-88 151.5h-97v-142q0 -30 -19 -49.5t-48 -19.5t-48.5 20t-19.5 49v381q0 29 19 48.5t49 19.5q29 0 48 -19.5t19 -48.5v-124h101q22 85 91 138.5t160 53.5zM560 112q55 0 91.5 39t36.5 97
t-36.5 96.5t-91.5 38.5t-91.5 -38.5t-36.5 -97.5q0 -58 36.5 -96.5t91.5 -38.5z" />
    <glyph glyph-name="uni044F" unicode="&#x44f;" horiz-adv-x="577" 
d="M436 495q30 0 49.5 -20t19.5 -49v-369q0 -29 -19.5 -49t-47.5 -20q-29 0 -48.5 20t-19.5 49v69h-97h-17l-94 -113q-21 -25 -52 -25q-28 0 -47.5 20t-19.5 48q0 23 24 49l60 67q-62 52 -62 138q0 83 57 134t151 51h163zM370 240v141h-87q-37 0 -59 -18.5t-22 -50.5t22 -52
t59 -20h87z" />
    <glyph glyph-name="uni0450" unicode="&#x450;" horiz-adv-x="569" 
d="M226 593l-62 103q-11 18 -11 37q0 28 19 48t48 20q19 0 36.5 -10.5t25.5 -28.5l47 -107q8 -18 8 -30q2 -24 -14 -43t-44 -20q-32 -2 -53 31zM296 506q101 0 168 -66t67 -166v-3q0 -31 -20.5 -50t-53.5 -19h-282q12 -47 48 -72.5t91 -25.5q57 0 103 29q15 9 29 9
q23 0 39 -15.5t16 -38.5q0 -31 -34 -54q-69 -46 -157 -46q-117 0 -194 74t-77 185q0 110 74 184.5t183 74.5zM293 397q-44 0 -75.5 -27t-42.5 -73h225q-2 45 -31 72.5t-76 27.5z" />
    <glyph glyph-name="uni0451" unicode="&#x451;" horiz-adv-x="569" 
d="M179 598q-32 0 -56.5 23.5t-24.5 53.5q0 33 24 56t57 23q34 0 57.5 -22.5t23.5 -56.5q0 -31 -24 -54t-57 -23zM416 598q-31 0 -55.5 23.5t-24.5 53.5q0 33 23.5 56t56.5 23q35 0 58 -22.5t23 -56.5q0 -32 -23.5 -54.5t-57.5 -22.5zM296 506q101 0 168 -66t67 -166v-3
q0 -31 -20.5 -50t-53.5 -19h-282q12 -47 48 -72.5t91 -25.5q57 0 103 29q15 9 29 9q23 0 39 -15.5t16 -38.5q0 -31 -34 -54q-69 -46 -157 -46q-117 0 -194 74t-77 185q0 110 74 184.5t183 74.5zM293 397q-44 0 -75.5 -27t-42.5 -73h225q-2 45 -31 72.5t-76 27.5z" />
    <glyph glyph-name="uni0452" unicode="&#x452;" horiz-adv-x="598" 
d="M345 477q84 0 134.5 -55t50.5 -144v-284q0 -89 -51.5 -137.5t-139.5 -48.5q-13 0 -31 2q-28 3 -45 19.5t-17 41.5q0 24 17 41.5t41 17.5q2 0 6.5 -0.5t7.5 -0.5q77 0 77 77v253q0 43 -25 69.5t-66 26.5q-42 0 -68.5 -27t-26.5 -69v-202q0 -29 -19.5 -49t-47.5 -20
t-47.5 20t-19.5 49v495h-30q-24 0 -40.5 15.5t-16.5 39.5t16.5 40t40.5 16h30v30q0 29 19 49t48 20q28 0 47.5 -20t19.5 -49v-30h142q24 0 40 -16t16 -40t-16 -39.5t-40 -15.5h-142v-129q54 54 136 54z" />
    <glyph glyph-name="uni0453" unicode="&#x453;" horiz-adv-x="455" 
d="M265 562q-28 1 -44 20t-14 43q0 12 8 30l47 107q8 18 25.5 28.5t36.5 10.5q29 0 48 -20t19 -48q0 -19 -11 -37l-62 -103q-21 -33 -53 -31zM140 -12q-29 0 -48.5 20t-19.5 49v369q0 29 19.5 49t49.5 20h249q25 0 41.5 -16t16.5 -41t-16.5 -41t-41.5 -16h-183v-324
q0 -29 -19.5 -49t-47.5 -20z" />
    <glyph glyph-name="uni0454" unicode="&#x454;" horiz-adv-x="558" 
d="M461 180q24 0 40.5 -16t16.5 -41q0 -18 -11 -34q-65 -101 -201 -101q-111 0 -188.5 75t-77.5 185q0 109 77.5 183.5t188.5 74.5q135 0 201 -100q11 -17 11 -34q0 -25 -16.5 -41t-40.5 -16q-22 0 -37 15q-20 19 -31.5 28.5t-34.5 19.5t-50 10q-44 0 -78 -25t-48 -65h142
q21 0 35 -13.5t14 -33.5q0 -21 -14 -34.5t-35 -13.5l-144 -1q14 -42 48.5 -68.5t79.5 -26.5q26 0 50 10t34.5 18.5t31.5 28.5q16 16 37 16z" />
    <glyph glyph-name="uni0455" unicode="&#x455;" horiz-adv-x="455" 
d="M227 -12q-109 0 -182 71q-19 16 -19 42q0 23 16.5 40t39.5 17q20 0 39 -15q51 -44 108 -44q27 0 45 10.5t18 30.5q0 16 -11.5 24.5t-39.5 20.5l-53 22q-68 28 -101.5 62t-33.5 89q0 70 50.5 109.5t131.5 39.5q94 0 156 -53q24 -18 24 -46q0 -23 -16 -39.5t-39 -16.5
q-15 0 -36 14q-43 30 -90 30q-53 0 -53 -35q0 -14 11.5 -23.5t40.5 -20.5l48 -20q72 -29 105.5 -62.5t33.5 -88.5q0 -74 -54.5 -116t-138.5 -42z" />
    <glyph glyph-name="uni0456" unicode="&#x456;" horiz-adv-x="278" 
d="M139 757q34 0 59 -24t25 -58q0 -33 -25 -57t-59 -24q-35 0 -60 23.5t-25 57.5t25 58t60 24zM138 -12q-28 0 -47.5 20t-19.5 49v381q0 29 19.5 48.5t48.5 19.5t48 -19.5t19 -48.5v-381q0 -29 -19.5 -49t-48.5 -20z" />
    <glyph glyph-name="uni0457" unicode="&#x457;" horiz-adv-x="278" 
d="M24 749q33 0 57 -23t24 -56q0 -31 -24 -54t-57 -23q-31 0 -56 23.5t-25 53.5q0 33 24.5 56t56.5 23zM254 749q33 0 57 -23t24 -56q0 -31 -24 -54t-57 -23q-31 0 -55.5 23.5t-24.5 53.5q0 33 24 56t56 23zM139 -12q-28 0 -47.5 20t-19.5 49v381q0 29 19.5 48.5t48.5 19.5
t48 -19.5t19 -48.5v-381q0 -29 -19.5 -49t-48.5 -20z" />
    <glyph glyph-name="uni0458" unicode="&#x458;" horiz-adv-x="278" 
d="M139 757q34 0 59 -24t25 -58q0 -33 -25 -57t-59 -24q-35 0 -60 23.5t-25 57.5t25 58t60 24zM21 -192q-28 0 -55 9q-41 16 -41 55q0 25 16 41.5t41 16.5q2 0 6 -0.5t7 -0.5q40 0 58 19.5t18 69.5v420q0 29 19.5 48.5t48.5 19.5t48 -19.5t19 -48.5v-444q0 -90 -49.5 -138
t-135.5 -48z" />
    <glyph glyph-name="uni0459" unicode="&#x459;" horiz-adv-x="865" 
d="M616 369q94 0 151.5 -50.5t57.5 -133.5t-57.5 -134t-151.5 -51h-162q-30 0 -49.5 19.5t-19.5 49.5v312h-124v-45q0 -265 -166 -335q-20 -8 -38 -8q-25 0 -43 17.5t-18 42.5q0 37 41 58q50 23 70 86t20 199v30q0 29 20 49t49 20h254q29 0 49 -20t20 -49v-57h97zM607 114
q37 0 58.5 18.5t21.5 50.5q0 31 -22.5 51t-57.5 20h-88v-140h88z" />
    <glyph glyph-name="uni045A" unicode="&#x45a;" horiz-adv-x="868" 
d="M619 361q95 0 152 -49t57 -131t-57 -131.5t-152 -49.5h-163q-30 0 -49.5 19.5t-19.5 49.5v135h-180v-147q0 -30 -19 -49.5t-48 -19.5t-48.5 20t-19.5 49v381q0 29 19.5 48.5t48.5 19.5t48 -19.5t19 -48.5v-120h180v120q0 29 19 48.5t49 19.5q29 0 48 -19.5t19 -48.5v-77
h97zM610 114q37 0 59 17.5t22 47.5q0 31 -22.5 49.5t-58.5 18.5h-88v-133h88z" />
    <glyph glyph-name="uni045B" unicode="&#x45b;" horiz-adv-x="598" 
d="M345 477q84 0 134.5 -54.5t50.5 -144.5v-221q0 -30 -19 -49.5t-48 -19.5t-48.5 20t-19.5 49v202q0 43 -25 69.5t-66 26.5q-42 0 -68.5 -26.5t-26.5 -69.5v-202q0 -29 -19.5 -49t-47.5 -20t-47.5 20t-19.5 49v495h-30q-24 0 -40.5 15.5t-16.5 39.5t16.5 40t40.5 16h30v30
q0 30 19 49.5t48 19.5q28 0 47.5 -20t19.5 -49v-30h142q24 0 40 -16t16 -40t-16 -39.5t-40 -15.5h-142v-129q54 54 136 54z" />
    <glyph glyph-name="uni045C" unicode="&#x45c;" horiz-adv-x="564" 
d="M311 562q-28 1 -44 20t-14 43q0 12 8 30l47 107q8 18 25.5 28.5t36.5 10.5q29 0 48 -20t19 -48q0 -19 -11 -37l-62 -103q-21 -33 -53 -31zM511 92q16 -20 16 -42q0 -26 -18 -44t-44 -18q-31 0 -47 22l-169 209q-20 26 -20 48q0 23 24 50l157 169q20 21 46 20t44 -18.5
t18 -42.5q0 -26 -20 -46l-126 -133zM140 506q29 0 48 -19.5t19 -48.5v-381q0 -29 -19.5 -49t-47.5 -20q-29 0 -48.5 20t-19.5 49v381q0 29 19.5 48.5t48.5 19.5z" />
    <glyph glyph-name="uni045D" unicode="&#x45d;" horiz-adv-x="609" 
d="M237 593l-62 103q-11 18 -11 37q0 28 19 48t48 20q19 0 36.5 -10.5t25.5 -28.5l47 -107q8 -18 8 -30q2 -24 -14 -43t-44 -20q-32 -2 -53 31zM470 506q29 0 48 -19.5t19 -48.5v-381q0 -29 -19.5 -49t-47.5 -20t-47.5 20t-19.5 49v217l-204 -253q-27 -33 -60 -33
q-28 0 -47.5 20t-19.5 49v381q0 29 19.5 48.5t48.5 19.5t48 -19.5t19 -48.5v-220l203 255q27 33 60 33z" />
    <glyph glyph-name="uni045E" unicode="&#x45e;" horiz-adv-x="559" 
d="M278 573q-69 0 -120 43.5t-51 101.5q0 23 15 39t37 16q40 0 52 -41q6 -26 24 -41.5t43 -15.5t42.5 15.5t23.5 41.5q12 41 51 41q22 0 37.5 -16t15.5 -39q0 -59 -50.5 -102t-119.5 -43zM473 506q26 0 45.5 -19.5t19.5 -45.5q0 -16 -8 -31l-218 -447q-40 -82 -88 -118.5
t-115 -36.5q-33 0 -57 11q-34 15 -34 53q0 25 17.5 41.5t43.5 16.5q3 0 7 -0.5t5 -0.5q63 0 94 63l18 40l-171 377q-9 18 -9 32q0 26 19.5 45.5t46.5 19.5q43 0 59 -38l131 -293l134 293q17 38 60 38z" />
    <glyph glyph-name="uni045F" unicode="&#x45f;" horiz-adv-x="582" 
d="M443 506q29 0 48 -19.5t19 -48.5v-369q0 -30 -19.5 -49.5t-49.5 -19.5h-83v-84q0 -29 -19 -49t-48 -20q-28 0 -47.5 20t-19.5 49v84h-83q-30 0 -49.5 19.5t-19.5 49.5v369q0 29 19.5 48.5t48.5 19.5q28 0 47 -19.5t19 -48.5v-324h170v324q0 29 19 48.5t48 19.5z" />
    <glyph glyph-name="uni0462" unicode="&#x462;" horiz-adv-x="626" 
d="M348 404q109 0 174 -55.5t65 -148.5q0 -92 -65 -146t-176 -54h-201q-30 0 -49.5 19.5t-19.5 49.5v414h-30q-24 0 -40 16t-16 40t16 39.5t40 15.5h29v40q0 30 19 50t49 20q29 0 48.5 -20t19.5 -50v-40h214q24 0 40 -15.5t16 -39.5t-16 -40t-40 -16h-214v-79h137zM349 119
q46 0 73 22.5t27 60.5t-27 61t-73 23h-138v-167h138z" />
    <glyph glyph-name="uni0463" unicode="&#x463;" horiz-adv-x="556" 
d="M143 0q-29 0 -48.5 19.5t-19.5 49.5v339h-30q-24 0 -40.5 15.5t-16.5 39.5t16.5 40t40.5 16h30v170q0 29 19 48.5t48 19.5t48 -19.5t19 -48.5v-170h150q24 0 40 -16t16 -40t-16 -39.5t-40 -15.5h-150v-60h98q93 0 150.5 -47.5t57.5 -123.5q0 -79 -57.5 -128t-150.5 -49
h-164zM209 114h88q38 0 59.5 16.5t21.5 46.5t-21.5 46.5t-59.5 16.5h-88v-126z" />
    <glyph glyph-name="uni0472" unicode="&#x472;" horiz-adv-x="778" 
d="M388 672q148 0 250 -99.5t102 -242.5t-102 -242.5t-250 -99.5t-249 99t-101 243t101.5 243t248.5 99zM388 547q-73 0 -126.5 -39.5t-73.5 -105.5q50 23 100 23q38 0 101 -18t102 -18q46 0 97 21q-22 63 -75.5 100t-124.5 37zM388 113q84 0 142 50.5t69 131.5
q-56 -25 -108 -25q-39 0 -102 18t-101 18q-53 0 -107 -25q15 -76 71 -122t136 -46z" />
    </font>
</defs>
</svg>
