<?xml version="1.0" standalone="no"?>
<!DOCTYPE svg PUBLIC "-//W3C//DTD SVG 1.1//EN" "http://www.w3.org/Graphics/SVG/1.1/DTD/svg11.dtd" >
<svg xmlns="http://www.w3.org/2000/svg" xmlns:xlink="http://www.w3.org/1999/xlink" version="1.1">
<metadata>
Created by FontForge 20170731 at Fri Mar  3 14:32:56 2017
 By Aleksey,,,
Copyright (c) 2016 by Jakob Runge and Lisa Fischbach, under exclusive license to TypeMates. All rights reserved.
</metadata>
<defs>
<font id="CeraRoundPro-Medium" horiz-adv-x="560" >
  <font-face 
    font-family="Cera Round Pro Medium"
    font-weight="500"
    font-stretch="normal"
    units-per-em="1000"
    panose-1="0 0 6 0 0 0 0 0 0 0"
    ascent="808"
    descent="-192"
    x-height="491"
    cap-height="660"
    bbox="-152.865 -241 1336 1022.12"
    underline-thickness="76"
    underline-position="-252"
    unicode-range="U+0020-FB02"
  />
<missing-glyph horiz-adv-x="710" 
d="M574 660q22 0 37.5 -15t15.5 -38v-554q0 -23 -15.5 -38t-37.5 -15h-438q-22 0 -37.5 15t-15.5 38v554q0 23 15.5 38t37.5 15h438zM552 64v528h-396z" />
    <glyph glyph-name="fi" unicode="fi" horiz-adv-x="594" 
d="M320 752q31 -11 31 -45q0 -19 -13 -30.5t-34 -11.5q-3 0 -11 0.5t-13 0.5q-39 0 -60 -22t-21 -63v-90h79q20 0 33.5 -13t13.5 -33q0 -19 -13.5 -32t-33.5 -13h-79v-357q0 -24 -14.5 -39t-37.5 -15t-38 15.5t-15 38.5v357h-34q-20 0 -33 13t-13 32t13 32.5t33 13.5h34v99
q0 81 44.5 126t124.5 45q33 0 57 -9zM466 606q-29 0 -49.5 20t-20.5 48t20.5 48t49.5 20t49.5 -20t20.5 -48t-20.5 -48t-49.5 -20zM466 502q22 0 37 -15.5t15 -38.5v-405q0 -23 -15 -38.5t-38 -15.5q-22 0 -37 15.5t-15 38.5v405q0 23 15 38.5t38 15.5z" />
    <glyph glyph-name="fl" unicode="fl" horiz-adv-x="594" 
d="M320 752q31 -11 31 -45q0 -19 -13 -30.5t-34 -11.5q-3 0 -11 0.5t-13 0.5q-39 0 -60 -22t-21 -63v-90h79q20 0 33.5 -13t13.5 -33q0 -19 -13.5 -32t-33.5 -13h-79v-357q0 -24 -14.5 -39t-37.5 -15t-38 15.5t-15 38.5v357h-34q-20 0 -33 13t-13 32t13 32.5t33 13.5h34v99
q0 81 44.5 126t124.5 45q33 0 57 -9zM466 761q22 0 37 -15.5t15 -38.5v-664q0 -23 -15 -38.5t-37 -15.5q-23 0 -38 15.5t-15 38.5v664q0 23 15 38.5t38 15.5z" />
    <glyph glyph-name=".notdef" horiz-adv-x="710" 
d="M574 660q22 0 37.5 -15t15.5 -38v-554q0 -23 -15.5 -38t-37.5 -15h-438q-22 0 -37.5 15t-15.5 38v554q0 23 15.5 38t37.5 15h438zM552 64v528h-396z" />
    <glyph glyph-name=".null" horiz-adv-x="0" 
 />
    <glyph glyph-name="nonmarkingreturn" horiz-adv-x="333" 
 />
    <glyph glyph-name="space" unicode=" " horiz-adv-x="280" 
 />
    <glyph glyph-name="exclam" unicode="!" horiz-adv-x="325" 
d="M162 197q-22 0 -36.5 15.5t-15.5 37.5l-9 356q-1 29 16 47t45 18t44.5 -17.5t16.5 -47.5l-9 -356q-1 -22 -15.5 -37.5t-36.5 -15.5zM163 -11q-32 0 -54.5 22t-22.5 53q0 32 22.5 54t54.5 22q31 0 53 -22t22 -54t-22 -53.5t-53 -21.5z" />
    <glyph glyph-name="quotedbl" unicode="&#x22;" horiz-adv-x="500" 
d="M124 364q-21 0 -34.5 13.5t-13.5 33.5q0 3 9 64t9 117q0 30 16.5 48t42.5 18q28 0 43.5 -17t15.5 -48t-11.5 -93t-23.5 -92q-9 -25 -21 -34.5t-32 -9.5zM334 364q-21 0 -34.5 13.5t-13.5 33.5q0 3 9 64t9 117q0 30 16.5 48t42.5 18q28 0 43.5 -17t15.5 -48t-11.5 -93
t-23.5 -92q-9 -25 -21 -34.5t-32 -9.5z" />
    <glyph glyph-name="numbersign" unicode="#" horiz-adv-x="614" 
d="M545 415h-54l-23 -170h55q18 0 30 -13t12 -32t-13 -32t-32 -13h-64l-18 -131q-2 -15 -14.5 -25t-29.5 -10q-18 0 -31 12.5t-13 30.5q0 5 2 14l15 109h-168l-18 -131q-2 -15 -14.5 -25t-29.5 -10q-18 0 -30.5 12.5t-12.5 30.5q0 5 1 16l15 107h-42q-19 0 -32 13t-13 32
t13 32t32 13h54l24 170h-51q-20 0 -33 13t-13 32t13 32t33 13h63l18 131q1 15 13.5 25t29.5 10q18 0 31 -13t13 -30q0 -5 -2 -13l-15 -110h168l18 131q2 15 14.5 25t29.5 10q18 0 30.5 -13t12.5 -30q0 -5 -1 -13l-15 -110h42q20 0 33 -13t13 -32t-13 -32t-33 -13zM211 242
h168l23 176h-168z" />
    <glyph glyph-name="dollar" unicode="$" horiz-adv-x="537" 
d="M483 193q0 -68 -46 -113t-121 -56v-80q0 -21 -13.5 -36t-34.5 -15t-35 14.5t-14 36.5v82q-101 18 -160 101q-11 15 -11 30q0 20 14 33t34 13q21 0 33 -15q43 -51 90 -66v184q-144 57 -144 167q0 60 40 101.5t104 55.5v80q0 22 14 36.5t35 14.5t34.5 -14.5t13.5 -36.5v-79
q85 -14 135 -84q11 -16 11 -29q0 -21 -13.5 -34.5t-32.5 -13.5q-20 0 -34 16q-32 37 -66 48v-163l18 -7q149 -58 149 -171zM180 474q0 -37 39 -61v118q-39 -17 -39 -57zM316 119q62 17 62 72q0 44 -62 75v-147z" />
    <glyph glyph-name="percent" unicode="%" horiz-adv-x="821" 
d="M213 346q-70 0 -118.5 47.5t-48.5 115.5t48.5 115t118.5 47t118.5 -47t48.5 -115t-48.5 -115.5t-118.5 -47.5zM236 -11q-16 0 -27.5 11t-11.5 27q0 8 6 22l348 604q11 18 34 18q16 0 27 -11t11 -27q0 -11 -6 -22l-348 -604q-10 -18 -33 -18zM213 421q36 0 59.5 25
t23.5 63t-23.5 63t-59.5 25t-59.5 -25t-23.5 -63t23 -63t60 -25zM607 -10q-70 0 -118 47t-48 115q0 69 48 116t118 47t119 -47.5t49 -115.5t-49 -115t-119 -47zM608 65q35 0 58.5 25t23.5 62q0 38 -23.5 63t-58.5 25q-36 0 -59.5 -24.5t-23.5 -63.5q0 -38 23 -62.5t60 -24.5
z" />
    <glyph glyph-name="ampersand" unicode="&#x26;" horiz-adv-x="649" 
d="M523 151l70 -75q14 -16 14 -36q0 -21 -15 -36t-36 -15t-37 16l-64 70q-90 -86 -198 -86q-92 0 -150.5 49.5t-58.5 127.5q0 53 31 98.5t109 104.5q-63 77 -63 151q0 68 43 109.5t113 41.5q68 0 111 -39t43 -101q0 -84 -107 -171l126 -135q32 46 59 90q18 28 45 28
q20 0 34.5 -15t14.5 -36q0 -17 -19 -46q-27 -45 -65 -95zM281 579q-58 0 -58 -59q0 -44 46 -97q38 30 53 52.5t15 47.5q0 26 -15 41t-41 15zM262 84q65 0 127 63l-139 153q-58 -46 -76 -70t-18 -54q0 -40 29.5 -66t76.5 -26z" />
    <glyph glyph-name="quotesingle" unicode="'" horiz-adv-x="291" 
d="M124 364q-21 0 -34.5 13.5t-13.5 33.5q0 3 9 64t9 117q0 30 16.5 48t42.5 18q28 0 43.5 -17t15.5 -48t-11.5 -93t-23.5 -92q-9 -25 -21 -34.5t-32 -9.5z" />
    <glyph glyph-name="parenleft" unicode="(" horiz-adv-x="349" 
d="M276 -126q-14 0 -27 9q-176 117 -176 419q0 306 176 420q12 8 27 8q18 0 29.5 -12.5t11.5 -27.5q0 -21 -19 -37q-128 -109 -128 -351t128 -350q19 -17 19 -37q0 -16 -11.5 -28.5t-29.5 -12.5z" />
    <glyph glyph-name="parenright" unicode=")" horiz-adv-x="349" 
d="M73 -129q-18 0 -29.5 12.5t-11.5 28.5q0 20 19 37q128 108 128 350t-128 351q-19 16 -19 37q0 15 11.5 27.5t29.5 12.5q15 0 27 -8q176 -114 176 -420q0 -302 -176 -419q-14 -9 -27 -9z" />
    <glyph glyph-name="asterisk" unicode="*" horiz-adv-x="438" 
d="M368 522q21 -12 21 -32q0 -18 -11.5 -29t-25.5 -11q-12 0 -22 6l-73 42v-84q0 -19 -11 -29.5t-27 -10.5t-27 10.5t-11 29.5v84l-73 -42q-10 -6 -22 -6q-20 0 -32 19q-5 12 -5 21q0 20 21 32l73 42l-73 42q-21 14 -21 33q0 17 11.5 28.5t25.5 11.5q12 0 22 -6l73 -42v84
q0 18 11 29t27 11t27 -11t11 -29v-84l73 42q10 6 22 6q20 0 32 -20q5 -10 5 -20q0 -19 -21 -33l-73 -42z" />
    <glyph glyph-name="plus" unicode="+" 
d="M282 81q-22 0 -36.5 15t-14.5 37v135h-140q-22 0 -35.5 13.5t-13.5 34.5t13.5 35t35.5 14h140v135q0 22 14.5 36.5t36.5 14.5t36.5 -14.5t14.5 -36.5v-135h135q23 0 36 -14t13 -35t-13 -34.5t-36 -13.5h-135v-135q0 -22 -14.5 -37t-36.5 -15z" />
    <glyph glyph-name="comma" unicode="," horiz-adv-x="270" 
d="M111 -191q-22 0 -36.5 13.5t-14.5 34.5q0 3 10 68t10 125q0 30 16.5 48t43.5 18q28 0 43.5 -17t15.5 -48q0 -33 -12 -99t-25 -100q-16 -43 -51 -43z" />
    <glyph glyph-name="hyphen" unicode="-" horiz-adv-x="344" 
d="M255 362q20 0 33 -12.5t13 -31.5t-13.5 -32t-32.5 -13h-166q-19 0 -32 13t-13 32t13 31.5t32 12.5h166z" />
    <glyph glyph-name="period" unicode="." horiz-adv-x="270" 
d="M136 -11q-33 0 -56 22.5t-23 54.5t23 55t56 23q32 0 54.5 -23t22.5 -55t-22.5 -54.5t-54.5 -22.5z" />
    <glyph glyph-name="slash" unicode="/" horiz-adv-x="645" 
d="M82 -133q-20 0 -35 15t-15 35q0 17 9 31l478 808q13 24 44 24q20 0 35 -15t15 -35q0 -16 -9 -30l-478 -808q-13 -25 -44 -25z" />
    <glyph glyph-name="zero" unicode="0" horiz-adv-x="625" 
d="M313 671q118 0 184.5 -88.5t66.5 -246.5q0 -162 -67.5 -254.5t-183.5 -92.5q-117 0 -184.5 92.5t-67.5 254.5q0 158 66.5 246.5t185.5 88.5zM313 574q-142 0 -142 -239q0 -122 36 -185.5t106 -63.5q141 0 141 249q0 239 -141 239z" />
    <glyph glyph-name="one" unicode="1" horiz-adv-x="390" 
d="M242 671q20 0 34 -15.5t14 -37.5v-575q0 -25 -14.5 -39.5t-38.5 -14.5q-25 0 -39 14.5t-14 39.5v500l-83 -34q-20 -8 -31 -8q-19 0 -32.5 14t-13.5 36q0 33 36 49l148 63q18 8 34 8z" />
    <glyph glyph-name="two" unicode="2" horiz-adv-x="572" 
d="M470 98q22 0 36.5 -14t14.5 -35t-14.5 -35t-36.5 -14h-371q-22 0 -37.5 15t-15.5 37q0 25 21 43l212 186q58 51 82.5 91.5t24.5 84.5q0 52 -30 84.5t-79 32.5q-47 0 -78.5 -31t-33.5 -80q-1 -10 -1 -26q-2 -22 -16.5 -35.5t-36.5 -13.5q-19 0 -33 12t-18 33q-6 18 -3 45
q6 83 69 138t154 55q94 0 155 -59.5t61 -150.5q0 -64 -34.5 -122.5t-112.5 -126.5l-130 -114h251z" />
    <glyph glyph-name="three" unicode="3" horiz-adv-x="543" 
d="M306 416q82 -9 135 -66t53 -138q0 -96 -68.5 -159.5t-172.5 -63.5q-133 0 -212 108q-9 12 -9 29q0 20 14 34t34 14q22 0 37 -17q56 -71 133 -71q60 0 97.5 34.5t37.5 90.5t-39.5 86t-112.5 30h-22q-22 0 -36.5 14.5t-14.5 36.5q0 23 22 42l147 143h-224q-21 0 -35 14
t-14 35q0 20 14 34t35 14h321q22 0 37.5 -15.5t15.5 -37.5t-19 -40z" />
    <glyph glyph-name="four" unicode="4" horiz-adv-x="562" 
d="M498 214q24 0 38 -14.5t14 -34.5t-14 -35t-38 -15h-44v-73q0 -22 -15 -37.5t-38 -15.5t-38 15.5t-15 37.5v73h-277q-22 0 -37.5 15.5t-15.5 37.5q0 10 6 23l195 444q15 36 51 36q22 0 37.5 -15.5t15.5 -37.5q0 -8 -5 -21l-168 -383h198v149q0 23 15 38t38 15t38 -15
t15 -38v-149h44z" />
    <glyph glyph-name="five" unicode="5" horiz-adv-x="559" 
d="M283 419q95 0 161 -55t66 -151q0 -99 -71 -161.5t-172 -62.5q-141 0 -220 111q-9 14 -9 28q0 20 15 34.5t34 14.5q23 0 37 -18q61 -73 140 -73q60 0 98.5 34.5t38.5 90.5t-39.5 86.5t-112.5 30.5h-98q-23 0 -38.5 15.5t-15.5 38.5v224q0 23 15.5 38.5t38.5 15.5h272
q21 0 34.5 -14t13.5 -34t-14 -33.5t-34 -13.5h-222v-146h82z" />
    <glyph glyph-name="six" unicode="6" horiz-adv-x="556" 
d="M295 438q89 0 152.5 -65t63.5 -156q0 -95 -68 -161.5t-166 -66.5t-165.5 66.5t-67.5 162.5q0 53 22.5 102t79.5 119l163 206q20 26 47 26q22 0 37.5 -15t15.5 -35t-15 -35l-119 -149q6 1 20 1zM277 86q55 0 92.5 37.5t37.5 93.5t-37.5 93.5t-92.5 37.5t-91.5 -37.5
t-36.5 -93.5t37 -93.5t91 -37.5z" />
    <glyph glyph-name="seven" unicode="7" horiz-adv-x="513" 
d="M436 660q22 0 37.5 -15.5t15.5 -37.5q0 -14 -7 -27l-314 -564q-16 -27 -46 -27q-22 0 -37.5 15.5t-15.5 37.5q0 15 7 26l277 497h-267q-21 0 -35 13.5t-14 33.5t14 34t35 14h350z" />
    <glyph glyph-name="eight" unicode="8" horiz-adv-x="583" 
d="M388 343q143 -53 143 -171q0 -83 -66.5 -133t-172.5 -50q-107 0 -174 50t-67 133q0 119 143 171q-112 59 -112 159q0 80 59.5 124.5t150.5 44.5q90 0 149 -44.5t59 -124.5q0 -101 -112 -159zM292 584q-48 0 -78.5 -23t-30.5 -63q0 -36 26 -59t82 -48q56 24 82 47t26 60
q0 40 -30 63t-77 23zM292 77q64 0 98 27t34 72t-33.5 71t-99.5 50q-66 -23 -99.5 -50t-33.5 -71q0 -45 35 -72t99 -27z" />
    <glyph glyph-name="nine" unicode="9" horiz-adv-x="556" 
d="M279 671q98 0 165.5 -66.5t67.5 -162.5q0 -53 -22.5 -102t-79.5 -119l-163 -206q-20 -26 -47 -26q-22 0 -37.5 15t-15.5 35t15 35l119 149q-6 -1 -20 -1q-89 0 -152.5 65t-63.5 156q0 95 68 161.5t166 66.5zM279 312q55 0 91.5 37.5t36.5 93.5t-37 93.5t-91 37.5
q-55 0 -92.5 -37.5t-37.5 -93.5t37.5 -93.5t92.5 -37.5z" />
    <glyph glyph-name="colon" unicode=":" horiz-adv-x="270" 
d="M136 343q-33 0 -56 22.5t-23 54.5t23 55t56 23q32 0 54.5 -23t22.5 -55t-22.5 -54.5t-54.5 -22.5zM136 -11q-33 0 -56 22.5t-23 54.5t23 55t56 23q32 0 54.5 -23t22.5 -55t-22.5 -54.5t-54.5 -22.5z" />
    <glyph glyph-name="semicolon" unicode=";" horiz-adv-x="270" 
d="M136 343q-33 0 -56 22.5t-23 54.5t23 55t56 23q32 0 54.5 -23t22.5 -55t-22.5 -54.5t-54.5 -22.5zM112 -191q-22 0 -36.5 13.5t-14.5 34.5q0 3 10 68t10 125q0 30 16.5 48t43.5 18q28 0 43.5 -17t15.5 -48q0 -33 -12 -99t-25 -100q-16 -43 -51 -43z" />
    <glyph glyph-name="less" unicode="&#x3c;" 
d="M468 209q35 -15 35 -45q0 -19 -13.5 -32t-32.5 -13q-10 0 -28 7l-349 148q-36 14 -36 45q0 30 37 46l346 146q19 9 30 9q19 0 32.5 -13.5t13.5 -32.5q0 -29 -35 -45l-265 -110z" />
    <glyph glyph-name="equal" unicode="=" 
d="M459 469q19 0 32.5 -13.5t13.5 -32.5t-13 -32t-33 -13h-358q-20 0 -33 13t-13 32t13.5 32.5t32.5 13.5h358zM459 257q20 0 33 -13t13 -32q0 -20 -13.5 -33t-32.5 -13h-358q-19 0 -32.5 13t-13.5 33q0 19 13 32t33 13h358z" />
    <glyph glyph-name="greater" unicode="&#x3e;" 
d="M479 365q37 -16 37 -46q0 -31 -36 -45l-349 -148q-18 -7 -28 -7q-19 0 -32.5 13t-13.5 32q0 30 35 45l265 110l-265 110q-35 16 -35 45q0 19 13.5 32.5t32.5 13.5q11 0 30 -9z" />
    <glyph glyph-name="question" unicode="?" horiz-adv-x="448" 
d="M200 199q-20 0 -35 14t-15 34v12q0 32 16.5 59t60.5 68q44 40 58 61t14 47q0 34 -23 57t-57 23q-57 0 -86 -59q-17 -30 -45 -30q-20 0 -33.5 13.5t-13.5 33.5q0 16 9 32q23 51 68 79t105 28q79 0 132 -47.5t53 -118.5q0 -40 -20.5 -74.5t-67.5 -76.5q-40 -36 -55 -57
t-15 -43l-1 -10q-1 -19 -15 -32t-34 -13zM203 -11q-32 0 -54.5 22t-22.5 53q0 32 22.5 54t54.5 22q31 0 53 -22t22 -54t-22 -53.5t-53 -21.5z" />
    <glyph glyph-name="at" unicode="@" horiz-adv-x="937" 
d="M481 661q181 0 297 -113t116 -288q0 -97 -48 -157.5t-125 -60.5q-94 0 -123 69q-19 -42 -59.5 -65.5t-94.5 -23.5q-86 0 -143 61t-57 154t57 154t144 61q90 0 137 -61v6q0 21 13.5 35.5t32.5 14.5q20 0 33 -14.5t13 -35.5v-218q0 -53 55 -53q35 0 56.5 37t21.5 97
q0 145 -88 231t-236 86q-152 0 -251 -94t-99 -239q0 -144 97 -239t244 -95q21 0 91 11q19 2 32.5 -7t15.5 -26q2 -15 -5.5 -28t-22.5 -17q-59 -17 -121 -17q-178 0 -299.5 120t-121.5 296q0 179 125.5 299t312.5 120zM463 113q50 0 81.5 34.5t31.5 90.5t-31 90t-81 34
q-51 0 -84.5 -35t-33.5 -90q0 -53 33 -88.5t84 -35.5z" />
    <glyph glyph-name="A" unicode="A" horiz-adv-x="663" 
d="M621 70q8 -19 8 -30q0 -21 -15 -36t-37 -15q-35 0 -50 37l-41 93h-311l-39 -93q-14 -37 -50 -37q-22 0 -37 15t-15 36q0 14 8 30l239 565q15 36 50 36q36 0 51 -36zM331 516l-119 -307h236z" />
    <glyph glyph-name="B" unicode="B" horiz-adv-x="618" 
d="M457 360q58 -19 90.5 -63t32.5 -105q0 -85 -59.5 -138.5t-154.5 -53.5h-228q-24 0 -39.5 15.5t-15.5 39.5v550q0 24 15.5 39.5t39.5 15.5h176q89 0 143.5 -48.5t54.5 -127.5q0 -77 -55 -124zM304 567h-117v-178h117q47 0 74 23.5t27 66.5q0 42 -26.5 65t-74.5 23zM357 93
q54 0 84.5 27t30.5 75t-30.5 75.5t-84.5 27.5h-170v-205h170z" />
    <glyph glyph-name="C" unicode="C" horiz-adv-x="717" 
d="M390 -11q-146 0 -246.5 98.5t-100.5 242.5t100.5 242.5t246.5 98.5q76 0 144 -30.5t113 -84.5q17 -23 17 -42q0 -20 -14.5 -34t-34.5 -14q-24 0 -42 21q-72 87 -182 87q-103 0 -170.5 -69.5t-67.5 -174.5t67.5 -174.5t170.5 -69.5q108 0 181 87q18 21 43 21
q20 0 34.5 -14t14.5 -34q0 -18 -18 -42q-44 -54 -111.5 -84.5t-144.5 -30.5z" />
    <glyph glyph-name="D" unicode="D" horiz-adv-x="692" 
d="M289 660q162 0 261 -90.5t99 -238.5t-100 -239.5t-260 -91.5h-151q-24 0 -39.5 15.5t-15.5 39.5v550q0 24 15.5 39.5t39.5 15.5h151zM288 564h-99v-469h99q113 0 182 65t69 171q0 107 -67.5 170t-183.5 63z" />
    <glyph glyph-name="E" unicode="E" horiz-adv-x="569" 
d="M134 0q-22 0 -36.5 14.5t-14.5 36.5v558q0 22 14.5 36.5t36.5 14.5h339q21 0 35 -14t14 -34t-14 -33.5t-35 -13.5h-284v-169h205q20 0 33.5 -13t13.5 -33t-13.5 -33t-33.5 -13h-205v-209h296q21 0 35 -13.5t14 -33.5t-14 -34t-35 -14h-351z" />
    <glyph glyph-name="F" unicode="F" horiz-adv-x="529" 
d="M136 -11q-23 0 -38 15.5t-15 38.5v562q0 24 15.5 39.5t39.5 15.5h325q21 0 35 -14t14 -34t-14 -33.5t-35 -13.5h-274v-197h219q21 0 35 -14t14 -34t-14 -34t-35 -14h-219v-229q0 -23 -15 -38.5t-38 -15.5z" />
    <glyph glyph-name="G" unicode="G" horiz-adv-x="746" 
d="M391 -11q-147 0 -247.5 98t-100.5 243t100.5 243t247.5 98q73 0 140 -29t108 -79q25 -26 25 -49q0 -19 -14 -33.5t-35 -14.5q-24 0 -46 25q-77 83 -179 83q-103 0 -170 -68.5t-67 -174.5q0 -108 68.5 -177.5t174.5 -69.5q62 0 114 25t83 70v76h-157q-22 0 -37 13.5
t-15 33.5t15 33.5t37 13.5h209q23 0 38.5 -15.5t15.5 -39.5v-96q0 -37 -18 -65q-46 -66 -124.5 -105t-165.5 -39z" />
    <glyph glyph-name="H" unicode="H" horiz-adv-x="710" 
d="M136 -11q-23 0 -38 15.5t-15 38.5v574q0 23 15 38.5t38 15.5t38 -15.5t15 -38.5v-220h332v220q0 23 15 38.5t38 15.5t38 -15.5t15 -38.5v-574q0 -23 -15 -38.5t-38 -15.5t-38 15.5t-15 38.5v259h-332v-259q0 -23 -15 -38.5t-38 -15.5z" />
    <glyph glyph-name="I" unicode="I" horiz-adv-x="272" 
d="M136 -11q-23 0 -38 15.5t-15 38.5v574q0 23 15 38.5t38 15.5t38 -15.5t15 -38.5v-574q0 -23 -15 -38.5t-38 -15.5z" />
    <glyph glyph-name="J" unicode="J" horiz-adv-x="381" 
d="M109 -11q-41 0 -64 8q-34 12 -34 47q0 20 14.5 34t36.5 14q10 0 28 -2.5t30 -2.5q34 0 53 21.5t19 59.5v449q0 23 15 38.5t38 15.5t38 -15.5t15 -38.5v-453q0 -85 -48.5 -130t-140.5 -45z" />
    <glyph glyph-name="K" unicode="K" horiz-adv-x="651" 
d="M136 671q23 0 38 -15.5t15 -38.5v-574q0 -23 -15 -38.5t-38 -15.5t-38 15.5t-15 38.5v574q0 23 15 38.5t38 15.5zM587 73q17 -17 17 -35q0 -20 -14.5 -34.5t-34.5 -14.5q-23 0 -43 21l-283 306q-16 18 -16 36q0 17 16 35l263 265q19 19 39 19t34 -14t14 -34t-18 -39
l-231 -232z" />
    <glyph glyph-name="L" unicode="L" horiz-adv-x="515" 
d="M138 0q-24 0 -39.5 15.5t-15.5 39.5v562q0 23 15 38.5t38 15.5t38 -15.5t15 -38.5v-522h259q21 0 34.5 -13.5t13.5 -33.5t-13.5 -34t-34.5 -14h-310z" />
    <glyph glyph-name="M" unicode="M" horiz-adv-x="792" 
d="M658 671q22 0 36.5 -15.5t14.5 -38.5v-574q0 -23 -15 -38.5t-38 -15.5t-38 15.5t-15 38.5v402l-154 -242q-22 -35 -53 -35q-32 0 -53 35l-154 242v-402q0 -23 -15 -38.5t-38 -15.5t-38 15.5t-15 38.5v574q0 23 14.5 38.5t36.5 15.5q32 0 58 -43l204 -320l204 320
q26 43 58 43z" />
    <glyph glyph-name="N" unicode="N" horiz-adv-x="710" 
d="M574 671q23 0 38 -15.5t15 -38.5v-576q0 -22 -15 -37t-37 -15q-27 0 -50 30l-336 443v-419q0 -23 -15 -38.5t-38 -15.5t-38 15.5t-15 38.5v576q0 22 15 37t37 15q17 0 28 -8t25 -27l334 -437l-1 418q0 23 15 38.5t38 15.5z" />
    <glyph glyph-name="O" unicode="O" horiz-adv-x="780" 
d="M389 671q145 0 246 -99t101 -242t-100.5 -242t-246.5 -99q-145 0 -245.5 99t-100.5 242t100.5 242t245.5 99zM390 574q-103 0 -170 -69t-67 -174q0 -106 67 -175.5t170 -69.5q102 0 169.5 69.5t67.5 175.5q0 104 -67.5 173.5t-169.5 69.5z" />
    <glyph glyph-name="P" unicode="P" horiz-adv-x="583" 
d="M136 -11q-23 0 -38 15.5t-15 38.5v562q0 24 15.5 39.5t39.5 15.5h185q101 0 162.5 -55.5t61.5 -146.5q0 -90 -62 -146.5t-162 -56.5h-134v-212q0 -23 -15 -38.5t-38 -15.5zM189 349h133q54 0 85 29t31 79t-31 79.5t-85 29.5h-133v-217z" />
    <glyph glyph-name="Q" unicode="Q" horiz-adv-x="780" 
d="M1009 -119q22 0 34 -11t12 -31q0 -32 -36 -41q-31 -10 -83 -10q-132 0 -241 56.5t-185 165.5q-57 -21 -121 -21q-145 0 -245.5 99t-100.5 242t100.5 242t245.5 99t246 -99t101 -242q0 -84 -37 -155.5t-102 -118.5q136 -177 356 -177q12 0 31.5 1t24.5 1zM153 331
q0 -106 67 -175.5t170 -69.5q102 0 169.5 69.5t67.5 174.5t-67.5 174.5t-170.5 69.5q-102 0 -169 -69t-67 -174z" />
    <glyph glyph-name="R" unicode="R" horiz-adv-x="631" 
d="M576 77q16 -20 16 -40t-14.5 -34t-34.5 -14q-27 0 -47 27l-173 239h-134v-212q0 -23 -15 -38.5t-38 -15.5t-38 15.5t-15 38.5v563q0 23 15.5 38.5t38.5 15.5h186q101 0 162.5 -55.5t61.5 -146.5q0 -62 -31 -110t-85 -72zM189 566v-217h132q54 0 85.5 29t31.5 79
t-31.5 79.5t-85.5 29.5h-132z" />
    <glyph glyph-name="S" unicode="S" horiz-adv-x="559" 
d="M285 -11q-62 0 -121.5 27.5t-97.5 73.5q-16 18 -16 37q0 21 14.5 34.5t34.5 13.5q19 0 32 -14q64 -77 153 -77q52 0 83 25t31 67q0 32 -20.5 52.5t-76.5 46.5l-73 34q-80 37 -117 80.5t-37 102.5q0 78 59 128.5t149 50.5q112 1 184 -78q16 -17 16 -38q0 -19 -15 -33
t-34 -14q-16 0 -32 14q-54 54 -119 54q-45 0 -72.5 -21.5t-27.5 -58.5q0 -30 18.5 -49t73.5 -45l74 -34q84 -39 121 -82.5t37 -105.5q0 -85 -62 -138t-159 -53z" />
    <glyph glyph-name="T" unicode="T" horiz-adv-x="583" 
d="M291 -11q-23 0 -38 15.5t-15 38.5v522h-178q-21 0 -35 13.5t-14 33.5t14 34t35 14h463q21 0 35 -14t14 -34t-14 -33.5t-35 -13.5h-179v-522q0 -23 -15 -38.5t-38 -15.5z" />
    <glyph glyph-name="U" unicode="U" horiz-adv-x="694" 
d="M348 -11q-124 0 -198 76t-74 202v350q0 23 15 38.5t38 15.5t38 -15.5t15 -38.5v-357q0 -80 44.5 -127t121.5 -47q76 0 120 47t44 127v357q0 23 15 38.5t38 15.5t38 -15.5t15 -38.5v-350q0 -126 -74 -202t-196 -76z" />
    <glyph glyph-name="V" unicode="V" horiz-adv-x="663" 
d="M577 671q22 0 37 -15t15 -36q0 -12 -8 -30l-239 -565q-15 -36 -51 -36q-35 0 -50 36l-239 565q-8 15 -8 30q0 21 15 36t37 15q36 0 50 -37l196 -479l195 479q15 37 50 37z" />
    <glyph glyph-name="W" unicode="W" horiz-adv-x="1051" 
d="M952 671q22 0 37.5 -15t15.5 -37q0 -12 -7 -30l-208 -565q-13 -35 -49 -35q-37 0 -50 35l-165 465l-165 -465q-13 -35 -50 -35q-36 0 -50 35l-208 565q-6 16 -6 30q0 22 15 37t38 15q38 0 49 -34l164 -460l162 456q13 38 51 38t51 -38l162 -456l163 459q13 35 50 35z" />
    <glyph glyph-name="X" unicode="X" horiz-adv-x="606" 
d="M551 77q14 -21 14 -37q0 -21 -15 -36t-37 -15q-26 0 -42 22l-168 238l-168 -238q-14 -22 -42 -22q-22 0 -37 15t-15 36q0 19 15 38l185 260l-170 244q-15 21 -15 39q0 21 15 35.5t37 14.5q27 0 43 -22l152 -223l155 223q16 22 43 22q22 0 36.5 -14.5t14.5 -35.5
q0 -20 -15 -40l-171 -243z" />
    <glyph glyph-name="Y" unicode="Y" horiz-adv-x="621" 
d="M578 620q0 -18 -12 -37l-203 -330v-210q0 -23 -15 -38.5t-38 -15.5t-38 15.5t-15 38.5v212l-202 328q-12 20 -12 38q0 22 15 36t37 14q33 0 51 -31l164 -278l165 278q19 31 51 31q22 0 37 -14.5t15 -36.5z" />
    <glyph glyph-name="Z" unicode="Z" horiz-adv-x="588" 
d="M514 95q21 0 35 -13.5t14 -33.5t-14 -34t-35 -14h-438q-21 0 -35.5 14t-14.5 34q0 13 16 35l369 482h-298q-21 0 -35 13.5t-14 33.5t14 34t35 14h395q20 0 34.5 -14t14.5 -34q0 -14 -15 -34l-369 -483h341z" />
    <glyph glyph-name="bracketleft" unicode="[" horiz-adv-x="353" 
d="M266 729q19 0 32 -12.5t13 -31.5t-13 -31.5t-32 -12.5h-76v-682h76q19 0 32 -13t13 -32t-13 -32t-32 -13h-123q-20 0 -33.5 13.5t-13.5 33.5v766q0 20 13.5 33.5t33.5 13.5h123z" />
    <glyph glyph-name="backslash" unicode="\" horiz-adv-x="645" 
d="M563 -133q-31 0 -44 25l-478 808q-9 14 -9 30q0 20 15 35t35 15q31 0 44 -24l478 -808q9 -13 9 -31q0 -20 -15 -35t-35 -15z" />
    <glyph glyph-name="bracketright" unicode="]" horiz-adv-x="350" 
d="M207 729q20 0 33.5 -13.5t13.5 -33.5v-765q0 -20 -13.5 -34t-33.5 -14h-117q-19 0 -32.5 13t-13.5 32t13.5 32t32.5 13h70v682h-70q-20 0 -33 12.5t-13 31.5t13 31.5t33 12.5h117z" />
    <glyph glyph-name="asciicircum" unicode="^" horiz-adv-x="523" 
d="M121 277q-22 0 -37 15t-15 37q0 10 8 27l137 283q16 32 47 32q32 0 48 -32l136 -283q8 -15 8 -27q0 -22 -15 -37t-36 -15q-29 0 -45 28l-96 199l-95 -199q-16 -28 -45 -28z" />
    <glyph glyph-name="underscore" unicode="_" horiz-adv-x="504" 
d="M426 -70q19 0 32 -12t13 -31q0 -18 -13 -30t-32 -12h-347q-19 0 -32 12t-13 30q0 19 12.5 31t32.5 12h347z" />
    <glyph glyph-name="grave" unicode="`" horiz-adv-x="266" 
d="M167 564q-25 -1 -42 27l-67 118q-8 15 -8 28q0 23 15 38.5t37 15.5q36 0 50 -31l54 -125q7 -14 7 -24q1 -18 -12 -32t-34 -15z" />
    <glyph glyph-name="a" unicode="a" horiz-adv-x="536" 
d="M264 502q95 0 148.5 -54t53.5 -151v-255q0 -23 -14.5 -38t-37.5 -15q-22 0 -37 15t-15 38v6q-56 -59 -151 -59q-77 0 -124 39t-47 103t49 102t132 38h139v32q0 50 -27.5 77.5t-77.5 27.5q-63 0 -109 -46q-19 -16 -36 -16q-19 0 -32.5 13.5t-13.5 30.5q0 22 21 43
q66 69 179 69zM233 70q53 0 90 33.5t37 82.5v9h-126q-87 0 -87 -60q0 -30 23.5 -47.5t62.5 -17.5z" />
    <glyph glyph-name="b" unicode="b" horiz-adv-x="631" 
d="M345 502q104 0 172.5 -73t68.5 -184t-68 -183.5t-172 -72.5q-107 0 -166 72v-18q0 -24 -14.5 -39t-36.5 -15q-23 0 -38 15.5t-15 38.5v664q0 23 15 38.5t38 15.5t37.5 -15t14.5 -39v-277q59 72 164 72zM328 85q65 0 107.5 45.5t42.5 115.5q0 69 -42.5 114.5t-107.5 45.5
q-67 0 -107.5 -44.5t-40.5 -116.5q0 -71 41 -115.5t107 -44.5z" />
    <glyph glyph-name="c" unicode="c" horiz-adv-x="552" 
d="M305 -11q-109 0 -184.5 74.5t-75.5 182.5q0 107 75.5 181.5t184.5 74.5q63 0 116 -27.5t82 -72.5q10 -15 10 -28q0 -20 -13.5 -34t-33.5 -14q-23 0 -37 17q-50 62 -123 62q-66 0 -110 -45.5t-44 -113.5q0 -70 43.5 -115t110.5 -45q71 0 123 61q15 17 37 17q20 0 33.5 -14
t13.5 -33q0 -14 -9 -27q-68 -101 -199 -101z" />
    <glyph glyph-name="d" unicode="d" horiz-adv-x="631" 
d="M502 761q23 0 38 -15t15 -39v-665q0 -23 -15 -38t-37 -15t-37 15t-15 38v20q-57 -73 -166 -73q-104 0 -172 72.5t-68 183.5t68 184t172 73t164 -71v276q0 23 15 38.5t38 15.5zM303 85q66 0 107 44.5t41 115.5t-41 116t-107 45q-65 0 -108 -45.5t-43 -114.5
q0 -70 42.5 -115.5t108.5 -45.5z" />
    <glyph glyph-name="e" unicode="e" horiz-adv-x="570" 
d="M298 502q98 0 163 -64.5t65 -163.5v-5q0 -27 -16 -42.5t-44 -15.5h-314q11 -60 53 -94.5t107 -34.5t115 38q15 10 27 10q19 0 31.5 -12.5t12.5 -31.5q0 -25 -26 -44q-71 -53 -163 -53q-114 0 -189 73t-75 183q0 109 73 183t180 74zM295 413q-53 0 -91 -33t-50 -87h267
q-2 54 -36.5 87t-89.5 33z" />
    <glyph glyph-name="f" unicode="f" horiz-adv-x="322" 
d="M280 666q-39 0 -60 -22t-21 -63v-90h79q20 0 33.5 -13t13.5 -33q0 -19 -13.5 -32t-33.5 -13h-79v-357q0 -24 -14.5 -39t-37.5 -15t-38 15.5t-15 38.5v357h-34q-20 0 -33 13t-13 32t13 32.5t33 13.5h34v99q0 81 44.5 126t124.5 45q33 0 57 -9q31 -11 31 -45
q0 -19 -13 -30.5t-34 -11.5q-3 0 -11 0.5t-13 0.5z" />
    <glyph glyph-name="g" unicode="g" horiz-adv-x="634" 
d="M507 502q22 0 36.5 -15.5t14.5 -38.5v-397q0 -113 -65.5 -177.5t-180.5 -64.5q-124 0 -213 73q-20 17 -20 38q0 20 14 34t34 14q17 0 30 -10q72 -53 149 -53q70 0 108.5 36.5t38.5 103.5v35q-59 -70 -166 -70q-104 0 -171.5 69.5t-67.5 176.5t67.5 176.5t171.5 69.5
q110 0 167 -73v19q0 23 15 38.5t38 15.5zM306 102q67 0 107.5 42.5t40.5 112.5q0 68 -40.5 109.5t-107.5 41.5q-65 0 -107.5 -42.5t-42.5 -109.5t42.5 -110.5t107.5 -43.5z" />
    <glyph glyph-name="h" unicode="h" horiz-adv-x="575" 
d="M323 502q83 0 132.5 -53.5t49.5 -141.5v-264q0 -24 -15 -39t-37 -15q-23 0 -38 15.5t-15 38.5v249q0 52 -29.5 83t-77.5 31q-49 0 -80.5 -32t-31.5 -82v-249q0 -24 -14.5 -39t-37.5 -15t-38 15.5t-15 38.5v664q0 23 15 38.5t38 15.5t37.5 -15t14.5 -39v-265q54 60 142 60
z" />
    <glyph glyph-name="i" unicode="i" horiz-adv-x="257" 
d="M129 742q29 0 49.5 -20t20.5 -48t-20.5 -48t-49.5 -20t-49.5 20t-20.5 48t20.5 48t49.5 20zM128 -11q-22 0 -37 15.5t-15 38.5v405q0 23 15 38.5t38 15.5q22 0 37 -15.5t15 -38.5v-405q0 -23 -15 -38.5t-38 -15.5z" />
    <glyph glyph-name="j" unicode="j" horiz-adv-x="257" 
d="M129 742q29 0 49.5 -20t20.5 -48t-20.5 -48t-49.5 -20t-49.5 20t-20.5 48t20.5 48t49.5 20zM9 -191q-27 0 -46 6q-38 10 -38 44q0 19 13.5 32.5t32.5 13.5q3 0 9 -0.5t10 -0.5q41 0 63.5 20t22.5 70v454q0 23 15 38.5t38 15.5q22 0 37 -15.5t15 -38.5v-468
q0 -85 -46 -128t-126 -43z" />
    <glyph glyph-name="k" unicode="k" horiz-adv-x="533" 
d="M129 761q23 0 37.5 -15t14.5 -39v-664q0 -24 -14.5 -39t-37.5 -15t-38 15.5t-15 38.5v664q0 23 15 38.5t38 15.5zM492 73q14 -15 14 -35q0 -21 -14.5 -35t-34.5 -14q-24 0 -42 21l-193 223q-16 20 -16 38q0 21 17 39l177 176q16 16 38 16q21 0 35.5 -14t14.5 -34
q0 -19 -20 -39l-147 -143z" />
    <glyph glyph-name="l" unicode="l" horiz-adv-x="257" 
d="M129 -11q-23 0 -38 15.5t-15 38.5v664q0 23 15 38.5t38 15.5q22 0 37 -15.5t15 -38.5v-664q0 -23 -15 -38.5t-37 -15.5z" />
    <glyph glyph-name="m" unicode="m" horiz-adv-x="883" 
d="M631 502q84 0 133 -52.5t49 -142.5v-264q0 -24 -15 -39t-38 -15t-38 15.5t-15 38.5v249q0 53 -27.5 83.5t-74.5 30.5t-77.5 -31t-30.5 -78v-254q0 -24 -15 -39t-37 -15q-23 0 -38 15.5t-15 38.5v249q0 52 -28 83t-75 31q-48 0 -78 -31.5t-30 -82.5v-249q0 -24 -14.5 -39
t-37.5 -15t-38 15.5t-15 38.5v405q0 23 15 38.5t38 15.5q21 0 35.5 -14.5t15.5 -36.5q54 51 136 51q103 0 149 -77q59 77 166 77z" />
    <glyph glyph-name="n" unicode="n" horiz-adv-x="575" 
d="M321 502q84 0 134 -53t50 -142v-264q0 -24 -15 -39t-37 -15q-23 0 -38 15.5t-15 38.5v250q0 51 -29.5 82.5t-77.5 31.5q-49 0 -80.5 -32t-31.5 -82v-250q0 -24 -14.5 -39t-37.5 -15t-38 15.5t-15 38.5v405q0 23 15 38.5t38 15.5q22 0 36.5 -15.5t14.5 -38.5q56 54 141 54
z" />
    <glyph glyph-name="o" unicode="o" horiz-adv-x="609" 
d="M304 502q109 0 185 -74.5t76 -181.5t-76 -182t-185 -75q-109 1 -184 75.5t-75 181.5q0 108 75 182t184 74zM305 406q-66 -1 -109.5 -46.5t-43.5 -114.5q0 -68 43.5 -113.5t108.5 -45.5t109 45.5t44 113.5q0 69 -43.5 114.5t-108.5 46.5z" />
    <glyph glyph-name="p" unicode="p" horiz-adv-x="631" 
d="M345 502q104 0 172.5 -73t68.5 -183q0 -111 -68.5 -184t-172.5 -73t-164 71v-198q0 -23 -15 -38.5t-37 -15.5q-23 0 -38 15.5t-15 38.5v588q0 23 15 38t38 15q22 0 36.5 -15t14.5 -38v-20q58 72 165 72zM328 85q65 0 107.5 45.5t42.5 114.5q0 70 -42.5 115.5t-107.5 45.5
q-66 0 -107 -44.5t-41 -115.5q0 -72 40.5 -116.5t107.5 -44.5z" />
    <glyph glyph-name="q" unicode="q" horiz-adv-x="631" 
d="M503 502q22 0 37 -15.5t15 -38.5v-586q0 -23 -15 -38.5t-38 -15.5t-38 15.5t-15 38.5v197q-60 -70 -164 -70t-172 73t-68 184q0 110 68.5 183t171.5 73q108 0 166 -73v19q0 23 15 38.5t37 15.5zM303 85q66 0 107 45t41 116t-41 115.5t-107 44.5q-65 0 -108 -45.5
t-43 -115.5q0 -69 43 -114.5t108 -45.5z" />
    <glyph glyph-name="r" unicode="r" horiz-adv-x="375" 
d="M317 496q22 0 36 -13.5t14 -34.5q0 -22 -14 -35.5t-37 -15.5q-60 -2 -97.5 -39t-37.5 -96v-219q0 -24 -14.5 -39t-37.5 -15t-38 15.5t-15 38.5v405q0 23 15 38.5t38 15.5q22 0 36.5 -15.5t14.5 -38.5v-15q53 63 137 63z" />
    <glyph glyph-name="s" unicode="s" horiz-adv-x="455" 
d="M228 -11q-109 0 -180 76q-15 13 -15 34q0 19 14 32.5t33 13.5q18 0 33 -14q55 -51 115 -51q34 0 56.5 14t22.5 41q0 22 -16.5 34t-52.5 27l-50 21q-65 27 -96.5 59t-31.5 84q0 66 49 104t124 38q94 0 156 -60q16 -15 16 -35q0 -19 -13 -32t-31 -13q-13 0 -33 15
q-44 34 -97 34q-67 0 -67 -47q0 -19 14.5 -31.5t50.5 -26.5l47 -19q70 -29 102 -62.5t32 -85.5q0 -71 -52 -110.5t-130 -39.5z" />
    <glyph glyph-name="t" unicode="t" horiz-adv-x="398" 
d="M332 85q21 0 33.5 -11.5t12.5 -30.5q0 -33 -31 -44q-24 -10 -66 -10q-88 0 -134.5 44t-46.5 127v240h-39q-20 0 -33.5 13t-13.5 32t13.5 32.5t33.5 13.5h39v86q0 23 15.5 38.5t37.5 15.5q23 0 38 -15.5t15 -38.5v-86h105q20 0 33.5 -13t13.5 -33q0 -19 -13.5 -32
t-33.5 -13h-105v-231q0 -45 23 -65t73 -20q6 0 16 0.5t14 0.5z" />
    <glyph glyph-name="u" unicode="u" horiz-adv-x="570" 
d="M286 -11q-95 0 -155 60.5t-60 156.5v242q0 23 15 38.5t37 15.5t37 -15.5t15 -38.5v-250q0 -49 31 -80.5t80 -31.5q47 0 77.5 31.5t30.5 80.5v250q0 23 15 38.5t38 15.5q22 0 37 -15.5t15 -38.5v-242q0 -96 -59.5 -156.5t-153.5 -60.5z" />
    <glyph glyph-name="v" unicode="v" horiz-adv-x="549" 
d="M474 502q21 0 36 -15.5t15 -35.5q0 -12 -6 -27l-196 -403q-16 -32 -48 -32q-33 0 -49 32l-195 403q-7 14 -7 27q0 20 15 35.5t36 15.5q33 0 48 -31l152 -320l151 320q16 31 48 31z" />
    <glyph glyph-name="w" unicode="w" horiz-adv-x="853" 
d="M779 502q21 0 36.5 -15t15.5 -36q0 -11 -5 -24l-178 -406q-14 -32 -48 -32q-32 0 -47 31l-126 306l-127 -306q-16 -31 -48 -31q-33 0 -47 32l-178 406q-5 13 -5 24q0 21 15 36t36 15q34 0 47 -31l136 -310l120 303q16 38 50 38q36 0 50 -38l121 -303l136 310q13 31 46 31
z" />
    <glyph glyph-name="x" unicode="x" horiz-adv-x="514" 
d="M458 77q14 -18 14 -38q0 -21 -14.5 -35.5t-36.5 -14.5q-26 0 -44 24l-120 158l-121 -158q-19 -24 -43 -24q-22 0 -37 14.5t-15 35.5q0 19 15 38l135 175l-121 159q-18 22 -18 40q0 21 15 36t37 15q25 0 43 -24l110 -147l112 147q19 24 44 24q21 0 36 -15t15 -36
q0 -17 -17 -40l-125 -160z" />
    <glyph glyph-name="y" unicode="y" horiz-adv-x="549" 
d="M474 502q21 0 36 -15.5t15 -35.5q0 -14 -5 -24l-226 -473q-37 -77 -82 -111t-109 -34q-27 0 -47 6q-32 10 -32 44q0 19 14 32.5t34 13.5q4 0 10.5 -0.5t9.5 -0.5q68 0 102 72l22 47l-182 403q-6 16 -6 25q0 20 15.5 35.5t36.5 15.5q35 0 48 -31l147 -330l151 330
q14 31 48 31z" />
    <glyph glyph-name="z" unicode="z" horiz-adv-x="461" 
d="M399 91q20 0 33 -13t13 -33q0 -19 -13.5 -32t-32.5 -13h-330q-19 0 -32.5 13t-13.5 32q0 18 20 42l251 313h-208q-20 0 -33 13t-13 32t13 32.5t33 13.5h305q19 0 32.5 -13t13.5 -32t-17 -39l-253 -316h232z" />
    <glyph glyph-name="braceleft" unicode="{" horiz-adv-x="404" 
d="M322 -43q19 0 32 -12.5t13 -31.5t-13 -31.5t-32 -12.5h-28q-152 0 -152 137q0 35 12 105t12 88q0 55 -57 55h-19q-20 0 -33 13t-13 32t13 32.5t33 13.5h19q57 0 57 54q0 19 -12 89t-12 105q0 136 152 136h28q19 0 32 -12.5t13 -31.5t-13 -31.5t-32 -12.5h-15
q-71 0 -71 -74q0 -24 12 -90t12 -92q0 -63 -64 -86q64 -21 64 -85q0 -26 -12 -92t-12 -90q0 -75 71 -75h15z" />
    <glyph glyph-name="bar" unicode="|" horiz-adv-x="332" 
d="M166 791q19 0 31.5 -13t12.5 -33v-831q0 -20 -12.5 -33t-31.5 -13t-31.5 13t-12.5 33v831q0 20 12.5 33t31.5 13z" />
    <glyph glyph-name="braceright" unicode="}" horiz-adv-x="404" 
d="M314 345q20 0 33 -13.5t13 -32.5t-13 -32t-33 -13h-19q-57 0 -57 -55q0 -18 12 -88t12 -105q0 -137 -152 -137h-28q-19 0 -32 12.5t-13 31.5t13 31.5t32 12.5h15q71 0 71 75q0 24 -12 90t-12 92q0 64 64 85q-64 23 -64 86q0 26 12 92t12 90q0 74 -71 74h-15
q-19 0 -32 12.5t-13 31.5t13 31.5t32 12.5h28q152 0 152 -136q0 -35 -12 -105t-12 -89q0 -54 57 -54h19z" />
    <glyph glyph-name="asciitilde" unicode="~" 
d="M390 233q-46 0 -115.5 32t-87.5 32q-41 0 -54 -32q-13 -30 -41 -30q-19 0 -31.5 13.5t-12.5 33.5q0 47 35 80t87 33q44 0 114.5 -32t88.5 -32q42 0 54 33q13 29 41 29q19 0 31.5 -13t12.5 -33q0 -48 -35 -81t-87 -33z" />
    <glyph glyph-name="exclamdown" unicode="&#xa1;" horiz-adv-x="326" 
d="M163 353q-32 0 -54.5 22t-22.5 53q0 32 22.5 54t54.5 22q31 0 53 -22t22 -54t-22 -53.5t-53 -21.5zM163 -192q-28 0 -45.5 18t-15.5 47l9 357q0 22 15 37.5t37 15.5t36.5 -15.5t15.5 -37.5l8 -357q1 -29 -15.5 -47t-44.5 -18z" />
    <glyph glyph-name="cent" unicode="&#xa2;" horiz-adv-x="555" 
d="M446 235q20 0 34 -14t14 -34q0 -17 -14 -34q-61 -70 -152 -81v-128q0 -22 -14 -36.5t-35 -14.5t-35 14.5t-14 36.5v134q-86 21 -140.5 90t-54.5 159q0 91 54.5 159.5t140.5 88.5v135q0 22 14 36.5t35 14.5t35 -14.5t14 -36.5v-129q94 -11 152 -81q14 -18 14 -34
q0 -20 -14 -34t-34 -14q-18 0 -39 19q-32 37 -79 46v-313q47 11 79 46q21 19 39 19zM142 327q0 -50 24 -89t64 -57v291q-40 -18 -64 -56.5t-24 -88.5z" />
    <glyph glyph-name="sterling" unicode="&#xa3;" horiz-adv-x="548" 
d="M465 91q19 0 31.5 -13t12.5 -33q0 -19 -12.5 -32t-31.5 -13h-368q-20 0 -34 13.5t-14 33.5q0 26 25 42q35 21 47.5 29t31 24t24 32.5t5.5 39.5q0 14 -1 21h-80q-20 0 -33.5 13t-13.5 33q0 19 13.5 32t33.5 13h47q-2 4 -10.5 20t-11.5 22t-10 20.5t-9.5 23.5t-6.5 22.5
t-5.5 26.5t-1.5 27q0 82 57 132.5t147 50.5q141 0 198 -121q10 -19 10 -35q0 -20 -14.5 -34t-35.5 -14q-28 0 -48 32q-36 75 -104 75q-47 0 -74.5 -29t-27.5 -74q0 -19 6 -39.5t11.5 -33t20 -38t18.5 -34.5h119q20 0 33 -13t13 -32t-13 -32.5t-33 -13.5h-89q1 -6 1 -20
q0 -78 -67 -124h244z" />
    <glyph glyph-name="currency" unicode="&#xa4;" horiz-adv-x="650" 
d="M519 197l81 -82q15 -15 15 -34q0 -18 -13 -31t-31 -13q-17 0 -34 15l-84 85q-57 -37 -130 -37q-71 0 -129 36l-81 -83q-16 -16 -35 -16q-17 0 -30.5 13.5t-13.5 31.5q0 17 14 33l80 82q-43 59 -43 133q0 73 43 132l-80 81q-14 14 -14 33q0 18 13.5 31.5t30.5 13.5
q19 0 35 -16l81 -81q58 36 129 36t132 -37l82 83q15 15 34 15q17 0 30.5 -13t13.5 -31q0 -19 -15 -34l-80 -81q42 -60 42 -132t-43 -133zM323 197q56 0 93.5 38t37.5 94q0 58 -37.5 96t-93.5 38q-57 0 -93.5 -38t-36.5 -96q0 -57 36.5 -94.5t93.5 -37.5z" />
    <glyph glyph-name="yen" unicode="&#xa5;" horiz-adv-x="575" 
d="M490 279h-149v-77h149q19 0 32 -12.5t13 -31.5t-13 -31.5t-32 -12.5h-149v-71q0 -23 -15 -38.5t-38 -15.5t-38 15.5t-15 38.5v71h-148q-19 0 -32 12.5t-13 31.5t13 31.5t32 12.5h148v77h-148q-19 0 -32 12.5t-13 31.5t13 32t32 13h120l-163 220q-14 18 -14 35
q0 20 14.5 34t34.5 14q25 0 44 -27l165 -232l165 232q19 27 44 27q20 0 35 -14.5t15 -33.5q0 -15 -14 -35l-164 -220h121q19 0 32 -13t13 -32t-13 -31.5t-32 -12.5z" />
    <glyph glyph-name="brokenbar" unicode="&#xa6;" horiz-adv-x="332" 
d="M166 791q19 0 31.5 -13t12.5 -33v-230q0 -20 -12.5 -33t-31.5 -13t-31.5 13t-12.5 33v230q0 20 12.5 33t31.5 13zM166 190q19 0 31.5 -13t12.5 -33v-230q0 -19 -12.5 -32t-31.5 -13t-31.5 13t-12.5 32v230q0 20 12.5 33t31.5 13z" />
    <glyph glyph-name="section" unicode="&#xa7;" horiz-adv-x="590" 
d="M558 179q0 -50 -32 -86t-88 -50q1 -5 1 -17q0 -67 -48.5 -109.5t-125.5 -42.5q-97 0 -165 72q-14 14 -16 35q-2 31 27 41q28 15 57 -12q45 -44 96 -44q34 0 53 15.5t19 42.5q0 25 -16 45t-70 62l-99 76q-66 48 -92.5 84.5t-26.5 80.5q0 50 32 86t88 50q-1 5 -1 17
q0 68 48.5 110t126.5 42q95 0 164 -72q16 -16 16 -38q0 -29 -26 -38q-29 -16 -58 11q-44 44 -96 44q-34 0 -53 -15.5t-19 -41.5q0 -25 16 -45.5t70 -62.5l99 -75q65 -47 92 -84.5t27 -80.5zM407 118q49 19 49 60q0 21 -14.5 38t-62.5 53l-102 78q-66 49 -94 86
q-48 -19 -48 -60q0 -21 14.5 -38.5t61.5 -53.5l103 -77q63 -47 93 -86z" />
    <glyph glyph-name="dieresis" unicode="&#xa8;" horiz-adv-x="420" 
d="M98 740q29 0 48 -19t19 -47q0 -26 -19.5 -45.5t-47.5 -19.5q-27 0 -47.5 19.5t-20.5 45.5q0 27 20 46.5t48 19.5zM322 740q29 0 48.5 -19t19.5 -47q0 -26 -20 -45.5t-48 -19.5q-27 0 -47.5 19.5t-20.5 45.5q0 27 20 46.5t48 19.5z" />
    <glyph glyph-name="copyright" unicode="&#xa9;" horiz-adv-x="780" 
d="M389 -11q-144 0 -245 99.5t-101 241.5t101 241.5t245 99.5q145 0 246 -99.5t101 -241.5t-101 -241.5t-246 -99.5zM389 56q116 0 195 79t79 195t-79 195t-195 79t-194 -78.5t-78 -195.5t78 -195.5t194 -78.5zM397 142q-80 0 -134.5 54.5t-54.5 133.5t54.5 133.5
t134.5 54.5q37 0 72.5 -14.5t56.5 -38.5q19 -22 19 -39q0 -16 -10 -26.5t-26 -10.5t-36 18q-30 31 -74 31t-73.5 -31t-29.5 -77t29.5 -77t73.5 -31t74 31q20 18 36 18t26 -10.5t10 -26.5q0 -17 -19 -39q-21 -24 -56.5 -38.5t-72.5 -14.5z" />
    <glyph glyph-name="ordfeminine" unicode="&#xaa;" horiz-adv-x="367" 
d="M181 563q63 0 98.5 -35.5t35.5 -97.5v-150q0 -18 -12.5 -30.5t-29.5 -12.5q-33 0 -41 30q-35 -30 -88 -30q-49 0 -78 25.5t-29 68.5t31 67t86 24h76v14q0 54 -59 54q-29 0 -60 -21q-11 -8 -23 -8q-15 0 -25.5 10.5t-10.5 25.5q0 19 21 33q47 33 108 33zM168 300
q27 0 44.5 16.5t17.5 41.5v10h-62q-45 0 -45 -34t45 -34z" />
    <glyph glyph-name="guillemotleft" unicode="&#xab;" horiz-adv-x="546" 
d="M228 74q-21 0 -39 18l-138 146q-15 15 -15 34t15 34l138 145q18 19 39 19q18 0 31 -13.5t13 -31.5q0 -20 -15 -35l-107 -118l107 -118q15 -15 15 -35q0 -19 -13 -32t-31 -13zM455 74q-21 0 -39 18l-138 146q-15 15 -15 34t15 34l138 145q18 19 39 19q18 0 31 -13.5
t13 -31.5q0 -20 -15 -35l-107 -118l107 -118q15 -15 15 -35q0 -19 -13.5 -32t-30.5 -13z" />
    <glyph glyph-name="logicalnot" unicode="&#xac;" 
d="M428 94q-22 0 -36.5 15t-14.5 37v126h-287q-20 0 -33 13t-13 33q0 19 13.5 32t32.5 13h340q20 0 34 -14t14 -34v-169q0 -23 -14 -37.5t-36 -14.5z" />
    <glyph glyph-name="uni00AD" unicode="&#xad;" horiz-adv-x="344" 
d="M255 362q20 0 33 -12.5t13 -31.5t-13.5 -32t-32.5 -13h-166q-19 0 -32 13t-13 32t13 31.5t32 12.5h166z" />
    <glyph glyph-name="registered" unicode="&#xae;" horiz-adv-x="572" 
d="M287 688q102 0 174.5 -74.5t72.5 -178.5t-72.5 -178t-174.5 -74q-103 0 -176 74t-73 178t73 178.5t176 74.5zM287 240q80 0 134.5 57t54.5 139t-55 138.5t-134 56.5q-80 0 -134.5 -56.5t-54.5 -138.5q0 -83 54.5 -139.5t134.5 -56.5zM349 405l38 -43q9 -10 9 -23
q0 -14 -9 -23.5t-22 -9.5q-16 0 -27 14l-61 69h-25v-49q0 -14 -9 -24t-22 -10q-14 0 -23.5 10t-9.5 24v187q0 14 10 24t24 10h69q43 0 69.5 -24t26.5 -62q0 -46 -38 -70zM252 505v-60h38q14 0 22.5 8t8.5 21q0 14 -8.5 22.5t-22.5 8.5h-38z" />
    <glyph glyph-name="macron" unicode="&#xaf;" horiz-adv-x="348" 
d="M280 716q19 0 31.5 -12t12.5 -30t-12.5 -30t-31.5 -12h-212q-19 0 -31.5 12t-12.5 30t12.5 30t31.5 12h212z" />
    <glyph glyph-name="degree" unicode="&#xb0;" horiz-adv-x="361" 
d="M180 671q64 0 108.5 -44t44.5 -106q0 -63 -44.5 -106.5t-108.5 -43.5q-63 0 -107.5 44t-44.5 106t44.5 106t107.5 44zM180 598q-31 0 -53 -22.5t-22 -54.5q0 -33 21.5 -55t53.5 -22q33 0 54.5 22t21.5 55t-21.5 55t-54.5 22z" />
    <glyph glyph-name="plusminus" unicode="&#xb1;" 
d="M280 150q-22 0 -35 14.5t-13 37.5v111h-132q-19 0 -32 12.5t-13 31.5t13 31.5t32 12.5h132v105q0 23 13 37.5t35 14.5t35 -14.5t13 -37.5v-105h133q19 0 31.5 -12.5t12.5 -31.5t-12.5 -31.5t-31.5 -12.5h-133v-111q0 -23 -13 -37.5t-35 -14.5zM100 0q-19 0 -32 12.5
t-13 31.5t13 31.5t32 12.5h361q19 0 31.5 -12.5t12.5 -31.5t-12.5 -31.5t-31.5 -12.5h-361z" />
    <glyph glyph-name="uni00B2" unicode="&#xb2;" horiz-adv-x="376" 
d="M304 439q17 0 28 -10.5t11 -26.5t-11 -27t-28 -11h-233q-16 0 -26.5 11t-10.5 27t17 30l129 111q62 54 62 105q0 28 -17 45.5t-43 17.5t-42 -17t-17 -46l-3 -15q-2 -14 -13 -23t-26 -9q-43 0 -43 52q0 56 42 95t102 39q62 0 102.5 -38t40.5 -97q0 -42 -21.5 -79
t-71.5 -80l-62 -54h134z" />
    <glyph glyph-name="uni00B3" unicode="&#xb3;" horiz-adv-x="357" 
d="M212 629q47 -9 77.5 -45.5t30.5 -83.5q0 -61 -44.5 -102t-110.5 -41q-84 0 -133 63q-8 11 -8 25q0 16 11 27t27 11q17 0 29 -14q32 -36 71 -36q33 0 53 18t20 49q0 61 -85 61h-8q-16 0 -27 11t-11 26q0 16 13 28l80 79h-118q-16 0 -27.5 11t-11.5 27t11 26.5t28 10.5h196
q16 0 26.5 -10.5t10.5 -26.5q0 -14 -13 -29z" />
    <glyph glyph-name="acute" unicode="&#xb4;" horiz-adv-x="267" 
d="M100 564q-21 1 -34 15t-12 32q0 10 7 24l54 125q14 31 50 31q22 0 37 -15.5t15 -38.5q0 -13 -8 -28l-67 -118q-17 -28 -42 -27z" />
    <glyph glyph-name="uni00B5" unicode="&#xb5;" horiz-adv-x="601" 
d="M554 87q19 0 30.5 -12t11.5 -30q0 -36 -32 -46q-22 -7 -43 -7q-72 0 -100 55q-47 -58 -123 -58q-73 0 -117 52v-178q0 -23 -15 -38.5t-37 -15.5t-37.5 15.5t-15.5 38.5v585q0 23 15.5 38.5t37.5 15.5t37 -15.5t15 -38.5v-245q0 -52 30.5 -85t78.5 -33q49 0 79.5 33
t30.5 85v245q0 23 15.5 38.5t37.5 15.5t37 -15.5t15 -38.5v-300q0 -61 48 -61h1z" />
    <glyph glyph-name="paragraph" unicode="&#xb6;" horiz-adv-x="588" 
d="M453 660q22 0 37 -15.5t15 -38.5v-620q0 -177 -182 -177q-40 0 -58 7q-40 11 -40 45q0 21 14 34.5t36 13.5q4 0 14.5 -1.5t21.5 -1.5q89 0 89 90v231h-133q-97 0 -164 62t-67 156t66.5 154.5t164.5 60.5h186z" />
    <glyph glyph-name="periodcentered" unicode="&#xb7;" horiz-adv-x="270" 
d="M136 240q-33 0 -56 22.5t-23 54.5t23 55t56 23q32 0 54.5 -23t22.5 -55t-22.5 -54.5t-54.5 -22.5z" />
    <glyph glyph-name="cedilla" unicode="&#xb8;" horiz-adv-x="275" 
d="M100 -191q-41 0 -59 8q-28 11 -28 36q0 16 11 27t27 11q6 0 17.5 -1.5t21.5 -1.5q27 0 45.5 12.5t18.5 35.5q0 27 -22 57q-23 31 -23 41q0 30 33 30q34 0 68.5 -45t34.5 -89q0 -55 -40 -88t-105 -33z" />
    <glyph glyph-name="uni00B9" unicode="&#xb9;" horiz-adv-x="361" 
d="M78 364q-16 0 -27.5 11t-11.5 27t11 26.5t28 10.5h71v266h-64q-16 0 -27.5 11t-11.5 27t11 26.5t28 10.5h105q18 0 30 -12t12 -31v-298h55q17 0 28 -10.5t11 -26.5t-11 -27t-28 -11h-209z" />
    <glyph glyph-name="ordmasculine" unicode="&#xba;" horiz-adv-x="404" 
d="M202 562q70 0 118.5 -47.5t48.5 -115.5t-48.5 -115t-118.5 -47t-118.5 47t-48.5 115q0 69 48 116t119 47zM202 486q-37 0 -60 -24t-23 -63q0 -38 23 -62t60 -24q36 0 59 24t23 62t-22.5 62.5t-59.5 24.5z" />
    <glyph glyph-name="guillemotright" unicode="&#xbb;" horiz-adv-x="550" 
d="M98 74q-18 0 -31 13t-13 32q0 20 15 35l107 118l-107 118q-15 15 -15 35q0 18 13 31.5t31 13.5q21 0 39 -19l138 -145q15 -15 15 -34t-15 -34l-138 -146q-18 -18 -39 -18zM325 74q-17 0 -30.5 13t-13.5 32q0 20 15 35l107 118l-107 118q-15 15 -15 35q0 18 13 31.5
t31 13.5q21 0 39 -19l138 -145q15 -15 15 -34t-15 -34l-138 -146q-18 -18 -39 -18z" />
    <glyph glyph-name="onequarter" unicode="&#xbc;" horiz-adv-x="910" 
d="M696 633q0 -12 -5 -22l-347 -600q-14 -23 -37 -23q-15 0 -26 11.5t-11 26.5q0 11 7 23l345 599q14 22 37 22q15 0 26 -11t11 -26zM326 282q0 -16 -11 -27t-28 -11h-209q-16 0 -27.5 11t-11.5 27t11 26.5t28 10.5h71v266h-64q-16 0 -27.5 11t-11.5 27t11 26.5t28 10.5h105
q18 0 30 -12t12 -31v-298h55q17 0 28 -10.5t11 -26.5zM865 148q18 0 28.5 -12t10.5 -28q0 -15 -10.5 -27t-28.5 -12h-21v-37q0 -17 -11 -28t-27 -11t-27 11t-11 28v37h-173q-15 0 -25.5 10.5t-10.5 25.5q0 7 5 19l123 273q11 26 37 26q16 0 27 -11t11 -26q0 -7 -5 -20
l-91 -218h102v72q0 17 10.5 28t27.5 11t27.5 -11t10.5 -28v-72h21z" />
    <glyph glyph-name="onehalf" unicode="&#xbd;" horiz-adv-x="946" 
d="M696 633q0 -12 -5 -22l-347 -600q-14 -23 -37 -23q-15 0 -26 11.5t-11 26.5q0 11 7 23l345 599q14 22 37 22q15 0 26 -11t11 -26zM326 282q0 -16 -11 -27t-28 -11h-209q-16 0 -27.5 11t-11.5 27t11 26.5t28 10.5h71v266h-64q-16 0 -27.5 11t-11.5 27t11 26.5t28 10.5h105
q18 0 30 -12t12 -31v-298h55q17 0 28 -10.5t11 -26.5zM874 75q17 0 28 -10.5t11 -26.5t-11 -27t-28 -11h-233q-16 0 -26.5 11t-10.5 27t17 30l129 111q62 54 62 105q0 28 -17 45.5t-43 17.5t-42 -17t-17 -46l-3 -15q-2 -14 -13 -23t-26 -9q-43 0 -43 52q0 56 42 95t102 39
q62 0 102.5 -38t40.5 -97q0 -42 -21.5 -79t-71.5 -80l-62 -54h134z" />
    <glyph glyph-name="threequarters" unicode="&#xbe;" horiz-adv-x="871" 
d="M657 633q0 -12 -5 -22l-347 -600q-14 -23 -37 -23q-15 0 -26 11.5t-11 26.5q0 11 7 23l345 599q14 22 37 22q15 0 26 -11t11 -26zM320 380q0 -61 -44.5 -102t-110.5 -41q-84 0 -133 63q-8 11 -8 25q0 16 11 27t27 11q17 0 29 -14q32 -36 71 -36q33 0 53 18t20 49
q0 61 -85 61h-8q-16 0 -27 11t-11 26q0 16 13 28l80 79h-118q-16 0 -27.5 11t-11.5 27t11 26.5t28 10.5h196q16 0 26.5 -10.5t10.5 -26.5q0 -14 -13 -29l-87 -85q47 -9 77.5 -45.5t30.5 -83.5zM826 148q18 0 28.5 -12t10.5 -28q0 -15 -10.5 -27t-28.5 -12h-21v-37
q0 -17 -11 -28t-27 -11t-27 11t-11 28v37h-173q-15 0 -25.5 10.5t-10.5 25.5q0 7 5 19l123 273q11 26 37 26q16 0 27 -11t11 -26q0 -7 -5 -20l-91 -218h102v72q0 17 10.5 28t27.5 11t27.5 -11t10.5 -28v-72h21z" />
    <glyph glyph-name="questiondown" unicode="&#xbf;" horiz-adv-x="448" 
d="M245 504q32 0 54.5 -22t22.5 -53q0 -32 -22.5 -54t-54.5 -22q-31 0 -53 22t-22 54q0 31 22 53t53 22zM248 294q20 0 35 -14t15 -34v-12q0 -32 -16.5 -59t-60.5 -68q-44 -40 -58 -61t-14 -47q0 -34 23 -57t57 -23q57 0 86 59q17 30 45 30q20 0 33.5 -14t13.5 -33
q0 -15 -9 -32q-23 -51 -68 -79t-105 -28q-79 0 -132 47.5t-53 118.5q0 40 20.5 74.5t67.5 76.5q40 36 55 57t15 43l1 10q1 19 15 32t34 13z" />
    <glyph glyph-name="Agrave" unicode="&#xc0;" horiz-adv-x="663" 
d="M274 746l-67 102q-18 27 -4.5 54.5t43.5 29.5q35 2 51 -28l58 -112q11 -21 -0.5 -44.5t-38.5 -24.5q-26 0 -42 23zM621 70q8 -19 8 -30q0 -21 -15 -36t-37 -15q-35 0 -50 37l-41 93h-311l-39 -93q-14 -37 -50 -37q-22 0 -37 15t-15 36q0 14 8 30l239 565q15 36 50 36
q36 0 51 -36zM331 516l-119 -307h236z" />
    <glyph glyph-name="Aacute" unicode="&#xc1;" horiz-adv-x="663" 
d="M346 723q-27 1 -38.5 24.5t-0.5 44.5l58 112q16 30 51 28q30 -2 43.5 -29.5t-4.5 -54.5l-67 -102q-16 -23 -42 -23zM621 70q8 -19 8 -30q0 -21 -15 -36t-37 -15q-35 0 -50 37l-41 93h-311l-39 -93q-14 -37 -50 -37q-22 0 -37 15t-15 36q0 14 8 30l239 565q15 36 50 36
q36 0 51 -36zM331 516l-119 -307h236z" />
    <glyph glyph-name="Acircumflex" unicode="&#xc2;" horiz-adv-x="663" 
d="M206 721q-16 0 -27.5 11.5t-11.5 27.5q0 15 20 35l109 108q15 15 34 15t34 -15l109 -108q20 -20 20 -35q0 -16 -11.5 -27.5t-27.5 -11.5q-15 0 -31 13l-93 87l-93 -87q-16 -13 -31 -13zM621 70q8 -19 8 -30q0 -21 -15 -36t-37 -15q-35 0 -50 37l-41 93h-311l-39 -93
q-14 -37 -50 -37q-22 0 -37 15t-15 36q0 14 8 30l239 565q15 36 50 36q36 0 51 -36zM331 516l-119 -307h236z" />
    <glyph glyph-name="Atilde" unicode="&#xc3;" horiz-adv-x="663" 
d="M193 729q-20 0 -32 13t-12 34q0 49 28.5 81.5t72.5 32.5q37 0 72 -22l33 -20q31 -18 43 -18q25 0 30 28q5 36 41 36q19 0 31.5 -13t12.5 -33q0 -50 -29 -82.5t-73 -32.5q-34 0 -72 22l-32 20q-32 18 -44 18q-26 0 -29 -28q-7 -36 -41 -36zM621 70q8 -19 8 -30
q0 -21 -15 -36t-37 -15q-35 0 -50 37l-41 93h-311l-39 -93q-14 -37 -50 -37q-22 0 -37 15t-15 36q0 14 8 30l239 565q15 36 50 36q36 0 51 -36zM331 516l-119 -307h236z" />
    <glyph glyph-name="Adieresis" unicode="&#xc4;" horiz-adv-x="663" 
d="M208 747q-27 0 -47.5 19.5t-20.5 45.5q0 27 20.5 46t47.5 19q28 0 47.5 -18.5t19.5 -46.5q0 -26 -19.5 -45.5t-47.5 -19.5zM452 746q-26 0 -46.5 19.5t-20.5 45.5q0 27 20.5 46.5t46.5 19.5q29 0 48.5 -19t19.5 -47q0 -26 -20 -45.5t-48 -19.5zM621 70q8 -19 8 -30
q0 -21 -15 -36t-37 -15q-35 0 -50 37l-41 93h-311l-39 -93q-14 -37 -50 -37q-22 0 -37 15t-15 36q0 14 8 30l239 565q15 36 50 36q36 0 51 -36zM331 516l-119 -307h236z" />
    <glyph glyph-name="Aring" unicode="&#xc5;" horiz-adv-x="663" 
d="M330 687q-50 0 -84 33t-34 82t34 82t84 33q51 0 85 -33t34 -82t-34 -82t-85 -33zM331 848q-20 0 -33 -13t-13 -33t13.5 -33t32.5 -13t32 13t13 33t-13 33t-32 13zM621 70q8 -19 8 -30q0 -21 -15 -36t-37 -15q-35 0 -50 37l-41 93h-311l-39 -93q-14 -37 -50 -37
q-22 0 -37 15t-15 36q0 14 8 30l239 565q15 36 50 36q36 0 51 -36zM331 516l-119 -307h236z" />
    <glyph glyph-name="AE" unicode="&#xc6;" horiz-adv-x="837" 
d="M754 95q21 0 35 -13.5t14 -33.5t-14.5 -34t-34.5 -14h-248q-20 0 -34.5 12t-17.5 31l-11 67h-262l-46 -88q-17 -33 -47 -33q-22 0 -37 14t-15 35q0 14 6 26l290 560q18 36 57 36h353q21 0 35 -14t14 -34t-14.5 -33.5t-34.5 -13.5h-269l28 -169h162q20 0 33.5 -13
t13.5 -33t-13.5 -33t-33.5 -13h-147l35 -209h203zM379 505l-151 -304h199z" />
    <glyph glyph-name="Ccedilla" unicode="&#xc7;" horiz-adv-x="717" 
d="M615 194q20 0 34.5 -14t14.5 -34q0 -18 -18 -42q-66 -83 -180 -107q20 -37 20 -67q0 -55 -40 -88t-105 -33q-41 0 -59 8q-28 11 -28 36q0 16 11 27t27 11q6 0 17.5 -1.5t21.5 -1.5q27 0 45.5 12.5t18.5 35.5q0 26 -19 53q-141 5 -237 103t-96 238q0 144 100.5 242.5
t246.5 98.5q76 0 144 -30.5t113 -84.5q17 -23 17 -42q0 -20 -14.5 -34t-34.5 -14q-24 0 -42 21q-72 87 -182 87q-103 0 -170.5 -69.5t-67.5 -174.5t67.5 -174.5t170.5 -69.5q108 0 181 87q18 21 43 21z" />
    <glyph glyph-name="Egrave" unicode="&#xc8;" horiz-adv-x="569" 
d="M284 723q-26 0 -42 23l-67 102q-18 27 -4.5 54.5t43.5 29.5q35 2 51 -28l58 -112q11 -21 -0.5 -44.5t-38.5 -24.5zM134 0q-22 0 -36.5 14.5t-14.5 36.5v558q0 22 14.5 36.5t36.5 14.5h339q21 0 35 -14t14 -34t-14 -33.5t-35 -13.5h-284v-169h205q20 0 33.5 -13t13.5 -33
t-13.5 -33t-33.5 -13h-205v-209h296q21 0 35 -13.5t14 -33.5t-14 -34t-35 -14h-351z" />
    <glyph glyph-name="Eacute" unicode="&#xc9;" horiz-adv-x="569" 
d="M314 723q-27 1 -38.5 24.5t-0.5 44.5l58 112q16 30 51 28q30 -2 43.5 -29.5t-4.5 -54.5l-67 -102q-16 -23 -42 -23zM134 0q-22 0 -36.5 14.5t-14.5 36.5v558q0 22 14.5 36.5t36.5 14.5h339q21 0 35 -14t14 -34t-14 -33.5t-35 -13.5h-284v-169h205q20 0 33.5 -13t13.5 -33
t-13.5 -33t-33.5 -13h-205v-209h296q21 0 35 -13.5t14 -33.5t-14 -34t-35 -14h-351z" />
    <glyph glyph-name="Ecircumflex" unicode="&#xca;" horiz-adv-x="569" 
d="M174 721q-16 0 -27.5 11.5t-11.5 27.5q0 15 20 35l109 108q15 15 34 15t34 -15l109 -108q20 -20 20 -35q0 -16 -11.5 -27.5t-27.5 -11.5q-15 0 -31 13l-93 87l-93 -87q-16 -13 -31 -13zM485 95q21 0 35 -13.5t14 -33.5t-14 -34t-35 -14h-351q-22 0 -36.5 14.5t-14.5 36.5
v558q0 22 14.5 36.5t36.5 14.5h339q21 0 35 -14t14 -34t-14 -33.5t-35 -13.5h-284v-169h205q20 0 33.5 -13t13.5 -33t-13.5 -33t-33.5 -13h-205v-209h296z" />
    <glyph glyph-name="Edieresis" unicode="&#xcb;" horiz-adv-x="569" 
d="M176 747q-27 0 -47.5 19.5t-20.5 45.5q0 27 20.5 46t47.5 19q28 0 47.5 -18.5t19.5 -46.5q0 -26 -19.5 -45.5t-47.5 -19.5zM420 746q-26 0 -46.5 19.5t-20.5 45.5q0 27 20.5 46.5t46.5 19.5q29 0 48.5 -19t19.5 -47q0 -26 -20 -45.5t-48 -19.5zM134 0q-22 0 -36.5 14.5
t-14.5 36.5v558q0 22 14.5 36.5t36.5 14.5h339q21 0 35 -14t14 -34t-14 -33.5t-35 -13.5h-284v-169h205q20 0 33.5 -13t13.5 -33t-13.5 -33t-33.5 -13h-205v-209h296q21 0 35 -13.5t14 -33.5t-14 -34t-35 -14h-351z" />
    <glyph glyph-name="Igrave" unicode="&#xcc;" horiz-adv-x="272" 
d="M122 723q-26 0 -42 23l-67 102q-18 27 -4.5 54.5t43.5 29.5q35 2 51 -28l58 -112q11 -21 -0.5 -44.5t-38.5 -24.5zM136 -11q-23 0 -38 15.5t-15 38.5v574q0 23 15 38.5t38 15.5t38 -15.5t15 -38.5v-574q0 -23 -15 -38.5t-38 -15.5z" />
    <glyph glyph-name="Iacute" unicode="&#xcd;" horiz-adv-x="272" 
d="M152 723q-27 1 -38.5 24.5t-0.5 44.5l58 112q16 30 51 28q30 -2 43.5 -29.5t-4.5 -54.5l-67 -102q-16 -23 -42 -23zM136 -11q-23 0 -38 15.5t-15 38.5v574q0 23 15 38.5t38 15.5t38 -15.5t15 -38.5v-574q0 -23 -15 -38.5t-38 -15.5z" />
    <glyph glyph-name="Icircumflex" unicode="&#xce;" horiz-adv-x="272" 
d="M279 795q20 -20 20 -35q0 -16 -11.5 -27.5t-27.5 -11.5q-15 0 -31 13l-93 87l-93 -87q-16 -13 -31 -13q-16 0 -27.5 11.5t-11.5 27.5q0 15 20 35l109 108q15 15 34 15t34 -15zM136 671q23 0 38 -15.5t15 -38.5v-574q0 -23 -15 -38.5t-38 -15.5t-38 15.5t-15 38.5v574
q0 23 15 38.5t38 15.5z" />
    <glyph glyph-name="Idieresis" unicode="&#xcf;" horiz-adv-x="272" 
d="M14 747q-27 0 -47.5 19.5t-20.5 45.5q0 27 20.5 46t47.5 19q28 0 47.5 -18.5t19.5 -46.5q0 -26 -19.5 -45.5t-47.5 -19.5zM258 746q-26 0 -46.5 19.5t-20.5 45.5q0 27 20.5 46.5t46.5 19.5q29 0 48.5 -19t19.5 -47q0 -26 -20 -45.5t-48 -19.5zM136 -11q-23 0 -38 15.5
t-15 38.5v574q0 23 15 38.5t38 15.5t38 -15.5t15 -38.5v-574q0 -23 -15 -38.5t-38 -15.5z" />
    <glyph glyph-name="Eth" unicode="&#xd0;" horiz-adv-x="692" 
d="M289 660q162 0 261 -90.5t99 -238.5t-100 -239.5t-260 -91.5h-151q-24 0 -39.5 15.5t-15.5 39.5v210h-46q-20 0 -34 13t-14 32t14 32t34 13h46v250q0 24 15.5 39.5t39.5 15.5h151zM288 95q113 0 182 65t69 171q0 107 -67.5 170t-183.5 63h-99v-209h77q20 0 34 -13t14 -32
t-14 -32t-34 -13h-77v-170h99z" />
    <glyph glyph-name="Ntilde" unicode="&#xd1;" horiz-adv-x="710" 
d="M217 729q-20 0 -32 13t-12 34q0 49 28.5 81.5t72.5 32.5q37 0 72 -22l33 -20q31 -18 43 -18q25 0 30 28q5 36 41 36q19 0 31.5 -13t12.5 -33q0 -50 -29 -82.5t-73 -32.5q-34 0 -72 22l-32 20q-32 18 -44 18q-26 0 -29 -28q-7 -36 -41 -36zM574 671q23 0 38 -15.5
t15 -38.5v-576q0 -22 -15 -37t-37 -15q-27 0 -50 30l-336 443v-419q0 -23 -15 -38.5t-38 -15.5t-38 15.5t-15 38.5v576q0 22 15 37t37 15q17 0 28 -8t25 -27l334 -437l-1 418q0 23 15 38.5t38 15.5z" />
    <glyph glyph-name="Ograve" unicode="&#xd2;" horiz-adv-x="780" 
d="M375 723q-26 0 -42 23l-67 102q-18 27 -4.5 54.5t43.5 29.5q35 2 51 -28l58 -112q11 -21 -0.5 -44.5t-38.5 -24.5zM389 671q145 0 246 -99t101 -242t-100.5 -242t-246.5 -99q-145 0 -245.5 99t-100.5 242t100.5 242t245.5 99zM390 574q-103 0 -170 -69t-67 -174
q0 -106 67 -175.5t170 -69.5q102 0 169.5 69.5t67.5 175.5q0 104 -67.5 173.5t-169.5 69.5z" />
    <glyph glyph-name="Oacute" unicode="&#xd3;" horiz-adv-x="780" 
d="M405 723q-27 1 -38.5 24.5t-0.5 44.5l58 112q16 30 51 28q30 -2 43.5 -29.5t-4.5 -54.5l-67 -102q-16 -23 -42 -23zM389 671q145 0 246 -99t101 -242t-100.5 -242t-246.5 -99q-145 0 -245.5 99t-100.5 242t100.5 242t245.5 99zM390 574q-103 0 -170 -69t-67 -174
q0 -106 67 -175.5t170 -69.5q102 0 169.5 69.5t67.5 175.5q0 104 -67.5 173.5t-169.5 69.5z" />
    <glyph glyph-name="Ocircumflex" unicode="&#xd4;" horiz-adv-x="780" 
d="M265 721q-17 0 -28 11.5t-11 27.5q0 15 20 35l109 108q15 15 34 15t34 -15l109 -108q20 -20 20 -35q0 -16 -11 -27.5t-28 -11.5q-15 0 -31 13l-93 87l-93 -87q-16 -13 -31 -13zM389 671q145 0 246 -99t101 -242t-100.5 -242t-246.5 -99q-145 0 -245.5 99t-100.5 242
t100.5 242t245.5 99zM390 86q102 0 169.5 69.5t67.5 175.5q0 104 -67.5 173.5t-169.5 69.5q-103 0 -170 -69t-67 -174q0 -106 67 -175.5t170 -69.5z" />
    <glyph glyph-name="Otilde" unicode="&#xd5;" horiz-adv-x="780" 
d="M252 729q-20 0 -32 13t-12 34q0 49 28.5 81.5t72.5 32.5q37 0 72 -22l33 -20q31 -18 43 -18q25 0 30 28q5 36 41 36q19 0 31.5 -13t12.5 -33q0 -50 -29 -82.5t-73 -32.5q-34 0 -72 22l-32 20q-32 18 -44 18q-26 0 -29 -28q-7 -36 -41 -36zM389 671q145 0 246 -99
t101 -242t-100.5 -242t-246.5 -99q-145 0 -245.5 99t-100.5 242t100.5 242t245.5 99zM390 574q-103 0 -170 -69t-67 -174q0 -106 67 -175.5t170 -69.5q102 0 169.5 69.5t67.5 175.5q0 104 -67.5 173.5t-169.5 69.5z" />
    <glyph glyph-name="Odieresis" unicode="&#xd6;" horiz-adv-x="780" 
d="M267 747q-27 0 -47.5 19.5t-20.5 45.5q0 27 20.5 46t47.5 19q28 0 47.5 -18.5t19.5 -46.5q0 -26 -19.5 -45.5t-47.5 -19.5zM511 746q-26 0 -46.5 19.5t-20.5 45.5q0 27 20.5 46.5t46.5 19.5q29 0 48.5 -19t19.5 -47q0 -26 -20 -45.5t-48 -19.5zM389 671q145 0 246 -99
t101 -242t-100.5 -242t-246.5 -99q-145 0 -245.5 99t-100.5 242t100.5 242t245.5 99zM390 574q-103 0 -170 -69t-67 -174q0 -106 67 -175.5t170 -69.5q102 0 169.5 69.5t67.5 175.5q0 104 -67.5 173.5t-169.5 69.5z" />
    <glyph glyph-name="multiply" unicode="&#xd7;" 
d="M122 117q-18 0 -31.5 13t-13.5 32q0 18 15 33l124 124l-124 125q-15 14 -15 33t13.5 32t31.5 13q20 0 33 -15l125 -124l125 124q13 15 33 15q18 0 31.5 -13t13.5 -32t-15 -33l-124 -125l124 -124q15 -15 15 -33q0 -19 -13.5 -32t-31.5 -13q-19 0 -33 14l-125 125
l-125 -125q-14 -14 -33 -14z" />
    <glyph glyph-name="Oslash" unicode="&#xd8;" horiz-adv-x="781" 
d="M664 540q73 -90 73 -210q0 -143 -100.5 -242t-246.5 -99q-116 0 -209 67l-51 -51q-16 -16 -36 -16q-18 0 -31 13t-13 31q0 20 16 36l50 50q-72 93 -72 211q0 143 100.5 242t245.5 99q117 0 209 -68l52 52q16 16 36 16q18 0 31 -13t13 -31q0 -20 -15 -35zM149 331
q0 -79 39 -140l343 344q-62 43 -140 43q-104 0 -173 -70.5t-69 -176.5zM391 82q104 0 172.5 71t68.5 178q0 77 -39 138l-343 -344q62 -43 141 -43z" />
    <glyph glyph-name="Ugrave" unicode="&#xd9;" horiz-adv-x="694" 
d="M332 723q-26 0 -42 23l-67 102q-18 27 -4.5 54.5t43.5 29.5q35 2 51 -28l58 -112q11 -21 -0.5 -44.5t-38.5 -24.5zM348 -11q-124 0 -198 76t-74 202v350q0 23 15 38.5t38 15.5t38 -15.5t15 -38.5v-357q0 -80 44.5 -127t121.5 -47q76 0 120 47t44 127v357q0 23 15 38.5
t38 15.5t38 -15.5t15 -38.5v-350q0 -126 -74 -202t-196 -76z" />
    <glyph glyph-name="Uacute" unicode="&#xda;" horiz-adv-x="694" 
d="M362 723q-27 1 -38.5 24.5t-0.5 44.5l58 112q16 30 51 28q30 -2 43.5 -29.5t-4.5 -54.5l-67 -102q-16 -23 -42 -23zM348 -11q-124 0 -198 76t-74 202v350q0 23 15 38.5t38 15.5t38 -15.5t15 -38.5v-357q0 -80 44.5 -127t121.5 -47q76 0 120 47t44 127v357q0 23 15 38.5
t38 15.5t38 -15.5t15 -38.5v-350q0 -126 -74 -202t-196 -76z" />
    <glyph glyph-name="Ucircumflex" unicode="&#xdb;" horiz-adv-x="694" 
d="M222 721q-16 0 -27.5 11.5t-11.5 27.5q0 15 20 35l109 108q15 15 34 15t34 -15l109 -108q20 -20 20 -35q0 -16 -11.5 -27.5t-27.5 -11.5q-15 0 -31 13l-93 87l-93 -87q-16 -13 -31 -13zM565 671q23 0 38 -15.5t15 -38.5v-350q0 -126 -74 -202t-196 -76q-124 0 -198 76
t-74 202v350q0 23 15 38.5t38 15.5t38 -15.5t15 -38.5v-357q0 -80 44.5 -127t121.5 -47q76 0 120 47t44 127v357q0 23 15 38.5t38 15.5z" />
    <glyph glyph-name="Udieresis" unicode="&#xdc;" horiz-adv-x="694" 
d="M224 747q-27 0 -47.5 19.5t-20.5 45.5q0 27 20.5 46t47.5 19q28 0 47.5 -18.5t19.5 -46.5q0 -26 -19.5 -45.5t-47.5 -19.5zM468 746q-26 0 -46.5 19.5t-20.5 45.5q0 27 20.5 46.5t46.5 19.5q29 0 48.5 -19t19.5 -47q0 -26 -20 -45.5t-48 -19.5zM348 -11q-124 0 -198 76
t-74 202v350q0 23 15 38.5t38 15.5t38 -15.5t15 -38.5v-357q0 -80 44.5 -127t121.5 -47q76 0 120 47t44 127v357q0 23 15 38.5t38 15.5t38 -15.5t15 -38.5v-350q0 -126 -74 -202t-196 -76z" />
    <glyph glyph-name="Yacute" unicode="&#xdd;" horiz-adv-x="621" 
d="M323 723q-27 1 -38.5 24.5t-0.5 44.5l58 112q16 30 51 28q30 -2 43.5 -29.5t-4.5 -54.5l-67 -102q-16 -23 -42 -23zM578 620q0 -18 -12 -37l-203 -330v-210q0 -23 -15 -38.5t-38 -15.5t-38 15.5t-15 38.5v212l-202 328q-12 20 -12 38q0 22 15 36t37 14q33 0 51 -31
l164 -278l165 278q19 31 51 31q22 0 37 -14.5t15 -36.5z" />
    <glyph glyph-name="Thorn" unicode="&#xde;" horiz-adv-x="583" 
d="M136 671q23 0 38 -15.5t15 -38.5v-67h134q101 0 162.5 -56.5t61.5 -148.5t-62 -149.5t-162 -57.5h-134v-95q0 -23 -15 -38.5t-38 -15.5t-38 15.5t-15 38.5v574q0 23 15 38.5t38 15.5zM322 456h-133v-224h133q54 0 85 30t31 82t-31 82t-85 30z" />
    <glyph glyph-name="germandbls" unicode="&#xdf;" horiz-adv-x="630" 
d="M425 -12q-90 0 -151 50q-20 15 -20 38q0 18 13.5 31.5t32.5 13.5q11 0 28 -10q50 -31 100 -31q71 0 71 52q0 21 -15 35.5t-67 46.5q-58 34 -81.5 61.5t-23.5 61.5q0 29 18 76l38 102q15 41 15 69q0 38 -23.5 59.5t-63.5 21.5q-54 0 -85 -37t-31 -102v-483
q0 -23 -15 -38.5t-37 -15.5t-37 15.5t-15 38.5v488q0 108 59.5 169t163.5 61q87 0 138.5 -41.5t51.5 -112.5q0 -41 -15 -80l-43 -120q-12 -29 -12 -48q0 -20 14.5 -35t66.5 -46q57 -34 80.5 -66.5t23.5 -76.5q0 -66 -49.5 -106.5t-129.5 -40.5z" />
    <glyph glyph-name="agrave" unicode="&#xe0;" horiz-adv-x="536" 
d="M205 591l-67 118q-8 15 -8 28q0 23 15 38.5t37 15.5q36 0 50 -31l54 -125q7 -14 7 -24q1 -18 -12 -32t-34 -15q-25 -1 -42 27zM264 502q95 0 148.5 -54t53.5 -151v-255q0 -23 -14.5 -38t-37.5 -15q-22 0 -37 15t-15 38v6q-56 -59 -151 -59q-77 0 -124 39t-47 103t49 102
t132 38h139v32q0 50 -27.5 77.5t-77.5 27.5q-63 0 -109 -46q-19 -16 -36 -16q-19 0 -32.5 13.5t-13.5 30.5q0 22 21 43q66 69 179 69zM233 70q53 0 90 33.5t37 82.5v9h-126q-87 0 -87 -60q0 -30 23.5 -47.5t62.5 -17.5z" />
    <glyph glyph-name="aacute" unicode="&#xe1;" horiz-adv-x="536" 
d="M283 564q-21 1 -34 15t-12 32q0 10 7 24l54 125q14 31 50 31q22 0 37 -15.5t15 -38.5q0 -13 -8 -28l-67 -118q-17 -28 -42 -27zM264 502q95 0 148.5 -54t53.5 -151v-255q0 -23 -14.5 -38t-37.5 -15q-22 0 -37 15t-15 38v6q-56 -59 -151 -59q-77 0 -124 39t-47 103t49 102
t132 38h139v32q0 50 -27.5 77.5t-77.5 27.5q-63 0 -109 -46q-19 -16 -36 -16q-19 0 -32.5 13.5t-13.5 30.5q0 22 21 43q66 69 179 69zM233 70q53 0 90 33.5t37 82.5v9h-126q-87 0 -87 -60q0 -30 23.5 -47.5t62.5 -17.5z" />
    <glyph glyph-name="acircumflex" unicode="&#xe2;" horiz-adv-x="536" 
d="M153 566q-17 0 -29.5 12t-12.5 30q0 16 12 30l102 130q16 19 40 19t39 -19l103 -130q12 -15 12 -30q0 -18 -12.5 -30t-29.5 -12q-19 0 -31 14l-81 93l-82 -93q-11 -14 -30 -14zM264 502q95 0 148.5 -54t53.5 -151v-255q0 -23 -14.5 -38t-37.5 -15q-22 0 -37 15t-15 38v6
q-56 -59 -151 -59q-77 0 -124 39t-47 103t49 102t132 38h139v32q0 50 -27.5 77.5t-77.5 27.5q-63 0 -109 -46q-19 -16 -36 -16q-19 0 -32.5 13.5t-13.5 30.5q0 22 21 43q66 69 179 69zM233 70q53 0 90 33.5t37 82.5v9h-126q-87 0 -87 -60q0 -30 23.5 -47.5t62.5 -17.5z" />
    <glyph glyph-name="atilde" unicode="&#xe3;" horiz-adv-x="536" 
d="M133 587q-19 0 -31 13.5t-12 34.5q0 51 28 82.5t72 31.5q36 0 70 -24l26 -20q30 -22 42 -22q23 0 28 30q3 17 14 27t27 10q19 0 31 -13.5t12 -34.5q0 -50 -28 -82.5t-71 -32.5q-38 0 -71 25l-27 20q-27 22 -41 22q-25 0 -28 -30q-3 -17 -14 -27t-27 -10zM264 502
q95 0 148.5 -54t53.5 -151v-255q0 -23 -14.5 -38t-37.5 -15q-22 0 -37 15t-15 38v6q-56 -59 -151 -59q-77 0 -124 39t-47 103t49 102t132 38h139v32q0 50 -27.5 77.5t-77.5 27.5q-63 0 -109 -46q-19 -16 -36 -16q-19 0 -32.5 13.5t-13.5 30.5q0 22 21 43q66 69 179 69z
M233 70q53 0 90 33.5t37 82.5v9h-126q-87 0 -87 -60q0 -30 23.5 -47.5t62.5 -17.5z" />
    <glyph glyph-name="adieresis" unicode="&#xe4;" horiz-adv-x="536" 
d="M153 609q-27 0 -47.5 19.5t-20.5 45.5q0 27 20 46.5t48 19.5q29 0 48 -19t19 -47q0 -26 -19.5 -45.5t-47.5 -19.5zM377 609q-27 0 -47.5 19.5t-20.5 45.5q0 27 20 46.5t48 19.5q29 0 48.5 -19t19.5 -47q0 -26 -20 -45.5t-48 -19.5zM264 502q95 0 148.5 -54t53.5 -151
v-255q0 -23 -14.5 -38t-37.5 -15q-22 0 -37 15t-15 38v6q-56 -59 -151 -59q-77 0 -124 39t-47 103t49 102t132 38h139v32q0 50 -27.5 77.5t-77.5 27.5q-63 0 -109 -46q-19 -16 -36 -16q-19 0 -32.5 13.5t-13.5 30.5q0 22 21 43q66 69 179 69zM233 70q53 0 90 33.5t37 82.5v9
h-126q-87 0 -87 -60q0 -30 23.5 -47.5t62.5 -17.5z" />
    <glyph glyph-name="aring" unicode="&#xe5;" horiz-adv-x="536" 
d="M264 558q-50 0 -84 33t-34 82t34 82t84 33q51 0 85 -33t34 -82t-34 -82t-85 -33zM265 719q-20 0 -33 -13t-13 -33q0 -19 13 -32t33 -13q19 0 32 13t13 32t-13 32.5t-32 13.5zM264 502q95 0 148.5 -54t53.5 -151v-255q0 -23 -14.5 -38t-37.5 -15q-22 0 -37 15t-15 38v6
q-56 -59 -151 -59q-77 0 -124 39t-47 103t49 102t132 38h139v32q0 50 -27.5 77.5t-77.5 27.5q-63 0 -109 -46q-19 -16 -36 -16q-19 0 -32.5 13.5t-13.5 30.5q0 22 21 43q66 69 179 69zM233 70q53 0 90 33.5t37 82.5v9h-126q-87 0 -87 -60q0 -30 23.5 -47.5t62.5 -17.5z" />
    <glyph glyph-name="ae" unicode="&#xe6;" horiz-adv-x="887" 
d="M616 502q98 0 162 -64.5t64 -163.5v-9q0 -29 -15.5 -45t-44.5 -16h-313q12 -56 54.5 -89t104.5 -33q68 0 115 38q14 10 27 10q19 0 32 -12.5t13 -31.5q0 -25 -27 -44q-67 -53 -162 -53q-67 0 -122 29t-89 80q-26 -52 -78 -80.5t-120 -28.5q-81 0 -129 39.5t-48 104.5
q0 67 49 107t132 40h139v23q0 50 -27.5 77.5t-77.5 27.5q-60 0 -109 -46q-19 -16 -35 -16q-18 0 -32 13.5t-14 31.5q0 21 21 42q64 69 178 69q118 0 165 -88q70 88 187 88zM468 280h269q3 58 -32 95.5t-93 37.5q-56 0 -95.5 -36.5t-48.5 -96.5zM233 71q53 0 90 33t37 81v19
h-126q-87 0 -87 -63q0 -32 23 -51t63 -19z" />
    <glyph glyph-name="ccedilla" unicode="&#xe7;" horiz-adv-x="552" 
d="M466 164q20 0 33.5 -14t13.5 -33q0 -14 -9 -27q-47 -70 -131 -92q21 -36 21 -68q0 -55 -40 -88t-105 -33q-41 0 -59 8q-28 11 -28 36q0 16 11 27t27 11q6 0 17.5 -1.5t21.5 -1.5q27 0 45.5 12.5t18.5 35.5q0 26 -20 54q-102 8 -170 81t-68 175q0 107 75.5 181.5
t184.5 74.5q63 0 116 -27.5t82 -72.5q10 -15 10 -28q0 -20 -13.5 -34t-33.5 -14q-23 0 -37 17q-50 62 -123 62q-66 0 -110 -45.5t-44 -113.5q0 -70 43.5 -115t110.5 -45q71 0 123 61q15 17 37 17z" />
    <glyph glyph-name="egrave" unicode="&#xe8;" horiz-adv-x="570" 
d="M237 591l-67 118q-8 15 -8 28q0 23 15 38.5t37 15.5q36 0 50 -31l54 -125q7 -14 7 -24q1 -18 -12 -32t-34 -15q-25 -1 -42 27zM298 502q98 0 163 -64.5t65 -163.5v-5q0 -27 -16 -42.5t-44 -15.5h-314q11 -60 53 -94.5t107 -34.5t115 38q15 10 27 10q19 0 31.5 -12.5
t12.5 -31.5q0 -25 -26 -44q-71 -53 -163 -53q-114 0 -189 73t-75 183q0 109 73 183t180 74zM295 413q-53 0 -91 -33t-50 -87h267q-2 54 -36.5 87t-89.5 33z" />
    <glyph glyph-name="eacute" unicode="&#xe9;" horiz-adv-x="570" 
d="M315 564q-21 1 -34 15t-12 32q0 10 7 24l54 125q14 31 50 31q22 0 37 -15.5t15 -38.5q0 -13 -8 -28l-67 -118q-17 -28 -42 -27zM298 502q98 0 163 -64.5t65 -163.5v-5q0 -27 -16 -42.5t-44 -15.5h-314q11 -60 53 -94.5t107 -34.5t115 38q15 10 27 10q19 0 31.5 -12.5
t12.5 -31.5q0 -25 -26 -44q-71 -53 -163 -53q-114 0 -189 73t-75 183q0 109 73 183t180 74zM295 413q-53 0 -91 -33t-50 -87h267q-2 54 -36.5 87t-89.5 33z" />
    <glyph glyph-name="ecircumflex" unicode="&#xea;" horiz-adv-x="570" 
d="M185 566q-17 0 -29.5 12t-12.5 30q0 16 12 30l102 130q16 19 40 19t39 -19l103 -130q12 -15 12 -30q0 -18 -12.5 -30t-29.5 -12q-19 0 -31 14l-81 93l-82 -93q-11 -14 -30 -14zM298 502q98 0 163 -64.5t65 -163.5v-5q0 -27 -16 -42.5t-44 -15.5h-314q11 -60 53 -94.5
t107 -34.5t115 38q15 10 27 10q19 0 31.5 -12.5t12.5 -31.5q0 -25 -26 -44q-71 -53 -163 -53q-114 0 -189 73t-75 183q0 109 73 183t180 74zM295 413q-53 0 -91 -33t-50 -87h267q-2 54 -36.5 87t-89.5 33z" />
    <glyph glyph-name="edieresis" unicode="&#xeb;" horiz-adv-x="570" 
d="M185 609q-27 0 -47.5 19.5t-20.5 45.5q0 27 20 46.5t48 19.5q29 0 48 -19t19 -47q0 -26 -19.5 -45.5t-47.5 -19.5zM409 609q-27 0 -47.5 19.5t-20.5 45.5q0 27 20 46.5t48 19.5q29 0 48.5 -19t19.5 -47q0 -26 -20 -45.5t-48 -19.5zM298 502q98 0 163 -64.5t65 -163.5v-5
q0 -27 -16 -42.5t-44 -15.5h-314q11 -60 53 -94.5t107 -34.5t115 38q15 10 27 10q19 0 31.5 -12.5t12.5 -31.5q0 -25 -26 -44q-71 -53 -163 -53q-114 0 -189 73t-75 183q0 109 73 183t180 74zM295 413q-53 0 -91 -33t-50 -87h267q-2 54 -36.5 87t-89.5 33z" />
    <glyph glyph-name="igrave" unicode="&#xec;" horiz-adv-x="257" 
d="M114 566q-24 5 -33 37l-34 131q-4 16 -1 29q6 22 24.5 33t39.5 6q16 -4 27.5 -16.5t13.5 -26.5l19 -135q3 -15 1 -25q-4 -18 -20.5 -28t-36.5 -5zM128 -11q-22 0 -37 15.5t-15 38.5v405q0 23 15 38.5t38 15.5q22 0 37 -15.5t15 -38.5v-405q0 -23 -15 -38.5t-38 -15.5z
" />
    <glyph glyph-name="iacute" unicode="&#xed;" horiz-adv-x="257" 
d="M145 568q-21 -3 -36.5 8.5t-17.5 29.5q-1 12 3 25l31 132q8 33 44 40q22 4 39.5 -9t21.5 -36q2 -14 -3 -28l-46 -128q-11 -31 -36 -34zM128 -11q-22 0 -37 15.5t-15 38.5v405q0 23 15 38.5t38 15.5q22 0 37 -15.5t15 -38.5v-405q0 -23 -15 -38.5t-38 -15.5z" />
    <glyph glyph-name="icircumflex" unicode="&#xee;" horiz-adv-x="257" 
d="M271 638q12 -15 12 -30q0 -18 -12.5 -30t-29.5 -12q-19 0 -31 14l-81 93l-82 -93q-11 -14 -30 -14q-17 0 -29.5 12t-12.5 30q0 16 12 30l102 130q16 19 40 19t39 -19zM129 502q22 0 37 -15.5t15 -38.5v-405q0 -23 -15 -38.5t-38 -15.5q-22 0 -37 15.5t-15 38.5v405
q0 23 15 38.5t38 15.5z" />
    <glyph glyph-name="idieresis" unicode="&#xef;" horiz-adv-x="257" 
d="M29 609q-28 0 -48 19.5t-20 45.5q0 27 20 46.5t48 19.5t47.5 -19t19.5 -47q0 -26 -19.5 -45.5t-47.5 -19.5zM229 609q-28 0 -48 19.5t-20 45.5q0 27 20 46.5t48 19.5t47.5 -19t19.5 -47q0 -26 -19.5 -45.5t-47.5 -19.5zM128 -11q-22 0 -37 15.5t-15 38.5v405
q0 23 15 38.5t38 15.5q22 0 37 -15.5t15 -38.5v-405q0 -23 -15 -38.5t-38 -15.5z" />
    <glyph glyph-name="eth" unicode="&#xf0;" horiz-adv-x="571" 
d="M413 470q65 -88 89 -139.5t24 -106.5q0 -101 -68.5 -168t-171.5 -67q-104 0 -172.5 65.5t-68.5 163.5q0 96 65.5 160.5t162.5 64.5q12 0 34 -2l-80 111l-112 -55q-15 -7 -26 -7q-17 0 -29 12.5t-12 29.5q0 27 23 37l105 51l-43 60q-11 17 -11 32q0 20 15 34.5t35 14.5
q25 0 42 -24l54 -72l121 59q13 8 25 8q17 0 29.5 -12.5t12.5 -29.5q0 -27 -24 -38l-113 -55zM285 84q58 0 96 38t38 97t-37.5 96.5t-96.5 37.5q-58 0 -95.5 -38t-37.5 -97t37.5 -96.5t95.5 -37.5z" />
    <glyph glyph-name="ntilde" unicode="&#xf1;" horiz-adv-x="575" 
d="M151 587q-19 0 -31 13.5t-12 34.5q0 51 28 82.5t72 31.5q36 0 70 -24l26 -20q30 -22 42 -22q23 0 28 30q3 17 14 27t27 10q19 0 31 -13.5t12 -34.5q0 -50 -28 -82.5t-71 -32.5q-38 0 -71 25l-27 20q-27 22 -41 22q-25 0 -28 -30q-3 -17 -14 -27t-27 -10zM321 502
q84 0 134 -53t50 -142v-264q0 -24 -15 -39t-37 -15q-23 0 -38 15.5t-15 38.5v250q0 51 -29.5 82.5t-77.5 31.5q-49 0 -80.5 -32t-31.5 -82v-250q0 -24 -14.5 -39t-37.5 -15t-38 15.5t-15 38.5v405q0 23 15 38.5t38 15.5q22 0 36.5 -15.5t14.5 -38.5q56 54 141 54z" />
    <glyph glyph-name="ograve" unicode="&#xf2;" horiz-adv-x="609" 
d="M287 564q-25 -1 -42 27l-67 118q-8 15 -8 28q0 23 15 38.5t37 15.5q36 0 50 -31l54 -125q7 -14 7 -24q1 -18 -12 -32t-34 -15zM304 502q109 0 185 -74.5t76 -181.5t-76 -182t-185 -75q-109 1 -184 75.5t-75 181.5q0 108 75 182t184 74zM305 406q-66 -1 -109.5 -46.5
t-43.5 -114.5q0 -68 43.5 -113.5t108.5 -45.5t109 45.5t44 113.5q0 69 -43.5 114.5t-108.5 46.5z" />
    <glyph glyph-name="oacute" unicode="&#xf3;" horiz-adv-x="609" 
d="M323 564q-21 1 -34 15t-12 32q0 10 7 24l54 125q14 31 50 31q22 0 37 -15.5t15 -38.5q0 -13 -8 -28l-67 -118q-17 -28 -42 -27zM304 502q109 0 185 -74.5t76 -181.5t-76 -182t-185 -75q-109 1 -184 75.5t-75 181.5q0 108 75 182t184 74zM305 406q-66 -1 -109.5 -46.5
t-43.5 -114.5q0 -68 43.5 -113.5t108.5 -45.5t109 45.5t44 113.5q0 69 -43.5 114.5t-108.5 46.5z" />
    <glyph glyph-name="ocircumflex" unicode="&#xf4;" horiz-adv-x="609" 
d="M193 566q-17 0 -29.5 12t-12.5 30q0 16 12 30l102 130q16 19 40 19t39 -19l103 -130q12 -15 12 -30q0 -18 -12.5 -30t-29.5 -12q-19 0 -31 14l-81 93l-82 -93q-11 -14 -30 -14zM304 502q109 0 185 -74.5t76 -181.5t-76 -182t-185 -75q-109 1 -184 75.5t-75 181.5
q0 108 75 182t184 74zM304 86q65 0 109 45.5t44 113.5q0 69 -43.5 114.5t-108.5 46.5q-66 -1 -109.5 -46.5t-43.5 -114.5q0 -68 43.5 -113.5t108.5 -45.5z" />
    <glyph glyph-name="otilde" unicode="&#xf5;" horiz-adv-x="609" 
d="M381 587q-38 0 -71 25l-27 20q-27 22 -41 22q-25 0 -28 -30q-3 -17 -14 -27t-27 -10q-19 0 -31 13.5t-12 34.5q0 51 28 82.5t72 31.5q36 0 70 -24l26 -20q30 -22 42 -22q23 0 28 30q3 17 14 27t27 10q19 0 31 -13.5t12 -34.5q0 -50 -28 -82.5t-71 -32.5zM304 502
q109 0 185 -74.5t76 -181.5t-76 -182t-185 -75q-109 1 -184 75.5t-75 181.5q0 108 75 182t184 74zM305 406q-66 -1 -109.5 -46.5t-43.5 -114.5q0 -68 43.5 -113.5t108.5 -45.5t109 45.5t44 113.5q0 69 -43.5 114.5t-108.5 46.5z" />
    <glyph glyph-name="odieresis" unicode="&#xf6;" horiz-adv-x="609" 
d="M193 740q29 0 48 -19t19 -47q0 -26 -19.5 -45.5t-47.5 -19.5q-27 0 -47.5 19.5t-20.5 45.5q0 27 20 46.5t48 19.5zM417 740q29 0 48.5 -19t19.5 -47q0 -26 -20 -45.5t-48 -19.5q-27 0 -47.5 19.5t-20.5 45.5q0 27 20 46.5t48 19.5zM304 502q109 0 185 -74.5t76 -181.5
t-76 -182t-185 -75q-109 1 -184 75.5t-75 181.5q0 108 75 182t184 74zM305 406q-66 -1 -109.5 -46.5t-43.5 -114.5q0 -68 43.5 -113.5t108.5 -45.5t109 45.5t44 113.5q0 69 -43.5 114.5t-108.5 46.5z" />
    <glyph glyph-name="divide" unicode="&#xf7;" 
d="M278 564q29 0 48.5 -18.5t19.5 -46.5q0 -27 -20 -46t-48 -19t-48 19t-20 46t20 46t48 19zM468 363q19 0 32.5 -13t13.5 -32q0 -20 -13 -33t-33 -13h-377q-19 0 -32.5 13t-13.5 33q0 19 13.5 32t32.5 13h377zM278 199q29 0 48.5 -18.5t19.5 -46.5t-19.5 -46.5t-48.5 -18.5
q-28 0 -48 19t-20 46t20 46t48 19z" />
    <glyph glyph-name="oslash" unicode="&#xf8;" horiz-adv-x="617" 
d="M559 432l-38 -38q47 -66 47 -149q0 -107 -76 -181.5t-185 -74.5q-82 0 -147 45l-38 -39q-19 -17 -36 -17q-19 0 -32 13.5t-13 32.5t17 35l37 37q-47 66 -47 149q0 108 75.5 182.5t184.5 74.5q80 0 148 -45l38 38q17 17 35 17q19 0 32.5 -13.5t13.5 -31.5q0 -19 -16 -35z
M308 411q-70 0 -115 -46.5t-45 -119.5q0 -49 21 -85l226 227q-40 24 -87 24zM307 78q69 0 115 47.5t46 119.5q0 47 -20 85l-228 -227q39 -25 87 -25z" />
    <glyph glyph-name="ugrave" unicode="&#xf9;" horiz-adv-x="570" 
d="M267 564q-25 -1 -42 27l-67 118q-8 15 -8 28q0 23 15 38.5t37 15.5q36 0 50 -31l54 -125q7 -14 7 -24q1 -18 -12 -32t-34 -15zM286 -11q-95 0 -155 60.5t-60 156.5v242q0 23 15 38.5t37 15.5t37 -15.5t15 -38.5v-250q0 -49 31 -80.5t80 -31.5q47 0 77.5 31.5t30.5 80.5
v250q0 23 15 38.5t38 15.5q22 0 37 -15.5t15 -38.5v-242q0 -96 -59.5 -156.5t-153.5 -60.5z" />
    <glyph glyph-name="uacute" unicode="&#xfa;" horiz-adv-x="570" 
d="M303 564q-21 1 -34 15t-12 32q0 10 7 24l54 125q14 31 50 31q22 0 37 -15.5t15 -38.5q0 -13 -8 -28l-67 -118q-17 -28 -42 -27zM286 -11q-95 0 -155 60.5t-60 156.5v242q0 23 15 38.5t37 15.5t37 -15.5t15 -38.5v-250q0 -49 31 -80.5t80 -31.5q47 0 77.5 31.5t30.5 80.5
v250q0 23 15 38.5t38 15.5q22 0 37 -15.5t15 -38.5v-242q0 -96 -59.5 -156.5t-153.5 -60.5z" />
    <glyph glyph-name="ucircumflex" unicode="&#xfb;" horiz-adv-x="570" 
d="M173 566q-17 0 -29.5 12t-12.5 30q0 16 12 30l102 130q16 19 40 19t39 -19l103 -130q12 -15 12 -30q0 -18 -12.5 -30t-29.5 -12q-19 0 -31 14l-81 93l-82 -93q-11 -14 -30 -14zM447 502q22 0 37 -15.5t15 -38.5v-242q0 -96 -59.5 -156.5t-153.5 -60.5q-95 0 -155 60.5
t-60 156.5v242q0 23 15 38.5t37 15.5t37 -15.5t15 -38.5v-250q0 -49 31 -80.5t80 -31.5q47 0 77.5 31.5t30.5 80.5v250q0 23 15 38.5t38 15.5z" />
    <glyph glyph-name="udieresis" unicode="&#xfc;" horiz-adv-x="570" 
d="M173 740q29 0 48 -19t19 -47q0 -26 -19.5 -45.5t-47.5 -19.5q-27 0 -47.5 19.5t-20.5 45.5q0 27 20 46.5t48 19.5zM397 740q29 0 48.5 -19t19.5 -47q0 -26 -20 -45.5t-48 -19.5q-27 0 -47.5 19.5t-20.5 45.5q0 27 20 46.5t48 19.5zM286 -11q-95 0 -155 60.5t-60 156.5
v242q0 23 15 38.5t37 15.5t37 -15.5t15 -38.5v-250q0 -49 31 -80.5t80 -31.5q47 0 77.5 31.5t30.5 80.5v250q0 23 15 38.5t38 15.5q22 0 37 -15.5t15 -38.5v-242q0 -96 -59.5 -156.5t-153.5 -60.5z" />
    <glyph glyph-name="yacute" unicode="&#xfd;" horiz-adv-x="549" 
d="M290 564q-21 1 -34 15t-12 32q0 10 7 24l54 125q14 31 50 31q22 0 37 -15.5t15 -38.5q0 -13 -8 -28l-67 -118q-17 -28 -42 -27zM474 502q21 0 36 -15.5t15 -35.5q0 -14 -5 -24l-226 -473q-37 -77 -82 -111t-109 -34q-27 0 -47 6q-32 10 -32 44q0 19 14 32.5t34 13.5
q4 0 10.5 -0.5t9.5 -0.5q68 0 102 72l22 47l-182 403q-6 16 -6 25q0 20 15.5 35.5t36.5 15.5q35 0 48 -31l147 -330l151 330q14 31 48 31z" />
    <glyph glyph-name="thorn" unicode="&#xfe;" horiz-adv-x="631" 
d="M345 502q104 0 172.5 -73t68.5 -183q0 -111 -68.5 -184t-172.5 -73t-164 71v-198q0 -23 -15 -38.5t-37 -15.5q-23 0 -38 15.5t-15 38.5v845q0 23 15 38.5t38 15.5t37.5 -15t14.5 -39v-276q58 71 164 71zM328 85q65 0 107.5 45.5t42.5 114.5q0 70 -42.5 115.5t-107.5 45.5
q-66 0 -107 -44.5t-41 -115.5q0 -72 40.5 -116.5t107.5 -44.5z" />
    <glyph glyph-name="ydieresis" unicode="&#xff;" horiz-adv-x="549" 
d="M160 609q-27 0 -47.5 19.5t-20.5 45.5q0 27 20 46.5t48 19.5q29 0 48 -19t19 -47q0 -26 -19.5 -45.5t-47.5 -19.5zM384 609q-27 0 -47.5 19.5t-20.5 45.5q0 27 20 46.5t48 19.5q29 0 48.5 -19t19.5 -47q0 -26 -20 -45.5t-48 -19.5zM474 502q21 0 36 -15.5t15 -35.5
q0 -14 -5 -24l-226 -473q-37 -77 -82 -111t-109 -34q-27 0 -47 6q-32 10 -32 44q0 19 14 32.5t34 13.5q4 0 10.5 -0.5t9.5 -0.5q68 0 102 72l22 47l-182 403q-6 16 -6 25q0 20 15.5 35.5t36.5 15.5q35 0 48 -31l147 -330l151 330q14 31 48 31z" />
    <glyph glyph-name="Amacron" unicode="&#x100;" horiz-adv-x="663" 
d="M215 763q-19 0 -31.5 12.5t-12.5 30.5t12.5 30t31.5 12h233q18 0 30.5 -12t12.5 -30t-12.5 -30.5t-30.5 -12.5h-233zM621 70q8 -19 8 -30q0 -21 -15 -36t-37 -15q-35 0 -50 37l-41 93h-311l-39 -93q-14 -37 -50 -37q-22 0 -37 15t-15 36q0 14 8 30l239 565q15 36 50 36
q36 0 51 -36zM331 516l-119 -307h236z" />
    <glyph glyph-name="amacron" unicode="&#x101;" horiz-adv-x="536" 
d="M159 632q-19 0 -31.5 12t-12.5 30t12.5 30t31.5 12h212q19 0 31.5 -12t12.5 -30t-12.5 -30t-31.5 -12h-212zM264 502q95 0 148.5 -54t53.5 -151v-255q0 -23 -14.5 -38t-37.5 -15q-22 0 -37 15t-15 38v6q-56 -59 -151 -59q-77 0 -124 39t-47 103t49 102t132 38h139v32
q0 50 -27.5 77.5t-77.5 27.5q-63 0 -109 -46q-19 -16 -36 -16q-19 0 -32.5 13.5t-13.5 30.5q0 22 21 43q66 69 179 69zM233 70q53 0 90 33.5t37 82.5v9h-126q-87 0 -87 -60q0 -30 23.5 -47.5t62.5 -17.5z" />
    <glyph glyph-name="Abreve" unicode="&#x102;" horiz-adv-x="663" 
d="M331 729q-63 0 -111 40t-48 93q0 18 12 30.5t30 12.5q28 0 41 -35q19 -61 76 -61q59 0 77 61q12 35 40 35q18 0 30 -12.5t12 -30.5q0 -53 -48 -93t-111 -40zM621 70q8 -19 8 -30q0 -21 -15 -36t-37 -15q-35 0 -50 37l-41 93h-311l-39 -93q-14 -37 -50 -37q-22 0 -37 15
t-15 36q0 14 8 30l239 565q15 36 50 36q36 0 51 -36zM331 516l-119 -307h236z" />
    <glyph glyph-name="abreve" unicode="&#x103;" horiz-adv-x="536" 
d="M265 577q-64 0 -112.5 44t-48.5 101q0 19 12 32t30 13q34 0 42 -37q4 -31 26 -50.5t51 -19.5q30 0 51.5 19.5t26.5 50.5q8 37 41 37q18 0 30.5 -13t12.5 -32q0 -59 -48 -102t-114 -43zM264 502q95 0 148.5 -54t53.5 -151v-255q0 -23 -14.5 -38t-37.5 -15q-22 0 -37 15
t-15 38v6q-56 -59 -151 -59q-77 0 -124 39t-47 103t49 102t132 38h139v32q0 50 -27.5 77.5t-77.5 27.5q-63 0 -109 -46q-19 -16 -36 -16q-19 0 -32.5 13.5t-13.5 30.5q0 22 21 43q66 69 179 69zM233 70q53 0 90 33.5t37 82.5v9h-126q-87 0 -87 -60q0 -30 23.5 -47.5
t62.5 -17.5z" />
    <glyph glyph-name="Aogonek" unicode="&#x104;" horiz-adv-x="663" 
d="M610 -110q15 0 24.5 -10t9.5 -26q0 -29 -32 -38q-20 -7 -57 -7q-51 0 -82 26.5t-31 71.5q0 35 19.5 61.5t63.5 61.5l-39 89h-311l-39 -93q-14 -37 -50 -37q-22 0 -37 15t-15 36q0 14 8 30l239 565q15 36 50 36q36 0 51 -36l239 -565q8 -19 8 -30q0 -10 -3 -18
q-1 -3 -5 -9q-4 -9 -14 -15q-1 0 -3 -2q-63 -47 -63 -76q0 -31 44 -31q5 0 14 0.5t11 0.5zM331 516l-119 -307h236z" />
    <glyph glyph-name="aogonek" unicode="&#x105;" horiz-adv-x="536" 
d="M448 -110q15 0 24.5 -10t9.5 -26q0 -29 -32 -38q-20 -7 -57 -7q-51 0 -82 26.5t-31 71.5q0 35 19.5 61.5t63.5 61.5q-1 4 -1 12v6q-56 -59 -151 -59q-77 0 -124 39t-47 103t49 102t132 38h139v32q0 50 -27.5 77.5t-77.5 27.5q-63 0 -109 -46q-19 -16 -36 -16
q-19 0 -32.5 13.5t-13.5 30.5q0 22 21 43q66 69 179 69q95 0 148.5 -54t53.5 -151v-255v-4v-2q0 -22 -24 -40q-63 -47 -63 -76q0 -31 44 -31q5 0 14 0.5t11 0.5zM233 70q53 0 90 33.5t37 82.5v9h-126q-87 0 -87 -60q0 -30 23.5 -47.5t62.5 -17.5z" />
    <glyph glyph-name="Cacute" unicode="&#x106;" horiz-adv-x="717" 
d="M405 726q-27 1 -38.5 24.5t-0.5 44.5l58 112q16 30 51 28q30 -2 43.5 -29.5t-4.5 -54.5l-67 -102q-16 -23 -42 -23zM390 -11q-146 0 -246.5 98.5t-100.5 242.5t100.5 242.5t246.5 98.5q76 0 144 -30.5t113 -84.5q17 -23 17 -42q0 -20 -14.5 -34t-34.5 -14q-24 0 -42 21
q-72 87 -182 87q-103 0 -170.5 -69.5t-67.5 -174.5t67.5 -174.5t170.5 -69.5q108 0 181 87q18 21 43 21q20 0 34.5 -14t14.5 -34q0 -18 -18 -42q-44 -54 -111.5 -84.5t-144.5 -30.5z" />
    <glyph glyph-name="cacute" unicode="&#x107;" horiz-adv-x="552" 
d="M322 564q-21 1 -34 15t-12 32q0 10 7 24l54 125q14 31 50 31q22 0 37 -15.5t15 -38.5q0 -13 -8 -28l-67 -118q-17 -28 -42 -27zM305 -11q-109 0 -184.5 74.5t-75.5 182.5q0 107 75.5 181.5t184.5 74.5q63 0 116 -27.5t82 -72.5q10 -15 10 -28q0 -20 -13.5 -34t-33.5 -14
q-23 0 -37 17q-50 62 -123 62q-66 0 -110 -45.5t-44 -113.5q0 -70 43.5 -115t110.5 -45q71 0 123 61q15 17 37 17q20 0 33.5 -14t13.5 -33q0 -14 -9 -27q-68 -101 -199 -101z" />
    <glyph glyph-name="Ccircumflex" unicode="&#x108;" horiz-adv-x="717" 
d="M265 724q-17 0 -28 11t-11 28q0 15 20 35l109 108q15 15 34 15t34 -15l109 -108q20 -20 20 -35q0 -17 -11 -28t-28 -11q-15 0 -31 13l-93 87l-93 -87q-16 -13 -31 -13zM615 194q20 0 34.5 -14t14.5 -34q0 -18 -18 -42q-44 -54 -111.5 -84.5t-144.5 -30.5
q-146 0 -246.5 98.5t-100.5 242.5t100.5 242.5t246.5 98.5q76 0 144 -30.5t113 -84.5q17 -23 17 -42q0 -20 -14.5 -34t-34.5 -14q-24 0 -42 21q-72 87 -182 87q-103 0 -170.5 -69.5t-67.5 -174.5t67.5 -174.5t170.5 -69.5q108 0 181 87q18 21 43 21z" />
    <glyph glyph-name="ccircumflex" unicode="&#x109;" horiz-adv-x="552" 
d="M192 566q-17 0 -29.5 12t-12.5 30q0 16 12 30l102 130q16 19 40 19t39 -19l103 -130q12 -15 12 -30q0 -18 -12.5 -30t-29.5 -12q-19 0 -31 14l-81 93l-82 -93q-10 -14 -30 -14zM466 164q20 0 33.5 -14t13.5 -33q0 -14 -9 -27q-68 -101 -199 -101q-109 0 -184.5 74.5
t-75.5 182.5q0 107 75.5 181.5t184.5 74.5q63 0 116 -27.5t82 -72.5q10 -15 10 -28q0 -20 -13.5 -34t-33.5 -14q-23 0 -37 17q-50 62 -123 62q-66 0 -110 -45.5t-44 -113.5q0 -70 43.5 -115t110.5 -45q71 0 123 61q15 17 37 17z" />
    <glyph glyph-name="Cdotaccent" unicode="&#x10a;" horiz-adv-x="717" 
d="M390 883q29 0 49.5 -20t20.5 -48t-20.5 -48t-49.5 -20t-49.5 20t-20.5 48t20.5 48t49.5 20zM390 -11q-146 0 -246.5 98.5t-100.5 242.5t100.5 242.5t246.5 98.5q76 0 144 -30.5t113 -84.5q17 -23 17 -42q0 -20 -14.5 -34t-34.5 -14q-24 0 -42 21q-72 87 -182 87
q-103 0 -170.5 -69.5t-67.5 -174.5t67.5 -174.5t170.5 -69.5q108 0 181 87q18 21 43 21q20 0 34.5 -14t14.5 -34q0 -18 -18 -42q-44 -54 -111.5 -84.5t-144.5 -30.5z" />
    <glyph glyph-name="cdotaccent" unicode="&#x10b;" horiz-adv-x="552" 
d="M304 742q29 0 49.5 -20t20.5 -48t-20.5 -48t-49.5 -20t-49.5 20t-20.5 48t20.5 48t49.5 20zM305 -11q-109 0 -184.5 74.5t-75.5 182.5q0 107 75.5 181.5t184.5 74.5q63 0 116 -27.5t82 -72.5q10 -15 10 -28q0 -20 -13.5 -34t-33.5 -14q-23 0 -37 17q-50 62 -123 62
q-66 0 -110 -45.5t-44 -113.5q0 -70 43.5 -115t110.5 -45q71 0 123 61q15 17 37 17q20 0 33.5 -14t13.5 -33q0 -14 -9 -27q-68 -101 -199 -101z" />
    <glyph glyph-name="Ccaron" unicode="&#x10c;" horiz-adv-x="717" 
d="M356 739l-109 108q-20 20 -20 35q0 16 11.5 27.5t27.5 11.5q15 0 31 -13l93 -87l93 87q16 13 31 13q16 0 27.5 -11.5t11.5 -27.5q0 -15 -20 -35l-109 -108q-15 -15 -34 -15t-34 15zM615 194q20 0 34.5 -14t14.5 -34q0 -18 -18 -42q-44 -54 -111.5 -84.5t-144.5 -30.5
q-146 0 -246.5 98.5t-100.5 242.5t100.5 242.5t246.5 98.5q76 0 144 -30.5t113 -84.5q17 -23 17 -42q0 -20 -14.5 -34t-34.5 -14q-24 0 -42 21q-72 87 -182 87q-103 0 -170.5 -69.5t-67.5 -174.5t67.5 -174.5t170.5 -69.5q108 0 181 87q18 21 43 21z" />
    <glyph glyph-name="ccaron" unicode="&#x10d;" horiz-adv-x="552" 
d="M264 585l-102 130q-12 13 -12 30q0 18 12.5 30t29.5 12q20 0 30 -14l82 -93l81 93q12 14 31 14q17 0 29.5 -12t12.5 -30q0 -15 -12 -30l-103 -130q-15 -19 -39 -19t-40 19zM466 164q20 0 33.5 -14t13.5 -33q0 -14 -9 -27q-68 -101 -199 -101q-109 0 -184.5 74.5
t-75.5 182.5q0 107 75.5 181.5t184.5 74.5q63 0 116 -27.5t82 -72.5q10 -15 10 -28q0 -20 -13.5 -34t-33.5 -14q-23 0 -37 17q-50 62 -123 62q-66 0 -110 -45.5t-44 -113.5q0 -70 43.5 -115t110.5 -45q71 0 123 61q15 17 37 17z" />
    <glyph glyph-name="Dcaron" unicode="&#x10e;" horiz-adv-x="692" 
d="M257 736l-109 108q-20 20 -20 35q0 17 11 28t28 11q15 0 31 -13l93 -87l93 87q16 13 31 13q17 0 28 -11t11 -28q0 -15 -20 -35l-109 -108q-15 -15 -34 -15t-34 15zM289 660q162 0 261 -90.5t99 -238.5t-100 -239.5t-260 -91.5h-151q-24 0 -39.5 15.5t-15.5 39.5v550
q0 24 15.5 39.5t39.5 15.5h151zM288 95q113 0 182 65t69 171q0 107 -67.5 170t-183.5 63h-99v-469h99z" />
    <glyph glyph-name="dcaron" unicode="&#x10f;" horiz-adv-x="773" 
d="M713 770q26 0 42.5 -20.5t7.5 -51.5l-32 -129q-11 -35 -45 -35q-21 0 -35.5 16.5t-10.5 41.5l19 129q2 20 17.5 34.5t36.5 14.5zM502 761q23 0 38 -15t15 -39v-665q0 -23 -15 -38t-37 -15t-37 15t-15 38v20q-57 -73 -166 -73q-104 0 -172 72.5t-68 183.5t68 184t172 73
t164 -71v276q0 23 15 38.5t38 15.5zM303 85q66 0 107 44.5t41 115.5t-41 116t-107 45q-65 0 -108 -45.5t-43 -114.5q0 -70 42.5 -115.5t108.5 -45.5z" />
    <glyph glyph-name="Dcroat" unicode="&#x110;" horiz-adv-x="692" 
d="M289 660q162 0 261 -90.5t99 -238.5t-100 -239.5t-260 -91.5h-151q-24 0 -39.5 15.5t-15.5 39.5v210h-46q-20 0 -34 13t-14 32t14 32t34 13h46v250q0 24 15.5 39.5t39.5 15.5h151zM288 95q113 0 182 65t69 171q0 107 -67.5 170t-183.5 63h-99v-209h77q20 0 34 -13t14 -32
t-14 -32t-34 -13h-77v-170h99z" />
    <glyph glyph-name="dcroat" unicode="&#x111;" horiz-adv-x="635" 
d="M596 653q19 0 31.5 -12t12.5 -31t-12.5 -31t-31.5 -12h-42v-524q0 -24 -14.5 -39t-37.5 -15q-22 0 -37 15.5t-15 38.5v20q-60 -74 -169 -74q-101 0 -169 70t-68 175q0 106 67.5 176.5t169.5 70.5q108 0 168 -75v161h-173q-19 0 -31.5 12t-12.5 31t12.5 31t31.5 12h173v54
q0 23 15 38.5t38 15.5q22 0 37 -15t15 -39v-54h42zM302 80q67 0 107.5 42t40.5 112t-40.5 112.5t-107.5 42.5q-65 0 -107.5 -43.5t-42.5 -111.5t42 -111t108 -43z" />
    <glyph glyph-name="Emacron" unicode="&#x112;" horiz-adv-x="569" 
d="M416 848q18 0 30.5 -12t12.5 -30t-12.5 -30.5t-30.5 -12.5h-233q-19 0 -31.5 12.5t-12.5 30.5t12.5 30t31.5 12h233zM134 0q-22 0 -36.5 14.5t-14.5 36.5v558q0 22 14.5 36.5t36.5 14.5h339q21 0 35 -14t14 -34t-14 -33.5t-35 -13.5h-284v-169h205q20 0 33.5 -13
t13.5 -33t-13.5 -33t-33.5 -13h-205v-209h296q21 0 35 -13.5t14 -33.5t-14 -34t-35 -14h-351z" />
    <glyph glyph-name="emacron" unicode="&#x113;" horiz-adv-x="570" 
d="M191 632q-19 0 -31.5 12t-12.5 30t12.5 30t31.5 12h212q19 0 31.5 -12t12.5 -30t-12.5 -30t-31.5 -12h-212zM298 502q98 0 163 -64.5t65 -163.5v-5q0 -27 -16 -42.5t-44 -15.5h-314q11 -60 53 -94.5t107 -34.5t115 38q15 10 27 10q19 0 31.5 -12.5t12.5 -31.5
q0 -25 -26 -44q-71 -53 -163 -53q-114 0 -189 73t-75 183q0 109 73 183t180 74zM295 413q-53 0 -91 -33t-50 -87h267q-2 54 -36.5 87t-89.5 33z" />
    <glyph glyph-name="Ebreve" unicode="&#x114;" horiz-adv-x="569" 
d="M299 729q-63 0 -111 40t-48 93q0 18 12 30.5t30 12.5q28 0 41 -35q19 -61 76 -61q59 0 77 61q12 35 40 35q18 0 30 -12.5t12 -30.5q0 -53 -48 -93t-111 -40zM134 0q-22 0 -36.5 14.5t-14.5 36.5v558q0 22 14.5 36.5t36.5 14.5h339q21 0 35 -14t14 -34t-14 -33.5
t-35 -13.5h-284v-169h205q20 0 33.5 -13t13.5 -33t-13.5 -33t-33.5 -13h-205v-209h296q21 0 35 -13.5t14 -33.5t-14 -34t-35 -14h-351z" />
    <glyph glyph-name="ebreve" unicode="&#x115;" horiz-adv-x="570" 
d="M297 577q-64 0 -112.5 44t-48.5 101q0 19 12 32t30 13q34 0 42 -37q4 -31 26 -50.5t51 -19.5q30 0 51.5 19.5t26.5 50.5q8 37 41 37q18 0 30.5 -13t12.5 -32q0 -59 -48 -102t-114 -43zM298 502q98 0 163 -64.5t65 -163.5v-5q0 -27 -16 -42.5t-44 -15.5h-314
q11 -60 53 -94.5t107 -34.5t115 38q15 10 27 10q19 0 31.5 -12.5t12.5 -31.5q0 -25 -26 -44q-71 -53 -163 -53q-114 0 -189 73t-75 183q0 109 73 183t180 74zM295 413q-53 0 -91 -33t-50 -87h267q-2 54 -36.5 87t-89.5 33z" />
    <glyph glyph-name="Edotaccent" unicode="&#x116;" horiz-adv-x="569" 
d="M299 880q29 0 49.5 -20t20.5 -48t-20.5 -48t-49.5 -20t-49.5 20t-20.5 48t20.5 48t49.5 20zM134 0q-22 0 -36.5 14.5t-14.5 36.5v558q0 22 14.5 36.5t36.5 14.5h339q21 0 35 -14t14 -34t-14 -33.5t-35 -13.5h-284v-169h205q20 0 33.5 -13t13.5 -33t-13.5 -33t-33.5 -13
h-205v-209h296q21 0 35 -13.5t14 -33.5t-14 -34t-35 -14h-351z" />
    <glyph glyph-name="edotaccent" unicode="&#x117;" horiz-adv-x="570" 
d="M297 606q-29 0 -49.5 20t-20.5 48t20.5 48t49.5 20t49.5 -20t20.5 -48t-20.5 -48t-49.5 -20zM298 502q98 0 163 -64.5t65 -163.5v-5q0 -27 -16 -42.5t-44 -15.5h-314q11 -60 53 -94.5t107 -34.5t115 38q15 10 27 10q19 0 31.5 -12.5t12.5 -31.5q0 -25 -26 -44
q-71 -53 -163 -53q-114 0 -189 73t-75 183q0 109 73 183t180 74zM295 413q-53 0 -91 -33t-50 -87h267q-2 54 -36.5 87t-89.5 33z" />
    <glyph glyph-name="Eogonek" unicode="&#x118;" horiz-adv-x="569" 
d="M500 -110q14 0 24 -10t10 -25q0 -30 -32 -39q-20 -7 -57 -7q-51 0 -82 25.5t-31 67.5q0 49 54 98h-252q-22 0 -36.5 14.5t-14.5 36.5v558q0 22 14.5 36.5t36.5 14.5h339q21 0 35 -14t14 -34t-14 -33.5t-35 -13.5h-284v-169h205q20 0 33.5 -13t13.5 -33t-13.5 -33
t-33.5 -13h-205v-209h296q21 0 35 -13.5t14 -33.5q0 -11 -5 -21q-3 -8 -12 -16l-42 -33q-44 -35 -44 -58q0 -31 44 -31q4 0 13 0.5t12 0.5z" />
    <glyph glyph-name="eogonek" unicode="&#x119;" horiz-adv-x="570" 
d="M298 502q98 0 163 -64.5t65 -163.5v-5q0 -27 -16 -42.5t-44 -15.5h-314q11 -60 53 -94.5t107 -34.5t115 38q15 10 27 10q19 0 31.5 -12.5t12.5 -31.5q0 -25 -26 -44q-2 -1 -5 -4t-5 -4l-35 -25q-26 -17 -39.5 -27.5t-26.5 -27t-13 -32.5t12 -25t32 -9q4 0 13 1t11 1
q15 0 24.5 -10t9.5 -25q0 -30 -31 -39q-21 -7 -57 -7q-52 0 -83 26t-31 71q0 41 40 84q-106 7 -174.5 78.5t-68.5 176.5q0 109 73 183t180 74zM295 413q-53 0 -91 -33t-50 -87h267q-2 54 -36.5 87t-89.5 33z" />
    <glyph glyph-name="Ecaron" unicode="&#x11a;" horiz-adv-x="569" 
d="M265 736l-109 108q-20 20 -20 35q0 17 11 28t28 11q15 0 31 -13l93 -87l93 87q16 13 31 13q17 0 28 -11t11 -28q0 -15 -20 -35l-109 -108q-15 -15 -34 -15t-34 15zM485 95q21 0 35 -13.5t14 -33.5t-14 -34t-35 -14h-351q-22 0 -36.5 14.5t-14.5 36.5v558q0 22 14.5 36.5
t36.5 14.5h339q21 0 35 -14t14 -34t-14 -33.5t-35 -13.5h-284v-169h205q20 0 33.5 -13t13.5 -33t-13.5 -33t-33.5 -13h-205v-209h296z" />
    <glyph glyph-name="ecaron" unicode="&#x11b;" horiz-adv-x="570" 
d="M257 585l-102 130q-12 13 -12 30q0 18 12.5 30t29.5 12q19 0 30 -14l82 -93l81 93q12 14 31 14q17 0 29.5 -12t12.5 -30q0 -15 -12 -30l-103 -130q-15 -19 -39 -19t-40 19zM298 502q98 0 163 -64.5t65 -163.5v-5q0 -27 -16 -42.5t-44 -15.5h-314q11 -60 53 -94.5
t107 -34.5t115 38q15 10 27 10q19 0 31.5 -12.5t12.5 -31.5q0 -25 -26 -44q-71 -53 -163 -53q-114 0 -189 73t-75 183q0 109 73 183t180 74zM295 413q-53 0 -91 -33t-50 -87h267q-2 54 -36.5 87t-89.5 33z" />
    <glyph glyph-name="Gcircumflex" unicode="&#x11c;" horiz-adv-x="746" 
d="M266 721q-16 0 -27.5 11.5t-11.5 27.5q0 15 20 35l109 108q15 15 34 15t34 -15l109 -108q20 -20 20 -35q0 -16 -11.5 -27.5t-27.5 -11.5q-15 0 -31 13l-93 87l-93 -87q-16 -13 -31 -13zM645 349q23 0 38.5 -15.5t15.5 -39.5v-96q0 -37 -18 -65q-46 -66 -124.5 -105
t-165.5 -39q-147 0 -247.5 98t-100.5 243t100.5 243t247.5 98q73 0 140 -29t108 -79q25 -26 25 -49q0 -19 -14 -33.5t-35 -14.5q-24 0 -46 25q-77 83 -179 83q-103 0 -170 -68.5t-67 -174.5q0 -108 68.5 -177.5t174.5 -69.5q62 0 114 25t83 70v76h-157q-22 0 -37 13.5
t-15 33.5t15 33.5t37 13.5h209z" />
    <glyph glyph-name="gcircumflex" unicode="&#x11d;" horiz-adv-x="634" 
d="M198 566q-17 0 -29.5 12t-12.5 30q0 16 12 30l102 130q16 19 40 19t39 -19l103 -130q12 -15 12 -30q0 -18 -12.5 -30t-29.5 -12q-19 0 -31 14l-81 93l-82 -93q-10 -14 -30 -14zM507 502q22 0 36.5 -15.5t14.5 -38.5v-397q0 -113 -65.5 -177.5t-180.5 -64.5
q-124 0 -213 73q-20 17 -20 38q0 20 14 34t34 14q17 0 30 -10q72 -53 149 -53q70 0 108.5 36.5t38.5 103.5v35q-59 -70 -166 -70q-104 0 -171.5 69.5t-67.5 176.5t67.5 176.5t171.5 69.5q110 0 167 -73v19q0 23 15 38.5t38 15.5zM306 102q67 0 107.5 42.5t40.5 112.5
q0 68 -40.5 109.5t-107.5 41.5q-65 0 -107.5 -42.5t-42.5 -109.5t42.5 -110.5t107.5 -43.5z" />
    <glyph glyph-name="Gbreve" unicode="&#x11e;" horiz-adv-x="746" 
d="M391 729q-63 0 -111 40t-48 93q0 18 12 30.5t30 12.5q28 0 41 -35q19 -61 76 -61q59 0 77 61q12 35 40 35q18 0 30 -12.5t12 -30.5q0 -53 -48 -93t-111 -40zM391 -11q-147 0 -247.5 98t-100.5 243t100.5 243t247.5 98q73 0 140 -29t108 -79q25 -26 25 -49
q0 -19 -14 -33.5t-35 -14.5q-24 0 -46 25q-77 83 -179 83q-103 0 -170 -68.5t-67 -174.5q0 -108 68.5 -177.5t174.5 -69.5q62 0 114 25t83 70v76h-157q-22 0 -37 13.5t-15 33.5t15 33.5t37 13.5h209q23 0 38.5 -15.5t15.5 -39.5v-96q0 -37 -18 -65q-46 -66 -124.5 -105
t-165.5 -39z" />
    <glyph glyph-name="gbreve" unicode="&#x11f;" horiz-adv-x="634" 
d="M310 577q-64 0 -112.5 44t-48.5 101q0 19 12 32t30 13q34 0 42 -37q4 -31 26 -50.5t51 -19.5q30 0 51.5 19.5t26.5 50.5q8 37 41 37q18 0 30.5 -13t12.5 -32q0 -59 -48 -102t-114 -43zM507 502q22 0 36.5 -15.5t14.5 -38.5v-397q0 -113 -65.5 -177.5t-180.5 -64.5
q-124 0 -213 73q-20 17 -20 38q0 20 14 34t34 14q17 0 30 -10q72 -53 149 -53q70 0 108.5 36.5t38.5 103.5v35q-59 -70 -166 -70q-104 0 -171.5 69.5t-67.5 176.5t67.5 176.5t171.5 69.5q110 0 167 -73v19q0 23 15 38.5t38 15.5zM306 102q67 0 107.5 42.5t40.5 112.5
q0 68 -40.5 109.5t-107.5 41.5q-65 0 -107.5 -42.5t-42.5 -109.5t42.5 -110.5t107.5 -43.5z" />
    <glyph glyph-name="Gdotaccent" unicode="&#x120;" horiz-adv-x="746" 
d="M391 880q29 0 49.5 -20t20.5 -48t-20.5 -48t-49.5 -20t-49.5 20t-20.5 48t20.5 48t49.5 20zM391 -11q-147 0 -247.5 98t-100.5 243t100.5 243t247.5 98q73 0 140 -29t108 -79q25 -26 25 -49q0 -19 -14 -33.5t-35 -14.5q-24 0 -46 25q-77 83 -179 83q-103 0 -170 -68.5
t-67 -174.5q0 -108 68.5 -177.5t174.5 -69.5q62 0 114 25t83 70v76h-157q-22 0 -37 13.5t-15 33.5t15 33.5t37 13.5h209q23 0 38.5 -15.5t15.5 -39.5v-96q0 -37 -18 -65q-46 -66 -124.5 -105t-165.5 -39z" />
    <glyph glyph-name="gdotaccent" unicode="&#x121;" horiz-adv-x="634" 
d="M310 606q-29 0 -49.5 20t-20.5 48t20.5 48t49.5 20t49.5 -20t20.5 -48t-20.5 -48t-49.5 -20zM507 502q22 0 36.5 -15.5t14.5 -38.5v-397q0 -113 -65.5 -177.5t-180.5 -64.5q-124 0 -213 73q-20 17 -20 38q0 20 14 34t34 14q17 0 30 -10q72 -53 149 -53q70 0 108.5 36.5
t38.5 103.5v35q-59 -70 -166 -70q-104 0 -171.5 69.5t-67.5 176.5t67.5 176.5t171.5 69.5q110 0 167 -73v19q0 23 15 38.5t38 15.5zM306 102q67 0 107.5 42.5t40.5 112.5q0 68 -40.5 109.5t-107.5 41.5q-65 0 -107.5 -42.5t-42.5 -109.5t42.5 -110.5t107.5 -43.5z" />
    <glyph glyph-name="Gcommaaccent" unicode="&#x122;" horiz-adv-x="746" 
d="M391 -11q-147 0 -247.5 98t-100.5 243t100.5 243t247.5 98q73 0 140 -29t108 -79q25 -26 25 -49q0 -19 -14 -33.5t-35 -14.5q-24 0 -46 25q-77 83 -179 83q-103 0 -170 -68.5t-67 -174.5q0 -108 68.5 -177.5t174.5 -69.5q62 0 114 25t83 70v76h-157q-22 0 -37 13.5
t-15 33.5t15 33.5t37 13.5h209q23 0 38.5 -15.5t15.5 -39.5v-96q0 -37 -18 -65q-46 -66 -124.5 -105t-165.5 -39zM365 -237q-18 0 -32 13.5t-14 30.5q0 8 6.5 36.5t6.5 59.5q0 22 15.5 37.5t37.5 15.5t37.5 -15.5t15.5 -37.5q0 -62 -28 -107q-19 -33 -45 -33z" />
    <glyph glyph-name="gcommaaccent" unicode="&#x123;" horiz-adv-x="634" 
d="M309 562q-22 0 -37 15t-15 37q0 70 30 157q14 38 47 38q17 0 30 -12.5t13 -31.5q0 -9 -4 -29q-12 -75 -12 -122q0 -22 -15.5 -37t-36.5 -15zM507 502q22 0 36.5 -15.5t14.5 -38.5v-397q0 -113 -65.5 -177.5t-180.5 -64.5q-124 0 -213 73q-20 17 -20 38q0 20 14 34t34 14
q17 0 30 -10q72 -53 149 -53q70 0 108.5 36.5t38.5 103.5v35q-59 -70 -166 -70q-104 0 -171.5 69.5t-67.5 176.5t67.5 176.5t171.5 69.5q110 0 167 -73v19q0 23 15 38.5t38 15.5zM306 102q67 0 107.5 42.5t40.5 112.5q0 68 -40.5 109.5t-107.5 41.5q-65 0 -107.5 -42.5
t-42.5 -109.5t42.5 -110.5t107.5 -43.5z" />
    <glyph glyph-name="Hcircumflex" unicode="&#x124;" horiz-adv-x="710" 
d="M230 721q-16 0 -27.5 11.5t-11.5 27.5q0 15 20 35l109 108q15 15 34 15t34 -15l109 -108q20 -20 20 -35q0 -16 -11.5 -27.5t-27.5 -11.5q-15 0 -31 13l-93 87l-93 -87q-16 -13 -31 -13zM574 671q23 0 38 -15.5t15 -38.5v-574q0 -23 -15 -38.5t-38 -15.5t-38 15.5
t-15 38.5v259h-332v-259q0 -23 -15 -38.5t-38 -15.5t-38 15.5t-15 38.5v574q0 23 15 38.5t38 15.5t38 -15.5t15 -38.5v-220h332v220q0 23 15 38.5t38 15.5z" />
    <glyph glyph-name="hcircumflex" unicode="&#x125;" horiz-adv-x="575" 
d="M180 911l-93 -87q-16 -13 -31 -13q-16 0 -27.5 11.5t-11.5 27.5q0 15 20 35l109 108q15 15 34 15t34 -15l109 -108q20 -20 20 -35q0 -16 -11.5 -27.5t-27.5 -11.5q-15 0 -31 13zM323 502q83 0 132.5 -53.5t49.5 -141.5v-264q0 -24 -15 -39t-37 -15q-23 0 -38 15.5
t-15 38.5v249q0 52 -29.5 83t-77.5 31q-49 0 -80.5 -32t-31.5 -82v-249q0 -24 -14.5 -39t-37.5 -15t-38 15.5t-15 38.5v664q0 23 15 38.5t38 15.5t37.5 -15t14.5 -39v-265q54 60 142 60z" />
    <glyph glyph-name="Hbar" unicode="&#x126;" horiz-adv-x="725" 
d="M143 -11q-23 0 -38 15.5t-15 38.5v405h-56q-19 0 -32 13t-13 32t13 31.5t32 12.5h56v80q0 23 15 38.5t38 15.5t38 -15.5t15 -38.5v-80h332v80q0 23 15 38.5t38 15.5t38 -15.5t15 -38.5v-80h56q20 0 33 -12.5t13 -31.5t-13 -32t-33 -13h-56v-405q0 -23 -15 -38.5
t-38 -15.5t-38 15.5t-15 38.5v191h-332v-191q0 -23 -15 -38.5t-38 -15.5zM196 327h332v121h-332v-121z" />
    <glyph glyph-name="hbar" unicode="&#x127;" horiz-adv-x="581" 
d="M328 481q83 0 133 -53.5t50 -142.5v-242q0 -24 -15 -39t-38 -15t-38 15.5t-15 38.5v229q0 50 -29.5 81t-76.5 31q-50 0 -81.5 -31.5t-31.5 -80.5v-229q0 -23 -15 -38.5t-37 -15.5t-37 15.5t-15 38.5v522h-41q-19 0 -32.5 13t-13.5 32t13 32t33 13h41v52q0 24 14.5 39
t37.5 15q22 0 37 -15.5t15 -38.5v-52h157q19 0 32 -13t13 -32t-13 -32t-32 -13h-157v-145q52 61 142 61z" />
    <glyph glyph-name="Itilde" unicode="&#x128;" horiz-adv-x="272" 
d="M-1 729q-20 0 -32 13t-12 34q0 49 28.5 81.5t72.5 32.5q37 0 72 -22l33 -20q31 -18 43 -18q25 0 30 28q5 36 41 36q19 0 31.5 -13t12.5 -33q0 -50 -29 -82.5t-73 -32.5q-34 0 -72 22l-32 20q-32 18 -44 18q-26 0 -29 -28q-7 -36 -41 -36zM136 -11q-23 0 -38 15.5
t-15 38.5v574q0 23 15 38.5t38 15.5t38 -15.5t15 -38.5v-574q0 -23 -15 -38.5t-38 -15.5z" />
    <glyph glyph-name="itilde" unicode="&#x129;" horiz-adv-x="257" 
d="M196 587q-31 0 -66 28l-19 17q-23 20 -36 20q-23 0 -26 -29q-3 -17 -14 -27t-27 -10q-19 0 -31 13t-12 35q0 50 27.5 82t70.5 32q32 0 66 -27l19 -17q22 -20 36 -20q23 0 26 29q7 37 41 37q19 0 31 -13.5t12 -34.5q0 -50 -27.5 -82.5t-70.5 -32.5zM128 -11
q-22 0 -37 15.5t-15 38.5v405q0 23 15 38.5t38 15.5q22 0 37 -15.5t15 -38.5v-405q0 -23 -15 -38.5t-38 -15.5z" />
    <glyph glyph-name="Imacron" unicode="&#x12a;" horiz-adv-x="272" 
d="M254 848q18 0 30.5 -12t12.5 -30t-12.5 -30.5t-30.5 -12.5h-233q-19 0 -31.5 12.5t-12.5 30.5t12.5 30t31.5 12h233zM136 -11q-23 0 -38 15.5t-15 38.5v574q0 23 15 38.5t38 15.5t38 -15.5t15 -38.5v-574q0 -23 -15 -38.5t-38 -15.5z" />
    <glyph glyph-name="imacron" unicode="&#x12b;" horiz-adv-x="257" 
d="M211 716q19 0 31 -12t12 -30t-12 -30t-31 -12h-164q-19 0 -31 12t-12 30t12 30t31 12h164zM128 -11q-22 0 -37 15.5t-15 38.5v405q0 23 15 38.5t38 15.5q22 0 37 -15.5t15 -38.5v-405q0 -23 -15 -38.5t-38 -15.5z" />
    <glyph glyph-name="Ibreve" unicode="&#x12c;" horiz-adv-x="272" 
d="M137 729q-63 0 -111 40t-48 93q0 18 12 30.5t30 12.5q28 0 41 -35q19 -61 76 -61q59 0 77 61q12 35 40 35q18 0 30 -12.5t12 -30.5q0 -53 -48 -93t-111 -40zM136 -11q-23 0 -38 15.5t-15 38.5v574q0 23 15 38.5t38 15.5t38 -15.5t15 -38.5v-574q0 -23 -15 -38.5
t-38 -15.5z" />
    <glyph glyph-name="ibreve" unicode="&#x12d;" horiz-adv-x="257" 
d="M129 577q-64 0 -112.5 44t-48.5 101q0 19 12 32t30 13q34 0 42 -37q4 -31 26 -50.5t51 -19.5q30 0 51.5 19.5t26.5 50.5q8 37 41 37q18 0 30.5 -13t12.5 -32q0 -59 -48 -102t-114 -43zM128 -11q-22 0 -37 15.5t-15 38.5v405q0 23 15 38.5t38 15.5q22 0 37 -15.5t15 -38.5
v-405q0 -23 -15 -38.5t-38 -15.5z" />
    <glyph glyph-name="Iogonek" unicode="&#x12e;" horiz-adv-x="272" 
d="M171 -110q15 0 24.5 -10t9.5 -26q0 -29 -32 -38q-20 -7 -57 -7q-51 0 -82 26.5t-31 71.5q0 35 19 61t63 61q-2 8 -2 14v574q0 23 15 38.5t38 15.5t38 -15.5t15 -38.5v-574v-4v-3q0 -22 -24 -40q-63 -47 -63 -76q0 -31 44 -31q6 0 14 0.5t11 0.5z" />
    <glyph glyph-name="iogonek" unicode="&#x12f;" horiz-adv-x="257" 
d="M129 606q-29 0 -49.5 20t-20.5 48t20.5 48t49.5 20t49.5 -20t20.5 -48t-20.5 -48t-49.5 -20zM163 -110q15 0 24.5 -10t9.5 -26q0 -29 -32 -38q-20 -7 -57 -7q-51 0 -82 26.5t-31 71.5q0 35 19.5 61.5t62.5 61.5q0 2 -0.5 6t-0.5 7v405q0 23 15 38.5t38 15.5
q22 0 37 -15.5t15 -38.5v-405v-4v-3q0 -22 -24 -40q-63 -47 -63 -76q0 -31 44 -31q6 0 14 0.5t11 0.5z" />
    <glyph glyph-name="Idotaccent" unicode="&#x130;" horiz-adv-x="272" 
d="M137 880q29 0 49.5 -20t20.5 -48t-20.5 -48t-49.5 -20t-49.5 20t-20.5 48t20.5 48t49.5 20zM136 -11q-23 0 -38 15.5t-15 38.5v574q0 23 15 38.5t38 15.5t38 -15.5t15 -38.5v-574q0 -23 -15 -38.5t-38 -15.5z" />
    <glyph glyph-name="dotlessi" unicode="&#x131;" horiz-adv-x="257" 
d="M128 -11q-22 0 -37 15.5t-15 38.5v405q0 23 15 38.5t38 15.5q22 0 37 -15.5t15 -38.5v-405q0 -23 -15 -38.5t-38 -15.5z" />
    <glyph glyph-name="IJ" unicode="&#x132;" horiz-adv-x="653" 
d="M136 -11q-23 0 -38 15.5t-15 38.5v574q0 23 15 38.5t38 15.5t38 -15.5t15 -38.5v-574q0 -23 -15 -38.5t-38 -15.5zM381 -11q-41 0 -64 8q-34 12 -34 47q0 20 14.5 34t36.5 14q10 0 28 -2.5t30 -2.5q34 0 53 21.5t19 59.5v449q0 23 15 38.5t38 15.5t38 -15.5t15 -38.5
v-453q0 -85 -48.5 -130t-140.5 -45z" />
    <glyph glyph-name="ij" unicode="&#x133;" horiz-adv-x="514" 
d="M129 742q29 0 49.5 -20t20.5 -48t-20.5 -48t-49.5 -20t-49.5 20t-20.5 48t20.5 48t49.5 20zM386 742q29 0 49.5 -20t20.5 -48t-20.5 -48t-49.5 -20t-49.5 20t-20.5 48t20.5 48t49.5 20zM128 -11q-22 0 -37 15.5t-15 38.5v405q0 23 15 38.5t38 15.5q22 0 37 -15.5
t15 -38.5v-405q0 -23 -15 -38.5t-38 -15.5zM266 -191q-26 0 -46 6q-38 10 -38 44q0 19 13 32.5t33 13.5q3 0 9 -0.5t10 -0.5q41 0 63.5 20t22.5 70v454q0 23 15 38.5t38 15.5q22 0 37 -15.5t15 -38.5v-468q0 -85 -46 -128t-126 -43z" />
    <glyph glyph-name="Jcircumflex" unicode="&#x134;" horiz-adv-x="381" 
d="M374 795q20 -20 20 -35q0 -16 -11 -27.5t-28 -11.5q-15 0 -31 13l-93 87l-93 -87q-16 -13 -31 -13q-17 0 -28 11.5t-11 27.5q0 15 20 35l109 108q15 15 34 15t34 -15zM245 671q23 0 38 -15.5t15 -38.5v-453q0 -85 -48.5 -130t-140.5 -45q-41 0 -64 8q-34 12 -34 47
q0 20 14.5 34t36.5 14q10 0 28 -2.5t30 -2.5q34 0 53 21.5t19 59.5v449q0 23 15 38.5t38 15.5z" />
    <glyph glyph-name="jcircumflex" unicode="&#x135;" horiz-adv-x="257" 
d="M271 638q12 -15 12 -30q0 -18 -12.5 -30t-29.5 -12q-19 0 -31 14l-81 93l-82 -93q-11 -14 -30 -14q-17 0 -29.5 12t-12.5 30q0 16 12 30l102 130q16 19 40 19t39 -19zM129 502q22 0 37 -15.5t15 -38.5v-468q0 -85 -46 -128t-126 -43q-27 0 -46 6q-38 10 -38 44
q0 19 13.5 32.5t32.5 13.5q3 0 9 -0.5t10 -0.5q41 0 63.5 20t22.5 70v454q0 23 15 38.5t38 15.5z" />
    <glyph glyph-name="Kcommaaccent" unicode="&#x136;" horiz-adv-x="651" 
d="M136 671q23 0 38 -15.5t15 -38.5v-574q0 -23 -15 -38.5t-38 -15.5t-38 15.5t-15 38.5v574q0 23 15 38.5t38 15.5zM587 73q17 -17 17 -35q0 -20 -14.5 -34.5t-34.5 -14.5q-23 0 -43 21l-283 306q-16 18 -16 36q0 17 16 35l263 265q19 19 39 19t34 -14t14 -34t-18 -39
l-231 -232zM316 -44q22 0 37.5 -15.5t15.5 -37.5q0 -62 -28 -107q-19 -33 -45 -33q-18 0 -32 13.5t-14 30.5q0 8 6.5 36.5t6.5 59.5q0 22 15.5 37.5t37.5 15.5z" />
    <glyph glyph-name="kcommaaccent" unicode="&#x137;" horiz-adv-x="533" 
d="M129 761q23 0 37.5 -15t14.5 -39v-664q0 -24 -14.5 -39t-37.5 -15t-38 15.5t-15 38.5v664q0 23 15 38.5t38 15.5zM492 73q14 -15 14 -35q0 -21 -14.5 -35t-34.5 -14q-24 0 -42 21l-193 223q-16 20 -16 38q0 21 17 39l177 176q16 16 38 16q21 0 35.5 -14t14.5 -34
q0 -19 -20 -39l-147 -143zM267 -44q22 0 37.5 -15.5t15.5 -37.5q0 -62 -28 -107q-19 -33 -45 -33q-18 0 -32 13.5t-14 30.5q0 8 6.5 36.5t6.5 59.5q0 22 15.5 37.5t37.5 15.5z" />
    <glyph glyph-name="Lacute" unicode="&#x139;" horiz-adv-x="515" 
d="M151 723q-27 1 -38.5 24.5t-0.5 44.5l58 112q16 30 51 28q30 -2 43.5 -29.5t-4.5 -54.5l-67 -102q-16 -23 -42 -23zM138 0q-24 0 -39.5 15.5t-15.5 39.5v562q0 23 15 38.5t38 15.5t38 -15.5t15 -38.5v-522h259q21 0 34.5 -13.5t13.5 -33.5t-13.5 -34t-34.5 -14h-310z" />
    <glyph glyph-name="lacute" unicode="&#x13a;" horiz-adv-x="257" 
d="M144 813q-27 1 -38.5 24.5t-0.5 44.5l58 112q16 30 51 28q30 -2 43.5 -29.5t-4.5 -54.5l-67 -102q-16 -23 -42 -23zM129 -11q-23 0 -38 15.5t-15 38.5v664q0 23 15 38.5t38 15.5q22 0 37 -15.5t15 -38.5v-664q0 -23 -15 -38.5t-37 -15.5z" />
    <glyph glyph-name="Lcommaaccent" unicode="&#x13b;" horiz-adv-x="515" 
d="M138 0q-24 0 -39.5 15.5t-15.5 39.5v562q0 23 15 38.5t38 15.5t38 -15.5t15 -38.5v-522h259q21 0 34.5 -13.5t13.5 -33.5t-13.5 -34t-34.5 -14h-310zM258 -237q-18 0 -32 13.5t-14 30.5q0 8 6.5 36.5t6.5 59.5q0 22 15.5 37.5t37.5 15.5t37.5 -15.5t15.5 -37.5
q0 -62 -28 -107q-19 -33 -45 -33z" />
    <glyph glyph-name="lcommaaccent" unicode="&#x13c;" horiz-adv-x="257" 
d="M129 -11q-23 0 -38 15.5t-15 38.5v664q0 23 15 38.5t38 15.5q22 0 37 -15.5t15 -38.5v-664q0 -23 -15 -38.5t-37 -15.5zM107 -237q-18 0 -32 13.5t-14 30.5q0 8 6.5 36.5t6.5 59.5q0 22 15.5 37.5t37.5 15.5t37.5 -15.5t15.5 -37.5q0 -62 -28 -107q-19 -33 -45 -33z" />
    <glyph glyph-name="Lcaron" unicode="&#x13d;" horiz-adv-x="515" 
d="M412 504q-21 0 -35.5 16.5t-10.5 41.5l19 129q2 20 17.5 34.5t36.5 14.5q26 0 42.5 -20.5t7.5 -51.5l-32 -129q-11 -35 -45 -35zM138 0q-24 0 -39.5 15.5t-15.5 39.5v562q0 23 15 38.5t38 15.5t38 -15.5t15 -38.5v-522h259q21 0 34.5 -13.5t13.5 -33.5t-13.5 -34
t-34.5 -14h-310z" />
    <glyph glyph-name="lcaron" unicode="&#x13e;" horiz-adv-x="400" 
d="M313 534q-21 0 -35.5 16.5t-10.5 41.5l19 129q2 20 17.5 34.5t36.5 14.5q26 0 42.5 -20.5t7.5 -51.5l-32 -129q-11 -35 -45 -35zM129 -11q-23 0 -38 15.5t-15 38.5v664q0 23 15 38.5t38 15.5q22 0 37 -15.5t15 -38.5v-664q0 -23 -15 -38.5t-37 -15.5z" />
    <glyph glyph-name="Ldot" unicode="&#x13f;" horiz-adv-x="515" 
d="M138 0q-24 0 -39.5 15.5t-15.5 39.5v562q0 23 15 38.5t38 15.5t38 -15.5t15 -38.5v-522h259q21 0 34.5 -13.5t13.5 -33.5t-13.5 -34t-34.5 -14h-310zM395 296q-33 0 -56 22.5t-23 54.5t23 55t56 23q32 0 54.5 -23t22.5 -55t-22.5 -54.5t-54.5 -22.5z" />
    <glyph glyph-name="ldot" unicode="&#x140;" horiz-adv-x="361" 
d="M129 -11q-23 0 -38 15.5t-15 38.5v664q0 23 15 38.5t38 15.5q22 0 37 -15.5t15 -38.5v-664q0 -23 -15 -38.5t-37 -15.5zM308 240q-33 0 -56 22.5t-23 54.5t23 55t56 23q32 0 54.5 -23t22.5 -55t-22.5 -54.5t-54.5 -22.5z" />
    <glyph glyph-name="Lslash" unicode="&#x141;" horiz-adv-x="515" 
d="M448 95q21 0 34.5 -13.5t13.5 -33.5t-13.5 -34t-34.5 -14h-310q-24 0 -39.5 15.5t-15.5 39.5v174l-13 -6q-24 -11 -46 1t-22 37q0 31 34 46l47 21v289q0 23 15 38.5t38 15.5t38 -15.5t15 -38.5v-248l148 68q25 11 46.5 -1t21.5 -37q0 -31 -34 -46l-182 -82v-176h259z" />
    <glyph glyph-name="lslash" unicode="&#x142;" horiz-adv-x="350" 
d="M267 436q19 0 32.5 -13t12.5 -32q0 -28 -27 -41l-65 -30v-277q0 -23 -15 -38.5t-37 -15.5q-23 0 -38 15.5t-15 38.5v239l-18 -8q-10 -4 -20 -4q-19 0 -32.5 13t-12.5 32q0 28 27 41l56 26v325q0 23 15 38.5t38 15.5q22 0 37 -15.5t15 -38.5v-288l27 12q8 5 20 5z" />
    <glyph glyph-name="Nacute" unicode="&#x143;" horiz-adv-x="710" 
d="M370 723q-27 1 -38.5 24.5t-0.5 44.5l58 112q16 30 51 28q30 -2 43.5 -29.5t-4.5 -54.5l-67 -102q-16 -23 -42 -23zM574 671q23 0 38 -15.5t15 -38.5v-576q0 -22 -15 -37t-37 -15q-27 0 -50 30l-336 443v-419q0 -23 -15 -38.5t-38 -15.5t-38 15.5t-15 38.5v576
q0 22 15 37t37 15q17 0 28 -8t25 -27l334 -437l-1 418q0 23 15 38.5t38 15.5z" />
    <glyph glyph-name="nacute" unicode="&#x144;" horiz-adv-x="575" 
d="M301 564q-21 1 -34 15t-12 32q0 10 7 24l54 125q14 31 50 31q22 0 37 -15.5t15 -38.5q0 -13 -8 -28l-67 -118q-17 -28 -42 -27zM321 502q84 0 134 -53t50 -142v-264q0 -24 -15 -39t-37 -15q-23 0 -38 15.5t-15 38.5v250q0 51 -29.5 82.5t-77.5 31.5q-49 0 -80.5 -32
t-31.5 -82v-250q0 -24 -14.5 -39t-37.5 -15t-38 15.5t-15 38.5v405q0 23 15 38.5t38 15.5q22 0 36.5 -15.5t14.5 -38.5q56 54 141 54z" />
    <glyph glyph-name="Ncommaaccent" unicode="&#x145;" horiz-adv-x="710" 
d="M574 671q23 0 38 -15.5t15 -38.5v-576q0 -22 -15 -37t-37 -15q-27 0 -50 30l-336 443v-419q0 -23 -15 -38.5t-38 -15.5t-38 15.5t-15 38.5v576q0 22 15 37t37 15q17 0 28 -8t25 -27l334 -437l-1 418q0 23 15 38.5t38 15.5zM353 -44q22 0 37.5 -15.5t15.5 -37.5
q0 -62 -28 -107q-19 -33 -45 -33q-18 0 -32 13.5t-14 30.5q0 8 6.5 36.5t6.5 59.5q0 22 15.5 37.5t37.5 15.5z" />
    <glyph glyph-name="ncommaaccent" unicode="&#x146;" horiz-adv-x="575" 
d="M321 502q84 0 134 -53t50 -142v-264q0 -24 -15 -39t-37 -15q-23 0 -38 15.5t-15 38.5v250q0 51 -29.5 82.5t-77.5 31.5q-49 0 -80.5 -32t-31.5 -82v-250q0 -24 -14.5 -39t-37.5 -15t-38 15.5t-15 38.5v405q0 23 15 38.5t38 15.5q22 0 36.5 -15.5t14.5 -38.5q56 54 141 54
zM289 -44q22 0 37.5 -15.5t15.5 -37.5q0 -62 -28 -107q-19 -33 -45 -33q-18 0 -32 13.5t-14 30.5q0 8 6.5 36.5t6.5 59.5q0 22 15.5 37.5t37.5 15.5z" />
    <glyph glyph-name="Ncaron" unicode="&#x147;" horiz-adv-x="710" 
d="M321 736l-109 108q-20 20 -20 35q0 17 11 28t28 11q15 0 31 -13l93 -87l93 87q16 13 31 13q17 0 28 -11t11 -28q0 -15 -20 -35l-109 -108q-15 -15 -34 -15t-34 15zM574 671q23 0 38 -15.5t15 -38.5v-576q0 -22 -15 -37t-37 -15q-27 0 -50 30l-336 443v-419
q0 -23 -15 -38.5t-38 -15.5t-38 15.5t-15 38.5v576q0 22 15 37t37 15q17 0 28 -8t25 -27l334 -437l-1 418q0 23 15 38.5t38 15.5z" />
    <glyph glyph-name="ncaron" unicode="&#x148;" horiz-adv-x="575" 
d="M243 585l-102 130q-12 13 -12 30q0 18 12.5 30t29.5 12q19 0 30 -14l82 -93l81 93q12 14 31 14q17 0 29.5 -12t12.5 -30q0 -15 -12 -30l-103 -130q-15 -19 -39 -19t-40 19zM321 502q84 0 134 -53t50 -142v-264q0 -24 -15 -39t-37 -15q-23 0 -38 15.5t-15 38.5v250
q0 51 -29.5 82.5t-77.5 31.5q-49 0 -80.5 -32t-31.5 -82v-250q0 -24 -14.5 -39t-37.5 -15t-38 15.5t-15 38.5v405q0 23 15 38.5t38 15.5q22 0 36.5 -15.5t14.5 -38.5q56 54 141 54z" />
    <glyph glyph-name="Eng" unicode="&#x14a;" horiz-adv-x="710" 
d="M574 671q23 0 38 -15.5t15 -38.5v-637q0 -83 -44.5 -127t-129.5 -44q-35 0 -52 7q-29 13 -29 43q0 21 14 35t36 14h14q85 0 85 79v37l-332 438v-419q0 -23 -15 -38.5t-38 -15.5t-38 15.5t-15 38.5v576q0 22 15 37t37 15q17 0 28 -8t25 -27l334 -437l-1 418q0 23 15 38.5
t38 15.5z" />
    <glyph glyph-name="eng" unicode="&#x14b;" horiz-adv-x="575" 
d="M321 502q84 0 134 -53t50 -142v-327q0 -83 -47.5 -127t-125.5 -44q-24 0 -46 5q-37 10 -37 45q0 20 13 33t32 13q3 0 9.5 -0.5t10.5 -0.5q86 0 86 85v304q0 51 -29.5 82.5t-77.5 31.5q-49 0 -80.5 -32t-31.5 -82v-250q0 -24 -14.5 -39t-37.5 -15t-38 15.5t-15 38.5v405
q0 23 15 38.5t38 15.5q22 0 36.5 -15.5t14.5 -38.5q56 54 141 54z" />
    <glyph glyph-name="Omacron" unicode="&#x14c;" horiz-adv-x="780" 
d="M507 848q18 0 30.5 -12t12.5 -30t-12.5 -30.5t-30.5 -12.5h-233q-19 0 -31.5 12.5t-12.5 30.5t12.5 30t31.5 12h233zM389 671q145 0 246 -99t101 -242t-100.5 -242t-246.5 -99q-145 0 -245.5 99t-100.5 242t100.5 242t245.5 99zM390 574q-103 0 -170 -69t-67 -174
q0 -106 67 -175.5t170 -69.5q102 0 169.5 69.5t67.5 175.5q0 104 -67.5 173.5t-169.5 69.5z" />
    <glyph glyph-name="omacron" unicode="&#x14d;" horiz-adv-x="609" 
d="M411 716q19 0 31.5 -12t12.5 -30t-12.5 -30t-31.5 -12h-212q-19 0 -31.5 12t-12.5 30t12.5 30t31.5 12h212zM304 502q109 0 185 -74.5t76 -181.5t-76 -182t-185 -75q-109 1 -184 75.5t-75 181.5q0 108 75 182t184 74zM305 406q-66 -1 -109.5 -46.5t-43.5 -114.5
q0 -68 43.5 -113.5t108.5 -45.5t109 45.5t44 113.5q0 69 -43.5 114.5t-108.5 46.5z" />
    <glyph glyph-name="Obreve" unicode="&#x14e;" horiz-adv-x="780" 
d="M390 729q-63 0 -111 40t-48 93q0 18 12 30.5t30 12.5q28 0 41 -35q19 -61 76 -61q59 0 77 61q12 35 40 35q18 0 30 -12.5t12 -30.5q0 -53 -48 -93t-111 -40zM389 671q145 0 246 -99t101 -242t-100.5 -242t-246.5 -99q-145 0 -245.5 99t-100.5 242t100.5 242t245.5 99z
M390 574q-103 0 -170 -69t-67 -174q0 -106 67 -175.5t170 -69.5q102 0 169.5 69.5t67.5 175.5q0 104 -67.5 173.5t-169.5 69.5z" />
    <glyph glyph-name="obreve" unicode="&#x14f;" horiz-adv-x="609" 
d="M305 577q-64 0 -112.5 44t-48.5 101q0 19 12 32t30 13q34 0 42 -37q4 -31 26 -50.5t51 -19.5q30 0 51.5 19.5t26.5 50.5q8 37 41 37q18 0 30.5 -13t12.5 -32q0 -59 -48 -102t-114 -43zM304 502q109 0 185 -74.5t76 -181.5t-76 -182t-185 -75q-109 1 -184 75.5t-75 181.5
q0 108 75 182t184 74zM305 406q-66 -1 -109.5 -46.5t-43.5 -114.5q0 -68 43.5 -113.5t108.5 -45.5t109 45.5t44 113.5q0 69 -43.5 114.5t-108.5 46.5z" />
    <glyph glyph-name="Ohungarumlaut" unicode="&#x150;" horiz-adv-x="780" 
d="M300 723q-27 1 -38.5 24.5t-0.5 44.5l58 112q16 30 51 28q30 -2 43.5 -29.5t-4.5 -54.5l-67 -102q-16 -23 -42 -23zM498 723q-27 1 -38.5 24.5t-0.5 44.5l58 112q16 30 51 28q30 -2 43.5 -29.5t-4.5 -54.5l-67 -102q-16 -23 -42 -23zM389 671q145 0 246 -99t101 -242
t-100.5 -242t-246.5 -99q-145 0 -245.5 99t-100.5 242t100.5 242t245.5 99zM390 574q-103 0 -170 -69t-67 -174q0 -106 67 -175.5t170 -69.5q102 0 169.5 69.5t67.5 175.5q0 104 -67.5 173.5t-169.5 69.5z" />
    <glyph glyph-name="ohungarumlaut" unicode="&#x151;" horiz-adv-x="609" 
d="M230 564q-21 1 -34 15t-12 32q0 10 7 24l54 125q14 31 50 31q22 0 37 -15.5t15 -38.5q0 -13 -8 -28l-67 -118q-17 -28 -42 -27zM406 564q-21 1 -34 15t-12 32q0 10 7 24l54 125q14 31 50 31q22 0 37 -15.5t15 -38.5q0 -13 -8 -28l-67 -118q-17 -28 -42 -27zM304 502
q109 0 185 -74.5t76 -181.5t-76 -182t-185 -75q-109 1 -184 75.5t-75 181.5q0 108 75 182t184 74zM305 406q-66 -1 -109.5 -46.5t-43.5 -114.5q0 -68 43.5 -113.5t108.5 -45.5t109 45.5t44 113.5q0 69 -43.5 114.5t-108.5 46.5z" />
    <glyph glyph-name="OE" unicode="&#x152;" horiz-adv-x="1113" 
d="M1029 95q21 0 35 -13.5t14 -33.5t-14 -34t-35 -14h-351q-22 0 -36.5 14.5t-14.5 36.5v46q-40 -51 -102.5 -79.5t-137.5 -28.5q-145 0 -244.5 98.5t-99.5 242.5q0 145 99.5 243t245.5 98q74 0 136.5 -28t102.5 -79v45q0 22 14.5 36.5t36.5 14.5h339q21 0 35 -14t14 -34
t-14 -33.5t-35 -13.5h-284v-169h205q20 0 33.5 -13t13.5 -33t-13.5 -33t-33.5 -13h-205v-209h296zM388 86q103 0 171 69t68 175q0 105 -68 174.5t-171 69.5q-102 0 -168.5 -69t-66.5 -175t67 -175t168 -69z" />
    <glyph glyph-name="oe" unicode="&#x153;" horiz-adv-x="962" 
d="M690 502q98 0 163 -64.5t65 -163.5v-5q0 -27 -16 -42.5t-44 -15.5h-308q9 -61 49.5 -95t104.5 -34q66 0 115 38q13 10 27 10q19 0 31.5 -12.5t12.5 -31.5q0 -25 -26 -44q-68 -53 -163 -53q-64 0 -117.5 28t-86.5 77q-31 -49 -82.5 -77t-113.5 -28q-107 0 -181.5 74
t-74.5 182t75 182.5t182 74.5q62 0 113 -28t82 -77q33 49 83.5 77t109.5 28zM687 413q-52 0 -88.5 -32.5t-47.5 -87.5h262q-2 54 -36.5 87t-89.5 33zM302 86q64 0 105 44.5t41 114.5t-41 115t-104 45q-65 0 -108 -45.5t-43 -114.5t42.5 -114t107.5 -45z" />
    <glyph glyph-name="Racute" unicode="&#x154;" horiz-adv-x="631" 
d="M283 723q-27 1 -38.5 24.5t-0.5 44.5l58 112q16 30 51 28q30 -2 43.5 -29.5t-4.5 -54.5l-67 -102q-16 -23 -42 -23zM576 77q16 -20 16 -40t-14.5 -34t-34.5 -14q-27 0 -47 27l-173 239h-134v-212q0 -23 -15 -38.5t-38 -15.5t-38 15.5t-15 38.5v563q0 23 15.5 38.5
t38.5 15.5h186q101 0 162.5 -55.5t61.5 -146.5q0 -62 -31 -110t-85 -72zM189 566v-217h132q54 0 85.5 29t31.5 79t-31.5 79.5t-85.5 29.5h-132z" />
    <glyph glyph-name="racute" unicode="&#x155;" horiz-adv-x="375" 
d="M200 564q-21 1 -34 15t-12 32q0 10 7 24l54 125q14 31 50 31q22 0 37 -15.5t15 -38.5q0 -13 -8 -28l-67 -118q-17 -28 -42 -27zM317 496q22 0 36 -13.5t14 -34.5q0 -22 -14 -35.5t-37 -15.5q-60 -2 -97.5 -39t-37.5 -96v-219q0 -24 -14.5 -39t-37.5 -15t-38 15.5
t-15 38.5v405q0 23 15 38.5t38 15.5q22 0 36.5 -15.5t14.5 -38.5v-15q53 63 137 63z" />
    <glyph glyph-name="Rcommaaccent" unicode="&#x156;" horiz-adv-x="631" 
d="M576 77q16 -20 16 -40t-14.5 -34t-34.5 -14q-27 0 -47 27l-173 239h-134v-212q0 -23 -15 -38.5t-38 -15.5t-38 15.5t-15 38.5v563q0 23 15.5 38.5t38.5 15.5h186q101 0 162.5 -55.5t61.5 -146.5q0 -62 -31 -110t-85 -72zM189 566v-217h132q54 0 85.5 29t31.5 79
t-31.5 79.5t-85.5 29.5h-132zM307 -44q22 0 37.5 -15.5t15.5 -37.5q0 -62 -28 -107q-19 -33 -45 -33q-18 0 -32 13.5t-14 30.5q0 8 6.5 36.5t6.5 59.5q0 22 15.5 37.5t37.5 15.5z" />
    <glyph glyph-name="rcommaaccent" unicode="&#x157;" horiz-adv-x="375" 
d="M317 496q22 0 36 -13.5t14 -34.5q0 -22 -14 -35.5t-37 -15.5q-60 -2 -97.5 -39t-37.5 -96v-219q0 -24 -14.5 -39t-37.5 -15t-38 15.5t-15 38.5v405q0 23 15 38.5t38 15.5q22 0 36.5 -15.5t14.5 -38.5v-15q53 63 137 63zM126 -44q22 0 37.5 -15.5t15.5 -37.5
q0 -62 -28 -107q-19 -33 -45 -33q-18 0 -32 13.5t-14 30.5q0 8 6.5 36.5t6.5 59.5q0 22 15.5 37.5t37.5 15.5z" />
    <glyph glyph-name="Rcaron" unicode="&#x158;" horiz-adv-x="631" 
d="M234 736l-109 108q-20 20 -20 35q0 17 11.5 28t27.5 11q15 0 31 -13l93 -87l93 87q16 13 31 13q16 0 27.5 -11t11.5 -28q0 -15 -20 -35l-109 -108q-15 -15 -34 -15t-34 15zM576 77q16 -20 16 -40t-14.5 -34t-34.5 -14q-27 0 -47 27l-173 239h-134v-212q0 -23 -15 -38.5
t-38 -15.5t-38 15.5t-15 38.5v563q0 23 15.5 38.5t38.5 15.5h186q101 0 162.5 -55.5t61.5 -146.5q0 -62 -31 -110t-85 -72zM189 566v-217h132q54 0 85.5 29t31.5 79t-31.5 79.5t-85.5 29.5h-132z" />
    <glyph glyph-name="rcaron" unicode="&#x159;" horiz-adv-x="375" 
d="M182 566q-24 0 -40 19l-102 130q-12 13 -12 30q0 18 12.5 30t29.5 12q19 0 30 -14l82 -93l81 93q12 14 31 14q17 0 29.5 -12t12.5 -30q0 -15 -12 -30l-103 -130q-15 -19 -39 -19zM317 496q22 0 36 -13.5t14 -34.5q0 -22 -14 -35.5t-37 -15.5q-60 -2 -97.5 -39t-37.5 -96
v-219q0 -24 -14.5 -39t-37.5 -15t-38 15.5t-15 38.5v405q0 23 15 38.5t38 15.5q22 0 36.5 -15.5t14.5 -38.5v-15q53 63 137 63z" />
    <glyph glyph-name="Sacute" unicode="&#x15a;" horiz-adv-x="559" 
d="M296 723q-27 1 -38.5 24.5t-0.5 44.5l58 112q16 30 51 28q30 -2 43.5 -29.5t-4.5 -54.5l-67 -102q-16 -23 -42 -23zM285 -11q-62 0 -121.5 27.5t-97.5 73.5q-16 18 -16 37q0 21 14.5 34.5t34.5 13.5q19 0 32 -14q64 -77 153 -77q52 0 83 25t31 67q0 32 -20.5 52.5
t-76.5 46.5l-73 34q-80 37 -117 80.5t-37 102.5q0 78 59 128.5t149 50.5q112 1 184 -78q16 -17 16 -38q0 -19 -15 -33t-34 -14q-16 0 -32 14q-54 54 -119 54q-45 0 -72.5 -21.5t-27.5 -58.5q0 -30 18.5 -49t73.5 -45l74 -34q84 -39 121 -82.5t37 -105.5q0 -85 -62 -138
t-159 -53z" />
    <glyph glyph-name="sacute" unicode="&#x15b;" horiz-adv-x="455" 
d="M249 564q-21 1 -34 15t-12 32q0 10 7 24l54 125q14 31 50 31q22 0 37 -15.5t15 -38.5q0 -13 -8 -28l-67 -118q-17 -28 -42 -27zM228 -11q-109 0 -180 76q-15 13 -15 34q0 19 14 32.5t33 13.5q18 0 33 -14q55 -51 115 -51q34 0 56.5 14t22.5 41q0 22 -16.5 34t-52.5 27
l-50 21q-65 27 -96.5 59t-31.5 84q0 66 49 104t124 38q94 0 156 -60q16 -15 16 -35q0 -19 -13 -32t-31 -13q-13 0 -33 15q-44 34 -97 34q-67 0 -67 -47q0 -19 14.5 -31.5t50.5 -26.5l47 -19q70 -29 102 -62.5t32 -85.5q0 -71 -52 -110.5t-130 -39.5z" />
    <glyph glyph-name="Scircumflex" unicode="&#x15c;" horiz-adv-x="559" 
d="M156 721q-16 0 -27.5 11.5t-11.5 27.5q0 15 20 35l109 108q15 15 34 15t34 -15l109 -108q20 -20 20 -35q0 -16 -11.5 -27.5t-27.5 -11.5q-15 0 -31 13l-93 87l-93 -87q-16 -13 -31 -13zM348 368q84 -39 121 -82.5t37 -105.5q0 -85 -62 -138t-159 -53q-62 0 -121.5 27.5
t-97.5 73.5q-16 18 -16 37q0 21 14.5 34.5t34.5 13.5q19 0 32 -14q64 -77 153 -77q52 0 83 25t31 67q0 32 -20.5 52.5t-76.5 46.5l-73 34q-80 37 -117 80.5t-37 102.5q0 78 59 128.5t149 50.5q112 1 184 -78q16 -17 16 -38q0 -19 -15 -33t-34 -14q-16 0 -32 14
q-54 54 -119 54q-45 0 -72.5 -21.5t-27.5 -58.5q0 -30 18.5 -49t73.5 -45z" />
    <glyph glyph-name="scircumflex" unicode="&#x15d;" horiz-adv-x="455" 
d="M119 566q-17 0 -29.5 12t-12.5 30q0 16 12 30l102 130q16 19 40 19t39 -19l103 -130q12 -15 12 -30q0 -18 -12.5 -30t-29.5 -12q-19 0 -31 14l-81 93l-82 -93q-11 -14 -30 -14zM276 287q70 -29 102 -62.5t32 -85.5q0 -71 -52 -110.5t-130 -39.5q-109 0 -180 76
q-15 13 -15 34q0 19 14 32.5t33 13.5q18 0 33 -14q55 -51 115 -51q34 0 56.5 14t22.5 41q0 22 -16.5 34t-52.5 27l-50 21q-65 27 -96.5 59t-31.5 84q0 66 49 104t124 38q94 0 156 -60q16 -15 16 -35q0 -19 -13 -32t-31 -13q-13 0 -33 15q-44 34 -97 34q-67 0 -67 -47
q0 -19 14.5 -31.5t50.5 -26.5z" />
    <glyph glyph-name="Scedilla" unicode="&#x15e;" horiz-adv-x="559" 
d="M506 180q0 -68 -40.5 -116t-109.5 -66q21 -36 21 -68q0 -55 -40 -88t-105 -33q-41 0 -59 8q-28 11 -28 36q0 16 11 27t27 11q6 0 17.5 -1.5t21.5 -1.5q27 0 45.5 12.5t18.5 35.5q0 27 -20 54q-57 4 -111 30.5t-89 69.5q-16 18 -16 37q0 21 14.5 34.5t34.5 13.5
q19 0 32 -14q64 -77 153 -77q52 0 83 25t31 67q0 32 -20.5 52.5t-76.5 46.5l-73 34q-80 37 -117 80.5t-37 102.5q0 78 59 128.5t149 50.5q112 1 184 -78q16 -17 16 -38q0 -19 -15 -33t-34 -14q-16 0 -32 14q-54 54 -119 54q-45 0 -72.5 -21.5t-27.5 -58.5q0 -30 18.5 -49
t73.5 -45l74 -34q84 -39 121 -82.5t37 -105.5z" />
    <glyph glyph-name="scedilla" unicode="&#x15f;" horiz-adv-x="455" 
d="M410 139q0 -52 -28.5 -87t-76.5 -51q22 -39 22 -71q0 -55 -40 -88t-105 -33q-41 0 -59 8q-28 11 -28 36q0 16 11 27t27 11q6 0 17.5 -1.5t21.5 -1.5q27 0 45.5 12.5t18.5 35.5q0 26 -19 53q-102 4 -169 76q-15 13 -15 34q0 19 14 32.5t33 13.5q18 0 33 -14
q55 -51 115 -51q34 0 56.5 14t22.5 41q0 22 -16.5 34t-52.5 27l-50 21q-65 27 -96.5 59t-31.5 84q0 66 49 104t124 38q94 0 156 -60q16 -15 16 -35q0 -19 -13 -32t-31 -13q-13 0 -33 15q-44 34 -97 34q-67 0 -67 -47q0 -19 14.5 -31.5t50.5 -26.5l47 -19q70 -29 102 -62.5
t32 -85.5z" />
    <glyph glyph-name="Scaron" unicode="&#x160;" horiz-adv-x="559" 
d="M247 736l-109 108q-20 20 -20 35q0 17 11 28t28 11q15 0 31 -13l93 -87l93 87q16 13 31 13q17 0 28 -11t11 -28q0 -15 -20 -35l-109 -108q-15 -15 -34 -15t-34 15zM348 368q84 -39 121 -82.5t37 -105.5q0 -85 -62 -138t-159 -53q-62 0 -121.5 27.5t-97.5 73.5
q-16 18 -16 37q0 21 14.5 34.5t34.5 13.5q19 0 32 -14q64 -77 153 -77q52 0 83 25t31 67q0 32 -20.5 52.5t-76.5 46.5l-73 34q-80 37 -117 80.5t-37 102.5q0 78 59 128.5t149 50.5q112 1 184 -78q16 -17 16 -38q0 -19 -15 -33t-34 -14q-16 0 -32 14q-54 54 -119 54
q-45 0 -72.5 -21.5t-27.5 -58.5q0 -30 18.5 -49t73.5 -45z" />
    <glyph glyph-name="scaron" unicode="&#x161;" horiz-adv-x="455" 
d="M191 585l-102 130q-12 13 -12 30q0 18 12.5 30t29.5 12q19 0 30 -14l82 -93l81 93q12 14 31 14q17 0 29.5 -12t12.5 -30q0 -15 -12 -30l-103 -130q-15 -19 -39 -19t-40 19zM276 287q70 -29 102 -62.5t32 -85.5q0 -71 -52 -110.5t-130 -39.5q-109 0 -180 76q-15 13 -15 34
q0 19 14 32.5t33 13.5q18 0 33 -14q55 -51 115 -51q34 0 56.5 14t22.5 41q0 22 -16.5 34t-52.5 27l-50 21q-65 27 -96.5 59t-31.5 84q0 66 49 104t124 38q94 0 156 -60q16 -15 16 -35q0 -19 -13 -32t-31 -13q-13 0 -33 15q-44 34 -97 34q-67 0 -67 -47q0 -19 14.5 -31.5
t50.5 -26.5z" />
    <glyph glyph-name="uni0162" unicode="&#x162;" horiz-adv-x="583" 
d="M523 660q21 0 35 -14t14 -34t-14 -33.5t-35 -13.5h-179v-511q28 -18 50 -54.5t22 -69.5q0 -55 -40 -88t-105 -33q-41 0 -59 8q-28 11 -28 36q0 16 11 27t27 11q6 0 17.5 -1.5t21.5 -1.5q27 0 45.5 12.5t18.5 35.5q0 25 -20 55q-10 -2 -14 -2q-23 0 -38 15.5t-15 38.5v522
h-178q-21 0 -35 13.5t-14 33.5t14 34t35 14h463z" />
    <glyph glyph-name="uni0163" unicode="&#x163;" horiz-adv-x="398" 
d="M332 85q21 0 33.5 -11.5t12.5 -30.5q0 -33 -31 -44q-18 -8 -49 -10q16 -30 16 -59q0 -55 -40 -88t-105 -33q-41 0 -59 8q-28 11 -28 36q0 16 11 27t27 11q6 0 17.5 -1.5t21.5 -1.5q27 0 45.5 12.5t18.5 35.5q0 27 -22 57q-8 10 -8 11q-93 37 -93 156v240h-39
q-20 0 -33.5 13t-13.5 32t13.5 32.5t33.5 13.5h39v86q0 23 15.5 38.5t37.5 15.5q23 0 38 -15.5t15 -38.5v-86h105q20 0 33.5 -13t13.5 -33q0 -19 -13.5 -32t-33.5 -13h-105v-231q0 -45 23 -65t73 -20q6 0 16 0.5t14 0.5z" />
    <glyph glyph-name="Tcaron" unicode="&#x164;" horiz-adv-x="583" 
d="M258 736l-109 108q-20 20 -20 35q0 17 11.5 28t27.5 11q15 0 31 -13l93 -87l93 87q16 13 31 13q16 0 27.5 -11t11.5 -28q0 -15 -20 -35l-109 -108q-15 -15 -34 -15t-34 15zM523 660q21 0 35 -14t14 -34t-14 -33.5t-35 -13.5h-179v-522q0 -23 -15 -38.5t-38 -15.5
t-38 15.5t-15 38.5v522h-178q-21 0 -35 13.5t-14 33.5t14 34t35 14h463z" />
    <glyph glyph-name="tcaron" unicode="&#x165;" horiz-adv-x="398" 
d="M367 770q26 0 42.5 -20.5t7.5 -51.5l-32 -129q-11 -35 -45 -35q-21 0 -35.5 16.5t-10.5 41.5l19 129q2 20 17.5 34.5t36.5 14.5zM332 85q21 0 33.5 -11.5t12.5 -30.5q0 -33 -31 -44q-24 -10 -66 -10q-88 0 -134.5 44t-46.5 127v240h-39q-20 0 -33.5 13t-13.5 32
t13.5 32.5t33.5 13.5h39v86q0 23 15.5 38.5t37.5 15.5q23 0 38 -15.5t15 -38.5v-86h105q20 0 33.5 -13t13.5 -33q0 -19 -13.5 -32t-33.5 -13h-105v-231q0 -45 23 -65t73 -20q6 0 16 0.5t14 0.5z" />
    <glyph glyph-name="Tbar" unicode="&#x166;" horiz-adv-x="583" 
d="M291 -11q-23 0 -38 15.5t-15 38.5v201h-146q-19 0 -32 13t-13 32t13 31.5t32 12.5h146v232h-178q-21 0 -35 13.5t-14 33.5t14 34t35 14h463q21 0 35 -14t14 -34t-14 -33.5t-35 -13.5h-179v-232h147q19 0 32 -12.5t13 -31.5t-13 -32t-32 -13h-147v-201q0 -23 -15 -38.5
t-38 -15.5z" />
    <glyph glyph-name="tbar" unicode="&#x167;" horiz-adv-x="412" 
d="M342 85q21 0 33.5 -11.5t12.5 -30.5q0 -33 -31 -45q-25 -9 -69 -9q-88 0 -134 44t-46 127v48h-40q-19 0 -31.5 12.5t-12.5 30.5q0 19 12.5 31.5t31.5 12.5h40v108h-40q-19 0 -31.5 12.5t-12.5 31.5q0 18 12.5 30.5t31.5 12.5h40v87q0 23 15 38.5t38 15.5q22 0 37 -15.5
t15 -38.5v-87h110q19 0 31.5 -12.5t12.5 -30.5q0 -19 -12.5 -31.5t-31.5 -12.5h-110v-108h110q19 0 31.5 -12.5t12.5 -31.5q0 -18 -12.5 -30.5t-31.5 -12.5h-110v-39q0 -45 23 -65t73 -20q6 0 17.5 0.5t15.5 0.5z" />
    <glyph glyph-name="Utilde" unicode="&#x168;" horiz-adv-x="694" 
d="M209 729q-20 0 -32 13t-12 34q0 49 28.5 81.5t72.5 32.5q37 0 72 -22l33 -20q31 -18 43 -18q25 0 30 28q5 36 41 36q19 0 31.5 -13t12.5 -33q0 -50 -29 -82.5t-73 -32.5q-34 0 -72 22l-32 20q-32 18 -44 18q-26 0 -29 -28q-7 -36 -41 -36zM348 -11q-124 0 -198 76
t-74 202v350q0 23 15 38.5t38 15.5t38 -15.5t15 -38.5v-357q0 -80 44.5 -127t121.5 -47q76 0 120 47t44 127v357q0 23 15 38.5t38 15.5t38 -15.5t15 -38.5v-350q0 -126 -74 -202t-196 -76z" />
    <glyph glyph-name="utilde" unicode="&#x169;" horiz-adv-x="570" 
d="M361 587q-38 0 -71 25l-27 20q-27 22 -41 22q-25 0 -28 -30q-3 -17 -14 -27t-27 -10q-19 0 -31 13.5t-12 34.5q0 51 28 82.5t72 31.5q36 0 70 -24l26 -20q30 -22 42 -22q23 0 28 30q3 17 14 27t27 10q19 0 31 -13.5t12 -34.5q0 -50 -28 -82.5t-71 -32.5zM286 -11
q-95 0 -155 60.5t-60 156.5v242q0 23 15 38.5t37 15.5t37 -15.5t15 -38.5v-250q0 -49 31 -80.5t80 -31.5q47 0 77.5 31.5t30.5 80.5v250q0 23 15 38.5t38 15.5q22 0 37 -15.5t15 -38.5v-242q0 -96 -59.5 -156.5t-153.5 -60.5z" />
    <glyph glyph-name="Umacron" unicode="&#x16a;" horiz-adv-x="694" 
d="M464 848q18 0 30.5 -12t12.5 -30t-12.5 -30.5t-30.5 -12.5h-233q-19 0 -31.5 12.5t-12.5 30.5t12.5 30t31.5 12h233zM348 -11q-124 0 -198 76t-74 202v350q0 23 15 38.5t38 15.5t38 -15.5t15 -38.5v-357q0 -80 44.5 -127t121.5 -47q76 0 120 47t44 127v357q0 23 15 38.5
t38 15.5t38 -15.5t15 -38.5v-350q0 -126 -74 -202t-196 -76z" />
    <glyph glyph-name="umacron" unicode="&#x16b;" horiz-adv-x="570" 
d="M391 716q19 0 31.5 -12t12.5 -30t-12.5 -30t-31.5 -12h-212q-19 0 -31.5 12t-12.5 30t12.5 30t31.5 12h212zM286 -11q-95 0 -155 60.5t-60 156.5v242q0 23 15 38.5t37 15.5t37 -15.5t15 -38.5v-250q0 -49 31 -80.5t80 -31.5q47 0 77.5 31.5t30.5 80.5v250q0 23 15 38.5
t38 15.5q22 0 37 -15.5t15 -38.5v-242q0 -96 -59.5 -156.5t-153.5 -60.5z" />
    <glyph glyph-name="Ubreve" unicode="&#x16c;" horiz-adv-x="694" 
d="M347 729q-63 0 -111 40t-48 93q0 18 12 30.5t30 12.5q28 0 41 -35q19 -61 76 -61q59 0 77 61q12 35 40 35q18 0 30 -12.5t12 -30.5q0 -53 -48 -93t-111 -40zM348 -11q-124 0 -198 76t-74 202v350q0 23 15 38.5t38 15.5t38 -15.5t15 -38.5v-357q0 -80 44.5 -127t121.5 -47
q76 0 120 47t44 127v357q0 23 15 38.5t38 15.5t38 -15.5t15 -38.5v-350q0 -126 -74 -202t-196 -76z" />
    <glyph glyph-name="ubreve" unicode="&#x16d;" horiz-adv-x="570" 
d="M285 577q-64 0 -112.5 44t-48.5 101q0 19 12 32t30 13q34 0 42 -37q4 -31 26 -50.5t51 -19.5q30 0 51.5 19.5t26.5 50.5q8 37 41 37q18 0 30.5 -13t12.5 -32q0 -59 -48 -102t-114 -43zM286 -11q-95 0 -155 60.5t-60 156.5v242q0 23 15 38.5t37 15.5t37 -15.5t15 -38.5
v-250q0 -49 31 -80.5t80 -31.5q47 0 77.5 31.5t30.5 80.5v250q0 23 15 38.5t38 15.5q22 0 37 -15.5t15 -38.5v-242q0 -96 -59.5 -156.5t-153.5 -60.5z" />
    <glyph glyph-name="Uring" unicode="&#x16e;" horiz-adv-x="694" 
d="M346 917q51 0 85 -33t34 -82t-34 -82t-85 -33q-50 0 -84 33t-34 82t34 82t84 33zM347 848q-20 0 -33 -13t-13 -33t13.5 -33t32.5 -13t32 13t13 33t-13 33t-32 13zM348 -11q-124 0 -198 76t-74 202v350q0 23 15 38.5t38 15.5t38 -15.5t15 -38.5v-357q0 -80 44.5 -127
t121.5 -47q76 0 120 47t44 127v357q0 23 15 38.5t38 15.5t38 -15.5t15 -38.5v-350q0 -126 -74 -202t-196 -76z" />
    <glyph glyph-name="uring" unicode="&#x16f;" horiz-adv-x="570" 
d="M284 788q51 0 85 -33t34 -82t-34 -82t-85 -33q-50 0 -84 33t-34 82t34 82t84 33zM285 719q-20 0 -33 -13t-13 -33q0 -19 13 -32t33 -13q19 0 32 13t13 32t-13 32.5t-32 13.5zM286 -11q-95 0 -155 60.5t-60 156.5v242q0 23 15 38.5t37 15.5t37 -15.5t15 -38.5v-250
q0 -49 31 -80.5t80 -31.5q47 0 77.5 31.5t30.5 80.5v250q0 23 15 38.5t38 15.5q22 0 37 -15.5t15 -38.5v-242q0 -96 -59.5 -156.5t-153.5 -60.5z" />
    <glyph glyph-name="Uhungarumlaut" unicode="&#x170;" horiz-adv-x="694" 
d="M257 723q-27 1 -38.5 24.5t-0.5 44.5l58 112q16 30 51 28q30 -2 43.5 -29.5t-4.5 -54.5l-67 -102q-16 -23 -42 -23zM455 723q-27 1 -38.5 24.5t-0.5 44.5l58 112q16 30 51 28q30 -2 43.5 -29.5t-4.5 -54.5l-67 -102q-16 -23 -42 -23zM348 -11q-124 0 -198 76t-74 202v350
q0 23 15 38.5t38 15.5t38 -15.5t15 -38.5v-357q0 -80 44.5 -127t121.5 -47q76 0 120 47t44 127v357q0 23 15 38.5t38 15.5t38 -15.5t15 -38.5v-350q0 -126 -74 -202t-196 -76z" />
    <glyph glyph-name="uhungarumlaut" unicode="&#x171;" horiz-adv-x="570" 
d="M210 564q-21 1 -34 15t-12 32q0 10 7 24l54 125q14 31 50 31q22 0 37 -15.5t15 -38.5q0 -13 -8 -28l-67 -118q-17 -28 -42 -27zM386 564q-21 1 -34 15t-12 32q0 10 7 24l54 125q14 31 50 31q22 0 37 -15.5t15 -38.5q0 -13 -8 -28l-67 -118q-17 -28 -42 -27zM286 -11
q-95 0 -155 60.5t-60 156.5v242q0 23 15 38.5t37 15.5t37 -15.5t15 -38.5v-250q0 -49 31 -80.5t80 -31.5q47 0 77.5 31.5t30.5 80.5v250q0 23 15 38.5t38 15.5q22 0 37 -15.5t15 -38.5v-242q0 -96 -59.5 -156.5t-153.5 -60.5z" />
    <glyph glyph-name="Uogonek" unicode="&#x172;" horiz-adv-x="694" 
d="M432 -191q-51 0 -82.5 25t-31.5 66q0 48 60 93q-17 -4 -36 -4q-119 0 -192.5 77t-73.5 201v350q0 23 15 38.5t38 15.5t38 -15.5t15 -38.5v-357q0 -80 44.5 -127t121.5 -47q76 0 120 47t44 127v357q0 23 15 38.5t38 15.5t38 -15.5t15 -38.5v-350q0 -138 -91 -218l-35 -31
q-25 -22 -37 -34t-23 -29.5t-11 -33.5q-1 -16 9.5 -24.5t31.5 -8.5q4 0 13 1t12 1q14 0 23.5 -10t9.5 -25q0 -29 -29 -38q-24 -8 -59 -8z" />
    <glyph glyph-name="uogonek" unicode="&#x173;" horiz-adv-x="570" 
d="M447 502q22 0 37 -15.5t15 -38.5v-242q0 -109 -76 -172l-54 -49q-43 -38 -43 -65q0 -32 44 -32q4 0 13 1t12 1q14 0 24 -10t10 -25q0 -30 -32 -39q-20 -7 -56 -7q-52 0 -83 25.5t-31 67.5q0 44 43 87q-89 6 -144 65.5t-55 151.5v242q0 23 15 38.5t37 15.5t37 -15.5
t15 -38.5v-250q0 -49 31 -80.5t80 -31.5q47 0 77.5 31.5t30.5 80.5v250q0 23 15 38.5t38 15.5z" />
    <glyph glyph-name="Wcircumflex" unicode="&#x174;" horiz-adv-x="1051" 
d="M401 721q-17 0 -28 11.5t-11 27.5q0 15 20 35l109 108q15 15 34 15t34 -15l109 -108q20 -20 20 -35q0 -16 -11 -27.5t-28 -11.5q-15 0 -31 13l-93 87l-93 -87q-16 -13 -31 -13zM952 671q22 0 37.5 -15t15.5 -37q0 -12 -7 -30l-208 -565q-13 -35 -49 -35q-37 0 -50 35
l-165 465l-165 -465q-13 -35 -50 -35q-36 0 -50 35l-208 565q-6 16 -6 30q0 22 15 37t38 15q38 0 49 -34l164 -460l162 456q13 38 51 38t51 -38l162 -456l163 459q13 35 50 35z" />
    <glyph glyph-name="wcircumflex" unicode="&#x175;" horiz-adv-x="853" 
d="M313 566q-17 0 -29.5 12t-12.5 30q0 16 12 30l102 130q16 19 40 19t39 -19l103 -130q12 -15 12 -30q0 -18 -12.5 -30t-29.5 -12q-19 0 -31 14l-81 93l-82 -93q-11 -14 -30 -14zM779 502q21 0 36.5 -15t15.5 -36q0 -11 -5 -24l-178 -406q-14 -32 -48 -32q-32 0 -47 31
l-126 306l-127 -306q-16 -31 -48 -31q-33 0 -47 32l-178 406q-5 13 -5 24q0 21 15 36t36 15q34 0 47 -31l136 -310l120 303q16 38 50 38q36 0 50 -38l121 -303l136 310q13 31 46 31z" />
    <glyph glyph-name="Ycircumflex" unicode="&#x176;" horiz-adv-x="621" 
d="M183 721q-17 0 -28 11.5t-11 27.5q0 15 20 35l109 108q15 15 34 15t34 -15l109 -108q20 -20 20 -35q0 -16 -11 -27.5t-28 -11.5q-15 0 -31 13l-93 87l-93 -87q-16 -13 -31 -13zM578 620q0 -18 -12 -37l-203 -330v-210q0 -23 -15 -38.5t-38 -15.5t-38 15.5t-15 38.5v212
l-202 328q-12 20 -12 38q0 22 15 36t37 14q33 0 51 -31l164 -278l165 278q19 31 51 31q22 0 37 -14.5t15 -36.5z" />
    <glyph glyph-name="ycircumflex" unicode="&#x177;" horiz-adv-x="549" 
d="M160 566q-17 0 -29.5 12t-12.5 30q0 16 12 30l102 130q16 19 40 19t39 -19l103 -130q12 -15 12 -30q0 -18 -12.5 -30t-29.5 -12q-19 0 -31 14l-81 93l-82 -93q-10 -14 -30 -14zM474 502q21 0 36 -15.5t15 -35.5q0 -14 -5 -24l-226 -473q-37 -77 -82 -111t-109 -34
q-27 0 -47 6q-32 10 -32 44q0 19 14 32.5t34 13.5q4 0 10.5 -0.5t9.5 -0.5q68 0 102 72l22 47l-182 403q-6 16 -6 25q0 20 15.5 35.5t36.5 15.5q35 0 48 -31l147 -330l151 330q14 31 48 31z" />
    <glyph glyph-name="Ydieresis" unicode="&#x178;" horiz-adv-x="621" 
d="M185 747q-27 0 -47.5 19.5t-20.5 45.5q0 27 20.5 46t47.5 19q28 0 47.5 -18.5t19.5 -46.5q0 -26 -19.5 -45.5t-47.5 -19.5zM429 746q-26 0 -46.5 19.5t-20.5 45.5q0 27 20.5 46.5t46.5 19.5q29 0 48.5 -19t19.5 -47q0 -26 -20 -45.5t-48 -19.5zM578 620q0 -18 -12 -37
l-203 -330v-210q0 -23 -15 -38.5t-38 -15.5t-38 15.5t-15 38.5v212l-202 328q-12 20 -12 38q0 22 15 36t37 14q33 0 51 -31l164 -278l165 278q19 31 51 31q22 0 37 -14.5t15 -36.5z" />
    <glyph glyph-name="Zacute" unicode="&#x179;" horiz-adv-x="588" 
d="M315 723q-27 1 -38.5 24.5t-0.5 44.5l58 112q16 30 51 28q30 -2 43.5 -29.5t-4.5 -54.5l-67 -102q-16 -23 -42 -23zM514 95q21 0 35 -13.5t14 -33.5t-14 -34t-35 -14h-438q-21 0 -35.5 14t-14.5 34q0 13 16 35l369 482h-298q-21 0 -35 13.5t-14 33.5t14 34t35 14h395
q20 0 34.5 -14t14.5 -34q0 -14 -15 -34l-369 -483h341z" />
    <glyph glyph-name="zacute" unicode="&#x17a;" horiz-adv-x="461" 
d="M256 564q-21 1 -34 15t-12 32q0 10 7 24l54 125q14 31 50 31q22 0 37 -15.5t15 -38.5q0 -13 -8 -28l-67 -118q-17 -28 -42 -27zM399 91q20 0 33 -13t13 -33q0 -19 -13.5 -32t-32.5 -13h-330q-19 0 -32.5 13t-13.5 32q0 18 20 42l251 313h-208q-20 0 -33 13t-13 32
t13 32.5t33 13.5h305q19 0 32.5 -13t13.5 -32t-17 -39l-253 -316h232z" />
    <glyph glyph-name="Zdotaccent" unicode="&#x17b;" horiz-adv-x="588" 
d="M300 744q-29 0 -49.5 20t-20.5 48t20.5 48t49.5 20t49.5 -20t20.5 -48t-20.5 -48t-49.5 -20zM514 95q21 0 35 -13.5t14 -33.5t-14 -34t-35 -14h-438q-21 0 -35.5 14t-14.5 34q0 13 16 35l369 482h-298q-21 0 -35 13.5t-14 33.5t14 34t35 14h395q20 0 34.5 -14t14.5 -34
q0 -14 -15 -34l-369 -483h341z" />
    <glyph glyph-name="zdotaccent" unicode="&#x17c;" horiz-adv-x="461" 
d="M238 606q-29 0 -49.5 20t-20.5 48t20.5 48t49.5 20t49.5 -20t20.5 -48t-20.5 -48t-49.5 -20zM399 91q20 0 33 -13t13 -33q0 -19 -13.5 -32t-32.5 -13h-330q-19 0 -32.5 13t-13.5 32q0 18 20 42l251 313h-208q-20 0 -33 13t-13 32t13 32.5t33 13.5h305q19 0 32.5 -13
t13.5 -32t-17 -39l-253 -316h232z" />
    <glyph glyph-name="Zcaron" unicode="&#x17d;" horiz-adv-x="588" 
d="M266 736l-109 108q-20 20 -20 35q0 17 11.5 28t27.5 11q15 0 31 -13l93 -87l93 87q16 13 31 13q16 0 27.5 -11t11.5 -28q0 -15 -20 -35l-109 -108q-15 -15 -34 -15t-34 15zM514 95q21 0 35 -13.5t14 -33.5t-14 -34t-35 -14h-438q-21 0 -35.5 14t-14.5 34q0 13 16 35
l369 482h-298q-21 0 -35 13.5t-14 33.5t14 34t35 14h395q20 0 34.5 -14t14.5 -34q0 -14 -15 -34l-369 -483h341z" />
    <glyph glyph-name="zcaron" unicode="&#x17e;" horiz-adv-x="461" 
d="M198 585l-102 130q-12 13 -12 30q0 18 12.5 30t29.5 12q20 0 30 -14l82 -93l81 93q12 14 31 14q17 0 29.5 -12t12.5 -30q0 -15 -12 -30l-103 -130q-15 -19 -39 -19t-40 19zM399 91q20 0 33 -13t13 -33q0 -19 -13.5 -32t-32.5 -13h-330q-19 0 -32.5 13t-13.5 32
q0 18 20 42l251 313h-208q-20 0 -33 13t-13 32t13 32.5t33 13.5h305q19 0 32.5 -13t13.5 -32t-17 -39l-253 -316h232z" />
    <glyph glyph-name="uni018F" unicode="&#x18f;" horiz-adv-x="732" 
d="M351 671q142 0 239.5 -98t97.5 -241q0 -144 -99 -243.5t-242 -99.5q-131 0 -217.5 84.5t-86.5 212.5q0 16 2 28q2 22 15.5 36.5t33.5 14.5h484q-11 92 -74 150.5t-153 58.5q-113 0 -184 -85q-22 -26 -45 -26q-20 0 -33.5 13.5t-13.5 33.5q0 17 18 38q100 123 258 123z
M350 86q84 0 145.5 51.5t78.5 134.5h-427q1 -81 57.5 -133.5t145.5 -52.5z" />
    <glyph glyph-name="florin" unicode="&#x192;" horiz-adv-x="447" 
d="M380 671q78 0 78 -50q0 -20 -12.5 -32.5t-32.5 -12.5h-15q-43 0 -66 -19.5t-29 -65.5l-11 -89h57q20 0 33.5 -13t13.5 -32q0 -20 -13.5 -33t-33.5 -13h-68l-33 -273q-22 -171 -181 -171q-75 0 -75 49q0 20 13 33.5t32 13.5q3 0 10.5 -0.5t11.5 -0.5q33 0 56 20.5t29 64.5
l32 264h-34q-20 0 -33.5 13.5t-13.5 32.5t13.5 32t33.5 13h45l12 98q20 171 181 171z" />
    <glyph glyph-name="uni01D4" unicode="&#x1d4;" horiz-adv-x="570" 
d="M245 585l-102 130q-12 13 -12 30q0 18 12.5 30t29.5 12q19 0 30 -14l82 -93l81 93q12 14 31 14q17 0 29.5 -12t12.5 -30q0 -15 -12 -30l-103 -130q-15 -19 -39 -19t-40 19zM447 502q22 0 37 -15.5t15 -38.5v-242q0 -96 -59.5 -156.5t-153.5 -60.5q-95 0 -155 60.5
t-60 156.5v242q0 23 15 38.5t37 15.5t37 -15.5t15 -38.5v-250q0 -49 31 -80.5t80 -31.5q47 0 77.5 31.5t30.5 80.5v250q0 23 15 38.5t38 15.5z" />
    <glyph glyph-name="AEacute" unicode="&#x1fc;" horiz-adv-x="837" 
d="M434 723q-27 1 -38.5 24.5t-0.5 44.5l58 112q16 30 51 28q30 -2 43.5 -29.5t-4.5 -54.5l-67 -102q-16 -23 -42 -23zM754 95q21 0 35 -13.5t14 -33.5t-14.5 -34t-34.5 -14h-248q-20 0 -34.5 12t-17.5 31l-11 67h-262l-46 -88q-17 -33 -47 -33q-22 0 -37 14t-15 35
q0 14 6 26l290 560q18 36 57 36h353q21 0 35 -14t14 -34t-14.5 -33.5t-34.5 -13.5h-269l28 -169h162q20 0 33.5 -13t13.5 -33t-13.5 -33t-33.5 -13h-147l35 -209h203zM379 505l-151 -304h199z" />
    <glyph glyph-name="aeacute" unicode="&#x1fd;" horiz-adv-x="887" 
d="M447 564q-21 1 -34 15t-12 32q0 10 7 24l54 125q14 31 50 31q22 0 37 -15.5t15 -38.5q0 -13 -8 -28l-67 -118q-17 -28 -42 -27zM616 502q98 0 162 -64.5t64 -163.5v-9q0 -29 -15.5 -45t-44.5 -16h-313q12 -56 54.5 -89t104.5 -33q68 0 115 38q14 10 27 10q19 0 32 -12.5
t13 -31.5q0 -25 -27 -44q-67 -53 -162 -53q-67 0 -122 29t-89 80q-26 -52 -78 -80.5t-120 -28.5q-81 0 -129 39.5t-48 104.5q0 67 49 107t132 40h139v23q0 50 -27.5 77.5t-77.5 27.5q-60 0 -109 -46q-19 -16 -35 -16q-18 0 -32 13.5t-14 31.5q0 21 21 42q64 69 178 69
q118 0 165 -88q70 88 187 88zM468 280h269q3 58 -32 95.5t-93 37.5q-56 0 -95.5 -36.5t-48.5 -96.5zM233 71q53 0 90 33t37 81v19h-126q-87 0 -87 -63q0 -32 23 -51t63 -19z" />
    <glyph glyph-name="Oslashacute" unicode="&#x1fe;" horiz-adv-x="781" 
d="M406 723q-27 1 -38.5 24.5t-0.5 44.5l58 112q16 30 51 28q30 -2 43.5 -29.5t-4.5 -54.5l-67 -102q-16 -23 -42 -23zM664 540q73 -90 73 -210q0 -143 -100.5 -242t-246.5 -99q-116 0 -209 67l-51 -51q-16 -16 -36 -16q-18 0 -31 13t-13 31q0 20 16 36l50 50
q-72 93 -72 211q0 143 100.5 242t245.5 99q117 0 209 -68l52 52q16 16 36 16q18 0 31 -13t13 -31q0 -20 -15 -35zM149 331q0 -79 39 -140l343 344q-62 43 -140 43q-104 0 -173 -70.5t-69 -176.5zM391 82q104 0 172.5 71t68.5 178q0 77 -39 138l-343 -344q62 -43 141 -43z
" />
    <glyph glyph-name="oslashacute" unicode="&#x1ff;" horiz-adv-x="617" 
d="M327 564q-21 1 -34 15t-12 32q0 10 7 24l54 125q14 31 50 31q22 0 37 -15.5t15 -38.5q0 -13 -8 -28l-67 -118q-17 -28 -42 -27zM559 432l-38 -38q47 -66 47 -149q0 -107 -76 -181.5t-185 -74.5q-82 0 -147 45l-38 -39q-19 -17 -36 -17q-19 0 -32 13.5t-13 32.5t17 35
l37 37q-47 66 -47 149q0 108 75.5 182.5t184.5 74.5q80 0 148 -45l38 38q17 17 35 17q19 0 32.5 -13.5t13.5 -31.5q0 -19 -16 -35zM308 411q-70 0 -115 -46.5t-45 -119.5q0 -49 21 -85l226 227q-40 24 -87 24zM307 78q69 0 115 47.5t46 119.5q0 47 -20 85l-228 -227
q39 -25 87 -25z" />
    <glyph glyph-name="Scommaaccent" unicode="&#x218;" horiz-adv-x="559" 
d="M285 -11q-62 0 -121.5 27.5t-97.5 73.5q-16 18 -16 37q0 21 14.5 34.5t34.5 13.5q19 0 32 -14q64 -77 153 -77q52 0 83 25t31 67q0 32 -20.5 52.5t-76.5 46.5l-73 34q-80 37 -117 80.5t-37 102.5q0 78 59 128.5t149 50.5q112 1 184 -78q16 -17 16 -38q0 -19 -15 -33
t-34 -14q-16 0 -32 14q-54 54 -119 54q-45 0 -72.5 -21.5t-27.5 -58.5q0 -30 18.5 -49t73.5 -45l74 -34q84 -39 121 -82.5t37 -105.5q0 -85 -62 -138t-159 -53zM267 -237q-18 0 -32 13.5t-14 30.5q0 8 6.5 36.5t6.5 59.5q0 22 15.5 37.5t37.5 15.5t37.5 -15.5t15.5 -37.5
q0 -62 -28 -107q-19 -33 -45 -33z" />
    <glyph glyph-name="scommaaccent" unicode="&#x219;" horiz-adv-x="455" 
d="M228 -11q-109 0 -180 76q-15 13 -15 34q0 19 14 32.5t33 13.5q18 0 33 -14q55 -51 115 -51q34 0 56.5 14t22.5 41q0 22 -16.5 34t-52.5 27l-50 21q-65 27 -96.5 59t-31.5 84q0 66 49 104t124 38q94 0 156 -60q16 -15 16 -35q0 -19 -13 -32t-31 -13q-13 0 -33 15
q-44 34 -97 34q-67 0 -67 -47q0 -19 14.5 -31.5t50.5 -26.5l47 -19q70 -29 102 -62.5t32 -85.5q0 -71 -52 -110.5t-130 -39.5zM217 -237q-18 0 -32 13.5t-14 30.5q0 8 6.5 36.5t6.5 59.5q0 22 15.5 37.5t37.5 15.5t37.5 -15.5t15.5 -37.5q0 -62 -28 -107q-19 -33 -45 -33z
" />
    <glyph glyph-name="uni021A" unicode="&#x21a;" horiz-adv-x="583" 
d="M291 -11q-23 0 -38 15.5t-15 38.5v522h-178q-21 0 -35 13.5t-14 33.5t14 34t35 14h463q21 0 35 -14t14 -34t-14 -33.5t-35 -13.5h-179v-522q0 -23 -15 -38.5t-38 -15.5zM269 -237q-18 0 -32 13.5t-14 30.5q0 8 6.5 36.5t6.5 59.5q0 22 15.5 37.5t37.5 15.5t37.5 -15.5
t15.5 -37.5q0 -62 -28 -107q-19 -33 -45 -33z" />
    <glyph glyph-name="uni021B" unicode="&#x21b;" horiz-adv-x="398" 
d="M332 85q21 0 33.5 -11.5t12.5 -30.5q0 -33 -31 -44q-24 -10 -66 -10q-88 0 -134.5 44t-46.5 127v240h-39q-20 0 -33.5 13t-13.5 32t13.5 32.5t33.5 13.5h39v86q0 23 15.5 38.5t37.5 15.5q23 0 38 -15.5t15 -38.5v-86h105q20 0 33.5 -13t13.5 -33q0 -19 -13.5 -32
t-33.5 -13h-105v-231q0 -45 23 -65t73 -20q6 0 16 0.5t14 0.5zM224 -44q22 0 37.5 -15.5t15.5 -37.5q0 -62 -28 -107q-19 -33 -45 -33q-18 0 -32 13.5t-14 30.5q0 8 6.5 36.5t6.5 59.5q0 22 15.5 37.5t37.5 15.5z" />
    <glyph glyph-name="uni0237" unicode="&#x237;" horiz-adv-x="257" 
d="M9 -191q-27 0 -46 6q-38 10 -38 44q0 19 13.5 32.5t32.5 13.5q3 0 9 -0.5t10 -0.5q41 0 63.5 20t22.5 70v454q0 23 15 38.5t38 15.5q22 0 37 -15.5t15 -38.5v-468q0 -85 -46 -128t-126 -43z" />
    <glyph glyph-name="uni0259" unicode="&#x259;" horiz-adv-x="570" 
d="M261 502q114 0 189 -73t75 -183q0 -109 -73 -183t-180 -74q-98 0 -163 64.5t-65 163.5v5q0 27 16 42.5t44 15.5h314q-11 60 -53 94.5t-107 34.5t-115 -38q-15 -10 -27 -10q-19 0 -31.5 12.5t-12.5 31.5q0 25 26 44q71 53 163 53zM275 78q53 0 91 33t50 87h-267
q2 -54 36.5 -87t89.5 -33z" />
    <glyph glyph-name="circumflex" unicode="&#x2c6;" horiz-adv-x="398" 
d="M341 638q12 -15 12 -30q0 -18 -12.5 -30t-29.5 -12q-19 0 -31 14l-81 93l-82 -93q-11 -14 -30 -14q-17 0 -29.5 12t-12.5 30q0 16 12 30l102 130q16 19 40 19t39 -19z" />
    <glyph glyph-name="caron" unicode="&#x2c7;" horiz-adv-x="398" 
d="M311 787q17 0 29.5 -12t12.5 -30q0 -15 -12 -30l-103 -130q-15 -19 -39 -19t-40 19l-102 130q-12 13 -12 30q0 18 12.5 30t29.5 12q19 0 30 -14l82 -93l81 93q12 14 31 14z" />
    <glyph glyph-name="breve" unicode="&#x2d8;" horiz-adv-x="385" 
d="M192 577q-64 0 -112.5 44t-48.5 101q0 19 12 32t30 13q34 0 42 -37q4 -31 26 -50.5t51 -19.5q30 0 51.5 19.5t26.5 50.5q8 37 41 37q18 0 30.5 -13t12.5 -32q0 -59 -48 -102t-114 -43z" />
    <glyph glyph-name="dotaccent" unicode="&#x2d9;" horiz-adv-x="204" 
d="M102 742q29 0 49.5 -20t20.5 -48t-20.5 -48t-49.5 -20t-49.5 20t-20.5 48t20.5 48t49.5 20z" />
    <glyph glyph-name="ring" unicode="&#x2da;" horiz-adv-x="297" 
d="M148 788q51 0 85 -33t34 -82t-34 -82t-85 -33q-50 0 -84 33t-34 82t34 82t84 33zM149 719q-20 0 -33 -13t-13 -33q0 -19 13 -32t33 -13q19 0 32 13t13 32t-13 32.5t-32 13.5z" />
    <glyph glyph-name="ogonek" unicode="&#x2db;" horiz-adv-x="253" 
d="M136 -191q-51 0 -82 26.5t-31 71.5q0 35 19.5 61.5t63.5 61.5q46 36 70 36q13 0 23 -9t10 -21q0 -22 -24 -40q-63 -47 -63 -76q0 -31 44 -31q6 0 14 0.5t11 0.5q15 0 24.5 -10t9.5 -26q0 -29 -32 -38q-20 -7 -57 -7z" />
    <glyph glyph-name="tilde" unicode="&#x2dc;" horiz-adv-x="409" 
d="M281 587q-38 0 -71 25l-27 20q-27 22 -41 22q-25 0 -28 -30q-3 -17 -14 -27t-27 -10q-19 0 -31 13.5t-12 34.5q0 51 28 82.5t72 31.5q36 0 70 -24l26 -20q30 -22 42 -22q23 0 28 30q3 17 14 27t27 10q19 0 31 -13.5t12 -34.5q0 -50 -28 -82.5t-71 -32.5z" />
    <glyph glyph-name="hungarumlaut" unicode="&#x2dd;" horiz-adv-x="429" 
d="M101 564q-21 1 -34 15t-12 32q0 10 7 24l54 125q14 31 50 31q22 0 37 -15.5t15 -38.5q0 -13 -8 -28l-67 -118q-17 -28 -42 -27zM277 564q-21 1 -34 15t-12 32q0 10 7 24l54 125q14 31 50 31q22 0 37 -15.5t15 -38.5q0 -13 -8 -28l-67 -118q-17 -28 -42 -27z" />
    <glyph glyph-name="uni030C" unicode="&#x30c;" horiz-adv-x="0" 
d="M-100 534q-21 0 -35.5 16.5t-10.5 41.5l19 129q2 20 17.5 34.5t36.5 14.5q26 0 42.5 -20.5t7.5 -51.5l-32 -129q-11 -35 -45 -35z" />
    <glyph glyph-name="uni0326" unicode="&#x326;" horiz-adv-x="0" 
d="M-102 -237q-18 0 -32 13.5t-14 30.5q0 8 6.5 36.5t6.5 59.5q0 22 15.5 37.5t37.5 15.5t37.5 -15.5t15.5 -37.5q0 -62 -28 -107q-19 -33 -45 -33z" />
    <glyph glyph-name="dieresistonos" unicode="&#x385;" horiz-adv-x="554" 
d="M269 557q-20 0 -34.5 15t-12.5 35l19 151q2 21 16.5 35t34.5 14q24 0 39.5 -18.5t11.5 -43.5l-27 -140q-10 -48 -47 -48zM106 609q-26 0 -46.5 19.5t-20.5 45.5q0 28 20.5 47t46.5 19q28 0 47.5 -19t19.5 -47q0 -26 -19.5 -45.5t-47.5 -19.5zM448 609q-26 0 -46.5 19.5
t-20.5 45.5q0 28 20.5 47t46.5 19q28 0 48 -19t20 -47q0 -26 -20 -45.5t-48 -19.5z" />
    <glyph glyph-name="Alphatonos" unicode="&#x386;" horiz-adv-x="663" 
d="M79 504q-21 0 -35.5 16.5t-10.5 41.5l19 129q2 20 17.5 34.5t36.5 14.5q26 0 42.5 -20.5t7.5 -51.5l-32 -129q-11 -35 -45 -35zM621 70q8 -19 8 -30q0 -21 -15 -36t-37 -15q-35 0 -50 37l-41 93h-311l-39 -93q-14 -37 -50 -37q-22 0 -37 15t-15 36q0 14 8 30l239 565
q15 36 50 36q36 0 51 -36zM331 516l-119 -307h236z" />
    <glyph glyph-name="Epsilontonos" unicode="&#x388;" horiz-adv-x="569" 
d="M-50 504q-21 0 -35.5 16.5t-10.5 41.5l19 129q2 20 17.5 34.5t36.5 14.5q26 0 42.5 -20.5t7.5 -51.5l-32 -129q-11 -35 -45 -35zM134 0q-22 0 -36.5 14.5t-14.5 36.5v558q0 22 14.5 36.5t36.5 14.5h339q21 0 35 -14t14 -34t-14 -33.5t-35 -13.5h-284v-169h205
q20 0 33.5 -13t13.5 -33t-13.5 -33t-33.5 -13h-205v-209h296q21 0 35 -13.5t14 -33.5t-14 -34t-35 -14h-351z" />
    <glyph glyph-name="Etatonos" unicode="&#x389;" horiz-adv-x="710" 
d="M-50 504q-21 0 -35.5 16.5t-10.5 41.5l19 129q2 20 17.5 34.5t36.5 14.5q26 0 42.5 -20.5t7.5 -51.5l-32 -129q-11 -35 -45 -35zM136 -11q-23 0 -38 15.5t-15 38.5v574q0 23 15 38.5t38 15.5t38 -15.5t15 -38.5v-220h332v220q0 23 15 38.5t38 15.5t38 -15.5t15 -38.5
v-574q0 -23 -15 -38.5t-38 -15.5t-38 15.5t-15 38.5v259h-332v-259q0 -23 -15 -38.5t-38 -15.5z" />
    <glyph glyph-name="Iotatonos" unicode="&#x38a;" horiz-adv-x="272" 
d="M-50 504q-21 0 -35.5 16.5t-10.5 41.5l19 129q2 20 17.5 34.5t36.5 14.5q26 0 42.5 -20.5t7.5 -51.5l-32 -129q-11 -35 -45 -35zM136 -11q-23 0 -38 15.5t-15 38.5v574q0 23 15 38.5t38 15.5t38 -15.5t15 -38.5v-574q0 -23 -15 -38.5t-38 -15.5z" />
    <glyph glyph-name="Omicrontonos" unicode="&#x38c;" horiz-adv-x="780" 
d="M-15 504q-21 0 -35.5 16.5t-10.5 41.5l19 129q2 20 17.5 34.5t36.5 14.5q26 0 42.5 -20.5t7.5 -51.5l-32 -129q-11 -35 -45 -35zM389 671q145 0 246 -99t101 -242t-100.5 -242t-246.5 -99q-145 0 -245.5 99t-100.5 242t100.5 242t245.5 99zM390 574q-103 0 -170 -69
t-67 -174q0 -106 67 -175.5t170 -69.5q102 0 169.5 69.5t67.5 175.5q0 104 -67.5 173.5t-169.5 69.5z" />
    <glyph glyph-name="Upsilontonos" unicode="&#x38e;" horiz-adv-x="621" 
d="M-79 740q26 0 42.5 -20.5t7.5 -51.5l-32 -129q-11 -35 -45 -35q-21 0 -35.5 16.5t-10.5 41.5l19 129q2 20 17.5 34.5t36.5 14.5zM578 620q0 -18 -12 -37l-203 -330v-210q0 -23 -15 -38.5t-38 -15.5t-38 15.5t-15 38.5v212l-202 328q-12 20 -12 38q0 22 15 36t37 14
q33 0 51 -31l164 -278l165 278q19 31 51 31q22 0 37 -14.5t15 -36.5z" />
    <glyph glyph-name="Omegatonos" unicode="&#x38f;" horiz-adv-x="790" 
d="M11 740q26 0 42.5 -20.5t7.5 -51.5l-32 -129q-11 -35 -45 -35q-21 0 -35.5 16.5t-10.5 41.5l19 129q2 20 17.5 34.5t36.5 14.5zM688 95q21 0 35 -13.5t14 -33.5t-14 -34t-35 -14h-190q-24 0 -40.5 16t-16.5 39q0 30 31 49q160 84 160 236q0 102 -67 168t-171 66
q-103 0 -169.5 -65.5t-66.5 -167.5q0 -154 159 -237q32 -18 32 -49q0 -23 -17 -39t-41 -16h-189q-21 0 -35 14t-14 34t14 33.5t35 13.5h86q-140 95 -140 250q0 138 100 232t246 94t246.5 -94.5t100.5 -231.5q0 -153 -145 -250h92z" />
    <glyph glyph-name="iotadieresistonos" unicode="&#x390;" horiz-adv-x="299" 
d="M121 557q-20 0 -34.5 15t-12.5 35l19 151q2 21 16.5 35t34.5 14q24 0 39.5 -18.5t11.5 -43.5l-27 -140q-10 -48 -47 -48zM-42 609q-26 0 -46.5 19.5t-20.5 45.5q0 28 20.5 47t46.5 19q28 0 47.5 -19t19.5 -47q0 -26 -19.5 -45.5t-47.5 -19.5zM300 609q-26 0 -46.5 19.5
t-20.5 45.5q0 28 20.5 47t46.5 19q28 0 48 -19t20 -47q0 -26 -20 -45.5t-48 -19.5zM216 -11q-68 0 -105.5 40.5t-37.5 115.5v303q0 23 15.5 38.5t37.5 15.5q23 0 38 -15.5t15 -38.5v-294q0 -70 58 -70h7q20 0 33.5 -11.5t13.5 -30.5q0 -30 -25 -43q-19 -10 -50 -10z" />
    <glyph glyph-name="Alpha" unicode="&#x391;" horiz-adv-x="663" 
d="M621 70q8 -19 8 -30q0 -21 -15 -36t-37 -15q-35 0 -50 37l-41 93h-311l-39 -93q-14 -37 -50 -37q-22 0 -37 15t-15 36q0 14 8 30l239 565q15 36 50 36q36 0 51 -36zM331 516l-119 -307h236z" />
    <glyph glyph-name="Beta" unicode="&#x392;" horiz-adv-x="618" 
d="M457 360q58 -19 90.5 -63t32.5 -105q0 -85 -59.5 -138.5t-154.5 -53.5h-228q-24 0 -39.5 15.5t-15.5 39.5v550q0 24 15.5 39.5t39.5 15.5h176q89 0 143.5 -48.5t54.5 -127.5q0 -77 -55 -124zM304 567h-117v-178h117q47 0 74 23.5t27 66.5q0 42 -26.5 65t-74.5 23zM357 93
q54 0 84.5 27t30.5 75t-30.5 75.5t-84.5 27.5h-170v-205h170z" />
    <glyph glyph-name="Gamma" unicode="&#x393;" horiz-adv-x="515" 
d="M136 -11q-23 0 -38 15.5t-15 38.5v562q0 24 15.5 39.5t39.5 15.5h309q21 0 35 -14t14 -34t-14 -33.5t-35 -13.5h-258v-522q0 -23 -15 -38.5t-38 -15.5z" />
    <glyph glyph-name="uni0394" unicode="&#x394;" horiz-adv-x="669" 
d="M627 82q7 -17 7 -31q0 -21 -15 -36t-37 -15h-496q-22 0 -37 15t-15 36q0 15 8 31l242 553q15 36 50 36q34 0 51 -36zM334 518l-174 -423h348z" />
    <glyph glyph-name="Epsilon" unicode="&#x395;" horiz-adv-x="569" 
d="M134 0q-22 0 -36.5 14.5t-14.5 36.5v558q0 22 14.5 36.5t36.5 14.5h339q21 0 35 -14t14 -34t-14 -33.5t-35 -13.5h-284v-169h205q20 0 33.5 -13t13.5 -33t-13.5 -33t-33.5 -13h-205v-209h296q21 0 35 -13.5t14 -33.5t-14 -34t-35 -14h-351z" />
    <glyph glyph-name="Zeta" unicode="&#x396;" horiz-adv-x="588" 
d="M514 95q21 0 35 -13.5t14 -33.5t-14 -34t-35 -14h-438q-21 0 -35.5 14t-14.5 34q0 13 16 35l369 482h-298q-21 0 -35 13.5t-14 33.5t14 34t35 14h395q20 0 34.5 -14t14.5 -34q0 -14 -15 -34l-369 -483h341z" />
    <glyph glyph-name="Eta" unicode="&#x397;" horiz-adv-x="710" 
d="M136 -11q-23 0 -38 15.5t-15 38.5v574q0 23 15 38.5t38 15.5t38 -15.5t15 -38.5v-220h332v220q0 23 15 38.5t38 15.5t38 -15.5t15 -38.5v-574q0 -23 -15 -38.5t-38 -15.5t-38 15.5t-15 38.5v259h-332v-259q0 -23 -15 -38.5t-38 -15.5z" />
    <glyph glyph-name="Theta" unicode="&#x398;" horiz-adv-x="780" 
d="M389 671q145 0 246 -99t101 -242t-100.5 -242t-246.5 -99q-145 0 -245.5 99t-100.5 242t100.5 242t245.5 99zM389 579q-105 0 -173.5 -71t-68.5 -178q0 -108 68.5 -178.5t173.5 -70.5t174.5 71t69.5 178t-69.5 178t-174.5 71zM484 382q20 0 33 -13t13 -32t-13 -31.5
t-33 -12.5h-189q-19 0 -32 12.5t-13 31.5t13 32t32 13h189z" />
    <glyph glyph-name="Iota" unicode="&#x399;" horiz-adv-x="272" 
d="M136 -11q-23 0 -38 15.5t-15 38.5v574q0 23 15 38.5t38 15.5t38 -15.5t15 -38.5v-574q0 -23 -15 -38.5t-38 -15.5z" />
    <glyph glyph-name="Kappa" unicode="&#x39a;" horiz-adv-x="651" 
d="M136 671q23 0 38 -15.5t15 -38.5v-574q0 -23 -15 -38.5t-38 -15.5t-38 15.5t-15 38.5v574q0 23 15 38.5t38 15.5zM587 73q17 -17 17 -35q0 -20 -14.5 -34.5t-34.5 -14.5q-23 0 -43 21l-283 306q-16 18 -16 36q0 17 16 35l263 265q19 19 39 19t34 -14t14 -34t-18 -39
l-231 -232z" />
    <glyph glyph-name="Lambda" unicode="&#x39b;" horiz-adv-x="669" 
d="M627 70q7 -15 7 -30q0 -21 -15 -36t-37 -15q-35 0 -50 37l-198 469l-198 -469q-15 -37 -50 -37q-22 0 -37 15t-15 36q0 15 8 30l242 565q15 36 50 36q34 0 51 -36z" />
    <glyph glyph-name="Mu" unicode="&#x39c;" horiz-adv-x="792" 
d="M658 671q22 0 36.5 -15.5t14.5 -38.5v-574q0 -23 -15 -38.5t-38 -15.5t-38 15.5t-15 38.5v402l-154 -242q-22 -35 -53 -35q-32 0 -53 35l-154 242v-402q0 -23 -15 -38.5t-38 -15.5t-38 15.5t-15 38.5v574q0 23 14.5 38.5t36.5 15.5q32 0 58 -43l204 -320l204 320
q26 43 58 43z" />
    <glyph glyph-name="Nu" unicode="&#x39d;" horiz-adv-x="710" 
d="M574 671q23 0 38 -15.5t15 -38.5v-576q0 -22 -15 -37t-37 -15q-27 0 -50 30l-336 443v-419q0 -23 -15 -38.5t-38 -15.5t-38 15.5t-15 38.5v576q0 22 15 37t37 15q17 0 28 -8t25 -27l334 -437l-1 418q0 23 15 38.5t38 15.5z" />
    <glyph glyph-name="Xi" unicode="&#x39e;" horiz-adv-x="558" 
d="M83 565q-20 0 -34 13.5t-14 33.5t14 34t34 14h391q21 0 35 -14t14 -34t-14 -33.5t-35 -13.5h-391zM94 293q-20 0 -33.5 13.5t-13.5 33.5t13.5 33.5t33.5 13.5h370q20 0 34 -13.5t14 -33.5t-14 -33.5t-34 -13.5h-370zM83 0q-20 0 -34 14t-14 34t14 33.5t34 13.5h391
q21 0 35 -13.5t14 -33.5t-14 -34t-35 -14h-391z" />
    <glyph glyph-name="Omicron" unicode="&#x39f;" horiz-adv-x="780" 
d="M389 671q145 0 246 -99t101 -242t-100.5 -242t-246.5 -99q-145 0 -245.5 99t-100.5 242t100.5 242t245.5 99zM390 574q-103 0 -170 -69t-67 -174q0 -106 67 -175.5t170 -69.5q102 0 169.5 69.5t67.5 175.5q0 104 -67.5 173.5t-169.5 69.5z" />
    <glyph glyph-name="Pi" unicode="&#x3a0;" horiz-adv-x="686" 
d="M136 -11q-23 0 -38 15.5t-15 38.5v562q0 24 15.5 39.5t39.5 15.5h410q23 0 39 -15.5t16 -39.5v-562q0 -23 -15 -38.5t-38 -15.5t-38 15.5t-15 38.5v522h-308v-522q0 -23 -15 -38.5t-38 -15.5z" />
    <glyph glyph-name="Rho" unicode="&#x3a1;" horiz-adv-x="583" 
d="M136 -11q-23 0 -38 15.5t-15 38.5v562q0 24 15.5 39.5t39.5 15.5h185q101 0 162.5 -55.5t61.5 -146.5q0 -90 -62 -146.5t-162 -56.5h-134v-212q0 -23 -15 -38.5t-38 -15.5zM189 349h133q54 0 85 29t31 79t-31 79.5t-85 29.5h-133v-217z" />
    <glyph glyph-name="Sigma" unicode="&#x3a3;" horiz-adv-x="572" 
d="M489 95q21 0 35 -14t14 -34t-14 -33.5t-35 -13.5h-385q-22 0 -37.5 15t-15.5 38t15 39l211 243l-207 229q-18 21 -18 43q0 23 15 38t38 15h372q21 0 35 -14t14 -34t-14 -33.5t-35 -13.5h-272l172 -191q17 -17 17 -37t-17 -37l-176 -205h288z" />
    <glyph glyph-name="Tau" unicode="&#x3a4;" horiz-adv-x="583" 
d="M291 -11q-23 0 -38 15.5t-15 38.5v522h-178q-21 0 -35 13.5t-14 33.5t14 34t35 14h463q21 0 35 -14t14 -34t-14 -33.5t-35 -13.5h-179v-522q0 -23 -15 -38.5t-38 -15.5z" />
    <glyph glyph-name="Upsilon" unicode="&#x3a5;" horiz-adv-x="621" 
d="M578 620q0 -18 -12 -37l-203 -330v-210q0 -23 -15 -38.5t-38 -15.5t-38 15.5t-15 38.5v212l-202 328q-12 20 -12 38q0 22 15 36t37 14q33 0 51 -31l164 -278l165 278q19 31 51 31q22 0 37 -14.5t15 -36.5z" />
    <glyph glyph-name="Phi" unicode="&#x3a6;" horiz-adv-x="817" 
d="M774 335q0 -125 -85.5 -200.5t-227.5 -76.5v-49q0 -23 -15 -38.5t-38 -15.5t-38 15.5t-15 38.5v49q-141 2 -226.5 77.5t-85.5 199.5q0 123 85.5 197.5t226.5 76.5v42q0 24 15 39.5t38 15.5t38 -15.5t15 -39.5v-42q142 -1 227.5 -75.5t85.5 -198.5zM150 332
q0 -84 54.5 -132t150.5 -49v365q-96 -1 -150.5 -50t-54.5 -134zM461 151q96 0 151 48t55 133q0 86 -55 135t-151 49v-365z" />
    <glyph glyph-name="Chi" unicode="&#x3a7;" horiz-adv-x="606" 
d="M551 77q14 -21 14 -37q0 -21 -15 -36t-37 -15q-26 0 -42 22l-168 238l-168 -238q-14 -22 -42 -22q-22 0 -37 15t-15 36q0 19 15 38l185 260l-170 244q-15 21 -15 39q0 21 15 35.5t37 14.5q27 0 43 -22l152 -223l155 223q16 22 43 22q22 0 36.5 -14.5t14.5 -35.5
q0 -20 -15 -40l-171 -243z" />
    <glyph glyph-name="Psi" unicode="&#x3a8;" horiz-adv-x="831" 
d="M416 -11q-23 0 -38 15.5t-15 38.5v106q-143 0 -222 67.5t-79 189.5v211q0 23 15 38.5t38 15.5t38 -15.5t15 -38.5v-202q0 -82 50.5 -126.5t144.5 -44.5v394q0 24 15 39.5t38 15.5t38 -15.5t15 -39.5v-394q94 0 144 44t50 127v202q0 23 15 38.5t38 15.5t38 -15.5t15 -38.5
v-211q0 -122 -78.5 -189.5t-221.5 -67.5v-106q0 -23 -15 -38.5t-38 -15.5z" />
    <glyph glyph-name="uni03A9" unicode="&#x3a9;" horiz-adv-x="790" 
d="M688 95q21 0 35 -13.5t14 -33.5t-14 -34t-35 -14h-190q-24 0 -40.5 16t-16.5 39q0 30 31 49q160 84 160 236q0 102 -67 168t-171 66q-103 0 -169.5 -65.5t-66.5 -167.5q0 -154 159 -237q32 -18 32 -49q0 -23 -17 -39t-41 -16h-189q-21 0 -35 14t-14 34t14 33.5t35 13.5
h86q-140 95 -140 250q0 138 100 232t246 94t246.5 -94.5t100.5 -231.5q0 -153 -145 -250h92z" />
    <glyph glyph-name="Iotadieresis" unicode="&#x3aa;" horiz-adv-x="272" 
d="M13 747q-27 0 -47.5 19.5t-20.5 45.5q0 27 20.5 46t47.5 19q28 0 47.5 -18.5t19.5 -46.5q0 -26 -19.5 -45.5t-47.5 -19.5zM257 746q-26 0 -46.5 19.5t-20.5 45.5q0 27 20.5 46.5t46.5 19.5q29 0 48.5 -19t19.5 -47q0 -26 -20 -45.5t-48 -19.5zM136 -11q-23 0 -38 15.5
t-15 38.5v574q0 23 15 38.5t38 15.5t38 -15.5t15 -38.5v-574q0 -23 -15 -38.5t-38 -15.5z" />
    <glyph glyph-name="Upsilondieresis" unicode="&#x3ab;" horiz-adv-x="621" 
d="M187 747q-27 0 -47.5 19.5t-20.5 45.5q0 27 20.5 46t47.5 19q28 0 47.5 -18.5t19.5 -46.5q0 -26 -19.5 -45.5t-47.5 -19.5zM431 746q-26 0 -46.5 19.5t-20.5 45.5q0 27 20.5 46.5t46.5 19.5q29 0 48.5 -19t19.5 -47q0 -26 -20 -45.5t-48 -19.5zM578 620q0 -18 -12 -37
l-203 -330v-210q0 -23 -15 -38.5t-38 -15.5t-38 15.5t-15 38.5v212l-202 328q-12 20 -12 38q0 22 15 36t37 14q33 0 51 -31l164 -278l165 278q19 31 51 31q22 0 37 -14.5t15 -36.5z" />
    <glyph glyph-name="alphatonos" unicode="&#x3ac;" horiz-adv-x="642" 
d="M314 557q-20 0 -34.5 15t-12.5 35l19 151q2 21 16 35t35 14q24 0 39.5 -18.5t11.5 -43.5l-27 -140q-10 -48 -47 -48zM595 87q19 0 30.5 -12t11.5 -30q0 -28 -19 -41q-17 -12 -56 -12q-88 0 -111 80q-26 -39 -70.5 -61t-99.5 -22q-102 0 -169 73t-67 183q0 111 67 184
t169 73q113 0 170 -83q0 9 2 25q5 50 51 50q23 0 37.5 -15.5t13.5 -39.5q-7 -77 -8 -180v-107q-1 -34 10 -49.5t37 -15.5h1zM298 85q65 0 105 44.5t40 115.5t-40.5 116t-104.5 45t-105 -45t-41 -115t41 -115.5t105 -45.5z" />
    <glyph glyph-name="epsilontonos" unicode="&#x3ad;" horiz-adv-x="503" 
d="M260 557q-20 0 -34.5 15t-12.5 35l19 151q2 21 16 35t35 14q24 0 39.5 -18.5t11.5 -43.5l-27 -140q-10 -48 -47 -48zM457 92q1 -18 -15 -34q-69 -69 -183 -69q-91 0 -148 40.5t-57 107.5q0 79 75 119q-54 40 -54 107q0 65 51.5 102t135.5 37q104 0 174 -62q15 -12 15 -33
q0 -19 -13.5 -33t-32.5 -14q-15 0 -29 11q-49 38 -112 38q-84 0 -84 -56q0 -25 18 -40t52 -15h52q18 0 30.5 -12t12.5 -30t-12.5 -30t-30.5 -12h-53q-45 0 -68 -17.5t-23 -46.5q0 -31 26.5 -49.5t75.5 -18.5q70 0 120 45q15 11 32 11q19 0 32 -13.5t13 -32.5z" />
    <glyph glyph-name="etatonos" unicode="&#x3ae;" horiz-adv-x="595" 
d="M298 557q-20 0 -34.5 15t-12.5 35l19 151q2 21 16 35t35 14q24 0 39.5 -18.5t11.5 -43.5l-27 -140q-10 -48 -47 -48zM339 502q85 0 135.5 -53t50.5 -142v-444q0 -23 -15 -38.5t-37 -15.5t-37.5 15.5t-15.5 38.5v429q0 52 -29.5 83t-77.5 31q-49 0 -80.5 -32t-31.5 -82
v-249q0 -22 -15.5 -38t-37.5 -16t-37 15.5t-15 38.5v298q0 36 -19 53q-10 11 -33 14q-17 2 -28 15t-11 30q0 25 21 38q19 11 52 11q77 0 104 -65q59 65 157 65z" />
    <glyph glyph-name="iotatonos" unicode="&#x3af;" horiz-adv-x="299" 
d="M129 557q-20 0 -34.5 15t-12.5 35l19 151q2 21 16.5 35t34.5 14q24 0 39.5 -18.5t11.5 -43.5l-27 -140q-10 -48 -47 -48zM216 -11q-68 0 -105.5 40.5t-37.5 115.5v303q0 23 15.5 38.5t37.5 15.5q23 0 38 -15.5t15 -38.5v-294q0 -70 58 -70h7q20 0 33.5 -11.5t13.5 -30.5
q0 -30 -25 -43q-19 -10 -50 -10z" />
    <glyph glyph-name="upsilondieresistonos" unicode="&#x3b0;" horiz-adv-x="564" 
d="M266 557q-20 0 -34.5 15t-12.5 35l19 151q2 21 16 35t35 14q24 0 39.5 -18.5t11.5 -43.5l-27 -140q-10 -48 -47 -48zM103 609q-26 0 -46.5 19.5t-20.5 45.5q0 28 20.5 47t46.5 19q28 0 47.5 -19t19.5 -47q0 -26 -19.5 -45.5t-47.5 -19.5zM445 609q-26 0 -46.5 19.5
t-20.5 45.5q0 28 20.5 47t46.5 19q28 0 48 -19t20 -47q0 -26 -20 -45.5t-48 -19.5zM289 -11q-99 0 -158.5 60.5t-59.5 160.5v238q0 23 15.5 38.5t37.5 15.5t37 -15.5t15 -38.5v-245q0 -53 31 -86t83 -33q53 0 81.5 39.5t28.5 114.5q0 83 -18 155q-13 48 -13 60q0 22 14 35.5
t36 13.5q41 0 53 -43q36 -111 36 -219q0 -118 -58.5 -184.5t-160.5 -66.5z" />
    <glyph glyph-name="alpha" unicode="&#x3b1;" horiz-adv-x="642" 
d="M595 87q19 0 30.5 -12t11.5 -30q0 -28 -19 -41q-17 -12 -56 -12q-88 0 -111 80q-26 -39 -70.5 -61t-99.5 -22q-102 0 -169 73t-67 183q0 111 67 184t169 73q113 0 170 -83q0 9 2 25q5 50 51 50q23 0 37.5 -15.5t13.5 -39.5q-7 -77 -8 -180v-107q-1 -34 10 -49.5t37 -15.5
h1zM298 85q65 0 105 44.5t40 115.5t-40.5 116t-104.5 45t-105 -45t-41 -115t41 -115.5t105 -45.5z" />
    <glyph glyph-name="beta" unicode="&#x3b2;" horiz-adv-x="621" 
d="M425 426q70 -21 111 -75.5t41 -130.5q0 -101 -67.5 -166t-171.5 -65q-91 0 -157 54v-180q0 -24 -14.5 -39t-37.5 -15t-38 15.5t-15 38.5v680q0 100 61 159t162 59q90 0 146 -52t56 -135q0 -97 -76 -148zM324 86q66 0 106 37.5t40 99.5t-40 100.5t-104 38.5h-20
q-21 0 -34.5 12t-13.5 31q0 38 44 48q43 6 67.5 35t24.5 77q0 47 -27.5 74.5t-73.5 27.5q-51 0 -81.5 -34.5t-30.5 -92.5v-395q61 -59 143 -59z" />
    <glyph glyph-name="gamma" unicode="&#x3b3;" horiz-adv-x="548" 
d="M525 451q0 -13 -7 -27l-192 -395v-166q0 -23 -15 -38.5t-37 -15.5t-37 15.5t-15 38.5v166l-192 395q-7 14 -7 27q0 20 15.5 35.5t36.5 15.5q33 0 47 -31l152 -321l152 321q14 31 47 31q21 0 36.5 -15.5t15.5 -35.5z" />
    <glyph glyph-name="delta" unicode="&#x3b4;" horiz-adv-x="609" 
d="M454 462q111 -101 111 -215q0 -109 -76 -183.5t-186 -74.5q-109 0 -183.5 74.5t-74.5 183.5q0 100 65 169.5t166 78.5l-190 175q-16 16 -16 35q0 18 13.5 31.5t32.5 13.5h377q20 0 33.5 -13t13.5 -32q0 -20 -13.5 -33t-33.5 -13h-251zM304 86q65 0 109 45.5t44 113.5
q0 67 -44 112.5t-109 45.5t-108.5 -45.5t-43.5 -113.5t43.5 -113t108.5 -45z" />
    <glyph glyph-name="epsilon" unicode="&#x3b5;" horiz-adv-x="503" 
d="M457 92q1 -18 -15 -34q-69 -69 -183 -69q-91 0 -148 40.5t-57 107.5q0 79 75 119q-54 40 -54 107q0 65 51.5 102t135.5 37q104 0 174 -62q15 -12 15 -33q0 -19 -13.5 -33t-32.5 -14q-15 0 -29 11q-49 38 -112 38q-84 0 -84 -56q0 -25 18 -40t52 -15h52q18 0 30.5 -12
t12.5 -30t-12.5 -30t-30.5 -12h-53q-45 0 -68 -17.5t-23 -46.5q0 -31 26.5 -49.5t75.5 -18.5q70 0 120 45q15 11 32 11q19 0 32 -13.5t13 -32.5z" />
    <glyph glyph-name="zeta" unicode="&#x3b6;" horiz-adv-x="514" 
d="M349 85q154 -43 154 -159q0 -42 -17 -82q-18 -35 -51 -35q-22 0 -36 12.5t-14 31.5q0 9 5 28.5t5 30.5q0 59 -84 80l-62 16q-98 23 -151 78.5t-53 133.5q0 105 91 205l209 234h-229q-20 0 -33 13.5t-13 32.5t13.5 32t32.5 13h334q19 0 32 -13.5t13 -31.5q0 -17 -12 -31
l-267 -302q-64 -73 -64 -139q0 -94 129 -129z" />
    <glyph glyph-name="eta" unicode="&#x3b7;" horiz-adv-x="595" 
d="M339 502q85 0 135.5 -53t50.5 -142v-444q0 -23 -15 -38.5t-37 -15.5t-37.5 15.5t-15.5 38.5v429q0 52 -29.5 83t-77.5 31q-49 0 -80.5 -32t-31.5 -82v-249q0 -22 -15.5 -38t-37.5 -16t-37 15.5t-15 38.5v298q0 36 -19 53q-10 11 -33 14q-17 2 -28 15t-11 30q0 25 21 38
q19 11 52 11q77 0 104 -65q59 65 157 65z" />
    <glyph glyph-name="theta" unicode="&#x3b8;" horiz-adv-x="629" 
d="M314 761q124 0 188 -97.5t64 -286.5q0 -190 -64.5 -289.5t-187.5 -99.5t-187 99t-64 290q0 189 64 286.5t187 97.5zM314 664q-67 0 -101.5 -56.5t-40.5 -176.5h285q-6 120 -41 176.5t-102 56.5zM314 84q136 0 143 256h-285q7 -256 142 -256z" />
    <glyph glyph-name="iota" unicode="&#x3b9;" horiz-adv-x="299" 
d="M216 -11q-68 0 -105.5 40.5t-37.5 115.5v303q0 23 15.5 38.5t37.5 15.5q23 0 38 -15.5t15 -38.5v-294q0 -70 58 -70h7q20 0 33.5 -11.5t13.5 -30.5q0 -30 -25 -43q-19 -10 -50 -10z" />
    <glyph glyph-name="kappa" unicode="&#x3ba;" horiz-adv-x="534" 
d="M129 502q23 0 37.5 -15.5t14.5 -38.5v-405q0 -23 -15 -38.5t-37 -15.5q-23 0 -38 15.5t-15 38.5v405q0 23 15 38.5t38 15.5zM493 73q14 -15 14 -35q0 -21 -14.5 -35t-34.5 -14q-24 0 -42 21l-193 222q-16 19 -16 39q0 21 17 38l177 177q16 16 38 16q21 0 35.5 -14
t14.5 -34q0 -19 -20 -39l-147 -143z" />
    <glyph glyph-name="lambda" unicode="&#x3bb;" 
d="M547 72q14 -12 14 -33q0 -22 -16.5 -34.5t-41.5 -12.5q-46 0 -71.5 23.5t-45.5 77.5l-103 276l-143 -347q-13 -33 -48 -33q-22 0 -37.5 15t-15.5 37q0 9 5 21l190 440l-31 82q-18 48 -39.5 65t-61.5 17q-11 0 -17 -1q-20 -1 -33.5 13.5t-13.5 33.5q0 32 31 42q20 7 50 7
q65 0 106 -30.5t70 -108.5l179 -481q18 -48 46 -56q21 -7 27 -13z" />
    <glyph glyph-name="uni03BC" unicode="&#x3bc;" horiz-adv-x="601" 
d="M554 87q19 0 30.5 -12t11.5 -30q0 -36 -32 -46q-22 -7 -43 -7q-72 0 -100 55q-47 -58 -123 -58q-73 0 -117 52v-178q0 -23 -15 -38.5t-37 -15.5t-37.5 15.5t-15.5 38.5v585q0 23 15.5 38.5t37.5 15.5t37 -15.5t15 -38.5v-245q0 -52 30.5 -85t78.5 -33q49 0 79.5 33
t30.5 85v245q0 23 15.5 38.5t37.5 15.5t37 -15.5t15 -38.5v-300q0 -61 48 -61h1z" />
    <glyph glyph-name="nu" unicode="&#x3bd;" horiz-adv-x="549" 
d="M474 502q21 0 36 -15.5t15 -35.5q0 -12 -6 -27l-196 -403q-16 -32 -48 -32q-33 0 -49 32l-195 403q-7 14 -7 27q0 20 15 35.5t36 15.5q33 0 48 -31l152 -320l151 320q16 31 48 31z" />
    <glyph glyph-name="xi" unicode="&#x3be;" horiz-adv-x="525" 
d="M356 87q76 -15 117 -55.5t41 -102.5q0 -50 -17 -85t-52 -35q-22 0 -36 13t-14 33q0 9 5.5 28.5t5.5 30.5q0 65 -82 78l-55 10q-104 18 -160 75.5t-56 141.5q0 64 31.5 113.5t86.5 74.5q-87 56 -87 159q0 85 61.5 140t154.5 55q115 0 184 -84q11 -16 11 -32q0 -20 -14 -34
t-34 -14t-38 18q-41 49 -101 49q-49 0 -82.5 -30t-33.5 -77t33 -78.5t85 -31.5h62q19 0 33 -13t14 -33t-14 -32.5t-33 -12.5h-72q-61 0 -100 -35.5t-39 -92.5q0 -51 34.5 -84t97.5 -44z" />
    <glyph glyph-name="omicron" unicode="&#x3bf;" horiz-adv-x="609" 
d="M304 502q109 0 185 -74.5t76 -181.5t-76 -182t-185 -75q-109 1 -184 75.5t-75 181.5q0 108 75 182t184 74zM305 406q-66 -1 -109.5 -46.5t-43.5 -114.5q0 -68 43.5 -113.5t108.5 -45.5t109 45.5t44 113.5q0 69 -43.5 114.5t-108.5 46.5z" />
    <glyph glyph-name="pi" unicode="&#x3c0;" horiz-adv-x="590" 
d="M129 -11q-22 0 -37.5 15.5t-15.5 38.5v394q0 23 15.5 38.5t38.5 15.5h310q24 0 39 -15t15 -39v-295q0 -52 42 -55q3 0 5 -1q44 -5 44 -45q0 -22 -17 -36q-17 -13 -58 -13q-59 0 -90.5 37t-31.5 107v264h-207v-358q0 -22 -15 -37.5t-37 -15.5z" />
    <glyph glyph-name="rho" unicode="&#x3c1;" horiz-adv-x="619" 
d="M320 502q112 0 183.5 -71.5t71.5 -185.5q0 -110 -67.5 -183t-170.5 -73q-104 0 -162 71v-197q0 -23 -15 -38.5t-37 -15.5t-37 15.5t-15 38.5v379q0 117 68.5 188.5t180.5 71.5zM319 85q64 0 106 45.5t42 114.5q0 70 -42 115.5t-107 45.5t-104.5 -43.5t-39.5 -115.5
q0 -73 40 -117.5t105 -44.5z" />
    <glyph glyph-name="uni03C2" unicode="&#x3c2;" horiz-adv-x="529" 
d="M413 -191q-22 0 -36 12t-14 32q0 9 5 28.5t5 30.5q0 33 -20 50.5t-78 33.5q-111 32 -170.5 93t-59.5 162q0 114 69.5 182.5t179.5 68.5q122 0 193 -87q10 -13 10 -31q0 -20 -14 -34t-34 -14q-22 0 -35 16q-50 53 -119 53q-65 0 -103.5 -41t-38.5 -109q0 -64 41.5 -103
t123.5 -63q89 -28 126 -64.5t37 -98.5q0 -46 -18 -82q-16 -35 -50 -35z" />
    <glyph glyph-name="sigma" unicode="&#x3c3;" horiz-adv-x="640" 
d="M577 491q19 0 32.5 -13.5t13.5 -32.5t-13 -32t-33 -13h-93q73 -65 73 -164q0 -105 -73.5 -176t-183.5 -71q-109 0 -182 72.5t-73 181.5t73 178.5t188 69.5h271zM300 86q64 0 106.5 45.5t42.5 113.5q0 67 -41.5 110t-106.5 43t-107 -43t-42 -111t42 -113t106 -45z" />
    <glyph glyph-name="tau" unicode="&#x3c4;" horiz-adv-x="463" 
d="M398 88q20 0 32.5 -13.5t12.5 -33.5q0 -29 -32 -41q-32 -11 -83 -11q-188 0 -188 171v240h-88q-19 0 -32.5 13t-13.5 32t13 32.5t33 13.5h330q20 0 33.5 -13.5t13.5 -32.5t-13.5 -32t-33.5 -13h-137v-231q0 -45 24 -65t79 -20q9 0 26 2t24 2z" />
    <glyph glyph-name="upsilon" unicode="&#x3c5;" horiz-adv-x="564" 
d="M289 -11q-99 0 -158.5 60.5t-59.5 160.5v238q0 23 15.5 38.5t37.5 15.5t37 -15.5t15 -38.5v-245q0 -53 31 -86t83 -33q53 0 81.5 39.5t28.5 114.5q0 83 -18 155q-13 48 -13 60q0 22 14 35.5t36 13.5q41 0 53 -43q36 -111 36 -219q0 -118 -58.5 -184.5t-160.5 -66.5z" />
    <glyph glyph-name="phi" unicode="&#x3c6;" horiz-adv-x="775" 
d="M730 246q0 -115 -79.5 -185.5t-210.5 -71.5v-126q0 -24 -15 -39t-38 -15t-38 15.5t-15 38.5v126q-130 1 -209.5 71.5t-79.5 185.5q0 114 79 184t210 71v159q0 23 15.5 38.5t37.5 15.5q23 0 38 -15.5t15 -38.5v-159q131 -1 210.5 -71t79.5 -184zM148 244
q0 -77 49.5 -120.5t136.5 -43.5h3v330h-3q-86 0 -136 -44.5t-50 -121.5zM440 80q88 0 137.5 43.5t49.5 120.5t-50 121.5t-137 44.5h-3v-330h3z" />
    <glyph glyph-name="chi" unicode="&#x3c7;" horiz-adv-x="526" 
d="M488 -97q21 -1 32.5 -14.5t11.5 -31.5q0 -24 -17.5 -36t-44.5 -12q-40 0 -67.5 18.5t-52.5 66.5l-89 176l-143 -236q-15 -25 -44 -25q-21 0 -36 15t-15 35q0 16 10 32l173 280l-102 195q-18 37 -53 38q-21 1 -32.5 14.5t-11.5 32.5q0 23 17.5 35t44.5 12q40 0 67.5 -18.5
t51.5 -66.5l76 -153l129 216q15 25 45 25q20 0 35 -15t15 -35q0 -15 -9 -32l-160 -257l115 -221q21 -37 54 -38z" />
    <glyph glyph-name="psi" unicode="&#x3c8;" horiz-adv-x="802" 
d="M403 -191q-22 0 -37.5 15.5t-15.5 37.5v127q-128 0 -203.5 69.5t-75.5 187.5v202q0 23 15 38.5t37 15.5t37 -15.5t15 -38.5v-193q0 -77 48 -124t127 -47v533q0 22 15.5 38t37.5 16t37.5 -15.5t15.5 -38.5v-533q87 0 134.5 45.5t47.5 129.5q0 66 -19 132q-12 51 -12 62
q0 22 14 35.5t36 13.5q40 0 53 -43q36 -108 36 -202q0 -124 -78 -196t-212 -72v-127q0 -22 -15 -37.5t-38 -15.5z" />
    <glyph glyph-name="omega" unicode="&#x3c9;" horiz-adv-x="839" 
d="M640 483q155 -62 155 -245q0 -112 -60.5 -180.5t-160.5 -68.5q-104 0 -155 77q-49 -77 -154 -77q-100 0 -160 68t-60 180q0 182 154 246q29 12 45 12q20 0 34.5 -14.5t14.5 -35.5q0 -34 -35 -49q-107 -42 -107 -160q0 -67 32.5 -109t85.5 -42q45 0 72 32.5t27 86.5v129
q0 22 15 37t37 15q21 0 36 -15t15 -37v-129q0 -54 27 -86.5t72 -32.5q53 0 85.5 42t32.5 110q0 116 -106 160q-36 15 -36 49q0 20 15 35t35 15q16 0 44 -13z" />
    <glyph glyph-name="iotadieresis" unicode="&#x3ca;" horiz-adv-x="299" 
d="M29 609q-28 0 -48 19.5t-20 45.5q0 27 20 46.5t48 19.5t47.5 -19t19.5 -47q0 -26 -19.5 -45.5t-47.5 -19.5zM229 609q-28 0 -48 19.5t-20 45.5q0 27 20 46.5t48 19.5t47.5 -19t19.5 -47q0 -26 -19.5 -45.5t-47.5 -19.5zM216 -11q-68 0 -105.5 40.5t-37.5 115.5v303
q0 23 15.5 38.5t37.5 15.5q23 0 38 -15.5t15 -38.5v-294q0 -70 58 -70h7q20 0 33.5 -11.5t13.5 -30.5q0 -30 -25 -43q-19 -10 -50 -10z" />
    <glyph glyph-name="upsilondieresis" unicode="&#x3cb;" horiz-adv-x="564" 
d="M162 740q29 0 48 -19t19 -47q0 -26 -19.5 -45.5t-47.5 -19.5q-27 0 -47.5 19.5t-20.5 45.5q0 27 20 46.5t48 19.5zM386 740q29 0 48.5 -19t19.5 -47q0 -26 -20 -45.5t-48 -19.5q-27 0 -47.5 19.5t-20.5 45.5q0 27 20 46.5t48 19.5zM289 -11q-99 0 -158.5 60.5
t-59.5 160.5v238q0 23 15.5 38.5t37.5 15.5t37 -15.5t15 -38.5v-245q0 -53 31 -86t83 -33q53 0 81.5 39.5t28.5 114.5q0 83 -18 155q-13 48 -13 60q0 22 14 35.5t36 13.5q41 0 53 -43q36 -111 36 -219q0 -118 -58.5 -184.5t-160.5 -66.5z" />
    <glyph glyph-name="omicrontonos" unicode="&#x3cc;" horiz-adv-x="609" 
d="M305 557q-20 0 -34.5 15t-12.5 35l19 151q2 21 16.5 35t34.5 14q24 0 39.5 -18.5t11.5 -43.5l-27 -140q-10 -48 -47 -48zM304 502q109 0 185 -74.5t76 -181.5t-76 -182t-185 -75q-109 1 -184 75.5t-75 181.5q0 108 75 182t184 74zM305 406q-66 -1 -109.5 -46.5
t-43.5 -114.5q0 -68 43.5 -113.5t108.5 -45.5t109 45.5t44 113.5q0 69 -43.5 114.5t-108.5 46.5z" />
    <glyph glyph-name="upsilontonos" unicode="&#x3cd;" horiz-adv-x="564" 
d="M274 557q-20 0 -34.5 15t-12.5 35l19 151q2 21 16 35t35 14q24 0 39.5 -18.5t11.5 -43.5l-27 -140q-10 -48 -47 -48zM289 -11q-99 0 -158.5 60.5t-59.5 160.5v238q0 23 15.5 38.5t37.5 15.5t37 -15.5t15 -38.5v-245q0 -53 31 -86t83 -33q53 0 81.5 39.5t28.5 114.5
q0 83 -18 155q-13 48 -13 60q0 22 14 35.5t36 13.5q41 0 53 -43q36 -111 36 -219q0 -118 -58.5 -184.5t-160.5 -66.5z" />
    <glyph glyph-name="omegatonos" unicode="&#x3ce;" horiz-adv-x="839" 
d="M417 557q-20 0 -34.5 15t-12.5 35l19 151q2 21 16.5 35t34.5 14q24 0 39.5 -18.5t11.5 -43.5l-27 -140q-10 -48 -47 -48zM640 483q155 -62 155 -245q0 -112 -60.5 -180.5t-160.5 -68.5q-104 0 -155 77q-49 -77 -154 -77q-100 0 -160 68t-60 180q0 182 154 246
q29 12 45 12q20 0 34.5 -14.5t14.5 -35.5q0 -34 -35 -49q-107 -42 -107 -160q0 -67 32.5 -109t85.5 -42q45 0 72 32.5t27 86.5v129q0 22 15 37t37 15q21 0 36 -15t15 -37v-129q0 -54 27 -86.5t72 -32.5q53 0 85.5 42t32.5 110q0 116 -106 160q-36 15 -36 49q0 20 15 35
t35 15q16 0 44 -13z" />
    <glyph glyph-name="uni0400" unicode="&#x400;" horiz-adv-x="569" 
d="M284 723q-26 0 -42 23l-67 102q-18 27 -4.5 54.5t43.5 29.5q35 2 51 -28l58 -112q11 -21 -0.5 -44.5t-38.5 -24.5zM134 0q-22 0 -36.5 14.5t-14.5 36.5v558q0 22 14.5 36.5t36.5 14.5h339q21 0 35 -14t14 -34t-14 -33.5t-35 -13.5h-284v-169h205q20 0 33.5 -13t13.5 -33
t-13.5 -33t-33.5 -13h-205v-209h296q21 0 35 -13.5t14 -33.5t-14 -34t-35 -14h-351z" />
    <glyph glyph-name="uni0401" unicode="&#x401;" horiz-adv-x="569" 
d="M176 747q-27 0 -47.5 19.5t-20.5 45.5q0 27 20.5 46t47.5 19q28 0 47.5 -18.5t19.5 -46.5q0 -26 -19.5 -45.5t-47.5 -19.5zM420 746q-26 0 -46.5 19.5t-20.5 45.5q0 27 20.5 46.5t46.5 19.5q29 0 48.5 -19t19.5 -47q0 -26 -20 -45.5t-48 -19.5zM134 0q-22 0 -36.5 14.5
t-14.5 36.5v558q0 22 14.5 36.5t36.5 14.5h339q21 0 35 -14t14 -34t-14 -33.5t-35 -13.5h-284v-169h205q20 0 33.5 -13t13.5 -33t-13.5 -33t-33.5 -13h-205v-209h296q21 0 35 -13.5t14 -33.5t-14 -34t-35 -14h-351z" />
    <glyph glyph-name="uni0402" unicode="&#x402;" horiz-adv-x="762" 
d="M291 -11q-23 0 -38 15.5t-15 39.5v521h-178q-21 0 -35 13.5t-14 33.5t14 34t35 14h463q21 0 35 -14t14 -34t-14 -33.5t-35 -13.5h-179v-156h138q106 0 170.5 -57.5t64.5 -152.5q0 -68 -39 -119.5t-111 -77.5q-39 -13 -56 -13q-21 0 -36 15t-15 35q0 34 40 50
q108 30 108 115q0 50 -34 80.5t-92 30.5h-138v-271q0 -24 -15 -39.5t-38 -15.5z" />
    <glyph glyph-name="uni0403" unicode="&#x403;" horiz-adv-x="516" 
d="M287 723q-27 1 -38.5 24.5t-0.5 44.5l58 112q16 30 51 28q30 -2 43.5 -29.5t-4.5 -54.5l-67 -102q-16 -23 -42 -23zM449 660q21 0 35 -14t14 -34t-14 -33.5t-35 -13.5h-260v-522q0 -23 -15 -38.5t-38 -15.5t-38 15.5t-15 38.5v562q0 24 16 39.5t39 15.5h311z" />
    <glyph glyph-name="uni0404" unicode="&#x404;" horiz-adv-x="717" 
d="M615 194q20 0 34.5 -14t14.5 -34q0 -18 -18 -42q-44 -54 -111.5 -84.5t-144.5 -30.5q-146 0 -246.5 98.5t-100.5 242.5t100.5 242.5t246.5 98.5q76 0 144 -30.5t113 -84.5q17 -23 17 -42q0 -20 -14.5 -34t-34.5 -14q-24 0 -42 21q-72 87 -182 87q-85 0 -147.5 -49.5
t-82.5 -128.5h280q21 0 34 -13t13 -33t-13 -33t-34 -13h-287q9 -96 75 -157t162 -61q108 0 181 87q18 21 43 21z" />
    <glyph glyph-name="uni0405" unicode="&#x405;" horiz-adv-x="559" 
d="M285 -11q-62 0 -121.5 27.5t-97.5 73.5q-16 18 -16 37q0 21 14.5 34.5t34.5 13.5q19 0 32 -14q64 -77 153 -77q52 0 83 25t31 67q0 32 -20.5 52.5t-76.5 46.5l-73 34q-80 37 -117 80.5t-37 102.5q0 78 59 128.5t149 50.5q112 1 184 -78q16 -17 16 -38q0 -19 -15 -33
t-34 -14q-16 0 -32 14q-54 54 -119 54q-45 0 -72.5 -21.5t-27.5 -58.5q0 -30 18.5 -49t73.5 -45l74 -34q84 -39 121 -82.5t37 -105.5q0 -85 -62 -138t-159 -53z" />
    <glyph glyph-name="uni0406" unicode="&#x406;" horiz-adv-x="272" 
d="M136 671q23 0 38 -15.5t15 -38.5v-574q0 -23 -15 -38.5t-38 -15.5t-38 15.5t-15 38.5v574q0 23 15 38.5t38 15.5z" />
    <glyph glyph-name="uni0407" unicode="&#x407;" horiz-adv-x="272" 
d="M13 747q-27 0 -47.5 19.5t-20.5 45.5q0 27 20.5 46t47.5 19q28 0 47.5 -18.5t19.5 -46.5q0 -26 -19.5 -45.5t-47.5 -19.5zM257 746q-26 0 -46.5 19.5t-20.5 45.5q0 27 20.5 46.5t46.5 19.5q29 0 48.5 -19t19.5 -47q0 -26 -20 -45.5t-48 -19.5zM136 671q23 0 38 -15.5
t15 -38.5v-574q0 -23 -15 -38.5t-38 -15.5t-38 15.5t-15 38.5v574q0 23 15 38.5t38 15.5z" />
    <glyph glyph-name="uni0408" unicode="&#x408;" horiz-adv-x="381" 
d="M109 -11q-41 0 -64 8q-34 12 -34 47q0 20 14.5 34t36.5 14q10 0 28 -2.5t30 -2.5q34 0 53 21.5t19 59.5v449q0 23 15 38.5t38 15.5t38 -15.5t15 -38.5v-453q0 -85 -48.5 -130t-140.5 -45z" />
    <glyph glyph-name="uni0409" unicode="&#x409;" horiz-adv-x="1006" 
d="M731 416q103 0 166.5 -57.5t63.5 -150.5q0 -94 -63 -151t-167 -57h-211q-23 0 -39 15.5t-16 39.5v510h-194q-3 -485 -192 -560q-25 -13 -45 -13t-34 13.5t-14 33.5q0 35 36 48q145 48 145 465v53q0 24 16 39.5t39 15.5h295q23 0 38.5 -15.5t15.5 -39.5v-189h160zM730 94
q56 0 89 31t33 83q0 53 -33 83.5t-89 30.5h-159v-228h159z" />
    <glyph glyph-name="uni040A" unicode="&#x40a;" horiz-adv-x="1048" 
d="M136 -11q-23 0 -38 15.5t-15 38.5v574q0 23 15 38.5t38 15.5t38 -15.5t15 -38.5v-217h318v217q0 23 15 38.5t38 15.5t38 -15.5t15 -38.5v-207h159q103 0 167 -56.5t64 -148.5t-63.5 -148.5t-167.5 -56.5h-210q-24 0 -39.5 15.5t-15.5 39.5v249h-318v-261q0 -23 -15 -38.5
t-38 -15.5zM613 94h159q56 0 89 30t33 80q0 51 -33 81.5t-89 30.5h-159v-222z" />
    <glyph glyph-name="uni040B" unicode="&#x40b;" horiz-adv-x="794" 
d="M470 408q115 0 180 -70.5t65 -192.5v-102q0 -23 -15 -38.5t-38 -15.5t-38 15.5t-15 38.5v97q0 170 -149 170q-57 0 -116 -19v-248q0 -23 -15 -38.5t-38 -15.5t-38 15.5t-15 38.5v522h-178q-21 0 -35 13.5t-14 33.5t14 34t35 14h463q21 0 35 -14t14 -34t-14 -33.5
t-35 -13.5h-179v-177q62 20 126 20z" />
    <glyph glyph-name="uni040C" unicode="&#x40c;" horiz-adv-x="645" 
d="M341 723q-27 1 -38.5 24.5t-0.5 44.5l58 112q16 30 51 28q30 -2 43.5 -29.5t-4.5 -54.5l-67 -102q-16 -23 -42 -23zM136 671q23 0 38 -15.5t15 -38.5v-574q0 -23 -15 -38.5t-38 -15.5t-38 15.5t-15 38.5v574q0 23 15 38.5t38 15.5zM587 73q17 -17 17 -35
q0 -20 -14.5 -34.5t-34.5 -14.5q-23 0 -43 21l-283 306q-16 18 -16 36q0 17 16 35l263 265q19 19 39 19t34 -14t14 -34t-18 -39l-231 -232z" />
    <glyph glyph-name="uni040D" unicode="&#x40d;" horiz-adv-x="720" 
d="M294 746l-67 102q-18 27 -4.5 54.5t43.5 29.5q35 2 51 -28l58 -112q11 -21 -0.5 -44.5t-38.5 -24.5q-26 0 -42 23zM585 671q22 0 37 -15t15 -37v-576q0 -23 -15 -38.5t-38 -15.5t-38 15.5t-15 38.5v427l-352 -459q-17 -22 -43 -22q-22 0 -37.5 15t-15.5 37v576
q0 23 15 38.5t38 15.5t38 -15.5t15 -38.5v-430l349 457q19 27 47 27z" />
    <glyph glyph-name="uni040E" unicode="&#x40e;" horiz-adv-x="620" 
d="M303 729q-63 0 -111 40t-48 93q0 18 12 30.5t30 12.5q28 0 41 -35q19 -61 76 -61q59 0 77 61q12 35 40 35q18 0 30 -12.5t12 -30.5q0 -53 -48 -93t-111 -40zM531 663q22 0 38 -16t16 -39q0 -13 -8 -28l-208 -450q-67 -141 -209 -141q-38 0 -63 9q-32 11 -32 44
q0 20 14 33.5t36 13.5q3 0 12.5 -0.5t16.5 -0.5q47 0 74.5 16.5t46.5 55.5l1 3l-210 417q-8 13 -8 29q0 22 16 38t38 16q33 0 51 -33l171 -353l156 353q14 33 51 33z" />
    <glyph glyph-name="uni040F" unicode="&#x40f;" horiz-adv-x="686" 
d="M550 671q23 0 38 -15.5t15 -38.5v-562q0 -24 -15.5 -39.5t-39.5 -15.5h-152v-98q0 -23 -15 -38.5t-38 -15.5t-38 15.5t-15 38.5v98h-152q-23 0 -39 15.5t-16 39.5v562q0 23 15 38.5t38 15.5t38 -15.5t15 -38.5v-522h308v522q0 23 15 38.5t38 15.5z" />
    <glyph glyph-name="uni0410" unicode="&#x410;" horiz-adv-x="663" 
d="M621 70q8 -19 8 -30q0 -21 -15 -36t-37 -15q-35 0 -50 37l-41 93h-311l-39 -93q-14 -37 -50 -37q-22 0 -37 15t-15 36q0 14 8 30l239 565q15 36 50 36q36 0 51 -36zM331 516l-119 -307h236z" />
    <glyph glyph-name="uni0411" unicode="&#x411;" horiz-adv-x="618" 
d="M464 660q21 0 35 -14t14 -34t-14.5 -33.5t-34.5 -13.5h-275v-176h177q96 0 155 -53.5t59 -140.5t-59 -141t-155 -54h-228q-23 0 -39 15.5t-16 39.5v550q0 24 16 39.5t39 15.5h326zM357 298h-168v-205h168q54 0 85 27t31 75t-31 75.5t-85 27.5z" />
    <glyph glyph-name="uni0412" unicode="&#x412;" horiz-adv-x="618" 
d="M457 360q58 -19 90.5 -63t32.5 -105q0 -85 -59.5 -138.5t-154.5 -53.5h-228q-24 0 -39.5 15.5t-15.5 39.5v550q0 24 15.5 39.5t39.5 15.5h176q89 0 143.5 -48.5t54.5 -127.5q0 -77 -55 -124zM304 567h-117v-178h117q47 0 74 23.5t27 66.5q0 42 -26.5 65t-74.5 23zM357 93
q54 0 84.5 27t30.5 75t-30.5 75.5t-84.5 27.5h-170v-205h170z" />
    <glyph glyph-name="uni0413" unicode="&#x413;" horiz-adv-x="516" 
d="M449 660q21 0 35 -14t14 -34t-14 -33.5t-35 -13.5h-260v-522q0 -23 -15 -38.5t-38 -15.5t-38 15.5t-15 38.5v562q0 24 16 39.5t39 15.5h311z" />
    <glyph glyph-name="uni0414" unicode="&#x414;" horiz-adv-x="709" 
d="M625 95q23 0 38.5 -15.5t15.5 -38.5v-139q0 -23 -15 -38.5t-38 -15.5t-38 15.5t-15 38.5v98h-445v-98q0 -23 -15 -38.5t-38 -15.5t-38 15.5t-15 38.5v139q0 23 16 38.5t39 15.5h2q132 131 132 471v39q0 24 15.5 39.5t39.5 15.5h275q23 0 39 -15.5t16 -39.5v-510h29z
M312 565q-3 -331 -120 -470h298v470h-178z" />
    <glyph glyph-name="uni0415" unicode="&#x415;" horiz-adv-x="569" 
d="M134 0q-22 0 -36.5 14.5t-14.5 36.5v558q0 22 14.5 36.5t36.5 14.5h339q21 0 35 -14t14 -34t-14 -33.5t-35 -13.5h-284v-169h205q20 0 33.5 -13t13.5 -33t-13.5 -33t-33.5 -13h-205v-209h296q21 0 35 -13.5t14 -33.5t-14 -34t-35 -14h-351z" />
    <glyph glyph-name="uni0416" unicode="&#x416;" horiz-adv-x="989" 
d="M153 652l246 -261q18 -19 18 -39q0 -21 -17 -39l-263 -298q-25 -26 -48 -26q-20 0 -34.5 15t-14.5 35q0 19 11 31l251 282l-223 235q-14 15 -14 35q0 21 13.5 35t33.5 14q23 0 41 -19zM495 671q23 0 38 -15.5t15 -38.5v-574q0 -23 -15 -38.5t-38 -15.5t-38 15.5t-15 38.5
v574q0 23 15 38.5t38 15.5zM939 70q11 -12 11 -31q0 -20 -14.5 -35t-34.5 -15q-24 0 -47 26l-265 298q-17 20 -17 39q0 20 18 39l247 261q18 19 41 19q20 0 34 -14t14 -35q0 -18 -15 -35l-223 -236z" />
    <glyph glyph-name="uni0417" unicode="&#x417;" horiz-adv-x="585" 
d="M436 354q50 -22 78 -64t28 -97q0 -88 -69 -146t-175 -58q-70 0 -130 28.5t-99 80.5q-13 17 -13 33q0 20 15 34t35 14t37 -18q66 -75 154 -75q61 0 99.5 31.5t38.5 80.5q0 45 -32 72.5t-83 27.5h-92q-20 0 -33.5 13t-13.5 33q0 19 13.5 32t33.5 13h66q46 0 73 24.5
t27 65.5q0 43 -29.5 69t-77.5 26q-75 0 -128 -59q-17 -18 -37 -18t-34.5 14t-14.5 34q0 17 14 34q34 43 87.5 67.5t112.5 24.5q92 0 153 -52.5t61 -132.5q0 -83 -65 -132z" />
    <glyph glyph-name="uni0418" unicode="&#x418;" horiz-adv-x="720" 
d="M585 671q22 0 37 -15t15 -37v-576q0 -23 -15 -38.5t-38 -15.5t-38 15.5t-15 38.5v427l-352 -459q-17 -22 -43 -22q-22 0 -37.5 15t-15.5 37v576q0 23 15 38.5t38 15.5t38 -15.5t15 -38.5v-430l349 457q19 27 47 27z" />
    <glyph glyph-name="uni0419" unicode="&#x419;" horiz-adv-x="720" 
d="M351 729q-63 0 -111 40t-48 93q0 18 12 30.5t30 12.5q28 0 41 -35q19 -61 76 -61q59 0 77 61q12 35 40 35q18 0 30 -12.5t12 -30.5q0 -53 -48 -93t-111 -40zM585 671q22 0 37 -15t15 -37v-576q0 -23 -15 -38.5t-38 -15.5t-38 15.5t-15 38.5v427l-352 -459
q-17 -22 -43 -22q-22 0 -37.5 15t-15.5 37v576q0 23 15 38.5t38 15.5t38 -15.5t15 -38.5v-430l349 457q19 27 47 27z" />
    <glyph glyph-name="uni041A" unicode="&#x41a;" horiz-adv-x="645" 
d="M136 671q23 0 38 -15.5t15 -38.5v-574q0 -23 -15 -38.5t-38 -15.5t-38 15.5t-15 38.5v574q0 23 15 38.5t38 15.5zM587 73q17 -17 17 -35q0 -20 -14.5 -34.5t-34.5 -14.5q-23 0 -43 21l-283 306q-16 18 -16 36q0 17 16 35l263 265q19 19 39 19t34 -14t14 -34t-18 -39
l-231 -232z" />
    <glyph glyph-name="uni041B" unicode="&#x41b;" horiz-adv-x="654" 
d="M517 660q23 0 38.5 -15.5t15.5 -39.5v-562q0 -23 -15 -38.5t-38 -15.5t-38 15.5t-15 38.5v522h-194q-3 -485 -192 -560q-25 -13 -45 -13t-34 13.5t-14 33.5q0 35 36 48q74 26 109.5 139t35.5 326v53q0 24 16 39.5t39 15.5h295z" />
    <glyph glyph-name="uni041C" unicode="&#x41c;" horiz-adv-x="792" 
d="M658 671q22 0 36.5 -15.5t14.5 -38.5v-574q0 -23 -15 -38.5t-38 -15.5t-38 15.5t-15 38.5v402l-154 -242q-22 -35 -53 -35q-32 0 -53 35l-154 242v-402q0 -23 -15 -38.5t-38 -15.5t-38 15.5t-15 38.5v574q0 23 14.5 38.5t36.5 15.5q32 0 58 -43l204 -320l204 320
q26 43 58 43z" />
    <glyph glyph-name="uni041D" unicode="&#x41d;" horiz-adv-x="710" 
d="M136 -11q-23 0 -38 15.5t-15 38.5v574q0 23 15 38.5t38 15.5t38 -15.5t15 -38.5v-220h332v220q0 23 15 38.5t38 15.5t38 -15.5t15 -38.5v-574q0 -23 -15 -38.5t-38 -15.5t-38 15.5t-15 38.5v259h-332v-259q0 -23 -15 -38.5t-38 -15.5z" />
    <glyph glyph-name="uni041E" unicode="&#x41e;" horiz-adv-x="780" 
d="M389 671q145 0 246 -99t101 -242t-100.5 -242t-246.5 -99q-145 0 -245.5 99t-100.5 242t100.5 242t245.5 99zM390 574q-103 0 -170 -69t-67 -174q0 -106 67 -175.5t170 -69.5q102 0 169.5 69.5t67.5 175.5q0 104 -67.5 173.5t-169.5 69.5z" />
    <glyph glyph-name="uni041F" unicode="&#x41f;" horiz-adv-x="686" 
d="M136 -11q-23 0 -38 15.5t-15 38.5v562q0 24 15.5 39.5t39.5 15.5h410q23 0 39 -15.5t16 -39.5v-562q0 -23 -15 -38.5t-38 -15.5t-38 15.5t-15 38.5v522h-308v-522q0 -23 -15 -38.5t-38 -15.5z" />
    <glyph glyph-name="uni0420" unicode="&#x420;" horiz-adv-x="583" 
d="M136 -11q-23 0 -38 15.5t-15 38.5v562q0 24 15.5 39.5t39.5 15.5h185q101 0 162.5 -55.5t61.5 -146.5q0 -90 -62 -146.5t-162 -56.5h-134v-212q0 -23 -15 -38.5t-38 -15.5zM189 349h133q54 0 85 29t31 79t-31 79.5t-85 29.5h-133v-217z" />
    <glyph glyph-name="uni0421" unicode="&#x421;" horiz-adv-x="717" 
d="M390 -11q-146 0 -246.5 98.5t-100.5 242.5t100.5 242.5t246.5 98.5q76 0 144 -30.5t113 -84.5q17 -23 17 -42q0 -20 -14.5 -34t-34.5 -14q-24 0 -42 21q-72 87 -182 87q-103 0 -170.5 -69.5t-67.5 -174.5t67.5 -174.5t170.5 -69.5q108 0 181 87q18 21 43 21
q20 0 34.5 -14t14.5 -34q0 -18 -18 -42q-44 -54 -111.5 -84.5t-144.5 -30.5z" />
    <glyph glyph-name="uni0422" unicode="&#x422;" horiz-adv-x="583" 
d="M291 -11q-23 0 -38 15.5t-15 38.5v522h-178q-21 0 -35 13.5t-14 33.5t14 34t35 14h463q21 0 35 -14t14 -34t-14 -33.5t-35 -13.5h-179v-522q0 -23 -15 -38.5t-38 -15.5z" />
    <glyph glyph-name="uni0423" unicode="&#x423;" horiz-adv-x="620" 
d="M531 663q22 0 38 -16t16 -39q0 -13 -8 -28l-208 -450q-67 -141 -209 -141q-38 0 -63 9q-32 11 -32 44q0 20 14 33.5t36 13.5q3 0 12.5 -0.5t16.5 -0.5q47 0 74.5 16.5t46.5 55.5l1 3l-210 417q-8 13 -8 29q0 22 16 38t38 16q33 0 51 -33l171 -353l156 353q14 33 51 33z
" />
    <glyph glyph-name="uni0424" unicode="&#x424;" horiz-adv-x="817" 
d="M774 335q0 -125 -85.5 -200.5t-227.5 -76.5v-52q0 -23 -15 -38.5t-38 -15.5t-38 15.5t-15 38.5v52q-141 2 -226.5 77.5t-85.5 199.5t85 198t227 76v45q0 23 15.5 39t37.5 16q23 0 38 -16t15 -39v-45q142 -1 227.5 -75.5t85.5 -198.5zM150 332q0 -84 54.5 -132t150.5 -49
v365q-96 -1 -150.5 -50t-54.5 -134zM461 151q96 0 151 48t55 133q0 86 -55 135t-151 49v-365z" />
    <glyph glyph-name="uni0425" unicode="&#x425;" horiz-adv-x="606" 
d="M551 77q14 -21 14 -37q0 -21 -15 -36t-37 -15q-26 0 -42 22l-168 238l-168 -238q-14 -22 -42 -22q-22 0 -37 15t-15 36q0 19 15 38l185 260l-170 244q-15 21 -15 39q0 21 15 35.5t37 14.5q27 0 43 -22l152 -223l155 223q16 22 43 22q22 0 36.5 -14.5t14.5 -35.5
q0 -20 -15 -40l-171 -243z" />
    <glyph glyph-name="uni0426" unicode="&#x426;" horiz-adv-x="711" 
d="M545 671q23 0 38 -15.5t15 -38.5v-522h29q23 0 39 -15.5t16 -38.5v-139q0 -23 -15 -38.5t-38 -15.5t-38 15.5t-15 38.5v98h-438q-23 0 -39 15.5t-16 39.5v562q0 23 15 38.5t38 15.5t38 -15.5t15 -38.5v-522h303v522q0 23 15 38.5t38 15.5z" />
    <glyph glyph-name="uni0427" unicode="&#x427;" horiz-adv-x="633" 
d="M497 671q23 0 38 -15.5t15 -38.5v-574q0 -23 -15 -38.5t-38 -15.5t-38 15.5t-15 38.5v198q-62 -20 -128 -20q-126 0 -199.5 71.5t-73.5 194.5v130q0 23 15 38.5t38 15.5t38 -15.5t15 -38.5v-121q0 -83 45.5 -130t125.5 -47q62 0 124 24v274q0 23 15 38.5t38 15.5z" />
    <glyph glyph-name="uni0428" unicode="&#x428;" horiz-adv-x="1030" 
d="M894 671q23 0 38 -15.5t15 -38.5v-562q0 -24 -16 -39.5t-39 -15.5h-754q-23 0 -39 15.5t-16 39.5v562q0 23 15 38.5t38 15.5t38 -15.5t15 -38.5v-522h273v522q0 23 15 38.5t38 15.5t38 -15.5t15 -38.5v-522h273v522q0 23 15 38.5t38 15.5z" />
    <glyph glyph-name="uni0429" unicode="&#x429;" horiz-adv-x="1060" 
d="M894 671q23 0 38 -15.5t15 -38.5v-522h29q23 0 39 -15.5t16 -38.5v-139q0 -23 -15 -38.5t-38 -15.5t-38 15.5t-15 38.5v98h-787q-23 0 -39 15.5t-16 39.5v562q0 23 15 38.5t38 15.5t38 -15.5t15 -38.5v-522h273v522q0 23 15 38.5t38 15.5t38 -15.5t15 -38.5v-522h273v522
q0 23 15 38.5t38 15.5z" />
    <glyph glyph-name="uni042A" unicode="&#x42a;" horiz-adv-x="643" 
d="M157 0q-23 0 -39 15.5t-16 39.5v510h-69q-21 0 -35 13.5t-14 33.5t14 34t35 14h120q24 0 39.5 -15.5t15.5 -39.5v-189h159q103 0 167 -57.5t64 -150.5q0 -94 -63.5 -151t-167.5 -57h-210zM208 94h159q56 0 89 31t33 83q0 53 -33 83.5t-89 30.5h-159v-228z" />
    <glyph glyph-name="uni042B" unicode="&#x42b;" horiz-adv-x="896" 
d="M136 671q23 0 38 -15.5t15 -38.5v-201h160q105 0 168 -58t63 -150t-63 -150t-168 -58h-211q-23 0 -39 15.5t-16 39.5v562q0 23 15 38.5t38 15.5zM760 -11q-23 0 -38 15.5t-15 38.5v574q0 23 15 38.5t38 15.5t38 -15.5t15 -38.5v-574q0 -23 -15 -38.5t-38 -15.5zM349 322
h-160v-228h160q58 0 90 31.5t32 82.5t-32 82.5t-90 31.5z" />
    <glyph glyph-name="uni042C" unicode="&#x42c;" horiz-adv-x="624" 
d="M136 671q23 0 38 -15.5t15 -38.5v-201h160q105 0 168 -58t63 -150t-63 -150t-168 -58h-211q-23 0 -39 15.5t-16 39.5v562q0 23 15 38.5t38 15.5zM349 322h-160v-228h160q58 0 90 31.5t32 82.5t-32 82.5t-90 31.5z" />
    <glyph glyph-name="uni042D" unicode="&#x42d;" horiz-adv-x="717" 
d="M327 671q146 0 246.5 -98.5t100.5 -242.5t-100.5 -242.5t-246.5 -98.5q-77 0 -144.5 30.5t-111.5 84.5q-18 24 -18 42q0 20 14.5 34t34.5 14q25 0 43 -21q73 -87 181 -87q96 0 162 61t75 157h-287q-20 0 -33.5 13t-13.5 33t13.5 33t33.5 13h280q-20 79 -82.5 128.5
t-147.5 49.5q-110 0 -182 -87q-18 -21 -42 -21q-20 0 -34.5 14t-14.5 34q0 19 17 42q45 54 113 84.5t144 30.5z" />
    <glyph glyph-name="uni042E" unicode="&#x42e;" horiz-adv-x="1067" 
d="M677 671q145 0 245.5 -99t100.5 -242t-100.5 -242t-245.5 -99q-137 0 -233 89.5t-107 223.5h-148v-259q0 -23 -15 -38.5t-38 -15.5t-38 15.5t-15 38.5v574q0 23 15 38.5t38 15.5t38 -15.5t15 -38.5v-220h153q23 120 116 197t219 77zM678 86q101 0 168.5 70t67.5 175
q0 104 -67.5 173.5t-168.5 69.5q-102 0 -169.5 -69.5t-67.5 -173.5q0 -105 67.5 -175t169.5 -70z" />
    <glyph glyph-name="uni042F" unicode="&#x42f;" horiz-adv-x="627" 
d="M490 660q23 0 39 -15.5t16 -39.5v-562q0 -23 -15 -38.5t-38 -15.5t-38 15.5t-15 38.5v184h-121q-13 0 -33 2l-144 -217q-15 -23 -43 -23q-22 0 -37 15.5t-15 37.5q0 16 12 34l125 183q-105 59 -105 185q0 97 66.5 156.5t173.5 59.5h172zM439 321v245h-122
q-58 0 -94 -33.5t-36 -88.5t35.5 -89t94.5 -34h122z" />
    <glyph glyph-name="uni0430" unicode="&#x430;" horiz-adv-x="536" 
d="M264 502q95 0 148.5 -54t53.5 -151v-255q0 -23 -14.5 -38t-37.5 -15q-22 0 -37 15t-15 38v6q-56 -59 -151 -59q-77 0 -124 39t-47 103t49 102t132 38h139v32q0 50 -27.5 77.5t-77.5 27.5q-63 0 -109 -46q-19 -16 -36 -16q-19 0 -32.5 13.5t-13.5 30.5q0 22 21 43
q66 69 179 69zM233 70q53 0 90 33.5t37 82.5v9h-126q-87 0 -87 -60q0 -30 23.5 -47.5t62.5 -17.5z" />
    <glyph glyph-name="uni0431" unicode="&#x431;" horiz-adv-x="620" 
d="M337 481q99 0 169 -72t70 -173q0 -104 -74 -175t-183 -71q-115 0 -185.5 78t-70.5 205v59q0 165 68.5 255t231.5 137l90 25q24 7 32 7q19 0 32.5 -13.5t13.5 -33.5q0 -37 -43 -49l-95 -27q-113 -32 -165 -86t-56 -144q64 78 165 78zM319 86q62 0 105.5 43.5t43.5 105.5
q0 63 -43.5 106t-105.5 43t-105.5 -43t-43.5 -106q0 -62 43.5 -105.5t105.5 -43.5z" />
    <glyph glyph-name="uni0432" unicode="&#x432;" horiz-adv-x="552" 
d="M429 262q78 -34 78 -116q0 -64 -48 -105t-124 -41h-199q-23 0 -38.5 15.5t-15.5 38.5v383q0 23 15.5 38.5t38.5 15.5h172q75 0 120 -36t45 -96q0 -61 -44 -97zM184 403v-107h123q67 0 67 54q0 53 -67 53h-123zM327 89q38 0 60 17.5t22 46.5q0 28 -22 44.5t-60 16.5h-143
v-125h143z" />
    <glyph glyph-name="uni0433" unicode="&#x433;" horiz-adv-x="448" 
d="M135 -11q-23 0 -38 15.5t-15 38.5v394q0 23 15.5 38.5t38.5 15.5h258q20 0 33.5 -13t13.5 -33q0 -19 -13.5 -32t-33.5 -13h-207v-357q0 -23 -15 -38.5t-37 -15.5z" />
    <glyph glyph-name="uni0434" unicode="&#x434;" horiz-adv-x="643" 
d="M555 91q23 0 38.5 -15.5t15.5 -38.5v-135q0 -24 -15 -39t-38 -15t-38 15.5t-15 38.5v98h-363v-98q0 -24 -15 -39t-38 -15t-38 15.5t-15 38.5v135q0 23 15.5 38.5t38.5 15.5h9q47 51 67.5 132.5t20.5 214.5v1q0 22 15.5 37t38.5 15h231q23 0 38.5 -15.5t15.5 -38.5v-346
h31zM290 400q-1 -223 -80 -309h209v309h-129z" />
    <glyph glyph-name="uni0435" unicode="&#x435;" horiz-adv-x="570" 
d="M298 502q98 0 163 -64.5t65 -163.5v-5q0 -27 -16 -42.5t-44 -15.5h-314q11 -60 53 -94.5t107 -34.5t115 38q15 10 27 10q19 0 31.5 -12.5t12.5 -31.5q0 -25 -26 -44q-71 -53 -163 -53q-114 0 -189 73t-75 183q0 109 73 183t180 74zM295 413q-53 0 -91 -33t-50 -87h267
q-2 54 -36.5 87t-89.5 33z" />
    <glyph glyph-name="uni0436" unicode="&#x436;" horiz-adv-x="810" 
d="M148 482l164 -179q17 -18 17 -38q0 -18 -15 -36l-186 -221q-14 -19 -38 -19q-22 0 -36.5 14t-14.5 34q0 18 13 34l165 196l-143 149q-17 18 -17 38t14 33.5t34 14.5q24 0 43 -20zM406 502q22 0 37 -15.5t15 -38.5v-405q0 -24 -15 -39t-37 -15q-23 0 -38 15.5t-15 38.5
v405q0 23 15 38.5t38 15.5zM756 71q14 -19 14 -34q0 -20 -14.5 -34t-36.5 -14q-23 0 -39 19l-185 221q-16 19 -16 36q0 19 18 38l164 179q19 20 42 20q21 -1 35 -14.5t14 -33.5q0 -18 -17 -38l-144 -149z" />
    <glyph glyph-name="uni0437" unicode="&#x437;" horiz-adv-x="503" 
d="M374 256q75 -40 75 -119q0 -67 -57 -107.5t-150 -40.5q-111 0 -172 59q-23 20 -23 40q0 19 14 32.5t34 13.5q16 0 33 -13q42 -39 113 -39q49 0 76 18t27 50q0 31 -24 47.5t-68 16.5h-53q-18 0 -30.5 12t-12.5 30t12.5 30t30.5 12h51q73 0 73 55q0 56 -87 56
q-63 0 -103 -32q-17 -13 -33 -13q-20 0 -33 13t-13 33q0 21 23 40q60 52 162 52q87 0 138 -37.5t51 -101.5q0 -68 -54 -107z" />
    <glyph glyph-name="uni0438" unicode="&#x438;" horiz-adv-x="603" 
d="M470 502q22 0 37 -15.5t15 -38.5v-405q0 -23 -15 -38.5t-38 -15.5q-22 0 -37 15.5t-15 38.5v272l-235 -299q-23 -27 -48 -27q-22 0 -37 15.5t-15 38.5v405q0 23 15 38.5t38 15.5q22 0 37 -15.5t15 -38.5v-279l235 305q21 28 48 28z" />
    <glyph glyph-name="uni0439" unicode="&#x439;" horiz-adv-x="603" 
d="M304 577q-64 0 -112.5 44t-48.5 101q0 19 12 32t30 13q34 0 42 -37q4 -31 26 -50.5t51 -19.5q30 0 51.5 19.5t26.5 50.5q8 37 41 37q18 0 30.5 -13t12.5 -32q0 -59 -48 -102t-114 -43zM470 502q22 0 37 -15.5t15 -38.5v-405q0 -23 -15 -38.5t-38 -15.5q-22 0 -37 15.5
t-15 38.5v272l-235 -299q-23 -27 -48 -27q-22 0 -37 15.5t-15 38.5v405q0 23 15 38.5t38 15.5q22 0 37 -15.5t15 -38.5v-279l235 305q21 28 48 28z" />
    <glyph glyph-name="uni043A" unicode="&#x43a;" horiz-adv-x="542" 
d="M135 502q22 0 37 -15.5t15 -38.5v-405q0 -23 -15 -38.5t-37 -15.5q-23 0 -38 15.5t-15 38.5v405q0 23 15 38.5t38 15.5zM493 73q13 -18 13 -35q0 -20 -14.5 -34.5t-35.5 -14.5q-24 0 -37 16l-192 223q-15 19 -15 37q0 21 17 39l174 182q13 16 37 16q21 -1 35 -15t14 -34
q0 -22 -15 -37l-147 -152z" />
    <glyph glyph-name="uni043B" unicode="&#x43b;" horiz-adv-x="574" 
d="M438 491q23 0 38.5 -15.5t15.5 -38.5v-394q0 -23 -15 -38.5t-37 -15.5t-37 15.5t-15 38.5v357h-148v-48q0 -284 -158 -351q-22 -8 -36 -8q-20 0 -34 14t-14 34q0 28 34 45q53 23 78 93.5t25 213.5v44q0 23 15.5 38.5t38.5 15.5h249z" />
    <glyph glyph-name="uni043C" unicode="&#x43c;" horiz-adv-x="698" 
d="M135 -11q-23 0 -38 15.5t-15 38.5v405q0 23 15 38.5t38 15.5q25 0 42 -22l172 -229l172 229q17 22 42 22q23 0 38 -15.5t15 -38.5v-405q0 -23 -15 -38.5t-38 -15.5q-22 0 -37 15.5t-15 38.5v255l-126 -162q-14 -17 -36 -17t-36 17l-126 162v-255q0 -23 -15 -38.5
t-37 -15.5z" />
    <glyph glyph-name="uni043D" unicode="&#x43d;" horiz-adv-x="592" 
d="M458 502q23 0 38 -15.5t15 -38.5v-406q0 -22 -15.5 -37.5t-37.5 -15.5t-37 15.5t-15 37.5v170h-219v-170q0 -23 -15 -38t-37 -15q-23 0 -38 15t-15 38v406q0 23 15 38.5t38 15.5q22 0 37 -15.5t15 -38.5v-145h219v145q0 23 15 38.5t37 15.5z" />
    <glyph glyph-name="uni043E" unicode="&#x43e;" horiz-adv-x="609" 
d="M304 502q109 0 185 -74.5t76 -181.5t-76 -182t-185 -75q-109 1 -184 75.5t-75 181.5q0 108 75 182t184 74zM305 406q-66 -1 -109.5 -46.5t-43.5 -114.5q0 -68 43.5 -113.5t108.5 -45.5t109 45.5t44 113.5q0 69 -43.5 114.5t-108.5 46.5z" />
    <glyph glyph-name="uni043F" unicode="&#x43f;" horiz-adv-x="586" 
d="M134 -11q-22 0 -37 14.5t-15 37.5v397q0 23 15 38t37 15h317q23 0 38 -15.5t15 -37.5v-397q0 -22 -15.5 -37t-38.5 -15q-22 0 -37 15t-15 37v359h-211v-359q0 -22 -15 -37t-38 -15z" />
    <glyph glyph-name="uni0440" unicode="&#x440;" horiz-adv-x="636" 
d="M350 502q104 0 172.5 -73t68.5 -183q0 -111 -68.5 -184t-172.5 -73t-164 71v-198q0 -23 -15 -38.5t-37 -15.5q-23 0 -38 15.5t-15 38.5v588q0 23 15 38t38 15q22 0 36.5 -15t14.5 -38v-20q58 72 165 72zM333 85q65 0 107.5 45.5t42.5 114.5q0 70 -42.5 115.5t-107.5 45.5
q-66 0 -107 -44.5t-41 -115.5q0 -72 40.5 -116.5t107.5 -44.5z" />
    <glyph glyph-name="uni0441" unicode="&#x441;" horiz-adv-x="552" 
d="M305 -11q-109 0 -184.5 74.5t-75.5 182.5q0 107 75.5 181.5t184.5 74.5q63 0 116 -27.5t82 -72.5q10 -15 10 -28q0 -20 -13.5 -34t-33.5 -14q-23 0 -37 17q-50 62 -123 62q-66 0 -110 -45.5t-44 -113.5q0 -70 43.5 -115t110.5 -45q71 0 123 61q15 17 37 17q20 0 33.5 -14
t13.5 -33q0 -14 -9 -27q-68 -101 -199 -101z" />
    <glyph glyph-name="uni0442" unicode="&#x442;" horiz-adv-x="467" 
d="M233 -11q-22 0 -37 15.5t-15 38.5v357h-125q-20 0 -33 13t-13 33q0 19 13 32t33 13h354q20 0 33 -12.5t13 -32.5t-13 -33t-33 -13h-125v-357q0 -23 -15 -38.5t-37 -15.5z" />
    <glyph glyph-name="uni0443" unicode="&#x443;" horiz-adv-x="549" 
d="M474 502q21 0 36 -15.5t15 -35.5q0 -14 -5 -24l-226 -473q-37 -77 -82 -111t-109 -34q-27 0 -47 6q-32 10 -32 44q0 19 14 32.5t34 13.5q4 0 10.5 -0.5t9.5 -0.5q68 0 102 72l22 47l-182 403q-6 16 -6 25q0 20 15.5 35.5t36.5 15.5q35 0 48 -31l147 -330l151 330
q14 31 48 31z" />
    <glyph glyph-name="uni0444" unicode="&#x444;" horiz-adv-x="757" 
d="M713 246q0 -114 -78 -185t-204 -72v-126q0 -24 -15 -39t-37 -15q-23 0 -38 15.5t-15 38.5v126q-125 1 -203 72t-78 185q0 113 78 183.5t203 71.5v206q0 23 15 38.5t38 15.5q22 0 37 -15t15 -39v-206q126 -1 204 -71.5t78 -183.5zM150 244q0 -76 47.5 -120t129.5 -44h2
v329h-2q-82 0 -129.5 -44.5t-47.5 -120.5zM430 80q82 0 130 44t48 120t-48 120.5t-130 44.5h-2v-329h2z" />
    <glyph glyph-name="uni0445" unicode="&#x445;" horiz-adv-x="514" 
d="M458 77q14 -18 14 -38q0 -21 -14.5 -35.5t-36.5 -14.5q-26 0 -44 24l-120 158l-121 -158q-19 -24 -43 -24q-22 0 -37 14.5t-15 35.5q0 19 15 38l135 175l-121 159q-18 22 -18 40q0 21 15 36t37 15q25 0 43 -24l110 -147l112 147q19 24 44 24q21 0 36 -15t15 -36
q0 -17 -17 -40l-125 -160z" />
    <glyph glyph-name="uni0446" unicode="&#x446;" horiz-adv-x="609" 
d="M440 502q22 0 37 -15.5t15 -38.5v-357h29q23 0 38.5 -15.5t15.5 -38.5v-135q0 -23 -15 -38.5t-38 -15.5t-38 15.5t-15 38.5v98h-333q-23 0 -38.5 15.5t-15.5 38.5v394q0 23 15 38.5t38 15.5q22 0 37 -15.5t15 -38.5v-357h200v357q0 23 15 38.5t38 15.5z" />
    <glyph glyph-name="uni0447" unicode="&#x447;" horiz-adv-x="555" 
d="M421 502q22 0 37 -15.5t15 -38.5v-405q0 -24 -14.5 -39t-37.5 -15t-38 15.5t-15 38.5v135q-51 -17 -100 -17q-103 0 -163 61t-60 164v62q0 23 15 38.5t37 15.5t37 -15.5t15 -38.5v-55q0 -65 32.5 -99.5t94.5 -34.5q44 0 92 15v174q0 23 15 38.5t38 15.5z" />
    <glyph glyph-name="uni0448" unicode="&#x448;" horiz-adv-x="871" 
d="M136 0q-23 0 -38.5 15.5t-15.5 38.5v394q0 23 15 38.5t38 15.5q22 0 37 -15.5t15 -38.5v-357h196v357q0 23 15 38.5t38 15.5q22 0 37 -15.5t15 -38.5v-357h196v357q0 23 15 38.5t38 15.5t37.5 -15.5t14.5 -38.5v-394q0 -23 -15.5 -38.5t-38.5 -15.5h-599z" />
    <glyph glyph-name="uni0449" unicode="&#x449;" horiz-adv-x="907" 
d="M820 -152q-23 0 -38 15.5t-15 38.5v98h-631q-23 0 -38.5 15.5t-15.5 38.5v394q0 23 15 38.5t38 15.5q22 0 37 -15.5t15 -38.5v-357h196v357q0 23 15 38.5t38 15.5q22 0 37 -15.5t15 -38.5v-357h196v357q0 23 15 38.5t38 15.5t37.5 -15.5t14.5 -38.5v-357h29
q23 0 38.5 -15.5t15.5 -38.5v-135q0 -23 -14.5 -38.5t-37.5 -15.5z" />
    <glyph glyph-name="uni044A" unicode="&#x44a;" horiz-adv-x="574" 
d="M159 0q-23 0 -38.5 15.5t-15.5 38.5v346h-65q-19 0 -32.5 13t-13.5 32t13.5 32.5t32.5 13.5h117q23 0 38.5 -15.5t15.5 -38.5v-88h118q89 0 142.5 -47.5t53.5 -126.5t-53.5 -127t-142.5 -48h-170zM211 91h110q45 0 71 22t26 60t-26.5 61.5t-70.5 23.5h-110v-167z" />
    <glyph glyph-name="uni044B" unicode="&#x44b;" horiz-adv-x="797" 
d="M135 502q22 0 37 -15.5t15 -38.5v-99h118q88 0 142.5 -47.5t54.5 -126.5q0 -80 -54.5 -127.5t-142.5 -47.5h-169q-23 0 -38.5 15.5t-15.5 38.5v394q0 23 15 38.5t38 15.5zM658 -11q-22 0 -37 15.5t-15 38.5v405q0 23 15 38.5t38 15.5q22 0 37 -15.5t15 -38.5v-405
q0 -23 -15 -38.5t-38 -15.5zM297 258h-110v-167h110q45 0 71 22t26 60t-26.5 61.5t-70.5 23.5z" />
    <glyph glyph-name="uni044C" unicode="&#x44c;" horiz-adv-x="550" 
d="M135 502q22 0 37 -15.5t15 -38.5v-99h118q88 0 142.5 -47.5t54.5 -126.5q0 -80 -54.5 -127.5t-142.5 -47.5h-169q-23 0 -38.5 15.5t-15.5 38.5v394q0 23 15 38.5t38 15.5zM297 258h-110v-167h110q45 0 71 22t26 60t-26.5 61.5t-70.5 23.5z" />
    <glyph glyph-name="uni044D" unicode="&#x44d;" horiz-adv-x="557" 
d="M253 502q108 0 184 -74t76 -182t-76 -182.5t-184 -74.5q-133 0 -200 101q-9 14 -9 27q0 19 13.5 32.5t32.5 13.5t33 -15q57 -65 128 -65q57 0 99 35.5t53 90.5h-177q-18 0 -30 12t-12 29q0 18 12 29.5t30 11.5h175q-14 51 -54.5 83.5t-95.5 32.5q-71 0 -128 -65
q-14 -14 -33 -14t-32.5 13t-13.5 33q0 13 9 27q67 101 200 101z" />
    <glyph glyph-name="uni044E" unicode="&#x44e;" horiz-adv-x="857" 
d="M550 502q109 0 185.5 -75t76.5 -181q0 -107 -76.5 -182t-185.5 -75q-99 0 -170 63t-83 160h-110v-169q0 -24 -15 -39t-37 -15q-23 0 -38 15.5t-15 38.5v405q0 23 15 38.5t38 15.5q22 0 37 -15.5t15 -38.5v-145h114q19 87 88 143t161 56zM551 86q65 0 109 46t44 114
t-44 113.5t-109 45.5t-108.5 -45.5t-43.5 -114.5q0 -68 43.5 -113.5t108.5 -45.5z" />
    <glyph glyph-name="uni044F" unicode="&#x44f;" horiz-adv-x="569" 
d="M434 491q22 0 38 -15.5t16 -38.5v-394q0 -23 -15 -38.5t-38 -15.5t-38 15.5t-15 38.5v99h-118h-17l-114 -134q-15 -19 -40 -19q-22 0 -37 15t-15 37q0 20 17 37l85 95q-76 47 -76 143q0 79 54 127t143 48h170zM382 233v167h-110q-45 0 -71 -22.5t-26 -60.5t26.5 -61
t70.5 -23h110z" />
    <glyph glyph-name="uni0450" unicode="&#x450;" horiz-adv-x="570" 
d="M237 591l-67 118q-8 15 -8 28q0 23 15 38.5t37 15.5q36 0 50 -31l54 -125q7 -14 7 -24q1 -18 -12 -32t-34 -15q-25 -1 -42 27zM298 502q98 0 163 -64.5t65 -163.5v-5q0 -27 -16 -42.5t-44 -15.5h-314q11 -60 53 -94.5t107 -34.5t115 38q15 10 27 10q19 0 31.5 -12.5
t12.5 -31.5q0 -25 -26 -44q-71 -53 -163 -53q-114 0 -189 73t-75 183q0 109 73 183t180 74zM295 413q-53 0 -91 -33t-50 -87h267q-2 54 -36.5 87t-89.5 33z" />
    <glyph glyph-name="uni0451" unicode="&#x451;" horiz-adv-x="570" 
d="M185 609q-27 0 -47.5 19.5t-20.5 45.5q0 27 20 46.5t48 19.5q29 0 48 -19t19 -47q0 -26 -19.5 -45.5t-47.5 -19.5zM409 609q-27 0 -47.5 19.5t-20.5 45.5q0 27 20 46.5t48 19.5q29 0 48.5 -19t19.5 -47q0 -26 -20 -45.5t-48 -19.5zM298 502q98 0 163 -64.5t65 -163.5v-5
q0 -27 -16 -42.5t-44 -15.5h-314q11 -60 53 -94.5t107 -34.5t115 38q15 10 27 10q19 0 31.5 -12.5t12.5 -31.5q0 -25 -26 -44q-71 -53 -163 -53q-114 0 -189 73t-75 183q0 109 73 183t180 74zM295 413q-53 0 -91 -33t-50 -87h267q-2 54 -36.5 87t-89.5 33z" />
    <glyph glyph-name="uni0452" unicode="&#x452;" horiz-adv-x="589" 
d="M328 481q84 0 133.5 -54t49.5 -142v-305q0 -84 -47.5 -127.5t-128.5 -43.5q-24 0 -34 2q-21 3 -34.5 16t-13.5 32t13.5 32.5t32.5 13.5q3 0 9 -0.5t11 -0.5q86 0 86 85v283q0 50 -29 81t-77 31q-49 0 -81 -31.5t-32 -80.5v-229q0 -23 -15 -38.5t-37 -15.5t-37 15.5
t-15 38.5v523h-41q-20 0 -33 13t-13 32t13 32t33 13h41v51q0 23 14.5 38.5t37.5 15.5q22 0 37 -15.5t15 -38.5v-51h156q20 0 33 -13t13 -32t-13 -32t-33 -13h-156v-146q53 61 142 61z" />
    <glyph glyph-name="uni0453" unicode="&#x453;" horiz-adv-x="448" 
d="M263 564q-21 1 -34 15t-12 32q0 10 7 24l54 125q14 31 50 31q22 0 37 -15.5t15 -38.5q0 -13 -8 -28l-67 -118q-17 -28 -42 -27zM135 -11q-23 0 -38 15.5t-15 38.5v394q0 23 15.5 38.5t38.5 15.5h258q20 0 33.5 -13t13.5 -33q0 -19 -13.5 -32t-33.5 -13h-207v-357
q0 -23 -15 -38.5t-37 -15.5z" />
    <glyph glyph-name="uni0454" unicode="&#x454;" horiz-adv-x="557" 
d="M467 163q19 0 32.5 -13.5t13.5 -32.5q0 -13 -9 -27q-67 -101 -200 -101q-108 0 -184 74.5t-76 182.5t76 182t184 74q133 0 200 -101q9 -14 9 -27q0 -20 -13.5 -33t-32.5 -13t-33 14q-57 65 -128 65q-55 0 -95.5 -32.5t-54.5 -83.5h175q18 0 30 -11.5t12 -29.5
q0 -17 -12 -29t-30 -12h-177q11 -55 53 -90.5t99 -35.5q71 0 128 65q14 15 33 15z" />
    <glyph glyph-name="uni0455" unicode="&#x455;" horiz-adv-x="455" 
d="M228 -11q-109 0 -180 76q-15 13 -15 34q0 19 14 32.5t33 13.5q18 0 33 -14q55 -51 115 -51q34 0 56.5 14t22.5 41q0 22 -16.5 34t-52.5 27l-50 21q-65 27 -96.5 59t-31.5 84q0 66 49 104t124 38q94 0 156 -60q16 -15 16 -35q0 -19 -13 -32t-31 -13q-13 0 -33 15
q-44 34 -97 34q-67 0 -67 -47q0 -19 14.5 -31.5t50.5 -26.5l47 -19q70 -29 102 -62.5t32 -85.5q0 -71 -52 -110.5t-130 -39.5z" />
    <glyph glyph-name="uni0456" unicode="&#x456;" horiz-adv-x="273" 
d="M137 742q29 0 49.5 -20t20.5 -48t-20.5 -48t-49.5 -20t-49.5 20t-20.5 48t20.5 48t49.5 20zM136 -11q-22 0 -37 15.5t-15 38.5v405q0 23 15 38.5t38 15.5q22 0 37 -15.5t15 -38.5v-405q0 -23 -15 -38.5t-38 -15.5z" />
    <glyph glyph-name="uni0457" unicode="&#x457;" horiz-adv-x="273" 
d="M31 735q29 0 48.5 -19t19.5 -47q0 -26 -20 -45.5t-48 -19.5q-26 0 -46.5 19.5t-20.5 45.5q0 28 20.5 47t46.5 19zM242 735q28 0 48 -19t20 -47q0 -26 -20 -45.5t-48 -19.5q-26 0 -46.5 19.5t-20.5 45.5q0 28 20 47t47 19zM137 -11q-22 0 -37 15.5t-15 38.5v405
q0 23 15 38.5t38 15.5q22 0 37 -15.5t15 -38.5v-405q0 -23 -15 -38.5t-38 -15.5z" />
    <glyph glyph-name="uni0458" unicode="&#x458;" horiz-adv-x="273" 
d="M137 742q29 0 49.5 -20t20.5 -48t-20.5 -48t-49.5 -20t-49.5 20t-20.5 48t20.5 48t49.5 20zM17 -191q-27 0 -46 6q-38 10 -38 44q0 19 13.5 32.5t32.5 13.5q3 0 9 -0.5t10 -0.5q41 0 63.5 20t22.5 70v454q0 23 15 38.5t38 15.5q22 0 37 -15.5t15 -38.5v-468
q0 -85 -46 -128t-126 -43z" />
    <glyph glyph-name="uni0459" unicode="&#x459;" horiz-adv-x="856" 
d="M610 349q89 0 143.5 -47.5t54.5 -126.5t-54 -127t-144 -48h-168q-23 0 -38.5 15.5t-15.5 38.5v346h-148v-48q0 -277 -158 -351q-19 -8 -36 -8q-20 0 -34 14t-14 34q0 31 34 46q56 23 79.5 94.5t23.5 220.5v35q0 23 15.5 38.5t38.5 15.5h249q23 0 38.5 -15.5t15.5 -38.5
v-88h118zM603 91q44 0 70.5 22.5t26.5 59.5q0 38 -26.5 61.5t-70.5 23.5h-111v-167h111z" />
    <glyph glyph-name="uni045A" unicode="&#x45a;" horiz-adv-x="867" 
d="M621 336q90 0 144 -45.5t54 -121.5q0 -78 -53.5 -123.5t-144.5 -45.5h-169q-23 0 -38.5 15.5t-15.5 38.5v166h-211v-177q0 -24 -15 -39t-37 -15q-23 0 -38 15.5t-15 38.5v405q0 23 15 38.5t38 15.5q22 0 37 -15.5t15 -38.5v-137h211v137q0 23 15 38.5t38 15.5
q22 0 37 -15.5t15 -38.5v-112h118zM614 91q46 0 71.5 20t25.5 56t-26.5 57t-70.5 21h-111v-154h111z" />
    <glyph glyph-name="uni045B" unicode="&#x45b;" horiz-adv-x="589" 
d="M328 481q83 0 133 -53.5t50 -142.5v-242q0 -24 -15 -39t-38 -15t-38 15.5t-15 38.5v229q0 50 -29.5 81t-76.5 31q-50 0 -81.5 -31.5t-31.5 -80.5v-229q0 -23 -15 -38.5t-37 -15.5t-37 15.5t-15 38.5v523h-41q-20 0 -33 13t-13 32t13 32t33 13h41v51q0 24 14.5 39t37.5 15
q22 0 37 -15.5t15 -38.5v-51h157q19 0 32 -13t13 -32t-13 -32t-32 -13h-157v-146q52 61 142 61z" />
    <glyph glyph-name="uni045C" unicode="&#x45c;" horiz-adv-x="542" 
d="M297 564q-21 1 -34 15t-12 32q0 10 7 24l54 125q14 31 50 31q22 0 37 -15.5t15 -38.5q0 -13 -8 -28l-67 -118q-17 -28 -42 -27zM135 502q22 0 37 -15.5t15 -38.5v-405q0 -23 -15 -38.5t-37 -15.5q-23 0 -38 15.5t-15 38.5v405q0 23 15 38.5t38 15.5zM493 73
q13 -18 13 -35q0 -20 -14.5 -34.5t-35.5 -14.5q-24 0 -37 16l-192 223q-15 19 -15 37q0 21 17 39l174 182q13 16 37 16q21 -1 35 -15t14 -34q0 -22 -15 -37l-147 -152z" />
    <glyph glyph-name="uni045D" unicode="&#x45d;" horiz-adv-x="603" 
d="M244 591l-67 118q-8 15 -8 28q0 23 15 38.5t37 15.5q36 0 50 -31l54 -125q7 -14 7 -24q1 -18 -12 -32t-34 -15q-25 -1 -42 27zM470 502q22 0 37 -15.5t15 -38.5v-405q0 -23 -15 -38.5t-38 -15.5q-22 0 -37 15.5t-15 38.5v272l-235 -299q-23 -27 -48 -27q-22 0 -37 15.5
t-15 38.5v405q0 23 15 38.5t38 15.5q22 0 37 -15.5t15 -38.5v-279l235 305q21 28 48 28z" />
    <glyph glyph-name="uni045E" unicode="&#x45e;" horiz-adv-x="549" 
d="M272 577q-64 0 -112.5 44t-48.5 101q0 19 12 32t30 13q34 0 42 -37q4 -31 26 -50.5t51 -19.5q30 0 51.5 19.5t26.5 50.5q8 37 41 37q18 0 30.5 -13t12.5 -32q0 -59 -48 -102t-114 -43zM474 502q21 0 36 -15.5t15 -35.5q0 -14 -5 -24l-226 -473q-37 -77 -82 -111t-109 -34
q-27 0 -47 6q-32 10 -32 44q0 19 14 32.5t34 13.5q4 0 10.5 -0.5t9.5 -0.5q68 0 102 72l22 47l-182 403q-6 16 -6 25q0 20 15.5 35.5t36.5 15.5q35 0 48 -31l147 -330l151 330q14 31 48 31z" />
    <glyph glyph-name="uni045F" unicode="&#x45f;" horiz-adv-x="574" 
d="M441 502q22 0 37 -15.5t15 -38.5v-394q0 -23 -15.5 -38.5t-38.5 -15.5h-99v-98q0 -23 -15 -38.5t-38 -15.5t-38 15.5t-15 38.5v98h-98q-23 0 -38.5 15.5t-15.5 38.5v394q0 23 15 38.5t38 15.5q22 0 37 -15.5t15 -38.5v-357h201v357q0 23 15 38.5t38 15.5z" />
    <glyph glyph-name="uni0462" unicode="&#x462;" horiz-adv-x="624" 
d="M350 397q103 0 166.5 -55t63.5 -144q0 -90 -63.5 -144t-167.5 -54h-211q-23 0 -39 15.5t-16 39.5v436h-40q-20 0 -33 13t-13 32t13 31.5t33 12.5h40v51q0 24 15 40t38 16t38 -16t15 -39v-52h231q19 0 32 -12.5t13 -31.5t-13 -32t-32 -13h-231v-94h161zM350 94
q55 0 88 28.5t33 75.5t-33 76t-88 29h-161v-209h161z" />
    <glyph glyph-name="uni0463" unicode="&#x463;" horiz-adv-x="550" 
d="M136 0q-23 0 -38.5 15.5t-15.5 38.5v359h-41q-20 0 -33 12.5t-13 31.5t13 32t33 13h41v197q0 24 14.5 39t37.5 15q22 0 37 -15.5t15 -38.5v-197h162q20 0 33 -13t13 -32t-13 -31.5t-33 -12.5h-162v-77h119q88 0 142.5 -46t54.5 -120q0 -76 -54 -123t-143 -47h-169z
M186 91h111q46 0 71.5 20.5t25.5 57.5t-25.5 58t-71.5 21h-111v-157z" />
    </font>
</defs>
</svg>
